G04 #@! TF.GenerationSoftware,KiCad,Pcbnew,(5.0.1-3-g963ef8bb5)*
G04 #@! TF.CreationDate,2019-07-31T15:24:12+02:00*
G04 #@! TF.ProjectId,StudIOT,53747564494F542E6B696361645F7063,rev?*
G04 #@! TF.SameCoordinates,Original*
G04 #@! TF.FileFunction,Legend,Top*
G04 #@! TF.FilePolarity,Positive*
%FSLAX46Y46*%
G04 Gerber Fmt 4.6, Leading zero omitted, Abs format (unit mm)*
G04 Created by KiCad (PCBNEW (5.0.1-3-g963ef8bb5)) date 2019 July 31, Wednesday 15:24:12*
%MOMM*%
%LPD*%
G01*
G04 APERTURE LIST*
%ADD10C,0.200000*%
%ADD11C,0.250000*%
%ADD12C,0.110000*%
%ADD13C,0.300000*%
%ADD14C,0.150000*%
%ADD15C,0.120000*%
%ADD16C,0.010000*%
G04 APERTURE END LIST*
D10*
X123795238Y-113571428D02*
X123747619Y-113666666D01*
X123747619Y-113857142D01*
X123795238Y-113952380D01*
X123890476Y-114000000D01*
X123938095Y-114000000D01*
X124033333Y-113952380D01*
X124080952Y-113857142D01*
X124080952Y-113714285D01*
X124128571Y-113619047D01*
X124223809Y-113571428D01*
X124271428Y-113571428D01*
X124366666Y-113619047D01*
X124414285Y-113714285D01*
X124414285Y-113857142D01*
X124366666Y-113952380D01*
X124414285Y-114285714D02*
X124414285Y-114666666D01*
X124747619Y-114428571D02*
X123890476Y-114428571D01*
X123795238Y-114476190D01*
X123747619Y-114571428D01*
X123747619Y-114666666D01*
X124414285Y-115428571D02*
X123747619Y-115428571D01*
X124414285Y-115000000D02*
X123890476Y-115000000D01*
X123795238Y-115047619D01*
X123747619Y-115142857D01*
X123747619Y-115285714D01*
X123795238Y-115380952D01*
X123842857Y-115428571D01*
X123747619Y-116333333D02*
X124747619Y-116333333D01*
X123795238Y-116333333D02*
X123747619Y-116238095D01*
X123747619Y-116047619D01*
X123795238Y-115952380D01*
X123842857Y-115904761D01*
X123938095Y-115857142D01*
X124223809Y-115857142D01*
X124319047Y-115904761D01*
X124366666Y-115952380D01*
X124414285Y-116047619D01*
X124414285Y-116238095D01*
X124366666Y-116333333D01*
X123747619Y-116809523D02*
X124747619Y-116809523D01*
X124747619Y-117476190D02*
X124747619Y-117666666D01*
X124700000Y-117761904D01*
X124604761Y-117857142D01*
X124414285Y-117904761D01*
X124080952Y-117904761D01*
X123890476Y-117857142D01*
X123795238Y-117761904D01*
X123747619Y-117666666D01*
X123747619Y-117476190D01*
X123795238Y-117380952D01*
X123890476Y-117285714D01*
X124080952Y-117238095D01*
X124414285Y-117238095D01*
X124604761Y-117285714D01*
X124700000Y-117380952D01*
X124747619Y-117476190D01*
X124747619Y-118190476D02*
X124747619Y-118761904D01*
X123747619Y-118476190D02*
X124747619Y-118476190D01*
X124747619Y-119000000D02*
X124747619Y-119619047D01*
X124366666Y-119285714D01*
X124366666Y-119428571D01*
X124319047Y-119523809D01*
X124271428Y-119571428D01*
X124176190Y-119619047D01*
X123938095Y-119619047D01*
X123842857Y-119571428D01*
X123795238Y-119523809D01*
X123747619Y-119428571D01*
X123747619Y-119142857D01*
X123795238Y-119047619D01*
X123842857Y-119000000D01*
X124747619Y-119904761D02*
X123747619Y-120238095D01*
X124747619Y-120571428D01*
X124747619Y-120809523D02*
X124747619Y-121428571D01*
X124366666Y-121095238D01*
X124366666Y-121238095D01*
X124319047Y-121333333D01*
X124271428Y-121380952D01*
X124176190Y-121428571D01*
X123938095Y-121428571D01*
X123842857Y-121380952D01*
X123795238Y-121333333D01*
X123747619Y-121238095D01*
X123747619Y-120952380D01*
X123795238Y-120857142D01*
X123842857Y-120809523D01*
D11*
X95066666Y-120666666D02*
X95200000Y-120733333D01*
X95466666Y-120733333D01*
X95600000Y-120666666D01*
X95666666Y-120533333D01*
X95666666Y-120466666D01*
X95600000Y-120333333D01*
X95466666Y-120266666D01*
X95266666Y-120266666D01*
X95133333Y-120200000D01*
X95066666Y-120066666D01*
X95066666Y-120000000D01*
X95133333Y-119866666D01*
X95266666Y-119800000D01*
X95466666Y-119800000D01*
X95600000Y-119866666D01*
X96066666Y-119800000D02*
X96600000Y-119800000D01*
X96266666Y-119333333D02*
X96266666Y-120533333D01*
X96333333Y-120666666D01*
X96466666Y-120733333D01*
X96600000Y-120733333D01*
X97666666Y-119800000D02*
X97666666Y-120733333D01*
X97066666Y-119800000D02*
X97066666Y-120533333D01*
X97133333Y-120666666D01*
X97266666Y-120733333D01*
X97466666Y-120733333D01*
X97600000Y-120666666D01*
X97666666Y-120600000D01*
X98933333Y-120733333D02*
X98933333Y-119333333D01*
X98933333Y-120666666D02*
X98800000Y-120733333D01*
X98533333Y-120733333D01*
X98400000Y-120666666D01*
X98333333Y-120600000D01*
X98266666Y-120466666D01*
X98266666Y-120066666D01*
X98333333Y-119933333D01*
X98400000Y-119866666D01*
X98533333Y-119800000D01*
X98800000Y-119800000D01*
X98933333Y-119866666D01*
X99600000Y-120733333D02*
X99600000Y-119333333D01*
X100533333Y-119333333D02*
X100800000Y-119333333D01*
X100933333Y-119400000D01*
X101066666Y-119533333D01*
X101133333Y-119800000D01*
X101133333Y-120266666D01*
X101066666Y-120533333D01*
X100933333Y-120666666D01*
X100800000Y-120733333D01*
X100533333Y-120733333D01*
X100400000Y-120666666D01*
X100266666Y-120533333D01*
X100200000Y-120266666D01*
X100200000Y-119800000D01*
X100266666Y-119533333D01*
X100400000Y-119400000D01*
X100533333Y-119333333D01*
X101533333Y-119333333D02*
X102333333Y-119333333D01*
X101933333Y-120733333D02*
X101933333Y-119333333D01*
X103466666Y-119333333D02*
X102800000Y-119333333D01*
X102733333Y-120000000D01*
X102800000Y-119933333D01*
X102933333Y-119866666D01*
X103266666Y-119866666D01*
X103400000Y-119933333D01*
X103466666Y-120000000D01*
X103533333Y-120133333D01*
X103533333Y-120466666D01*
X103466666Y-120600000D01*
X103400000Y-120666666D01*
X103266666Y-120733333D01*
X102933333Y-120733333D01*
X102800000Y-120666666D01*
X102733333Y-120600000D01*
X103933333Y-119333333D02*
X104400000Y-120733333D01*
X104866666Y-119333333D01*
D12*
X105700000Y-115707142D02*
X105671428Y-115764285D01*
X105671428Y-115850000D01*
X105700000Y-115935714D01*
X105757142Y-115992857D01*
X105814285Y-116021428D01*
X105928571Y-116050000D01*
X106014285Y-116050000D01*
X106128571Y-116021428D01*
X106185714Y-115992857D01*
X106242857Y-115935714D01*
X106271428Y-115850000D01*
X106271428Y-115792857D01*
X106242857Y-115707142D01*
X106214285Y-115678571D01*
X106014285Y-115678571D01*
X106014285Y-115792857D01*
X106271428Y-115421428D02*
X105671428Y-115421428D01*
X106271428Y-115078571D01*
X105671428Y-115078571D01*
X106271428Y-114792857D02*
X105671428Y-114792857D01*
X105671428Y-114650000D01*
X105700000Y-114564285D01*
X105757142Y-114507142D01*
X105814285Y-114478571D01*
X105928571Y-114450000D01*
X106014285Y-114450000D01*
X106128571Y-114478571D01*
X106185714Y-114507142D01*
X106242857Y-114564285D01*
X106271428Y-114650000D01*
X106271428Y-114792857D01*
X106100000Y-88221428D02*
X106100000Y-87935714D01*
X106271428Y-88278571D02*
X105671428Y-88078571D01*
X106271428Y-87878571D01*
X106271428Y-87335714D02*
X105985714Y-87535714D01*
X106271428Y-87678571D02*
X105671428Y-87678571D01*
X105671428Y-87450000D01*
X105700000Y-87392857D01*
X105728571Y-87364285D01*
X105785714Y-87335714D01*
X105871428Y-87335714D01*
X105928571Y-87364285D01*
X105957142Y-87392857D01*
X105985714Y-87450000D01*
X105985714Y-87678571D01*
X105957142Y-87078571D02*
X105957142Y-86878571D01*
X106271428Y-86792857D02*
X106271428Y-87078571D01*
X105671428Y-87078571D01*
X105671428Y-86792857D01*
X105957142Y-86335714D02*
X105957142Y-86535714D01*
X106271428Y-86535714D02*
X105671428Y-86535714D01*
X105671428Y-86250000D01*
X106100000Y-107978571D02*
X106100000Y-107692857D01*
X106271428Y-108035714D02*
X105671428Y-107835714D01*
X106271428Y-107635714D01*
X105671428Y-107492857D02*
X105671428Y-107092857D01*
X106271428Y-107350000D01*
X106100000Y-97878571D02*
X106100000Y-97592857D01*
X106271428Y-97935714D02*
X105671428Y-97735714D01*
X106271428Y-97535714D01*
X105671428Y-97392857D02*
X105671428Y-97021428D01*
X105900000Y-97221428D01*
X105900000Y-97135714D01*
X105928571Y-97078571D01*
X105957142Y-97050000D01*
X106014285Y-97021428D01*
X106157142Y-97021428D01*
X106214285Y-97050000D01*
X106242857Y-97078571D01*
X106271428Y-97135714D01*
X106271428Y-97307142D01*
X106242857Y-97364285D01*
X106214285Y-97392857D01*
X106100000Y-95278571D02*
X106100000Y-94992857D01*
X106271428Y-95335714D02*
X105671428Y-95135714D01*
X106271428Y-94935714D01*
X105728571Y-94764285D02*
X105700000Y-94735714D01*
X105671428Y-94678571D01*
X105671428Y-94535714D01*
X105700000Y-94478571D01*
X105728571Y-94450000D01*
X105785714Y-94421428D01*
X105842857Y-94421428D01*
X105928571Y-94450000D01*
X106271428Y-94792857D01*
X106271428Y-94421428D01*
X106242857Y-100678571D02*
X106271428Y-100592857D01*
X106271428Y-100450000D01*
X106242857Y-100392857D01*
X106214285Y-100364285D01*
X106157142Y-100335714D01*
X106100000Y-100335714D01*
X106042857Y-100364285D01*
X106014285Y-100392857D01*
X105985714Y-100450000D01*
X105957142Y-100564285D01*
X105928571Y-100621428D01*
X105900000Y-100650000D01*
X105842857Y-100678571D01*
X105785714Y-100678571D01*
X105728571Y-100650000D01*
X105700000Y-100621428D01*
X105671428Y-100564285D01*
X105671428Y-100421428D01*
X105700000Y-100335714D01*
X106271428Y-100078571D02*
X105671428Y-100078571D01*
X105671428Y-99935714D01*
X105700000Y-99850000D01*
X105757142Y-99792857D01*
X105814285Y-99764285D01*
X105928571Y-99735714D01*
X106014285Y-99735714D01*
X106128571Y-99764285D01*
X106185714Y-99792857D01*
X106242857Y-99850000D01*
X106271428Y-99935714D01*
X106271428Y-100078571D01*
X106100000Y-99507142D02*
X106100000Y-99221428D01*
X106271428Y-99564285D02*
X105671428Y-99364285D01*
X106271428Y-99164285D01*
X106100000Y-90178571D02*
X106100000Y-89892857D01*
X106271428Y-90235714D02*
X105671428Y-90035714D01*
X106271428Y-89835714D01*
X105671428Y-89521428D02*
X105671428Y-89464285D01*
X105700000Y-89407142D01*
X105728571Y-89378571D01*
X105785714Y-89350000D01*
X105900000Y-89321428D01*
X106042857Y-89321428D01*
X106157142Y-89350000D01*
X106214285Y-89378571D01*
X106242857Y-89407142D01*
X106271428Y-89464285D01*
X106271428Y-89521428D01*
X106242857Y-89578571D01*
X106214285Y-89607142D01*
X106157142Y-89635714D01*
X106042857Y-89664285D01*
X105900000Y-89664285D01*
X105785714Y-89635714D01*
X105728571Y-89607142D01*
X105700000Y-89578571D01*
X105671428Y-89521428D01*
X105671428Y-118407142D02*
X106271428Y-118207142D01*
X105671428Y-118007142D01*
X106271428Y-117807142D02*
X105671428Y-117807142D01*
X106271428Y-117521428D02*
X105671428Y-117521428D01*
X106271428Y-117178571D01*
X105671428Y-117178571D01*
X105425000Y-113464285D02*
X105425000Y-112864285D01*
X106271428Y-112978571D02*
X105985714Y-113178571D01*
X106271428Y-113321428D02*
X105671428Y-113321428D01*
X105671428Y-113092857D01*
X105700000Y-113035714D01*
X105728571Y-113007142D01*
X105785714Y-112978571D01*
X105871428Y-112978571D01*
X105928571Y-113007142D01*
X105957142Y-113035714D01*
X105985714Y-113092857D01*
X105985714Y-113321428D01*
X105425000Y-112864285D02*
X105425000Y-112292857D01*
X106242857Y-112750000D02*
X106271428Y-112664285D01*
X106271428Y-112521428D01*
X106242857Y-112464285D01*
X106214285Y-112435714D01*
X106157142Y-112407142D01*
X106100000Y-112407142D01*
X106042857Y-112435714D01*
X106014285Y-112464285D01*
X105985714Y-112521428D01*
X105957142Y-112635714D01*
X105928571Y-112692857D01*
X105900000Y-112721428D01*
X105842857Y-112750000D01*
X105785714Y-112750000D01*
X105728571Y-112721428D01*
X105700000Y-112692857D01*
X105671428Y-112635714D01*
X105671428Y-112492857D01*
X105700000Y-112407142D01*
X105425000Y-112292857D02*
X105425000Y-111835714D01*
X105671428Y-112235714D02*
X105671428Y-111892857D01*
X106271428Y-112064285D02*
X105671428Y-112064285D01*
X106242857Y-103164285D02*
X106271428Y-103078571D01*
X106271428Y-102935714D01*
X106242857Y-102878571D01*
X106214285Y-102850000D01*
X106157142Y-102821428D01*
X106100000Y-102821428D01*
X106042857Y-102850000D01*
X106014285Y-102878571D01*
X105985714Y-102935714D01*
X105957142Y-103050000D01*
X105928571Y-103107142D01*
X105900000Y-103135714D01*
X105842857Y-103164285D01*
X105785714Y-103164285D01*
X105728571Y-103135714D01*
X105700000Y-103107142D01*
X105671428Y-103050000D01*
X105671428Y-102907142D01*
X105700000Y-102821428D01*
X106214285Y-102221428D02*
X106242857Y-102250000D01*
X106271428Y-102335714D01*
X106271428Y-102392857D01*
X106242857Y-102478571D01*
X106185714Y-102535714D01*
X106128571Y-102564285D01*
X106014285Y-102592857D01*
X105928571Y-102592857D01*
X105814285Y-102564285D01*
X105757142Y-102535714D01*
X105700000Y-102478571D01*
X105671428Y-102392857D01*
X105671428Y-102335714D01*
X105700000Y-102250000D01*
X105728571Y-102221428D01*
X106271428Y-101678571D02*
X106271428Y-101964285D01*
X105671428Y-101964285D01*
X106100000Y-92778571D02*
X106100000Y-92492857D01*
X106271428Y-92835714D02*
X105671428Y-92635714D01*
X106271428Y-92435714D01*
X106271428Y-91921428D02*
X106271428Y-92264285D01*
X106271428Y-92092857D02*
X105671428Y-92092857D01*
X105757142Y-92150000D01*
X105814285Y-92207142D01*
X105842857Y-92264285D01*
X105671428Y-85492857D02*
X105671428Y-85121428D01*
X105900000Y-85321428D01*
X105900000Y-85235714D01*
X105928571Y-85178571D01*
X105957142Y-85150000D01*
X106014285Y-85121428D01*
X106157142Y-85121428D01*
X106214285Y-85150000D01*
X106242857Y-85178571D01*
X106271428Y-85235714D01*
X106271428Y-85407142D01*
X106242857Y-85464285D01*
X106214285Y-85492857D01*
X105671428Y-84950000D02*
X106271428Y-84750000D01*
X105671428Y-84550000D01*
X105671428Y-84407142D02*
X105671428Y-84035714D01*
X105900000Y-84235714D01*
X105900000Y-84150000D01*
X105928571Y-84092857D01*
X105957142Y-84064285D01*
X106014285Y-84035714D01*
X106157142Y-84035714D01*
X106214285Y-84064285D01*
X106242857Y-84092857D01*
X106271428Y-84150000D01*
X106271428Y-84321428D01*
X106242857Y-84378571D01*
X106214285Y-84407142D01*
X106100000Y-105478571D02*
X106100000Y-105192857D01*
X106271428Y-105535714D02*
X105671428Y-105335714D01*
X106271428Y-105135714D01*
X105671428Y-104678571D02*
X105671428Y-104792857D01*
X105700000Y-104850000D01*
X105728571Y-104878571D01*
X105814285Y-104935714D01*
X105928571Y-104964285D01*
X106157142Y-104964285D01*
X106214285Y-104935714D01*
X106242857Y-104907142D01*
X106271428Y-104850000D01*
X106271428Y-104735714D01*
X106242857Y-104678571D01*
X106214285Y-104650000D01*
X106157142Y-104621428D01*
X106014285Y-104621428D01*
X105957142Y-104650000D01*
X105928571Y-104678571D01*
X105900000Y-104735714D01*
X105900000Y-104850000D01*
X105928571Y-104907142D01*
X105957142Y-104935714D01*
X106014285Y-104964285D01*
X105671428Y-111250000D02*
X106271428Y-111050000D01*
X105671428Y-110850000D01*
X105671428Y-110650000D02*
X106157142Y-110650000D01*
X106214285Y-110621428D01*
X106242857Y-110592857D01*
X106271428Y-110535714D01*
X106271428Y-110421428D01*
X106242857Y-110364285D01*
X106214285Y-110335714D01*
X106157142Y-110307142D01*
X105671428Y-110307142D01*
X106242857Y-110050000D02*
X106271428Y-109964285D01*
X106271428Y-109821428D01*
X106242857Y-109764285D01*
X106214285Y-109735714D01*
X106157142Y-109707142D01*
X106100000Y-109707142D01*
X106042857Y-109735714D01*
X106014285Y-109764285D01*
X105985714Y-109821428D01*
X105957142Y-109935714D01*
X105928571Y-109992857D01*
X105900000Y-110021428D01*
X105842857Y-110050000D01*
X105785714Y-110050000D01*
X105728571Y-110021428D01*
X105700000Y-109992857D01*
X105671428Y-109935714D01*
X105671428Y-109792857D01*
X105700000Y-109707142D01*
X105957142Y-109250000D02*
X105985714Y-109164285D01*
X106014285Y-109135714D01*
X106071428Y-109107142D01*
X106157142Y-109107142D01*
X106214285Y-109135714D01*
X106242857Y-109164285D01*
X106271428Y-109221428D01*
X106271428Y-109450000D01*
X105671428Y-109450000D01*
X105671428Y-109250000D01*
X105700000Y-109192857D01*
X105728571Y-109164285D01*
X105785714Y-109135714D01*
X105842857Y-109135714D01*
X105900000Y-109164285D01*
X105928571Y-109192857D01*
X105957142Y-109250000D01*
X105957142Y-109450000D01*
X106271428Y-82978571D02*
X105671428Y-82978571D01*
X105671428Y-82835714D01*
X105700000Y-82750000D01*
X105757142Y-82692857D01*
X105814285Y-82664285D01*
X105928571Y-82635714D01*
X106014285Y-82635714D01*
X106128571Y-82664285D01*
X106185714Y-82692857D01*
X106242857Y-82750000D01*
X106271428Y-82835714D01*
X106271428Y-82978571D01*
X106271428Y-82064285D02*
X106271428Y-82407142D01*
X106271428Y-82235714D02*
X105671428Y-82235714D01*
X105757142Y-82292857D01*
X105814285Y-82350000D01*
X105842857Y-82407142D01*
X105671428Y-81864285D02*
X105671428Y-81492857D01*
X105900000Y-81692857D01*
X105900000Y-81607142D01*
X105928571Y-81550000D01*
X105957142Y-81521428D01*
X106014285Y-81492857D01*
X106157142Y-81492857D01*
X106214285Y-81521428D01*
X106242857Y-81550000D01*
X106271428Y-81607142D01*
X106271428Y-81778571D01*
X106242857Y-81835714D01*
X106214285Y-81864285D01*
X94575000Y-111935714D02*
X94575000Y-112535714D01*
X93728571Y-112421428D02*
X94014285Y-112221428D01*
X93728571Y-112078571D02*
X94328571Y-112078571D01*
X94328571Y-112307142D01*
X94300000Y-112364285D01*
X94271428Y-112392857D01*
X94214285Y-112421428D01*
X94128571Y-112421428D01*
X94071428Y-112392857D01*
X94042857Y-112364285D01*
X94014285Y-112307142D01*
X94014285Y-112078571D01*
X94575000Y-112535714D02*
X94575000Y-113107142D01*
X93757142Y-112650000D02*
X93728571Y-112735714D01*
X93728571Y-112878571D01*
X93757142Y-112935714D01*
X93785714Y-112964285D01*
X93842857Y-112992857D01*
X93900000Y-112992857D01*
X93957142Y-112964285D01*
X93985714Y-112935714D01*
X94014285Y-112878571D01*
X94042857Y-112764285D01*
X94071428Y-112707142D01*
X94100000Y-112678571D01*
X94157142Y-112650000D01*
X94214285Y-112650000D01*
X94271428Y-112678571D01*
X94300000Y-112707142D01*
X94328571Y-112764285D01*
X94328571Y-112907142D01*
X94300000Y-112992857D01*
X94575000Y-113107142D02*
X94575000Y-113564285D01*
X94328571Y-113164285D02*
X94328571Y-113507142D01*
X93728571Y-113335714D02*
X94328571Y-113335714D01*
X94328571Y-117292857D02*
X94328571Y-117635714D01*
X93728571Y-117464285D02*
X94328571Y-117464285D01*
X94328571Y-117778571D02*
X93728571Y-118178571D01*
X94328571Y-118178571D02*
X93728571Y-117778571D01*
X93728571Y-102107142D02*
X94328571Y-102107142D01*
X94328571Y-102250000D01*
X94300000Y-102335714D01*
X94242857Y-102392857D01*
X94185714Y-102421428D01*
X94071428Y-102450000D01*
X93985714Y-102450000D01*
X93871428Y-102421428D01*
X93814285Y-102392857D01*
X93757142Y-102335714D01*
X93728571Y-102250000D01*
X93728571Y-102107142D01*
X94128571Y-102964285D02*
X93728571Y-102964285D01*
X94357142Y-102821428D02*
X93928571Y-102678571D01*
X93928571Y-103050000D01*
X93728571Y-99328571D02*
X94328571Y-99328571D01*
X94328571Y-99471428D01*
X94300000Y-99557142D01*
X94242857Y-99614285D01*
X94185714Y-99642857D01*
X94071428Y-99671428D01*
X93985714Y-99671428D01*
X93871428Y-99642857D01*
X93814285Y-99614285D01*
X93757142Y-99557142D01*
X93728571Y-99471428D01*
X93728571Y-99328571D01*
X94328571Y-100214285D02*
X94328571Y-99928571D01*
X94042857Y-99900000D01*
X94071428Y-99928571D01*
X94100000Y-99985714D01*
X94100000Y-100128571D01*
X94071428Y-100185714D01*
X94042857Y-100214285D01*
X93985714Y-100242857D01*
X93842857Y-100242857D01*
X93785714Y-100214285D01*
X93757142Y-100185714D01*
X93728571Y-100128571D01*
X93728571Y-99985714D01*
X93757142Y-99928571D01*
X93785714Y-99900000D01*
X94328571Y-100585714D02*
X94185714Y-100585714D01*
X94242857Y-100442857D02*
X94185714Y-100585714D01*
X94242857Y-100728571D01*
X94071428Y-100500000D02*
X94185714Y-100585714D01*
X94071428Y-100671428D01*
X93728571Y-86342857D02*
X94328571Y-86342857D01*
X94328571Y-86485714D01*
X94300000Y-86571428D01*
X94242857Y-86628571D01*
X94185714Y-86657142D01*
X94071428Y-86685714D01*
X93985714Y-86685714D01*
X93871428Y-86657142D01*
X93814285Y-86628571D01*
X93757142Y-86571428D01*
X93728571Y-86485714D01*
X93728571Y-86342857D01*
X93728571Y-87257142D02*
X93728571Y-86914285D01*
X93728571Y-87085714D02*
X94328571Y-87085714D01*
X94242857Y-87028571D01*
X94185714Y-86971428D01*
X94157142Y-86914285D01*
X94328571Y-87628571D02*
X94328571Y-87685714D01*
X94300000Y-87742857D01*
X94271428Y-87771428D01*
X94214285Y-87800000D01*
X94100000Y-87828571D01*
X93957142Y-87828571D01*
X93842857Y-87800000D01*
X93785714Y-87771428D01*
X93757142Y-87742857D01*
X93728571Y-87685714D01*
X93728571Y-87628571D01*
X93757142Y-87571428D01*
X93785714Y-87542857D01*
X93842857Y-87514285D01*
X93957142Y-87485714D01*
X94100000Y-87485714D01*
X94214285Y-87514285D01*
X94271428Y-87542857D01*
X94300000Y-87571428D01*
X94328571Y-87628571D01*
X94328571Y-88171428D02*
X94185714Y-88171428D01*
X94242857Y-88028571D02*
X94185714Y-88171428D01*
X94242857Y-88314285D01*
X94071428Y-88085714D02*
X94185714Y-88171428D01*
X94071428Y-88257142D01*
X94300000Y-109792857D02*
X94328571Y-109735714D01*
X94328571Y-109650000D01*
X94300000Y-109564285D01*
X94242857Y-109507142D01*
X94185714Y-109478571D01*
X94071428Y-109450000D01*
X93985714Y-109450000D01*
X93871428Y-109478571D01*
X93814285Y-109507142D01*
X93757142Y-109564285D01*
X93728571Y-109650000D01*
X93728571Y-109707142D01*
X93757142Y-109792857D01*
X93785714Y-109821428D01*
X93985714Y-109821428D01*
X93985714Y-109707142D01*
X93728571Y-110078571D02*
X94328571Y-110078571D01*
X93728571Y-110421428D01*
X94328571Y-110421428D01*
X93728571Y-110707142D02*
X94328571Y-110707142D01*
X94328571Y-110850000D01*
X94300000Y-110935714D01*
X94242857Y-110992857D01*
X94185714Y-111021428D01*
X94071428Y-111050000D01*
X93985714Y-111050000D01*
X93871428Y-111021428D01*
X93814285Y-110992857D01*
X93757142Y-110935714D01*
X93728571Y-110850000D01*
X93728571Y-110707142D01*
X93728571Y-81521428D02*
X94328571Y-81521428D01*
X94328571Y-81664285D01*
X94300000Y-81750000D01*
X94242857Y-81807142D01*
X94185714Y-81835714D01*
X94071428Y-81864285D01*
X93985714Y-81864285D01*
X93871428Y-81835714D01*
X93814285Y-81807142D01*
X93757142Y-81750000D01*
X93728571Y-81664285D01*
X93728571Y-81521428D01*
X93728571Y-82435714D02*
X93728571Y-82092857D01*
X93728571Y-82264285D02*
X94328571Y-82264285D01*
X94242857Y-82207142D01*
X94185714Y-82150000D01*
X94157142Y-82092857D01*
X94271428Y-82664285D02*
X94300000Y-82692857D01*
X94328571Y-82750000D01*
X94328571Y-82892857D01*
X94300000Y-82950000D01*
X94271428Y-82978571D01*
X94214285Y-83007142D01*
X94157142Y-83007142D01*
X94071428Y-82978571D01*
X93728571Y-82635714D01*
X93728571Y-83007142D01*
X93728571Y-91907142D02*
X94328571Y-91907142D01*
X94328571Y-92050000D01*
X94300000Y-92135714D01*
X94242857Y-92192857D01*
X94185714Y-92221428D01*
X94071428Y-92250000D01*
X93985714Y-92250000D01*
X93871428Y-92221428D01*
X93814285Y-92192857D01*
X93757142Y-92135714D01*
X93728571Y-92050000D01*
X93728571Y-91907142D01*
X94071428Y-92592857D02*
X94100000Y-92535714D01*
X94128571Y-92507142D01*
X94185714Y-92478571D01*
X94214285Y-92478571D01*
X94271428Y-92507142D01*
X94300000Y-92535714D01*
X94328571Y-92592857D01*
X94328571Y-92707142D01*
X94300000Y-92764285D01*
X94271428Y-92792857D01*
X94214285Y-92821428D01*
X94185714Y-92821428D01*
X94128571Y-92792857D01*
X94100000Y-92764285D01*
X94071428Y-92707142D01*
X94071428Y-92592857D01*
X94042857Y-92535714D01*
X94014285Y-92507142D01*
X93957142Y-92478571D01*
X93842857Y-92478571D01*
X93785714Y-92507142D01*
X93757142Y-92535714D01*
X93728571Y-92592857D01*
X93728571Y-92707142D01*
X93757142Y-92764285D01*
X93785714Y-92792857D01*
X93842857Y-92821428D01*
X93957142Y-92821428D01*
X94014285Y-92792857D01*
X94042857Y-92764285D01*
X94071428Y-92707142D01*
X93728571Y-89278571D02*
X94328571Y-89278571D01*
X94328571Y-89421428D01*
X94300000Y-89507142D01*
X94242857Y-89564285D01*
X94185714Y-89592857D01*
X94071428Y-89621428D01*
X93985714Y-89621428D01*
X93871428Y-89592857D01*
X93814285Y-89564285D01*
X93757142Y-89507142D01*
X93728571Y-89421428D01*
X93728571Y-89278571D01*
X93728571Y-89907142D02*
X93728571Y-90021428D01*
X93757142Y-90078571D01*
X93785714Y-90107142D01*
X93871428Y-90164285D01*
X93985714Y-90192857D01*
X94214285Y-90192857D01*
X94271428Y-90164285D01*
X94300000Y-90135714D01*
X94328571Y-90078571D01*
X94328571Y-89964285D01*
X94300000Y-89907142D01*
X94271428Y-89878571D01*
X94214285Y-89850000D01*
X94071428Y-89850000D01*
X94014285Y-89878571D01*
X93985714Y-89907142D01*
X93957142Y-89964285D01*
X93957142Y-90078571D01*
X93985714Y-90135714D01*
X94014285Y-90164285D01*
X94071428Y-90192857D01*
X94328571Y-90535714D02*
X94185714Y-90535714D01*
X94242857Y-90392857D02*
X94185714Y-90535714D01*
X94242857Y-90678571D01*
X94071428Y-90450000D02*
X94185714Y-90535714D01*
X94071428Y-90621428D01*
X93728571Y-104478571D02*
X94328571Y-104478571D01*
X94328571Y-104621428D01*
X94300000Y-104707142D01*
X94242857Y-104764285D01*
X94185714Y-104792857D01*
X94071428Y-104821428D01*
X93985714Y-104821428D01*
X93871428Y-104792857D01*
X93814285Y-104764285D01*
X93757142Y-104707142D01*
X93728571Y-104621428D01*
X93728571Y-104478571D01*
X94328571Y-105021428D02*
X94328571Y-105392857D01*
X94100000Y-105192857D01*
X94100000Y-105278571D01*
X94071428Y-105335714D01*
X94042857Y-105364285D01*
X93985714Y-105392857D01*
X93842857Y-105392857D01*
X93785714Y-105364285D01*
X93757142Y-105335714D01*
X93728571Y-105278571D01*
X93728571Y-105107142D01*
X93757142Y-105050000D01*
X93785714Y-105021428D01*
X94328571Y-105735714D02*
X94185714Y-105735714D01*
X94242857Y-105592857D02*
X94185714Y-105735714D01*
X94242857Y-105878571D01*
X94071428Y-105650000D02*
X94185714Y-105735714D01*
X94071428Y-105821428D01*
X93728571Y-107207142D02*
X94328571Y-107207142D01*
X94328571Y-107350000D01*
X94300000Y-107435714D01*
X94242857Y-107492857D01*
X94185714Y-107521428D01*
X94071428Y-107550000D01*
X93985714Y-107550000D01*
X93871428Y-107521428D01*
X93814285Y-107492857D01*
X93757142Y-107435714D01*
X93728571Y-107350000D01*
X93728571Y-107207142D01*
X94271428Y-107778571D02*
X94300000Y-107807142D01*
X94328571Y-107864285D01*
X94328571Y-108007142D01*
X94300000Y-108064285D01*
X94271428Y-108092857D01*
X94214285Y-108121428D01*
X94157142Y-108121428D01*
X94071428Y-108092857D01*
X93728571Y-107750000D01*
X93728571Y-108121428D01*
X93728571Y-94507142D02*
X94328571Y-94507142D01*
X94328571Y-94650000D01*
X94300000Y-94735714D01*
X94242857Y-94792857D01*
X94185714Y-94821428D01*
X94071428Y-94850000D01*
X93985714Y-94850000D01*
X93871428Y-94821428D01*
X93814285Y-94792857D01*
X93757142Y-94735714D01*
X93728571Y-94650000D01*
X93728571Y-94507142D01*
X94328571Y-95050000D02*
X94328571Y-95450000D01*
X93728571Y-95192857D01*
X93728571Y-83971428D02*
X94328571Y-83971428D01*
X94328571Y-84114285D01*
X94300000Y-84200000D01*
X94242857Y-84257142D01*
X94185714Y-84285714D01*
X94071428Y-84314285D01*
X93985714Y-84314285D01*
X93871428Y-84285714D01*
X93814285Y-84257142D01*
X93757142Y-84200000D01*
X93728571Y-84114285D01*
X93728571Y-83971428D01*
X93728571Y-84885714D02*
X93728571Y-84542857D01*
X93728571Y-84714285D02*
X94328571Y-84714285D01*
X94242857Y-84657142D01*
X94185714Y-84600000D01*
X94157142Y-84542857D01*
X93728571Y-85457142D02*
X93728571Y-85114285D01*
X93728571Y-85285714D02*
X94328571Y-85285714D01*
X94242857Y-85228571D01*
X94185714Y-85171428D01*
X94157142Y-85114285D01*
X93728571Y-115250000D02*
X94014285Y-115050000D01*
X93728571Y-114907142D02*
X94328571Y-114907142D01*
X94328571Y-115135714D01*
X94300000Y-115192857D01*
X94271428Y-115221428D01*
X94214285Y-115250000D01*
X94128571Y-115250000D01*
X94071428Y-115221428D01*
X94042857Y-115192857D01*
X94014285Y-115135714D01*
X94014285Y-114907142D01*
X94328571Y-115450000D02*
X93728571Y-115850000D01*
X94328571Y-115850000D02*
X93728571Y-115450000D01*
X93728571Y-96828571D02*
X94328571Y-96828571D01*
X94328571Y-96971428D01*
X94300000Y-97057142D01*
X94242857Y-97114285D01*
X94185714Y-97142857D01*
X94071428Y-97171428D01*
X93985714Y-97171428D01*
X93871428Y-97142857D01*
X93814285Y-97114285D01*
X93757142Y-97057142D01*
X93728571Y-96971428D01*
X93728571Y-96828571D01*
X94328571Y-97685714D02*
X94328571Y-97571428D01*
X94300000Y-97514285D01*
X94271428Y-97485714D01*
X94185714Y-97428571D01*
X94071428Y-97400000D01*
X93842857Y-97400000D01*
X93785714Y-97428571D01*
X93757142Y-97457142D01*
X93728571Y-97514285D01*
X93728571Y-97628571D01*
X93757142Y-97685714D01*
X93785714Y-97714285D01*
X93842857Y-97742857D01*
X93985714Y-97742857D01*
X94042857Y-97714285D01*
X94071428Y-97685714D01*
X94100000Y-97628571D01*
X94100000Y-97514285D01*
X94071428Y-97457142D01*
X94042857Y-97428571D01*
X93985714Y-97400000D01*
X94328571Y-98085714D02*
X94185714Y-98085714D01*
X94242857Y-97942857D02*
X94185714Y-98085714D01*
X94242857Y-98228571D01*
X94071428Y-98000000D02*
X94185714Y-98085714D01*
X94071428Y-98171428D01*
X125871428Y-82978571D02*
X125271428Y-82978571D01*
X125271428Y-82835714D01*
X125300000Y-82750000D01*
X125357142Y-82692857D01*
X125414285Y-82664285D01*
X125528571Y-82635714D01*
X125614285Y-82635714D01*
X125728571Y-82664285D01*
X125785714Y-82692857D01*
X125842857Y-82750000D01*
X125871428Y-82835714D01*
X125871428Y-82978571D01*
X125871428Y-82064285D02*
X125871428Y-82407142D01*
X125871428Y-82235714D02*
X125271428Y-82235714D01*
X125357142Y-82292857D01*
X125414285Y-82350000D01*
X125442857Y-82407142D01*
X125271428Y-81864285D02*
X125271428Y-81492857D01*
X125500000Y-81692857D01*
X125500000Y-81607142D01*
X125528571Y-81550000D01*
X125557142Y-81521428D01*
X125614285Y-81492857D01*
X125757142Y-81492857D01*
X125814285Y-81521428D01*
X125842857Y-81550000D01*
X125871428Y-81607142D01*
X125871428Y-81778571D01*
X125842857Y-81835714D01*
X125814285Y-81864285D01*
X125271428Y-85492857D02*
X125271428Y-85121428D01*
X125500000Y-85321428D01*
X125500000Y-85235714D01*
X125528571Y-85178571D01*
X125557142Y-85150000D01*
X125614285Y-85121428D01*
X125757142Y-85121428D01*
X125814285Y-85150000D01*
X125842857Y-85178571D01*
X125871428Y-85235714D01*
X125871428Y-85407142D01*
X125842857Y-85464285D01*
X125814285Y-85492857D01*
X125271428Y-84950000D02*
X125871428Y-84750000D01*
X125271428Y-84550000D01*
X125271428Y-84407142D02*
X125271428Y-84035714D01*
X125500000Y-84235714D01*
X125500000Y-84150000D01*
X125528571Y-84092857D01*
X125557142Y-84064285D01*
X125614285Y-84035714D01*
X125757142Y-84035714D01*
X125814285Y-84064285D01*
X125842857Y-84092857D01*
X125871428Y-84150000D01*
X125871428Y-84321428D01*
X125842857Y-84378571D01*
X125814285Y-84407142D01*
X125700000Y-88221428D02*
X125700000Y-87935714D01*
X125871428Y-88278571D02*
X125271428Y-88078571D01*
X125871428Y-87878571D01*
X125871428Y-87335714D02*
X125585714Y-87535714D01*
X125871428Y-87678571D02*
X125271428Y-87678571D01*
X125271428Y-87450000D01*
X125300000Y-87392857D01*
X125328571Y-87364285D01*
X125385714Y-87335714D01*
X125471428Y-87335714D01*
X125528571Y-87364285D01*
X125557142Y-87392857D01*
X125585714Y-87450000D01*
X125585714Y-87678571D01*
X125557142Y-87078571D02*
X125557142Y-86878571D01*
X125871428Y-86792857D02*
X125871428Y-87078571D01*
X125271428Y-87078571D01*
X125271428Y-86792857D01*
X125557142Y-86335714D02*
X125557142Y-86535714D01*
X125871428Y-86535714D02*
X125271428Y-86535714D01*
X125271428Y-86250000D01*
X125700000Y-90178571D02*
X125700000Y-89892857D01*
X125871428Y-90235714D02*
X125271428Y-90035714D01*
X125871428Y-89835714D01*
X125271428Y-89521428D02*
X125271428Y-89464285D01*
X125300000Y-89407142D01*
X125328571Y-89378571D01*
X125385714Y-89350000D01*
X125500000Y-89321428D01*
X125642857Y-89321428D01*
X125757142Y-89350000D01*
X125814285Y-89378571D01*
X125842857Y-89407142D01*
X125871428Y-89464285D01*
X125871428Y-89521428D01*
X125842857Y-89578571D01*
X125814285Y-89607142D01*
X125757142Y-89635714D01*
X125642857Y-89664285D01*
X125500000Y-89664285D01*
X125385714Y-89635714D01*
X125328571Y-89607142D01*
X125300000Y-89578571D01*
X125271428Y-89521428D01*
X125700000Y-92778571D02*
X125700000Y-92492857D01*
X125871428Y-92835714D02*
X125271428Y-92635714D01*
X125871428Y-92435714D01*
X125871428Y-91921428D02*
X125871428Y-92264285D01*
X125871428Y-92092857D02*
X125271428Y-92092857D01*
X125357142Y-92150000D01*
X125414285Y-92207142D01*
X125442857Y-92264285D01*
X125700000Y-95278571D02*
X125700000Y-94992857D01*
X125871428Y-95335714D02*
X125271428Y-95135714D01*
X125871428Y-94935714D01*
X125328571Y-94764285D02*
X125300000Y-94735714D01*
X125271428Y-94678571D01*
X125271428Y-94535714D01*
X125300000Y-94478571D01*
X125328571Y-94450000D01*
X125385714Y-94421428D01*
X125442857Y-94421428D01*
X125528571Y-94450000D01*
X125871428Y-94792857D01*
X125871428Y-94421428D01*
X125700000Y-97878571D02*
X125700000Y-97592857D01*
X125871428Y-97935714D02*
X125271428Y-97735714D01*
X125871428Y-97535714D01*
X125271428Y-97392857D02*
X125271428Y-97021428D01*
X125500000Y-97221428D01*
X125500000Y-97135714D01*
X125528571Y-97078571D01*
X125557142Y-97050000D01*
X125614285Y-97021428D01*
X125757142Y-97021428D01*
X125814285Y-97050000D01*
X125842857Y-97078571D01*
X125871428Y-97135714D01*
X125871428Y-97307142D01*
X125842857Y-97364285D01*
X125814285Y-97392857D01*
X125842857Y-100678571D02*
X125871428Y-100592857D01*
X125871428Y-100450000D01*
X125842857Y-100392857D01*
X125814285Y-100364285D01*
X125757142Y-100335714D01*
X125700000Y-100335714D01*
X125642857Y-100364285D01*
X125614285Y-100392857D01*
X125585714Y-100450000D01*
X125557142Y-100564285D01*
X125528571Y-100621428D01*
X125500000Y-100650000D01*
X125442857Y-100678571D01*
X125385714Y-100678571D01*
X125328571Y-100650000D01*
X125300000Y-100621428D01*
X125271428Y-100564285D01*
X125271428Y-100421428D01*
X125300000Y-100335714D01*
X125871428Y-100078571D02*
X125271428Y-100078571D01*
X125271428Y-99935714D01*
X125300000Y-99850000D01*
X125357142Y-99792857D01*
X125414285Y-99764285D01*
X125528571Y-99735714D01*
X125614285Y-99735714D01*
X125728571Y-99764285D01*
X125785714Y-99792857D01*
X125842857Y-99850000D01*
X125871428Y-99935714D01*
X125871428Y-100078571D01*
X125700000Y-99507142D02*
X125700000Y-99221428D01*
X125871428Y-99564285D02*
X125271428Y-99364285D01*
X125871428Y-99164285D01*
X125842857Y-103164285D02*
X125871428Y-103078571D01*
X125871428Y-102935714D01*
X125842857Y-102878571D01*
X125814285Y-102850000D01*
X125757142Y-102821428D01*
X125700000Y-102821428D01*
X125642857Y-102850000D01*
X125614285Y-102878571D01*
X125585714Y-102935714D01*
X125557142Y-103050000D01*
X125528571Y-103107142D01*
X125500000Y-103135714D01*
X125442857Y-103164285D01*
X125385714Y-103164285D01*
X125328571Y-103135714D01*
X125300000Y-103107142D01*
X125271428Y-103050000D01*
X125271428Y-102907142D01*
X125300000Y-102821428D01*
X125814285Y-102221428D02*
X125842857Y-102250000D01*
X125871428Y-102335714D01*
X125871428Y-102392857D01*
X125842857Y-102478571D01*
X125785714Y-102535714D01*
X125728571Y-102564285D01*
X125614285Y-102592857D01*
X125528571Y-102592857D01*
X125414285Y-102564285D01*
X125357142Y-102535714D01*
X125300000Y-102478571D01*
X125271428Y-102392857D01*
X125271428Y-102335714D01*
X125300000Y-102250000D01*
X125328571Y-102221428D01*
X125871428Y-101678571D02*
X125871428Y-101964285D01*
X125271428Y-101964285D01*
X125700000Y-105478571D02*
X125700000Y-105192857D01*
X125871428Y-105535714D02*
X125271428Y-105335714D01*
X125871428Y-105135714D01*
X125271428Y-104678571D02*
X125271428Y-104792857D01*
X125300000Y-104850000D01*
X125328571Y-104878571D01*
X125414285Y-104935714D01*
X125528571Y-104964285D01*
X125757142Y-104964285D01*
X125814285Y-104935714D01*
X125842857Y-104907142D01*
X125871428Y-104850000D01*
X125871428Y-104735714D01*
X125842857Y-104678571D01*
X125814285Y-104650000D01*
X125757142Y-104621428D01*
X125614285Y-104621428D01*
X125557142Y-104650000D01*
X125528571Y-104678571D01*
X125500000Y-104735714D01*
X125500000Y-104850000D01*
X125528571Y-104907142D01*
X125557142Y-104935714D01*
X125614285Y-104964285D01*
X125700000Y-107978571D02*
X125700000Y-107692857D01*
X125871428Y-108035714D02*
X125271428Y-107835714D01*
X125871428Y-107635714D01*
X125271428Y-107492857D02*
X125271428Y-107092857D01*
X125871428Y-107350000D01*
X125271428Y-111250000D02*
X125871428Y-111050000D01*
X125271428Y-110850000D01*
X125271428Y-110650000D02*
X125757142Y-110650000D01*
X125814285Y-110621428D01*
X125842857Y-110592857D01*
X125871428Y-110535714D01*
X125871428Y-110421428D01*
X125842857Y-110364285D01*
X125814285Y-110335714D01*
X125757142Y-110307142D01*
X125271428Y-110307142D01*
X125842857Y-110050000D02*
X125871428Y-109964285D01*
X125871428Y-109821428D01*
X125842857Y-109764285D01*
X125814285Y-109735714D01*
X125757142Y-109707142D01*
X125700000Y-109707142D01*
X125642857Y-109735714D01*
X125614285Y-109764285D01*
X125585714Y-109821428D01*
X125557142Y-109935714D01*
X125528571Y-109992857D01*
X125500000Y-110021428D01*
X125442857Y-110050000D01*
X125385714Y-110050000D01*
X125328571Y-110021428D01*
X125300000Y-109992857D01*
X125271428Y-109935714D01*
X125271428Y-109792857D01*
X125300000Y-109707142D01*
X125557142Y-109250000D02*
X125585714Y-109164285D01*
X125614285Y-109135714D01*
X125671428Y-109107142D01*
X125757142Y-109107142D01*
X125814285Y-109135714D01*
X125842857Y-109164285D01*
X125871428Y-109221428D01*
X125871428Y-109450000D01*
X125271428Y-109450000D01*
X125271428Y-109250000D01*
X125300000Y-109192857D01*
X125328571Y-109164285D01*
X125385714Y-109135714D01*
X125442857Y-109135714D01*
X125500000Y-109164285D01*
X125528571Y-109192857D01*
X125557142Y-109250000D01*
X125557142Y-109450000D01*
X125025000Y-113464285D02*
X125025000Y-112864285D01*
X125871428Y-112978571D02*
X125585714Y-113178571D01*
X125871428Y-113321428D02*
X125271428Y-113321428D01*
X125271428Y-113092857D01*
X125300000Y-113035714D01*
X125328571Y-113007142D01*
X125385714Y-112978571D01*
X125471428Y-112978571D01*
X125528571Y-113007142D01*
X125557142Y-113035714D01*
X125585714Y-113092857D01*
X125585714Y-113321428D01*
X125025000Y-112864285D02*
X125025000Y-112292857D01*
X125842857Y-112750000D02*
X125871428Y-112664285D01*
X125871428Y-112521428D01*
X125842857Y-112464285D01*
X125814285Y-112435714D01*
X125757142Y-112407142D01*
X125700000Y-112407142D01*
X125642857Y-112435714D01*
X125614285Y-112464285D01*
X125585714Y-112521428D01*
X125557142Y-112635714D01*
X125528571Y-112692857D01*
X125500000Y-112721428D01*
X125442857Y-112750000D01*
X125385714Y-112750000D01*
X125328571Y-112721428D01*
X125300000Y-112692857D01*
X125271428Y-112635714D01*
X125271428Y-112492857D01*
X125300000Y-112407142D01*
X125025000Y-112292857D02*
X125025000Y-111835714D01*
X125271428Y-112235714D02*
X125271428Y-111892857D01*
X125871428Y-112064285D02*
X125271428Y-112064285D01*
X125300000Y-115707142D02*
X125271428Y-115764285D01*
X125271428Y-115850000D01*
X125300000Y-115935714D01*
X125357142Y-115992857D01*
X125414285Y-116021428D01*
X125528571Y-116050000D01*
X125614285Y-116050000D01*
X125728571Y-116021428D01*
X125785714Y-115992857D01*
X125842857Y-115935714D01*
X125871428Y-115850000D01*
X125871428Y-115792857D01*
X125842857Y-115707142D01*
X125814285Y-115678571D01*
X125614285Y-115678571D01*
X125614285Y-115792857D01*
X125871428Y-115421428D02*
X125271428Y-115421428D01*
X125871428Y-115078571D01*
X125271428Y-115078571D01*
X125871428Y-114792857D02*
X125271428Y-114792857D01*
X125271428Y-114650000D01*
X125300000Y-114564285D01*
X125357142Y-114507142D01*
X125414285Y-114478571D01*
X125528571Y-114450000D01*
X125614285Y-114450000D01*
X125728571Y-114478571D01*
X125785714Y-114507142D01*
X125842857Y-114564285D01*
X125871428Y-114650000D01*
X125871428Y-114792857D01*
X125271428Y-118407142D02*
X125871428Y-118207142D01*
X125271428Y-118007142D01*
X125871428Y-117807142D02*
X125271428Y-117807142D01*
X125871428Y-117521428D02*
X125271428Y-117521428D01*
X125871428Y-117178571D01*
X125271428Y-117178571D01*
X114228571Y-117392857D02*
X114228571Y-117735714D01*
X113628571Y-117564285D02*
X114228571Y-117564285D01*
X114228571Y-117878571D02*
X113628571Y-118278571D01*
X114228571Y-118278571D02*
X113628571Y-117878571D01*
X113628571Y-115250000D02*
X113914285Y-115050000D01*
X113628571Y-114907142D02*
X114228571Y-114907142D01*
X114228571Y-115135714D01*
X114200000Y-115192857D01*
X114171428Y-115221428D01*
X114114285Y-115250000D01*
X114028571Y-115250000D01*
X113971428Y-115221428D01*
X113942857Y-115192857D01*
X113914285Y-115135714D01*
X113914285Y-114907142D01*
X114228571Y-115450000D02*
X113628571Y-115850000D01*
X114228571Y-115850000D02*
X113628571Y-115450000D01*
X114475000Y-111835714D02*
X114475000Y-112435714D01*
X113628571Y-112321428D02*
X113914285Y-112121428D01*
X113628571Y-111978571D02*
X114228571Y-111978571D01*
X114228571Y-112207142D01*
X114200000Y-112264285D01*
X114171428Y-112292857D01*
X114114285Y-112321428D01*
X114028571Y-112321428D01*
X113971428Y-112292857D01*
X113942857Y-112264285D01*
X113914285Y-112207142D01*
X113914285Y-111978571D01*
X114475000Y-112435714D02*
X114475000Y-113007142D01*
X113657142Y-112550000D02*
X113628571Y-112635714D01*
X113628571Y-112778571D01*
X113657142Y-112835714D01*
X113685714Y-112864285D01*
X113742857Y-112892857D01*
X113800000Y-112892857D01*
X113857142Y-112864285D01*
X113885714Y-112835714D01*
X113914285Y-112778571D01*
X113942857Y-112664285D01*
X113971428Y-112607142D01*
X114000000Y-112578571D01*
X114057142Y-112550000D01*
X114114285Y-112550000D01*
X114171428Y-112578571D01*
X114200000Y-112607142D01*
X114228571Y-112664285D01*
X114228571Y-112807142D01*
X114200000Y-112892857D01*
X114475000Y-113007142D02*
X114475000Y-113464285D01*
X114228571Y-113064285D02*
X114228571Y-113407142D01*
X113628571Y-113235714D02*
X114228571Y-113235714D01*
X114200000Y-109792857D02*
X114228571Y-109735714D01*
X114228571Y-109650000D01*
X114200000Y-109564285D01*
X114142857Y-109507142D01*
X114085714Y-109478571D01*
X113971428Y-109450000D01*
X113885714Y-109450000D01*
X113771428Y-109478571D01*
X113714285Y-109507142D01*
X113657142Y-109564285D01*
X113628571Y-109650000D01*
X113628571Y-109707142D01*
X113657142Y-109792857D01*
X113685714Y-109821428D01*
X113885714Y-109821428D01*
X113885714Y-109707142D01*
X113628571Y-110078571D02*
X114228571Y-110078571D01*
X113628571Y-110421428D01*
X114228571Y-110421428D01*
X113628571Y-110707142D02*
X114228571Y-110707142D01*
X114228571Y-110850000D01*
X114200000Y-110935714D01*
X114142857Y-110992857D01*
X114085714Y-111021428D01*
X113971428Y-111050000D01*
X113885714Y-111050000D01*
X113771428Y-111021428D01*
X113714285Y-110992857D01*
X113657142Y-110935714D01*
X113628571Y-110850000D01*
X113628571Y-110707142D01*
X113628571Y-107207142D02*
X114228571Y-107207142D01*
X114228571Y-107350000D01*
X114200000Y-107435714D01*
X114142857Y-107492857D01*
X114085714Y-107521428D01*
X113971428Y-107550000D01*
X113885714Y-107550000D01*
X113771428Y-107521428D01*
X113714285Y-107492857D01*
X113657142Y-107435714D01*
X113628571Y-107350000D01*
X113628571Y-107207142D01*
X114171428Y-107778571D02*
X114200000Y-107807142D01*
X114228571Y-107864285D01*
X114228571Y-108007142D01*
X114200000Y-108064285D01*
X114171428Y-108092857D01*
X114114285Y-108121428D01*
X114057142Y-108121428D01*
X113971428Y-108092857D01*
X113628571Y-107750000D01*
X113628571Y-108121428D01*
X113628571Y-104478571D02*
X114228571Y-104478571D01*
X114228571Y-104621428D01*
X114200000Y-104707142D01*
X114142857Y-104764285D01*
X114085714Y-104792857D01*
X113971428Y-104821428D01*
X113885714Y-104821428D01*
X113771428Y-104792857D01*
X113714285Y-104764285D01*
X113657142Y-104707142D01*
X113628571Y-104621428D01*
X113628571Y-104478571D01*
X114228571Y-105021428D02*
X114228571Y-105392857D01*
X114000000Y-105192857D01*
X114000000Y-105278571D01*
X113971428Y-105335714D01*
X113942857Y-105364285D01*
X113885714Y-105392857D01*
X113742857Y-105392857D01*
X113685714Y-105364285D01*
X113657142Y-105335714D01*
X113628571Y-105278571D01*
X113628571Y-105107142D01*
X113657142Y-105050000D01*
X113685714Y-105021428D01*
X114228571Y-105735714D02*
X114085714Y-105735714D01*
X114142857Y-105592857D02*
X114085714Y-105735714D01*
X114142857Y-105878571D01*
X113971428Y-105650000D02*
X114085714Y-105735714D01*
X113971428Y-105821428D01*
X113628571Y-102107142D02*
X114228571Y-102107142D01*
X114228571Y-102250000D01*
X114200000Y-102335714D01*
X114142857Y-102392857D01*
X114085714Y-102421428D01*
X113971428Y-102450000D01*
X113885714Y-102450000D01*
X113771428Y-102421428D01*
X113714285Y-102392857D01*
X113657142Y-102335714D01*
X113628571Y-102250000D01*
X113628571Y-102107142D01*
X114028571Y-102964285D02*
X113628571Y-102964285D01*
X114257142Y-102821428D02*
X113828571Y-102678571D01*
X113828571Y-103050000D01*
X113628571Y-99328571D02*
X114228571Y-99328571D01*
X114228571Y-99471428D01*
X114200000Y-99557142D01*
X114142857Y-99614285D01*
X114085714Y-99642857D01*
X113971428Y-99671428D01*
X113885714Y-99671428D01*
X113771428Y-99642857D01*
X113714285Y-99614285D01*
X113657142Y-99557142D01*
X113628571Y-99471428D01*
X113628571Y-99328571D01*
X114228571Y-100214285D02*
X114228571Y-99928571D01*
X113942857Y-99900000D01*
X113971428Y-99928571D01*
X114000000Y-99985714D01*
X114000000Y-100128571D01*
X113971428Y-100185714D01*
X113942857Y-100214285D01*
X113885714Y-100242857D01*
X113742857Y-100242857D01*
X113685714Y-100214285D01*
X113657142Y-100185714D01*
X113628571Y-100128571D01*
X113628571Y-99985714D01*
X113657142Y-99928571D01*
X113685714Y-99900000D01*
X114228571Y-100585714D02*
X114085714Y-100585714D01*
X114142857Y-100442857D02*
X114085714Y-100585714D01*
X114142857Y-100728571D01*
X113971428Y-100500000D02*
X114085714Y-100585714D01*
X113971428Y-100671428D01*
X113628571Y-96828571D02*
X114228571Y-96828571D01*
X114228571Y-96971428D01*
X114200000Y-97057142D01*
X114142857Y-97114285D01*
X114085714Y-97142857D01*
X113971428Y-97171428D01*
X113885714Y-97171428D01*
X113771428Y-97142857D01*
X113714285Y-97114285D01*
X113657142Y-97057142D01*
X113628571Y-96971428D01*
X113628571Y-96828571D01*
X114228571Y-97685714D02*
X114228571Y-97571428D01*
X114200000Y-97514285D01*
X114171428Y-97485714D01*
X114085714Y-97428571D01*
X113971428Y-97400000D01*
X113742857Y-97400000D01*
X113685714Y-97428571D01*
X113657142Y-97457142D01*
X113628571Y-97514285D01*
X113628571Y-97628571D01*
X113657142Y-97685714D01*
X113685714Y-97714285D01*
X113742857Y-97742857D01*
X113885714Y-97742857D01*
X113942857Y-97714285D01*
X113971428Y-97685714D01*
X114000000Y-97628571D01*
X114000000Y-97514285D01*
X113971428Y-97457142D01*
X113942857Y-97428571D01*
X113885714Y-97400000D01*
X114228571Y-98085714D02*
X114085714Y-98085714D01*
X114142857Y-97942857D02*
X114085714Y-98085714D01*
X114142857Y-98228571D01*
X113971428Y-98000000D02*
X114085714Y-98085714D01*
X113971428Y-98171428D01*
X113628571Y-94507142D02*
X114228571Y-94507142D01*
X114228571Y-94650000D01*
X114200000Y-94735714D01*
X114142857Y-94792857D01*
X114085714Y-94821428D01*
X113971428Y-94850000D01*
X113885714Y-94850000D01*
X113771428Y-94821428D01*
X113714285Y-94792857D01*
X113657142Y-94735714D01*
X113628571Y-94650000D01*
X113628571Y-94507142D01*
X114228571Y-95050000D02*
X114228571Y-95450000D01*
X113628571Y-95192857D01*
X113628571Y-91907142D02*
X114228571Y-91907142D01*
X114228571Y-92050000D01*
X114200000Y-92135714D01*
X114142857Y-92192857D01*
X114085714Y-92221428D01*
X113971428Y-92250000D01*
X113885714Y-92250000D01*
X113771428Y-92221428D01*
X113714285Y-92192857D01*
X113657142Y-92135714D01*
X113628571Y-92050000D01*
X113628571Y-91907142D01*
X113971428Y-92592857D02*
X114000000Y-92535714D01*
X114028571Y-92507142D01*
X114085714Y-92478571D01*
X114114285Y-92478571D01*
X114171428Y-92507142D01*
X114200000Y-92535714D01*
X114228571Y-92592857D01*
X114228571Y-92707142D01*
X114200000Y-92764285D01*
X114171428Y-92792857D01*
X114114285Y-92821428D01*
X114085714Y-92821428D01*
X114028571Y-92792857D01*
X114000000Y-92764285D01*
X113971428Y-92707142D01*
X113971428Y-92592857D01*
X113942857Y-92535714D01*
X113914285Y-92507142D01*
X113857142Y-92478571D01*
X113742857Y-92478571D01*
X113685714Y-92507142D01*
X113657142Y-92535714D01*
X113628571Y-92592857D01*
X113628571Y-92707142D01*
X113657142Y-92764285D01*
X113685714Y-92792857D01*
X113742857Y-92821428D01*
X113857142Y-92821428D01*
X113914285Y-92792857D01*
X113942857Y-92764285D01*
X113971428Y-92707142D01*
X113628571Y-89278571D02*
X114228571Y-89278571D01*
X114228571Y-89421428D01*
X114200000Y-89507142D01*
X114142857Y-89564285D01*
X114085714Y-89592857D01*
X113971428Y-89621428D01*
X113885714Y-89621428D01*
X113771428Y-89592857D01*
X113714285Y-89564285D01*
X113657142Y-89507142D01*
X113628571Y-89421428D01*
X113628571Y-89278571D01*
X113628571Y-89907142D02*
X113628571Y-90021428D01*
X113657142Y-90078571D01*
X113685714Y-90107142D01*
X113771428Y-90164285D01*
X113885714Y-90192857D01*
X114114285Y-90192857D01*
X114171428Y-90164285D01*
X114200000Y-90135714D01*
X114228571Y-90078571D01*
X114228571Y-89964285D01*
X114200000Y-89907142D01*
X114171428Y-89878571D01*
X114114285Y-89850000D01*
X113971428Y-89850000D01*
X113914285Y-89878571D01*
X113885714Y-89907142D01*
X113857142Y-89964285D01*
X113857142Y-90078571D01*
X113885714Y-90135714D01*
X113914285Y-90164285D01*
X113971428Y-90192857D01*
X114228571Y-90535714D02*
X114085714Y-90535714D01*
X114142857Y-90392857D02*
X114085714Y-90535714D01*
X114142857Y-90678571D01*
X113971428Y-90450000D02*
X114085714Y-90535714D01*
X113971428Y-90621428D01*
X113628571Y-86342857D02*
X114228571Y-86342857D01*
X114228571Y-86485714D01*
X114200000Y-86571428D01*
X114142857Y-86628571D01*
X114085714Y-86657142D01*
X113971428Y-86685714D01*
X113885714Y-86685714D01*
X113771428Y-86657142D01*
X113714285Y-86628571D01*
X113657142Y-86571428D01*
X113628571Y-86485714D01*
X113628571Y-86342857D01*
X113628571Y-87257142D02*
X113628571Y-86914285D01*
X113628571Y-87085714D02*
X114228571Y-87085714D01*
X114142857Y-87028571D01*
X114085714Y-86971428D01*
X114057142Y-86914285D01*
X114228571Y-87628571D02*
X114228571Y-87685714D01*
X114200000Y-87742857D01*
X114171428Y-87771428D01*
X114114285Y-87800000D01*
X114000000Y-87828571D01*
X113857142Y-87828571D01*
X113742857Y-87800000D01*
X113685714Y-87771428D01*
X113657142Y-87742857D01*
X113628571Y-87685714D01*
X113628571Y-87628571D01*
X113657142Y-87571428D01*
X113685714Y-87542857D01*
X113742857Y-87514285D01*
X113857142Y-87485714D01*
X114000000Y-87485714D01*
X114114285Y-87514285D01*
X114171428Y-87542857D01*
X114200000Y-87571428D01*
X114228571Y-87628571D01*
X114228571Y-88171428D02*
X114085714Y-88171428D01*
X114142857Y-88028571D02*
X114085714Y-88171428D01*
X114142857Y-88314285D01*
X113971428Y-88085714D02*
X114085714Y-88171428D01*
X113971428Y-88257142D01*
X113628571Y-83971428D02*
X114228571Y-83971428D01*
X114228571Y-84114285D01*
X114200000Y-84200000D01*
X114142857Y-84257142D01*
X114085714Y-84285714D01*
X113971428Y-84314285D01*
X113885714Y-84314285D01*
X113771428Y-84285714D01*
X113714285Y-84257142D01*
X113657142Y-84200000D01*
X113628571Y-84114285D01*
X113628571Y-83971428D01*
X113628571Y-84885714D02*
X113628571Y-84542857D01*
X113628571Y-84714285D02*
X114228571Y-84714285D01*
X114142857Y-84657142D01*
X114085714Y-84600000D01*
X114057142Y-84542857D01*
X113628571Y-85457142D02*
X113628571Y-85114285D01*
X113628571Y-85285714D02*
X114228571Y-85285714D01*
X114142857Y-85228571D01*
X114085714Y-85171428D01*
X114057142Y-85114285D01*
X113628571Y-81521428D02*
X114228571Y-81521428D01*
X114228571Y-81664285D01*
X114200000Y-81750000D01*
X114142857Y-81807142D01*
X114085714Y-81835714D01*
X113971428Y-81864285D01*
X113885714Y-81864285D01*
X113771428Y-81835714D01*
X113714285Y-81807142D01*
X113657142Y-81750000D01*
X113628571Y-81664285D01*
X113628571Y-81521428D01*
X113628571Y-82435714D02*
X113628571Y-82092857D01*
X113628571Y-82264285D02*
X114228571Y-82264285D01*
X114142857Y-82207142D01*
X114085714Y-82150000D01*
X114057142Y-82092857D01*
X114171428Y-82664285D02*
X114200000Y-82692857D01*
X114228571Y-82750000D01*
X114228571Y-82892857D01*
X114200000Y-82950000D01*
X114171428Y-82978571D01*
X114114285Y-83007142D01*
X114057142Y-83007142D01*
X113971428Y-82978571D01*
X113628571Y-82635714D01*
X113628571Y-83007142D01*
D13*
X117407142Y-103678571D02*
X117407142Y-104892857D01*
X117478571Y-105035714D01*
X117550000Y-105107142D01*
X117692857Y-105178571D01*
X117978571Y-105178571D01*
X118121428Y-105107142D01*
X118192857Y-105035714D01*
X118264285Y-104892857D01*
X118264285Y-103678571D01*
X118907142Y-104750000D02*
X119621428Y-104750000D01*
X118764285Y-105178571D02*
X119264285Y-103678571D01*
X119764285Y-105178571D01*
X121121428Y-105178571D02*
X120621428Y-104464285D01*
X120264285Y-105178571D02*
X120264285Y-103678571D01*
X120835714Y-103678571D01*
X120978571Y-103750000D01*
X121050000Y-103821428D01*
X121121428Y-103964285D01*
X121121428Y-104178571D01*
X121050000Y-104321428D01*
X120978571Y-104392857D01*
X120835714Y-104464285D01*
X120264285Y-104464285D01*
X121550000Y-103678571D02*
X122407142Y-103678571D01*
X121978571Y-105178571D02*
X121978571Y-103678571D01*
X118335714Y-97178571D02*
X118335714Y-95678571D01*
X118978571Y-95821428D02*
X119050000Y-95750000D01*
X119192857Y-95678571D01*
X119550000Y-95678571D01*
X119692857Y-95750000D01*
X119764285Y-95821428D01*
X119835714Y-95964285D01*
X119835714Y-96107142D01*
X119764285Y-96321428D01*
X118907142Y-97178571D01*
X119835714Y-97178571D01*
X121335714Y-97035714D02*
X121264285Y-97107142D01*
X121050000Y-97178571D01*
X120907142Y-97178571D01*
X120692857Y-97107142D01*
X120550000Y-96964285D01*
X120478571Y-96821428D01*
X120407142Y-96535714D01*
X120407142Y-96321428D01*
X120478571Y-96035714D01*
X120550000Y-95892857D01*
X120692857Y-95750000D01*
X120907142Y-95678571D01*
X121050000Y-95678571D01*
X121264285Y-95750000D01*
X121335714Y-95821428D01*
X118692857Y-89178571D02*
X118692857Y-87678571D01*
X119050000Y-87678571D01*
X119264285Y-87750000D01*
X119407142Y-87892857D01*
X119478571Y-88035714D01*
X119550000Y-88321428D01*
X119550000Y-88535714D01*
X119478571Y-88821428D01*
X119407142Y-88964285D01*
X119264285Y-89107142D01*
X119050000Y-89178571D01*
X118692857Y-89178571D01*
X120907142Y-87678571D02*
X120192857Y-87678571D01*
X120121428Y-88392857D01*
X120192857Y-88321428D01*
X120335714Y-88250000D01*
X120692857Y-88250000D01*
X120835714Y-88321428D01*
X120907142Y-88392857D01*
X120978571Y-88535714D01*
X120978571Y-88892857D01*
X120907142Y-89035714D01*
X120835714Y-89107142D01*
X120692857Y-89178571D01*
X120335714Y-89178571D01*
X120192857Y-89107142D01*
X120121428Y-89035714D01*
X118728571Y-80750000D02*
X119442857Y-80750000D01*
X118585714Y-81178571D02*
X119085714Y-79678571D01*
X119585714Y-81178571D01*
X120371428Y-79678571D02*
X120514285Y-79678571D01*
X120657142Y-79750000D01*
X120728571Y-79821428D01*
X120800000Y-79964285D01*
X120871428Y-80250000D01*
X120871428Y-80607142D01*
X120800000Y-80892857D01*
X120728571Y-81035714D01*
X120657142Y-81107142D01*
X120514285Y-81178571D01*
X120371428Y-81178571D01*
X120228571Y-81107142D01*
X120157142Y-81035714D01*
X120085714Y-80892857D01*
X120014285Y-80607142D01*
X120014285Y-80250000D01*
X120085714Y-79964285D01*
X120157142Y-79821428D01*
X120228571Y-79750000D01*
X120371428Y-79678571D01*
D14*
X100652380Y-81133333D02*
X100604761Y-81085714D01*
X100509523Y-80942857D01*
X100461904Y-80847619D01*
X100414285Y-80704761D01*
X100366666Y-80466666D01*
X100366666Y-80276190D01*
X100414285Y-80038095D01*
X100461904Y-79895238D01*
X100509523Y-79800000D01*
X100604761Y-79657142D01*
X100652380Y-79609523D01*
X100985714Y-80466666D02*
X101461904Y-80466666D01*
X100890476Y-80752380D02*
X101223809Y-79752380D01*
X101557142Y-80752380D01*
X102414285Y-80752380D02*
X101842857Y-80752380D01*
X102128571Y-80752380D02*
X102128571Y-79752380D01*
X102033333Y-79895238D01*
X101938095Y-79990476D01*
X101842857Y-80038095D01*
X102747619Y-81133333D02*
X102795238Y-81085714D01*
X102890476Y-80942857D01*
X102938095Y-80847619D01*
X102985714Y-80704761D01*
X103033333Y-80466666D01*
X103033333Y-80276190D01*
X102985714Y-80038095D01*
X102938095Y-79895238D01*
X102890476Y-79800000D01*
X102795238Y-79657142D01*
X102747619Y-79609523D01*
D13*
X97528571Y-80350000D02*
X98242857Y-80350000D01*
X97385714Y-80778571D02*
X97885714Y-79278571D01*
X98385714Y-80778571D01*
X99171428Y-79278571D02*
X99314285Y-79278571D01*
X99457142Y-79350000D01*
X99528571Y-79421428D01*
X99600000Y-79564285D01*
X99671428Y-79850000D01*
X99671428Y-80207142D01*
X99600000Y-80492857D01*
X99528571Y-80635714D01*
X99457142Y-80707142D01*
X99314285Y-80778571D01*
X99171428Y-80778571D01*
X99028571Y-80707142D01*
X98957142Y-80635714D01*
X98885714Y-80492857D01*
X98814285Y-80207142D01*
X98814285Y-79850000D01*
X98885714Y-79564285D01*
X98957142Y-79421428D01*
X99028571Y-79350000D01*
X99171428Y-79278571D01*
D14*
X100880952Y-113133333D02*
X100833333Y-113085714D01*
X100738095Y-112942857D01*
X100690476Y-112847619D01*
X100642857Y-112704761D01*
X100595238Y-112466666D01*
X100595238Y-112276190D01*
X100642857Y-112038095D01*
X100690476Y-111895238D01*
X100738095Y-111800000D01*
X100833333Y-111657142D01*
X100880952Y-111609523D01*
X101261904Y-112752380D02*
X101261904Y-111752380D01*
X101500000Y-111752380D01*
X101642857Y-111800000D01*
X101738095Y-111895238D01*
X101785714Y-111990476D01*
X101833333Y-112180952D01*
X101833333Y-112323809D01*
X101785714Y-112514285D01*
X101738095Y-112609523D01*
X101642857Y-112704761D01*
X101500000Y-112752380D01*
X101261904Y-112752380D01*
X102690476Y-112085714D02*
X102690476Y-112752380D01*
X102452380Y-111704761D02*
X102214285Y-112419047D01*
X102833333Y-112419047D01*
X103119047Y-113133333D02*
X103166666Y-113085714D01*
X103261904Y-112942857D01*
X103309523Y-112847619D01*
X103357142Y-112704761D01*
X103404761Y-112466666D01*
X103404761Y-112276190D01*
X103357142Y-112038095D01*
X103309523Y-111895238D01*
X103261904Y-111800000D01*
X103166666Y-111657142D01*
X103119047Y-111609523D01*
D13*
X96321428Y-112778571D02*
X96321428Y-111278571D01*
X96678571Y-111278571D01*
X96892857Y-111350000D01*
X97035714Y-111492857D01*
X97107142Y-111635714D01*
X97178571Y-111921428D01*
X97178571Y-112135714D01*
X97107142Y-112421428D01*
X97035714Y-112564285D01*
X96892857Y-112707142D01*
X96678571Y-112778571D01*
X96321428Y-112778571D01*
X97678571Y-111278571D02*
X98607142Y-111278571D01*
X98107142Y-111850000D01*
X98321428Y-111850000D01*
X98464285Y-111921428D01*
X98535714Y-111992857D01*
X98607142Y-112135714D01*
X98607142Y-112492857D01*
X98535714Y-112635714D01*
X98464285Y-112707142D01*
X98321428Y-112778571D01*
X97892857Y-112778571D01*
X97750000Y-112707142D01*
X97678571Y-112635714D01*
X99464285Y-111278571D02*
X99464285Y-111635714D01*
X99107142Y-111492857D02*
X99464285Y-111635714D01*
X99821428Y-111492857D01*
X99250000Y-111921428D02*
X99464285Y-111635714D01*
X99678571Y-111921428D01*
D14*
X99523809Y-105133333D02*
X99476190Y-105085714D01*
X99380952Y-104942857D01*
X99333333Y-104847619D01*
X99285714Y-104704761D01*
X99238095Y-104466666D01*
X99238095Y-104276190D01*
X99285714Y-104038095D01*
X99333333Y-103895238D01*
X99380952Y-103800000D01*
X99476190Y-103657142D01*
X99523809Y-103609523D01*
X99809523Y-103752380D02*
X100428571Y-103752380D01*
X100095238Y-104133333D01*
X100238095Y-104133333D01*
X100333333Y-104180952D01*
X100380952Y-104228571D01*
X100428571Y-104323809D01*
X100428571Y-104561904D01*
X100380952Y-104657142D01*
X100333333Y-104704761D01*
X100238095Y-104752380D01*
X99952380Y-104752380D01*
X99857142Y-104704761D01*
X99809523Y-104657142D01*
X100714285Y-103752380D02*
X101047619Y-104752380D01*
X101380952Y-103752380D01*
X102428571Y-103704761D02*
X101571428Y-104990476D01*
X103238095Y-103752380D02*
X102761904Y-103752380D01*
X102714285Y-104228571D01*
X102761904Y-104180952D01*
X102857142Y-104133333D01*
X103095238Y-104133333D01*
X103190476Y-104180952D01*
X103238095Y-104228571D01*
X103285714Y-104323809D01*
X103285714Y-104561904D01*
X103238095Y-104657142D01*
X103190476Y-104704761D01*
X103095238Y-104752380D01*
X102857142Y-104752380D01*
X102761904Y-104704761D01*
X102714285Y-104657142D01*
X103571428Y-103752380D02*
X103904761Y-104752380D01*
X104238095Y-103752380D01*
X104476190Y-105133333D02*
X104523809Y-105085714D01*
X104619047Y-104942857D01*
X104666666Y-104847619D01*
X104714285Y-104704761D01*
X104761904Y-104466666D01*
X104761904Y-104276190D01*
X104714285Y-104038095D01*
X104666666Y-103895238D01*
X104619047Y-103800000D01*
X104523809Y-103657142D01*
X104476190Y-103609523D01*
D13*
X95535714Y-104778571D02*
X95535714Y-103278571D01*
X96178571Y-103421428D02*
X96250000Y-103350000D01*
X96392857Y-103278571D01*
X96750000Y-103278571D01*
X96892857Y-103350000D01*
X96964285Y-103421428D01*
X97035714Y-103564285D01*
X97035714Y-103707142D01*
X96964285Y-103921428D01*
X96107142Y-104778571D01*
X97035714Y-104778571D01*
X98535714Y-104635714D02*
X98464285Y-104707142D01*
X98250000Y-104778571D01*
X98107142Y-104778571D01*
X97892857Y-104707142D01*
X97750000Y-104564285D01*
X97678571Y-104421428D01*
X97607142Y-104135714D01*
X97607142Y-103921428D01*
X97678571Y-103635714D01*
X97750000Y-103492857D01*
X97892857Y-103350000D01*
X98107142Y-103278571D01*
X98250000Y-103278571D01*
X98464285Y-103350000D01*
X98535714Y-103421428D01*
X98635714Y-96778571D02*
X98635714Y-95278571D01*
X99278571Y-95421428D02*
X99350000Y-95350000D01*
X99492857Y-95278571D01*
X99850000Y-95278571D01*
X99992857Y-95350000D01*
X100064285Y-95421428D01*
X100135714Y-95564285D01*
X100135714Y-95707142D01*
X100064285Y-95921428D01*
X99207142Y-96778571D01*
X100135714Y-96778571D01*
X101635714Y-96635714D02*
X101564285Y-96707142D01*
X101350000Y-96778571D01*
X101207142Y-96778571D01*
X100992857Y-96707142D01*
X100850000Y-96564285D01*
X100778571Y-96421428D01*
X100707142Y-96135714D01*
X100707142Y-95921428D01*
X100778571Y-95635714D01*
X100850000Y-95492857D01*
X100992857Y-95350000D01*
X101207142Y-95278571D01*
X101350000Y-95278571D01*
X101564285Y-95350000D01*
X101635714Y-95421428D01*
X98535714Y-88778571D02*
X98535714Y-87278571D01*
X99178571Y-87421428D02*
X99250000Y-87350000D01*
X99392857Y-87278571D01*
X99750000Y-87278571D01*
X99892857Y-87350000D01*
X99964285Y-87421428D01*
X100035714Y-87564285D01*
X100035714Y-87707142D01*
X99964285Y-87921428D01*
X99107142Y-88778571D01*
X100035714Y-88778571D01*
X101535714Y-88635714D02*
X101464285Y-88707142D01*
X101250000Y-88778571D01*
X101107142Y-88778571D01*
X100892857Y-88707142D01*
X100750000Y-88564285D01*
X100678571Y-88421428D01*
X100607142Y-88135714D01*
X100607142Y-87921428D01*
X100678571Y-87635714D01*
X100750000Y-87492857D01*
X100892857Y-87350000D01*
X101107142Y-87278571D01*
X101250000Y-87278571D01*
X101464285Y-87350000D01*
X101535714Y-87421428D01*
D14*
G04 #@! TO.C,J30*
X95000000Y-97300000D02*
X95000000Y-102300000D01*
X105000000Y-97300000D02*
X105000000Y-102300000D01*
G04 #@! TO.C,J50*
X105000000Y-113300000D02*
X105000000Y-118300000D01*
X95000000Y-113300000D02*
X95000000Y-118300000D01*
G04 #@! TO.C,J60*
X95000000Y-105300000D02*
X95000000Y-110300000D01*
X105000000Y-105300000D02*
X105000000Y-110300000D01*
G04 #@! TO.C,J20*
X95000000Y-89300000D02*
X95000000Y-94300000D01*
X105000000Y-89300000D02*
X105000000Y-94300000D01*
G04 #@! TO.C,J70*
X114800000Y-81300000D02*
X114800000Y-86300000D01*
X124800000Y-81300000D02*
X124800000Y-86300000D01*
D15*
G04 #@! TO.C,D10*
X116035000Y-119050000D02*
X116035000Y-116765000D01*
X116035000Y-116765000D02*
X114565000Y-116765000D01*
X114565000Y-116765000D02*
X114565000Y-119050000D01*
G04 #@! TO.C,D11*
X123450000Y-122100000D02*
X116150000Y-122100000D01*
X123450000Y-116600000D02*
X116150000Y-116600000D01*
X116150000Y-116600000D02*
X116150000Y-117750000D01*
D14*
G04 #@! TO.C,J80*
X124800000Y-89300000D02*
X124800000Y-94300000D01*
X114800000Y-89300000D02*
X114800000Y-94300000D01*
G04 #@! TO.C,J90*
X114800000Y-97300000D02*
X114800000Y-102300000D01*
X124800000Y-97300000D02*
X124800000Y-102300000D01*
G04 #@! TO.C,J100*
X124800000Y-105300000D02*
X124800000Y-110300000D01*
X114800000Y-105300000D02*
X114800000Y-110300000D01*
G04 #@! TO.C,J110*
X95000000Y-81300000D02*
X95000000Y-86300000D01*
X105000000Y-81300000D02*
X105000000Y-86300000D01*
D16*
G04 #@! TO.C,G\002A\002A\002A*
G36*
X121160048Y-112644020D02*
X121140073Y-112702143D01*
X121105742Y-112763373D01*
X121065845Y-112815786D01*
X121029171Y-112847462D01*
X121008218Y-112849958D01*
X120980490Y-112854115D01*
X120974324Y-112861442D01*
X120945924Y-112871922D01*
X120881653Y-112879903D01*
X120791800Y-112884342D01*
X120742589Y-112884909D01*
X120525358Y-112884909D01*
X120443770Y-112803321D01*
X120394895Y-112749055D01*
X120370660Y-112700147D01*
X120362692Y-112635476D01*
X120362182Y-112597485D01*
X120365929Y-112518702D01*
X120382556Y-112464651D01*
X120420144Y-112414136D01*
X120440138Y-112392964D01*
X120520734Y-112332618D01*
X120619534Y-112290782D01*
X120720097Y-112272331D01*
X120805985Y-112282140D01*
X120809529Y-112283433D01*
X120855567Y-112295252D01*
X120877541Y-112292581D01*
X120902460Y-112296370D01*
X120953264Y-112319179D01*
X120993167Y-112341141D01*
X121088686Y-112417527D01*
X121146876Y-112509730D01*
X121163923Y-112610828D01*
X121160048Y-112644020D01*
X121160048Y-112644020D01*
G37*
X121160048Y-112644020D02*
X121140073Y-112702143D01*
X121105742Y-112763373D01*
X121065845Y-112815786D01*
X121029171Y-112847462D01*
X121008218Y-112849958D01*
X120980490Y-112854115D01*
X120974324Y-112861442D01*
X120945924Y-112871922D01*
X120881653Y-112879903D01*
X120791800Y-112884342D01*
X120742589Y-112884909D01*
X120525358Y-112884909D01*
X120443770Y-112803321D01*
X120394895Y-112749055D01*
X120370660Y-112700147D01*
X120362692Y-112635476D01*
X120362182Y-112597485D01*
X120365929Y-112518702D01*
X120382556Y-112464651D01*
X120420144Y-112414136D01*
X120440138Y-112392964D01*
X120520734Y-112332618D01*
X120619534Y-112290782D01*
X120720097Y-112272331D01*
X120805985Y-112282140D01*
X120809529Y-112283433D01*
X120855567Y-112295252D01*
X120877541Y-112292581D01*
X120902460Y-112296370D01*
X120953264Y-112319179D01*
X120993167Y-112341141D01*
X121088686Y-112417527D01*
X121146876Y-112509730D01*
X121163923Y-112610828D01*
X121160048Y-112644020D01*
G36*
X122764771Y-110943153D02*
X122750909Y-110981748D01*
X122752854Y-110996066D01*
X122751037Y-111021399D01*
X122736558Y-111078816D01*
X122712376Y-111156940D01*
X122706465Y-111174548D01*
X122673298Y-111281621D01*
X122642998Y-111395652D01*
X122623693Y-111484075D01*
X122607903Y-111562438D01*
X122592809Y-111623029D01*
X122583328Y-111649220D01*
X122565702Y-111690171D01*
X122564439Y-111695727D01*
X122557096Y-111733505D01*
X122546129Y-111788091D01*
X122534342Y-111856063D01*
X122522469Y-111939324D01*
X122519757Y-111961273D01*
X122509688Y-112033798D01*
X122499138Y-112091330D01*
X122495904Y-112104168D01*
X122486568Y-112165581D01*
X122482218Y-112261849D01*
X122482460Y-112381962D01*
X122486897Y-112514907D01*
X122495136Y-112649674D01*
X122506780Y-112775249D01*
X122521435Y-112880623D01*
X122524335Y-112896455D01*
X122543734Y-112997079D01*
X122556918Y-113062835D01*
X122566396Y-113104204D01*
X122574676Y-113131668D01*
X122584268Y-113155709D01*
X122589013Y-113166667D01*
X122596874Y-113211131D01*
X122592124Y-113228571D01*
X122593763Y-113259112D01*
X122600154Y-113264768D01*
X122619182Y-113297008D01*
X122621886Y-113318318D01*
X122622366Y-113336037D01*
X122625320Y-113357402D01*
X122632648Y-113389497D01*
X122646255Y-113439409D01*
X122668041Y-113514223D01*
X122699909Y-113621023D01*
X122730383Y-113722427D01*
X122758341Y-113826156D01*
X122774043Y-113908135D01*
X122775751Y-113958710D01*
X122773984Y-113964881D01*
X122755652Y-114015288D01*
X122750470Y-114034887D01*
X122715281Y-114109758D01*
X122649584Y-114177763D01*
X122583561Y-114217005D01*
X122502970Y-114236632D01*
X122410177Y-114239250D01*
X122324013Y-114225962D01*
X122263739Y-114198233D01*
X122237640Y-114182633D01*
X122232546Y-114185694D01*
X122213374Y-114187192D01*
X122165329Y-114174927D01*
X122143799Y-114167731D01*
X122046620Y-114138152D01*
X121915316Y-114104764D01*
X121761533Y-114069904D01*
X121596917Y-114035904D01*
X121433114Y-114005101D01*
X121281771Y-113979827D01*
X121154534Y-113962418D01*
X121089395Y-113956369D01*
X120902488Y-113951706D01*
X120707768Y-113962198D01*
X120497809Y-113988927D01*
X120265189Y-114032975D01*
X120002482Y-114095423D01*
X119842637Y-114137960D01*
X119755481Y-114161720D01*
X119685842Y-114180403D01*
X119645396Y-114190888D01*
X119640591Y-114191990D01*
X119605955Y-114201722D01*
X119567993Y-114212013D01*
X119565546Y-114212492D01*
X119527875Y-114221469D01*
X119476863Y-114235095D01*
X119383536Y-114239539D01*
X119283357Y-114209616D01*
X119192724Y-114150861D01*
X119173984Y-114132845D01*
X119119023Y-114042149D01*
X119098758Y-113921087D01*
X119113197Y-113769780D01*
X119140269Y-113658455D01*
X119165287Y-113573854D01*
X119186817Y-113504023D01*
X119200415Y-113463361D01*
X119200874Y-113462182D01*
X119217583Y-113410270D01*
X119221127Y-113395273D01*
X119231781Y-113355010D01*
X119251259Y-113290199D01*
X119261854Y-113256727D01*
X119282309Y-113180387D01*
X119304060Y-113079117D01*
X119322655Y-112973810D01*
X119323890Y-112965727D01*
X119338434Y-112874557D01*
X119352019Y-112798672D01*
X119362165Y-112751701D01*
X119363772Y-112746364D01*
X119374357Y-112690389D01*
X119381703Y-112600293D01*
X119385683Y-112488031D01*
X119386165Y-112365560D01*
X119383023Y-112244834D01*
X119376125Y-112137809D01*
X119370857Y-112090387D01*
X119357320Y-111988171D01*
X119344913Y-111891036D01*
X119336065Y-111818048D01*
X119335286Y-111811182D01*
X119323954Y-111746885D01*
X119302600Y-111654748D01*
X119275094Y-111550974D01*
X119263581Y-111511000D01*
X119205931Y-111311379D01*
X119163017Y-111149918D01*
X119134505Y-111021122D01*
X119120065Y-110919497D01*
X119119366Y-110839549D01*
X119132074Y-110775781D01*
X119157859Y-110722700D01*
X119196389Y-110674812D01*
X119212150Y-110658914D01*
X119266127Y-110612042D01*
X119315619Y-110588937D01*
X119381616Y-110581682D01*
X119417569Y-110581448D01*
X119566374Y-110602708D01*
X119646364Y-110633581D01*
X119730849Y-110671803D01*
X119817476Y-110705730D01*
X119842637Y-110714244D01*
X119906037Y-110735760D01*
X119951011Y-110753560D01*
X119958091Y-110757156D01*
X119999553Y-110774677D01*
X120004273Y-110775864D01*
X120043169Y-110784640D01*
X120085091Y-110794250D01*
X120248731Y-110824484D01*
X120444146Y-110848349D01*
X120504239Y-110852920D01*
X120504239Y-111664826D01*
X120397082Y-111665758D01*
X120319649Y-111667726D01*
X120279351Y-111670655D01*
X120276215Y-111671417D01*
X120256559Y-111699846D01*
X120246925Y-111754769D01*
X120246728Y-111764275D01*
X120246728Y-111845818D01*
X120787083Y-111845818D01*
X120787083Y-112104538D01*
X120643196Y-112113633D01*
X120504790Y-112148322D01*
X120386455Y-112205594D01*
X120335971Y-112244913D01*
X120260491Y-112346088D01*
X120220130Y-112468217D01*
X120217249Y-112599702D01*
X120242874Y-112702167D01*
X120273892Y-112756429D01*
X120323029Y-112818293D01*
X120338856Y-112834939D01*
X120411916Y-112908000D01*
X120329322Y-112908000D01*
X120274372Y-112911364D01*
X120251524Y-112930606D01*
X120246752Y-112979454D01*
X120246728Y-112988818D01*
X120246728Y-113069636D01*
X121770728Y-113069636D01*
X121770728Y-112884909D01*
X121455467Y-112884909D01*
X121330107Y-112884625D01*
X121244838Y-112883165D01*
X121193571Y-112879615D01*
X121170216Y-112873062D01*
X121168684Y-112862592D01*
X121182885Y-112847293D01*
X121186024Y-112844500D01*
X121238186Y-112772270D01*
X121272980Y-112669308D01*
X121285817Y-112549263D01*
X121285819Y-112547732D01*
X121279317Y-112456671D01*
X121255589Y-112380852D01*
X121208298Y-112309320D01*
X121131107Y-112231121D01*
X121074077Y-112181692D01*
X121034680Y-112151754D01*
X121014347Y-112142191D01*
X121014222Y-112142292D01*
X120990442Y-112140407D01*
X120938833Y-112128618D01*
X120921858Y-112124046D01*
X120787083Y-112104538D01*
X120787083Y-111845818D01*
X121278549Y-111845818D01*
X121264489Y-111759227D01*
X121250430Y-111672636D01*
X120778066Y-111666369D01*
X120633704Y-111665005D01*
X120504239Y-111664826D01*
X120504239Y-110852920D01*
X120657212Y-110864558D01*
X120873804Y-110871825D01*
X120939455Y-110872061D01*
X121298855Y-110856711D01*
X121558549Y-110822664D01*
X121558549Y-111661979D01*
X121507896Y-111669614D01*
X121485336Y-111689955D01*
X121476004Y-111751387D01*
X121489571Y-111813828D01*
X121518926Y-111852662D01*
X121578655Y-111869783D01*
X121633143Y-111853912D01*
X121672720Y-111815182D01*
X121687716Y-111763726D01*
X121668462Y-111709678D01*
X121662365Y-111702352D01*
X121616335Y-111673332D01*
X121558549Y-111661979D01*
X121558549Y-110822664D01*
X121625039Y-110813946D01*
X121916580Y-110744043D01*
X122172055Y-110647280D01*
X122223395Y-110622355D01*
X122357307Y-110567784D01*
X122471598Y-110551848D01*
X122572070Y-110574624D01*
X122655274Y-110628116D01*
X122719566Y-110701648D01*
X122762422Y-110788166D01*
X122778962Y-110873633D01*
X122764771Y-110943153D01*
X122764771Y-110943153D01*
G37*
X122764771Y-110943153D02*
X122750909Y-110981748D01*
X122752854Y-110996066D01*
X122751037Y-111021399D01*
X122736558Y-111078816D01*
X122712376Y-111156940D01*
X122706465Y-111174548D01*
X122673298Y-111281621D01*
X122642998Y-111395652D01*
X122623693Y-111484075D01*
X122607903Y-111562438D01*
X122592809Y-111623029D01*
X122583328Y-111649220D01*
X122565702Y-111690171D01*
X122564439Y-111695727D01*
X122557096Y-111733505D01*
X122546129Y-111788091D01*
X122534342Y-111856063D01*
X122522469Y-111939324D01*
X122519757Y-111961273D01*
X122509688Y-112033798D01*
X122499138Y-112091330D01*
X122495904Y-112104168D01*
X122486568Y-112165581D01*
X122482218Y-112261849D01*
X122482460Y-112381962D01*
X122486897Y-112514907D01*
X122495136Y-112649674D01*
X122506780Y-112775249D01*
X122521435Y-112880623D01*
X122524335Y-112896455D01*
X122543734Y-112997079D01*
X122556918Y-113062835D01*
X122566396Y-113104204D01*
X122574676Y-113131668D01*
X122584268Y-113155709D01*
X122589013Y-113166667D01*
X122596874Y-113211131D01*
X122592124Y-113228571D01*
X122593763Y-113259112D01*
X122600154Y-113264768D01*
X122619182Y-113297008D01*
X122621886Y-113318318D01*
X122622366Y-113336037D01*
X122625320Y-113357402D01*
X122632648Y-113389497D01*
X122646255Y-113439409D01*
X122668041Y-113514223D01*
X122699909Y-113621023D01*
X122730383Y-113722427D01*
X122758341Y-113826156D01*
X122774043Y-113908135D01*
X122775751Y-113958710D01*
X122773984Y-113964881D01*
X122755652Y-114015288D01*
X122750470Y-114034887D01*
X122715281Y-114109758D01*
X122649584Y-114177763D01*
X122583561Y-114217005D01*
X122502970Y-114236632D01*
X122410177Y-114239250D01*
X122324013Y-114225962D01*
X122263739Y-114198233D01*
X122237640Y-114182633D01*
X122232546Y-114185694D01*
X122213374Y-114187192D01*
X122165329Y-114174927D01*
X122143799Y-114167731D01*
X122046620Y-114138152D01*
X121915316Y-114104764D01*
X121761533Y-114069904D01*
X121596917Y-114035904D01*
X121433114Y-114005101D01*
X121281771Y-113979827D01*
X121154534Y-113962418D01*
X121089395Y-113956369D01*
X120902488Y-113951706D01*
X120707768Y-113962198D01*
X120497809Y-113988927D01*
X120265189Y-114032975D01*
X120002482Y-114095423D01*
X119842637Y-114137960D01*
X119755481Y-114161720D01*
X119685842Y-114180403D01*
X119645396Y-114190888D01*
X119640591Y-114191990D01*
X119605955Y-114201722D01*
X119567993Y-114212013D01*
X119565546Y-114212492D01*
X119527875Y-114221469D01*
X119476863Y-114235095D01*
X119383536Y-114239539D01*
X119283357Y-114209616D01*
X119192724Y-114150861D01*
X119173984Y-114132845D01*
X119119023Y-114042149D01*
X119098758Y-113921087D01*
X119113197Y-113769780D01*
X119140269Y-113658455D01*
X119165287Y-113573854D01*
X119186817Y-113504023D01*
X119200415Y-113463361D01*
X119200874Y-113462182D01*
X119217583Y-113410270D01*
X119221127Y-113395273D01*
X119231781Y-113355010D01*
X119251259Y-113290199D01*
X119261854Y-113256727D01*
X119282309Y-113180387D01*
X119304060Y-113079117D01*
X119322655Y-112973810D01*
X119323890Y-112965727D01*
X119338434Y-112874557D01*
X119352019Y-112798672D01*
X119362165Y-112751701D01*
X119363772Y-112746364D01*
X119374357Y-112690389D01*
X119381703Y-112600293D01*
X119385683Y-112488031D01*
X119386165Y-112365560D01*
X119383023Y-112244834D01*
X119376125Y-112137809D01*
X119370857Y-112090387D01*
X119357320Y-111988171D01*
X119344913Y-111891036D01*
X119336065Y-111818048D01*
X119335286Y-111811182D01*
X119323954Y-111746885D01*
X119302600Y-111654748D01*
X119275094Y-111550974D01*
X119263581Y-111511000D01*
X119205931Y-111311379D01*
X119163017Y-111149918D01*
X119134505Y-111021122D01*
X119120065Y-110919497D01*
X119119366Y-110839549D01*
X119132074Y-110775781D01*
X119157859Y-110722700D01*
X119196389Y-110674812D01*
X119212150Y-110658914D01*
X119266127Y-110612042D01*
X119315619Y-110588937D01*
X119381616Y-110581682D01*
X119417569Y-110581448D01*
X119566374Y-110602708D01*
X119646364Y-110633581D01*
X119730849Y-110671803D01*
X119817476Y-110705730D01*
X119842637Y-110714244D01*
X119906037Y-110735760D01*
X119951011Y-110753560D01*
X119958091Y-110757156D01*
X119999553Y-110774677D01*
X120004273Y-110775864D01*
X120043169Y-110784640D01*
X120085091Y-110794250D01*
X120248731Y-110824484D01*
X120444146Y-110848349D01*
X120504239Y-110852920D01*
X120504239Y-111664826D01*
X120397082Y-111665758D01*
X120319649Y-111667726D01*
X120279351Y-111670655D01*
X120276215Y-111671417D01*
X120256559Y-111699846D01*
X120246925Y-111754769D01*
X120246728Y-111764275D01*
X120246728Y-111845818D01*
X120787083Y-111845818D01*
X120787083Y-112104538D01*
X120643196Y-112113633D01*
X120504790Y-112148322D01*
X120386455Y-112205594D01*
X120335971Y-112244913D01*
X120260491Y-112346088D01*
X120220130Y-112468217D01*
X120217249Y-112599702D01*
X120242874Y-112702167D01*
X120273892Y-112756429D01*
X120323029Y-112818293D01*
X120338856Y-112834939D01*
X120411916Y-112908000D01*
X120329322Y-112908000D01*
X120274372Y-112911364D01*
X120251524Y-112930606D01*
X120246752Y-112979454D01*
X120246728Y-112988818D01*
X120246728Y-113069636D01*
X121770728Y-113069636D01*
X121770728Y-112884909D01*
X121455467Y-112884909D01*
X121330107Y-112884625D01*
X121244838Y-112883165D01*
X121193571Y-112879615D01*
X121170216Y-112873062D01*
X121168684Y-112862592D01*
X121182885Y-112847293D01*
X121186024Y-112844500D01*
X121238186Y-112772270D01*
X121272980Y-112669308D01*
X121285817Y-112549263D01*
X121285819Y-112547732D01*
X121279317Y-112456671D01*
X121255589Y-112380852D01*
X121208298Y-112309320D01*
X121131107Y-112231121D01*
X121074077Y-112181692D01*
X121034680Y-112151754D01*
X121014347Y-112142191D01*
X121014222Y-112142292D01*
X120990442Y-112140407D01*
X120938833Y-112128618D01*
X120921858Y-112124046D01*
X120787083Y-112104538D01*
X120787083Y-111845818D01*
X121278549Y-111845818D01*
X121264489Y-111759227D01*
X121250430Y-111672636D01*
X120778066Y-111666369D01*
X120633704Y-111665005D01*
X120504239Y-111664826D01*
X120504239Y-110852920D01*
X120657212Y-110864558D01*
X120873804Y-110871825D01*
X120939455Y-110872061D01*
X121298855Y-110856711D01*
X121558549Y-110822664D01*
X121558549Y-111661979D01*
X121507896Y-111669614D01*
X121485336Y-111689955D01*
X121476004Y-111751387D01*
X121489571Y-111813828D01*
X121518926Y-111852662D01*
X121578655Y-111869783D01*
X121633143Y-111853912D01*
X121672720Y-111815182D01*
X121687716Y-111763726D01*
X121668462Y-111709678D01*
X121662365Y-111702352D01*
X121616335Y-111673332D01*
X121558549Y-111661979D01*
X121558549Y-110822664D01*
X121625039Y-110813946D01*
X121916580Y-110744043D01*
X122172055Y-110647280D01*
X122223395Y-110622355D01*
X122357307Y-110567784D01*
X122471598Y-110551848D01*
X122572070Y-110574624D01*
X122655274Y-110628116D01*
X122719566Y-110701648D01*
X122762422Y-110788166D01*
X122778962Y-110873633D01*
X122764771Y-110943153D01*
G36*
X118577572Y-113502845D02*
X118550446Y-113513365D01*
X118492107Y-113513925D01*
X118461603Y-113512254D01*
X118377595Y-113511957D01*
X118327273Y-113525480D01*
X118308898Y-113540823D01*
X118284182Y-113589532D01*
X118303185Y-113623397D01*
X118365891Y-113642405D01*
X118444912Y-113646909D01*
X118521945Y-113648117D01*
X118563622Y-113654728D01*
X118580760Y-113671227D01*
X118584177Y-113702097D01*
X118584182Y-113704636D01*
X118582257Y-113733093D01*
X118570249Y-113750217D01*
X118538807Y-113758885D01*
X118478581Y-113761975D01*
X118396569Y-113762364D01*
X118208955Y-113762364D01*
X118222630Y-113693986D01*
X118225711Y-113641476D01*
X118213971Y-113611805D01*
X118192848Y-113575047D01*
X118210735Y-113517161D01*
X118227582Y-113490411D01*
X118252869Y-113462766D01*
X118288393Y-113447194D01*
X118346731Y-113440408D01*
X118423855Y-113439091D01*
X118509222Y-113440664D01*
X118558020Y-113446990D01*
X118579803Y-113460475D01*
X118584214Y-113479500D01*
X118577572Y-113502845D01*
X118577572Y-113502845D01*
G37*
X118577572Y-113502845D02*
X118550446Y-113513365D01*
X118492107Y-113513925D01*
X118461603Y-113512254D01*
X118377595Y-113511957D01*
X118327273Y-113525480D01*
X118308898Y-113540823D01*
X118284182Y-113589532D01*
X118303185Y-113623397D01*
X118365891Y-113642405D01*
X118444912Y-113646909D01*
X118521945Y-113648117D01*
X118563622Y-113654728D01*
X118580760Y-113671227D01*
X118584177Y-113702097D01*
X118584182Y-113704636D01*
X118582257Y-113733093D01*
X118570249Y-113750217D01*
X118538807Y-113758885D01*
X118478581Y-113761975D01*
X118396569Y-113762364D01*
X118208955Y-113762364D01*
X118222630Y-113693986D01*
X118225711Y-113641476D01*
X118213971Y-113611805D01*
X118192848Y-113575047D01*
X118210735Y-113517161D01*
X118227582Y-113490411D01*
X118252869Y-113462766D01*
X118288393Y-113447194D01*
X118346731Y-113440408D01*
X118423855Y-113439091D01*
X118509222Y-113440664D01*
X118558020Y-113446990D01*
X118579803Y-113460475D01*
X118584214Y-113479500D01*
X118577572Y-113502845D01*
G36*
X118651475Y-112393952D02*
X118641304Y-112395761D01*
X118596820Y-112413376D01*
X118584193Y-112458797D01*
X118584182Y-112460954D01*
X118575429Y-112503845D01*
X118544935Y-112511029D01*
X118543773Y-112510806D01*
X118512474Y-112485608D01*
X118510588Y-112451385D01*
X118510448Y-112419934D01*
X118490842Y-112404830D01*
X118440524Y-112400219D01*
X118411880Y-112400000D01*
X118344710Y-112403270D01*
X118308007Y-112418135D01*
X118286230Y-112452175D01*
X118281704Y-112463500D01*
X118262991Y-112506044D01*
X118246952Y-112509206D01*
X118224548Y-112482178D01*
X118196723Y-112437585D01*
X118198243Y-112404308D01*
X118221371Y-112368163D01*
X118266002Y-112338108D01*
X118347327Y-112324243D01*
X118365689Y-112323341D01*
X118447613Y-112313174D01*
X118501258Y-112291789D01*
X118509137Y-112284546D01*
X118536095Y-112261601D01*
X118561153Y-112277781D01*
X118566948Y-112284546D01*
X118608528Y-112317978D01*
X118630229Y-112326806D01*
X118673281Y-112347586D01*
X118681077Y-112374409D01*
X118651475Y-112393952D01*
X118651475Y-112393952D01*
G37*
X118651475Y-112393952D02*
X118641304Y-112395761D01*
X118596820Y-112413376D01*
X118584193Y-112458797D01*
X118584182Y-112460954D01*
X118575429Y-112503845D01*
X118544935Y-112511029D01*
X118543773Y-112510806D01*
X118512474Y-112485608D01*
X118510588Y-112451385D01*
X118510448Y-112419934D01*
X118490842Y-112404830D01*
X118440524Y-112400219D01*
X118411880Y-112400000D01*
X118344710Y-112403270D01*
X118308007Y-112418135D01*
X118286230Y-112452175D01*
X118281704Y-112463500D01*
X118262991Y-112506044D01*
X118246952Y-112509206D01*
X118224548Y-112482178D01*
X118196723Y-112437585D01*
X118198243Y-112404308D01*
X118221371Y-112368163D01*
X118266002Y-112338108D01*
X118347327Y-112324243D01*
X118365689Y-112323341D01*
X118447613Y-112313174D01*
X118501258Y-112291789D01*
X118509137Y-112284546D01*
X118536095Y-112261601D01*
X118561153Y-112277781D01*
X118566948Y-112284546D01*
X118608528Y-112317978D01*
X118630229Y-112326806D01*
X118673281Y-112347586D01*
X118681077Y-112374409D01*
X118651475Y-112393952D01*
G36*
X118579744Y-111267092D02*
X118563825Y-111300511D01*
X118532513Y-111302001D01*
X118524362Y-111299183D01*
X118502406Y-111268648D01*
X118505399Y-111234021D01*
X118508960Y-111183788D01*
X118490608Y-111169053D01*
X118457981Y-111189823D01*
X118425585Y-111233943D01*
X118373152Y-111293064D01*
X118316464Y-111312459D01*
X118263859Y-111296836D01*
X118223675Y-111250903D01*
X118204249Y-111179365D01*
X118208394Y-111111332D01*
X118229896Y-111070137D01*
X118256920Y-111065987D01*
X118286418Y-111091439D01*
X118287636Y-111119292D01*
X118279224Y-111168580D01*
X118276091Y-111187727D01*
X118283996Y-111211576D01*
X118311514Y-111208209D01*
X118345772Y-111183233D01*
X118372250Y-111145838D01*
X118416064Y-111083521D01*
X118470219Y-111064617D01*
X118527927Y-111080288D01*
X118566596Y-111107846D01*
X118582298Y-111153655D01*
X118584182Y-111194929D01*
X118579744Y-111267092D01*
X118579744Y-111267092D01*
G37*
X118579744Y-111267092D02*
X118563825Y-111300511D01*
X118532513Y-111302001D01*
X118524362Y-111299183D01*
X118502406Y-111268648D01*
X118505399Y-111234021D01*
X118508960Y-111183788D01*
X118490608Y-111169053D01*
X118457981Y-111189823D01*
X118425585Y-111233943D01*
X118373152Y-111293064D01*
X118316464Y-111312459D01*
X118263859Y-111296836D01*
X118223675Y-111250903D01*
X118204249Y-111179365D01*
X118208394Y-111111332D01*
X118229896Y-111070137D01*
X118256920Y-111065987D01*
X118286418Y-111091439D01*
X118287636Y-111119292D01*
X118279224Y-111168580D01*
X118276091Y-111187727D01*
X118283996Y-111211576D01*
X118311514Y-111208209D01*
X118345772Y-111183233D01*
X118372250Y-111145838D01*
X118416064Y-111083521D01*
X118470219Y-111064617D01*
X118527927Y-111080288D01*
X118566596Y-111107846D01*
X118582298Y-111153655D01*
X118584182Y-111194929D01*
X118579744Y-111267092D01*
G36*
X117525830Y-112426392D02*
X117489531Y-112442693D01*
X117481926Y-112441851D01*
X117445093Y-112418019D01*
X117434376Y-112378889D01*
X117453313Y-112344861D01*
X117464119Y-112339137D01*
X117509239Y-112338871D01*
X117526619Y-112349200D01*
X117541437Y-112388500D01*
X117525830Y-112426392D01*
X117525830Y-112426392D01*
G37*
X117525830Y-112426392D02*
X117489531Y-112442693D01*
X117481926Y-112441851D01*
X117445093Y-112418019D01*
X117434376Y-112378889D01*
X117453313Y-112344861D01*
X117464119Y-112339137D01*
X117509239Y-112338871D01*
X117526619Y-112349200D01*
X117541437Y-112388500D01*
X117525830Y-112426392D01*
G36*
X117402379Y-112382682D02*
X117395038Y-112409039D01*
X117375630Y-112425218D01*
X117334240Y-112434342D01*
X117260951Y-112439536D01*
X117216046Y-112441380D01*
X117125692Y-112443756D01*
X117072055Y-112441178D01*
X117045772Y-112431732D01*
X117037478Y-112413507D01*
X117037091Y-112404820D01*
X117044466Y-112360523D01*
X117052485Y-112346121D01*
X117081560Y-112338653D01*
X117144044Y-112333182D01*
X117227174Y-112330763D01*
X117238819Y-112330727D01*
X117326090Y-112331527D01*
X117376507Y-112335901D01*
X117399391Y-112346811D01*
X117404066Y-112367218D01*
X117402379Y-112382682D01*
X117402379Y-112382682D01*
G37*
X117402379Y-112382682D02*
X117395038Y-112409039D01*
X117375630Y-112425218D01*
X117334240Y-112434342D01*
X117260951Y-112439536D01*
X117216046Y-112441380D01*
X117125692Y-112443756D01*
X117072055Y-112441178D01*
X117045772Y-112431732D01*
X117037478Y-112413507D01*
X117037091Y-112404820D01*
X117044466Y-112360523D01*
X117052485Y-112346121D01*
X117081560Y-112338653D01*
X117144044Y-112333182D01*
X117227174Y-112330763D01*
X117238819Y-112330727D01*
X117326090Y-112331527D01*
X117376507Y-112335901D01*
X117399391Y-112346811D01*
X117404066Y-112367218D01*
X117402379Y-112382682D01*
G36*
X117395939Y-113678099D02*
X117348019Y-113734248D01*
X117280966Y-113766110D01*
X117205266Y-113772995D01*
X117131403Y-113754212D01*
X117069864Y-113709069D01*
X117031132Y-113636876D01*
X117027968Y-113623818D01*
X117026639Y-113557909D01*
X117036755Y-113515646D01*
X117083263Y-113453740D01*
X117150927Y-113422204D01*
X117212070Y-113419329D01*
X117212070Y-113508102D01*
X117152911Y-113527492D01*
X117119297Y-113559572D01*
X117100534Y-113612454D01*
X117124474Y-113651530D01*
X117187182Y-113672541D01*
X117255128Y-113669675D01*
X117309994Y-113646729D01*
X117336639Y-113610639D01*
X117337273Y-113603789D01*
X117318584Y-113549158D01*
X117272072Y-113516292D01*
X117212070Y-113508102D01*
X117212070Y-113419329D01*
X117228438Y-113418559D01*
X117304489Y-113440328D01*
X117367771Y-113485033D01*
X117406979Y-113550197D01*
X117414243Y-113598356D01*
X117395939Y-113678099D01*
X117395939Y-113678099D01*
G37*
X117395939Y-113678099D02*
X117348019Y-113734248D01*
X117280966Y-113766110D01*
X117205266Y-113772995D01*
X117131403Y-113754212D01*
X117069864Y-113709069D01*
X117031132Y-113636876D01*
X117027968Y-113623818D01*
X117026639Y-113557909D01*
X117036755Y-113515646D01*
X117083263Y-113453740D01*
X117150927Y-113422204D01*
X117212070Y-113419329D01*
X117212070Y-113508102D01*
X117152911Y-113527492D01*
X117119297Y-113559572D01*
X117100534Y-113612454D01*
X117124474Y-113651530D01*
X117187182Y-113672541D01*
X117255128Y-113669675D01*
X117309994Y-113646729D01*
X117336639Y-113610639D01*
X117337273Y-113603789D01*
X117318584Y-113549158D01*
X117272072Y-113516292D01*
X117212070Y-113508102D01*
X117212070Y-113419329D01*
X117228438Y-113418559D01*
X117304489Y-113440328D01*
X117367771Y-113485033D01*
X117406979Y-113550197D01*
X117414243Y-113598356D01*
X117395939Y-113678099D01*
G36*
X117563169Y-111315434D02*
X117547596Y-111327166D01*
X117509467Y-111333927D01*
X117441052Y-111337037D01*
X117334624Y-111337817D01*
X117327421Y-111337818D01*
X117225231Y-111337827D01*
X117140568Y-111337852D01*
X117083857Y-111337887D01*
X117065955Y-111337919D01*
X117050815Y-111318346D01*
X117044368Y-111285964D01*
X117035184Y-111220917D01*
X117027955Y-111187727D01*
X117026710Y-111128510D01*
X117035894Y-111093263D01*
X117078758Y-111043253D01*
X117149342Y-111009156D01*
X117209767Y-111000805D01*
X117209767Y-111090422D01*
X117179490Y-111095231D01*
X117112471Y-111125000D01*
X117087752Y-111168631D01*
X117103233Y-111218089D01*
X117142166Y-111238451D01*
X117219154Y-111241513D01*
X117224107Y-111241180D01*
X117289684Y-111232489D01*
X117321870Y-111214304D01*
X117332902Y-111183517D01*
X117320376Y-111133377D01*
X117275163Y-111099947D01*
X117209767Y-111090422D01*
X117209767Y-111000805D01*
X117230048Y-110998002D01*
X117264081Y-111002139D01*
X117346370Y-111039546D01*
X117397832Y-111104047D01*
X117411644Y-111174767D01*
X117416235Y-111222791D01*
X117443119Y-111243597D01*
X117482985Y-111249882D01*
X117543712Y-111268160D01*
X117563914Y-111297409D01*
X117563169Y-111315434D01*
X117563169Y-111315434D01*
G37*
X117563169Y-111315434D02*
X117547596Y-111327166D01*
X117509467Y-111333927D01*
X117441052Y-111337037D01*
X117334624Y-111337817D01*
X117327421Y-111337818D01*
X117225231Y-111337827D01*
X117140568Y-111337852D01*
X117083857Y-111337887D01*
X117065955Y-111337919D01*
X117050815Y-111318346D01*
X117044368Y-111285964D01*
X117035184Y-111220917D01*
X117027955Y-111187727D01*
X117026710Y-111128510D01*
X117035894Y-111093263D01*
X117078758Y-111043253D01*
X117149342Y-111009156D01*
X117209767Y-111000805D01*
X117209767Y-111090422D01*
X117179490Y-111095231D01*
X117112471Y-111125000D01*
X117087752Y-111168631D01*
X117103233Y-111218089D01*
X117142166Y-111238451D01*
X117219154Y-111241513D01*
X117224107Y-111241180D01*
X117289684Y-111232489D01*
X117321870Y-111214304D01*
X117332902Y-111183517D01*
X117320376Y-111133377D01*
X117275163Y-111099947D01*
X117209767Y-111090422D01*
X117209767Y-111000805D01*
X117230048Y-110998002D01*
X117264081Y-111002139D01*
X117346370Y-111039546D01*
X117397832Y-111104047D01*
X117411644Y-111174767D01*
X117416235Y-111222791D01*
X117443119Y-111243597D01*
X117482985Y-111249882D01*
X117543712Y-111268160D01*
X117563914Y-111297409D01*
X117563169Y-111315434D01*
G36*
X116381428Y-113517192D02*
X116345906Y-113530000D01*
X116310305Y-113531455D01*
X116257149Y-113534468D01*
X116238444Y-113551297D01*
X116242507Y-113593623D01*
X116243438Y-113598322D01*
X116238510Y-113670107D01*
X116199183Y-113726568D01*
X116135648Y-113764399D01*
X116058098Y-113780294D01*
X115976724Y-113770945D01*
X115901717Y-113733048D01*
X115881959Y-113715595D01*
X115849111Y-113663406D01*
X115836854Y-113603914D01*
X115847489Y-113555607D01*
X115860394Y-113542420D01*
X115874068Y-113511290D01*
X115870384Y-113483330D01*
X115867061Y-113464398D01*
X115876297Y-113451805D01*
X115905444Y-113444266D01*
X115961853Y-113440495D01*
X116052879Y-113439207D01*
X116097764Y-113439134D01*
X116097764Y-113526868D01*
X116025154Y-113527354D01*
X115957591Y-113544148D01*
X115932860Y-113571680D01*
X115932463Y-113617842D01*
X115955517Y-113662575D01*
X115963111Y-113669790D01*
X116007470Y-113686247D01*
X116065980Y-113685588D01*
X116121173Y-113671102D01*
X116155581Y-113646074D01*
X116159637Y-113632799D01*
X116149076Y-113583239D01*
X116137363Y-113556073D01*
X116097764Y-113526868D01*
X116097764Y-113439134D01*
X116123444Y-113439091D01*
X116237929Y-113439576D01*
X116314026Y-113441927D01*
X116359527Y-113447493D01*
X116382221Y-113457620D01*
X116389900Y-113473656D01*
X116390546Y-113485273D01*
X116381428Y-113517192D01*
X116381428Y-113517192D01*
G37*
X116381428Y-113517192D02*
X116345906Y-113530000D01*
X116310305Y-113531455D01*
X116257149Y-113534468D01*
X116238444Y-113551297D01*
X116242507Y-113593623D01*
X116243438Y-113598322D01*
X116238510Y-113670107D01*
X116199183Y-113726568D01*
X116135648Y-113764399D01*
X116058098Y-113780294D01*
X115976724Y-113770945D01*
X115901717Y-113733048D01*
X115881959Y-113715595D01*
X115849111Y-113663406D01*
X115836854Y-113603914D01*
X115847489Y-113555607D01*
X115860394Y-113542420D01*
X115874068Y-113511290D01*
X115870384Y-113483330D01*
X115867061Y-113464398D01*
X115876297Y-113451805D01*
X115905444Y-113444266D01*
X115961853Y-113440495D01*
X116052879Y-113439207D01*
X116097764Y-113439134D01*
X116097764Y-113526868D01*
X116025154Y-113527354D01*
X115957591Y-113544148D01*
X115932860Y-113571680D01*
X115932463Y-113617842D01*
X115955517Y-113662575D01*
X115963111Y-113669790D01*
X116007470Y-113686247D01*
X116065980Y-113685588D01*
X116121173Y-113671102D01*
X116155581Y-113646074D01*
X116159637Y-113632799D01*
X116149076Y-113583239D01*
X116137363Y-113556073D01*
X116097764Y-113526868D01*
X116097764Y-113439134D01*
X116123444Y-113439091D01*
X116237929Y-113439576D01*
X116314026Y-113441927D01*
X116359527Y-113447493D01*
X116382221Y-113457620D01*
X116389900Y-113473656D01*
X116390546Y-113485273D01*
X116381428Y-113517192D01*
G36*
X116226190Y-112433681D02*
X116177649Y-112496768D01*
X116125565Y-112524645D01*
X116045642Y-112537197D01*
X115994467Y-112538546D01*
X115917923Y-112536601D01*
X115876999Y-112528529D01*
X115861218Y-112510967D01*
X115859455Y-112495250D01*
X115855419Y-112439992D01*
X115847661Y-112385568D01*
X115847031Y-112322868D01*
X115860354Y-112278773D01*
X115903011Y-112247460D01*
X115965522Y-112239685D01*
X115965727Y-112239738D01*
X115965727Y-112334568D01*
X115930629Y-112343670D01*
X115918305Y-112373112D01*
X115924854Y-112392258D01*
X115960397Y-112427882D01*
X115982263Y-112436397D01*
X116019381Y-112425760D01*
X116030620Y-112392180D01*
X116010118Y-112354334D01*
X116008467Y-112352923D01*
X115965727Y-112334568D01*
X115965727Y-112239738D01*
X116027759Y-112255877D01*
X116054078Y-112274649D01*
X116082609Y-112325659D01*
X116090364Y-112369484D01*
X116097548Y-112411092D01*
X116123026Y-112415393D01*
X116126889Y-112414016D01*
X116163363Y-112401802D01*
X116172499Y-112400000D01*
X116172176Y-112381590D01*
X116159948Y-112343090D01*
X116152200Y-112291289D01*
X116170061Y-112267085D01*
X116203200Y-112277941D01*
X116221897Y-112298336D01*
X116242568Y-112362157D01*
X116226190Y-112433681D01*
X116226190Y-112433681D01*
G37*
X116226190Y-112433681D02*
X116177649Y-112496768D01*
X116125565Y-112524645D01*
X116045642Y-112537197D01*
X115994467Y-112538546D01*
X115917923Y-112536601D01*
X115876999Y-112528529D01*
X115861218Y-112510967D01*
X115859455Y-112495250D01*
X115855419Y-112439992D01*
X115847661Y-112385568D01*
X115847031Y-112322868D01*
X115860354Y-112278773D01*
X115903011Y-112247460D01*
X115965522Y-112239685D01*
X115965727Y-112239738D01*
X115965727Y-112334568D01*
X115930629Y-112343670D01*
X115918305Y-112373112D01*
X115924854Y-112392258D01*
X115960397Y-112427882D01*
X115982263Y-112436397D01*
X116019381Y-112425760D01*
X116030620Y-112392180D01*
X116010118Y-112354334D01*
X116008467Y-112352923D01*
X115965727Y-112334568D01*
X115965727Y-112239738D01*
X116027759Y-112255877D01*
X116054078Y-112274649D01*
X116082609Y-112325659D01*
X116090364Y-112369484D01*
X116097548Y-112411092D01*
X116123026Y-112415393D01*
X116126889Y-112414016D01*
X116163363Y-112401802D01*
X116172499Y-112400000D01*
X116172176Y-112381590D01*
X116159948Y-112343090D01*
X116152200Y-112291289D01*
X116170061Y-112267085D01*
X116203200Y-112277941D01*
X116221897Y-112298336D01*
X116242568Y-112362157D01*
X116226190Y-112433681D01*
G36*
X116386258Y-111199210D02*
X116368341Y-111210755D01*
X116329237Y-111217709D01*
X116261381Y-111221190D01*
X116157209Y-111222317D01*
X116117303Y-111222364D01*
X115998784Y-111221477D01*
X115919317Y-111218217D01*
X115871796Y-111211681D01*
X115849116Y-111200971D01*
X115844061Y-111187727D01*
X115845115Y-111156435D01*
X115845985Y-111152312D01*
X115868353Y-111151610D01*
X115927794Y-111150279D01*
X116015205Y-111148511D01*
X116119232Y-111146539D01*
X116235279Y-111145008D01*
X116312788Y-111146150D01*
X116359369Y-111150960D01*
X116382637Y-111160431D01*
X116390202Y-111175557D01*
X116390550Y-111181955D01*
X116386258Y-111199210D01*
X116386258Y-111199210D01*
G37*
X116386258Y-111199210D02*
X116368341Y-111210755D01*
X116329237Y-111217709D01*
X116261381Y-111221190D01*
X116157209Y-111222317D01*
X116117303Y-111222364D01*
X115998784Y-111221477D01*
X115919317Y-111218217D01*
X115871796Y-111211681D01*
X115849116Y-111200971D01*
X115844061Y-111187727D01*
X115845115Y-111156435D01*
X115845985Y-111152312D01*
X115868353Y-111151610D01*
X115927794Y-111150279D01*
X116015205Y-111148511D01*
X116119232Y-111146539D01*
X116235279Y-111145008D01*
X116312788Y-111146150D01*
X116359369Y-111150960D01*
X116382637Y-111160431D01*
X116390202Y-111175557D01*
X116390550Y-111181955D01*
X116386258Y-111199210D01*
G04 #@! TD*
M02*
