G04 #@! TF.GenerationSoftware,KiCad,Pcbnew,(5.0.1-3-g963ef8bb5)*
G04 #@! TF.CreationDate,2019-07-31T15:24:12+02:00*
G04 #@! TF.ProjectId,StudIOT,53747564494F542E6B696361645F7063,rev?*
G04 #@! TF.SameCoordinates,Original*
G04 #@! TF.FileFunction,Legend,Bot*
G04 #@! TF.FilePolarity,Positive*
%FSLAX46Y46*%
G04 Gerber Fmt 4.6, Leading zero omitted, Abs format (unit mm)*
G04 Created by KiCad (PCBNEW (5.0.1-3-g963ef8bb5)) date 2019 July 31, Wednesday 15:24:12*
%MOMM*%
%LPD*%
G01*
G04 APERTURE LIST*
%ADD10C,0.200000*%
%ADD11C,0.110000*%
%ADD12C,0.150000*%
%ADD13C,0.120000*%
G04 APERTURE END LIST*
D10*
X98461904Y-105352380D02*
X97842857Y-105352380D01*
X98176190Y-105733333D01*
X98033333Y-105733333D01*
X97938095Y-105780952D01*
X97890476Y-105828571D01*
X97842857Y-105923809D01*
X97842857Y-106161904D01*
X97890476Y-106257142D01*
X97938095Y-106304761D01*
X98033333Y-106352380D01*
X98319047Y-106352380D01*
X98414285Y-106304761D01*
X98461904Y-106257142D01*
X97557142Y-105352380D02*
X97223809Y-106352380D01*
X96890476Y-105352380D01*
X97990476Y-102752380D02*
X98466666Y-102752380D01*
X98514285Y-103228571D01*
X98466666Y-103180952D01*
X98371428Y-103133333D01*
X98133333Y-103133333D01*
X98038095Y-103180952D01*
X97990476Y-103228571D01*
X97942857Y-103323809D01*
X97942857Y-103561904D01*
X97990476Y-103657142D01*
X98038095Y-103704761D01*
X98133333Y-103752380D01*
X98371428Y-103752380D01*
X98466666Y-103704761D01*
X98514285Y-103657142D01*
X97657142Y-102752380D02*
X97323809Y-103752380D01*
X96990476Y-102752380D01*
D11*
X105133571Y-120814285D02*
X105133571Y-121157142D01*
X105133571Y-120985714D02*
X105733571Y-120985714D01*
X105647857Y-121042857D01*
X105590714Y-121100000D01*
X105562142Y-121157142D01*
X105133571Y-120528571D02*
X105133571Y-120414285D01*
X105162142Y-120357142D01*
X105190714Y-120328571D01*
X105276428Y-120271428D01*
X105390714Y-120242857D01*
X105619285Y-120242857D01*
X105676428Y-120271428D01*
X105705000Y-120300000D01*
X105733571Y-120357142D01*
X105733571Y-120471428D01*
X105705000Y-120528571D01*
X105676428Y-120557142D01*
X105619285Y-120585714D01*
X105476428Y-120585714D01*
X105419285Y-120557142D01*
X105390714Y-120528571D01*
X105362142Y-120471428D01*
X105362142Y-120357142D01*
X105390714Y-120300000D01*
X105419285Y-120271428D01*
X105476428Y-120242857D01*
X105733571Y-119871428D02*
X105733571Y-119814285D01*
X105705000Y-119757142D01*
X105676428Y-119728571D01*
X105619285Y-119700000D01*
X105505000Y-119671428D01*
X105362142Y-119671428D01*
X105247857Y-119700000D01*
X105190714Y-119728571D01*
X105162142Y-119757142D01*
X105133571Y-119814285D01*
X105133571Y-119871428D01*
X105162142Y-119928571D01*
X105190714Y-119957142D01*
X105247857Y-119985714D01*
X105362142Y-120014285D01*
X105505000Y-120014285D01*
X105619285Y-119985714D01*
X105676428Y-119957142D01*
X105705000Y-119928571D01*
X105733571Y-119871428D01*
X105733571Y-119471428D02*
X105733571Y-119071428D01*
X105133571Y-119328571D01*
X105733571Y-118900000D02*
X105733571Y-118528571D01*
X105505000Y-118728571D01*
X105505000Y-118642857D01*
X105476428Y-118585714D01*
X105447857Y-118557142D01*
X105390714Y-118528571D01*
X105247857Y-118528571D01*
X105190714Y-118557142D01*
X105162142Y-118585714D01*
X105133571Y-118642857D01*
X105133571Y-118814285D01*
X105162142Y-118871428D01*
X105190714Y-118900000D01*
X105133571Y-117957142D02*
X105133571Y-118300000D01*
X105133571Y-118128571D02*
X105733571Y-118128571D01*
X105647857Y-118185714D01*
X105590714Y-118242857D01*
X105562142Y-118300000D01*
X105133571Y-117700000D02*
X105733571Y-117700000D01*
X105305000Y-117500000D01*
X105733571Y-117300000D01*
X105133571Y-117300000D01*
X105190714Y-116671428D02*
X105162142Y-116700000D01*
X105133571Y-116785714D01*
X105133571Y-116842857D01*
X105162142Y-116928571D01*
X105219285Y-116985714D01*
X105276428Y-117014285D01*
X105390714Y-117042857D01*
X105476428Y-117042857D01*
X105590714Y-117014285D01*
X105647857Y-116985714D01*
X105705000Y-116928571D01*
X105733571Y-116842857D01*
X105733571Y-116785714D01*
X105705000Y-116700000D01*
X105676428Y-116671428D01*
X105133571Y-116414285D02*
X105733571Y-116414285D01*
X105447857Y-116414285D02*
X105447857Y-116071428D01*
X105133571Y-116071428D02*
X105733571Y-116071428D01*
X104123571Y-120085714D02*
X104723571Y-120085714D01*
X104437857Y-120085714D02*
X104437857Y-119742857D01*
X104123571Y-119742857D02*
X104723571Y-119742857D01*
X104723571Y-119514285D02*
X104123571Y-119371428D01*
X104552142Y-119257142D01*
X104123571Y-119142857D01*
X104723571Y-119000000D01*
X104723571Y-118857142D02*
X104123571Y-118657142D01*
X104723571Y-118457142D01*
X104123571Y-117942857D02*
X104123571Y-118285714D01*
X104123571Y-118114285D02*
X104723571Y-118114285D01*
X104637857Y-118171428D01*
X104580714Y-118228571D01*
X104552142Y-118285714D01*
X104180714Y-117685714D02*
X104152142Y-117657142D01*
X104123571Y-117685714D01*
X104152142Y-117714285D01*
X104180714Y-117685714D01*
X104123571Y-117685714D01*
X104723571Y-117285714D02*
X104723571Y-117228571D01*
X104695000Y-117171428D01*
X104666428Y-117142857D01*
X104609285Y-117114285D01*
X104495000Y-117085714D01*
X104352142Y-117085714D01*
X104237857Y-117114285D01*
X104180714Y-117142857D01*
X104152142Y-117171428D01*
X104123571Y-117228571D01*
X104123571Y-117285714D01*
X104152142Y-117342857D01*
X104180714Y-117371428D01*
X104237857Y-117400000D01*
X104352142Y-117428571D01*
X104495000Y-117428571D01*
X104609285Y-117400000D01*
X104666428Y-117371428D01*
X104695000Y-117342857D01*
X104723571Y-117285714D01*
X124233571Y-120614285D02*
X124233571Y-120957142D01*
X124233571Y-120785714D02*
X124833571Y-120785714D01*
X124747857Y-120842857D01*
X124690714Y-120900000D01*
X124662142Y-120957142D01*
X124233571Y-120328571D02*
X124233571Y-120214285D01*
X124262142Y-120157142D01*
X124290714Y-120128571D01*
X124376428Y-120071428D01*
X124490714Y-120042857D01*
X124719285Y-120042857D01*
X124776428Y-120071428D01*
X124805000Y-120100000D01*
X124833571Y-120157142D01*
X124833571Y-120271428D01*
X124805000Y-120328571D01*
X124776428Y-120357142D01*
X124719285Y-120385714D01*
X124576428Y-120385714D01*
X124519285Y-120357142D01*
X124490714Y-120328571D01*
X124462142Y-120271428D01*
X124462142Y-120157142D01*
X124490714Y-120100000D01*
X124519285Y-120071428D01*
X124576428Y-120042857D01*
X124833571Y-119671428D02*
X124833571Y-119614285D01*
X124805000Y-119557142D01*
X124776428Y-119528571D01*
X124719285Y-119500000D01*
X124605000Y-119471428D01*
X124462142Y-119471428D01*
X124347857Y-119500000D01*
X124290714Y-119528571D01*
X124262142Y-119557142D01*
X124233571Y-119614285D01*
X124233571Y-119671428D01*
X124262142Y-119728571D01*
X124290714Y-119757142D01*
X124347857Y-119785714D01*
X124462142Y-119814285D01*
X124605000Y-119814285D01*
X124719285Y-119785714D01*
X124776428Y-119757142D01*
X124805000Y-119728571D01*
X124833571Y-119671428D01*
X124833571Y-119271428D02*
X124833571Y-118871428D01*
X124233571Y-119128571D01*
X124833571Y-118700000D02*
X124833571Y-118328571D01*
X124605000Y-118528571D01*
X124605000Y-118442857D01*
X124576428Y-118385714D01*
X124547857Y-118357142D01*
X124490714Y-118328571D01*
X124347857Y-118328571D01*
X124290714Y-118357142D01*
X124262142Y-118385714D01*
X124233571Y-118442857D01*
X124233571Y-118614285D01*
X124262142Y-118671428D01*
X124290714Y-118700000D01*
X124233571Y-117757142D02*
X124233571Y-118100000D01*
X124233571Y-117928571D02*
X124833571Y-117928571D01*
X124747857Y-117985714D01*
X124690714Y-118042857D01*
X124662142Y-118100000D01*
X124233571Y-117500000D02*
X124833571Y-117500000D01*
X124405000Y-117300000D01*
X124833571Y-117100000D01*
X124233571Y-117100000D01*
X124290714Y-116471428D02*
X124262142Y-116500000D01*
X124233571Y-116585714D01*
X124233571Y-116642857D01*
X124262142Y-116728571D01*
X124319285Y-116785714D01*
X124376428Y-116814285D01*
X124490714Y-116842857D01*
X124576428Y-116842857D01*
X124690714Y-116814285D01*
X124747857Y-116785714D01*
X124805000Y-116728571D01*
X124833571Y-116642857D01*
X124833571Y-116585714D01*
X124805000Y-116500000D01*
X124776428Y-116471428D01*
X124233571Y-116214285D02*
X124833571Y-116214285D01*
X124547857Y-116214285D02*
X124547857Y-115871428D01*
X124233571Y-115871428D02*
X124833571Y-115871428D01*
X123223571Y-119885714D02*
X123823571Y-119885714D01*
X123537857Y-119885714D02*
X123537857Y-119542857D01*
X123223571Y-119542857D02*
X123823571Y-119542857D01*
X123823571Y-119314285D02*
X123223571Y-119171428D01*
X123652142Y-119057142D01*
X123223571Y-118942857D01*
X123823571Y-118800000D01*
X123823571Y-118657142D02*
X123223571Y-118457142D01*
X123823571Y-118257142D01*
X123223571Y-117742857D02*
X123223571Y-118085714D01*
X123223571Y-117914285D02*
X123823571Y-117914285D01*
X123737857Y-117971428D01*
X123680714Y-118028571D01*
X123652142Y-118085714D01*
X123280714Y-117485714D02*
X123252142Y-117457142D01*
X123223571Y-117485714D01*
X123252142Y-117514285D01*
X123280714Y-117485714D01*
X123223571Y-117485714D01*
X123823571Y-117085714D02*
X123823571Y-117028571D01*
X123795000Y-116971428D01*
X123766428Y-116942857D01*
X123709285Y-116914285D01*
X123595000Y-116885714D01*
X123452142Y-116885714D01*
X123337857Y-116914285D01*
X123280714Y-116942857D01*
X123252142Y-116971428D01*
X123223571Y-117028571D01*
X123223571Y-117085714D01*
X123252142Y-117142857D01*
X123280714Y-117171428D01*
X123337857Y-117200000D01*
X123452142Y-117228571D01*
X123595000Y-117228571D01*
X123709285Y-117200000D01*
X123766428Y-117171428D01*
X123795000Y-117142857D01*
X123823571Y-117085714D01*
D12*
G04 #@! TO.C,U20*
X98375000Y-89425000D02*
X98375000Y-89300000D01*
X101625000Y-89425000D02*
X101625000Y-89200000D01*
X101625000Y-86175000D02*
X101625000Y-86400000D01*
X98375000Y-86175000D02*
X98375000Y-86400000D01*
X98375000Y-89425000D02*
X101625000Y-89425000D01*
X98375000Y-86175000D02*
X101625000Y-86175000D01*
X98375000Y-89300000D02*
X97300000Y-89300000D01*
D13*
G04 #@! TO.C,Q30*
X97240000Y-97880000D02*
X97240000Y-96950000D01*
X97240000Y-94720000D02*
X97240000Y-95650000D01*
X97240000Y-94720000D02*
X99400000Y-94720000D01*
X97240000Y-97880000D02*
X98700000Y-97880000D01*
G04 #@! TO.C,Q40*
X102760000Y-94720000D02*
X101300000Y-94720000D01*
X102760000Y-97880000D02*
X100600000Y-97880000D01*
X102760000Y-97880000D02*
X102760000Y-96950000D01*
X102760000Y-94720000D02*
X102760000Y-95650000D01*
G04 #@! TO.C,Q50*
X100250000Y-111140000D02*
X102150000Y-111140000D01*
X101650000Y-113460000D02*
X100250000Y-113460000D01*
G04 #@! TO.C,Q60*
X102200000Y-103640000D02*
X104100000Y-103640000D01*
X103600000Y-105960000D02*
X102200000Y-105960000D01*
G04 #@! TO.C,JP60*
X96600000Y-103300000D02*
X96900000Y-103600000D01*
X96900000Y-103000000D02*
X96900000Y-103600000D01*
X96600000Y-103300000D02*
X96900000Y-103000000D01*
X95700000Y-102450000D02*
X95100000Y-102450000D01*
X96400000Y-105900000D02*
X96400000Y-103100000D01*
X95100000Y-106550000D02*
X95700000Y-106550000D01*
X94400000Y-103100000D02*
X94400000Y-105900000D01*
X94400000Y-105850000D02*
G75*
G03X95100000Y-106550000I700000J0D01*
G01*
X95700000Y-106550000D02*
G75*
G03X96400000Y-105850000I0J700000D01*
G01*
X96400000Y-103150000D02*
G75*
G03X95700000Y-102450000I-700000J0D01*
G01*
X95100000Y-102450000D02*
G75*
G03X94400000Y-103150000I0J-700000D01*
G01*
G04 #@! TO.C,C10*
X116212779Y-110990000D02*
X115887221Y-110990000D01*
X116212779Y-112010000D02*
X115887221Y-112010000D01*
G04 #@! TO.C,D70*
X120250000Y-81000000D02*
X124150000Y-81000000D01*
X120250000Y-79000000D02*
X124150000Y-79000000D01*
X120250000Y-81000000D02*
X120250000Y-79000000D01*
G04 #@! TO.C,D71*
X119350000Y-79000000D02*
X119350000Y-81000000D01*
X119350000Y-81000000D02*
X115450000Y-81000000D01*
X119350000Y-79000000D02*
X115450000Y-79000000D01*
G04 #@! TO.C,D80*
X120250000Y-89000000D02*
X124150000Y-89000000D01*
X120250000Y-87000000D02*
X124150000Y-87000000D01*
X120250000Y-89000000D02*
X120250000Y-87000000D01*
G04 #@! TO.C,D81*
X119350000Y-87000000D02*
X119350000Y-89000000D01*
X119350000Y-89000000D02*
X115450000Y-89000000D01*
X119350000Y-87000000D02*
X115450000Y-87000000D01*
G04 #@! TO.C,D90*
X120250000Y-97000000D02*
X124150000Y-97000000D01*
X120250000Y-95000000D02*
X124150000Y-95000000D01*
X120250000Y-97000000D02*
X120250000Y-95000000D01*
G04 #@! TO.C,D91*
X119350000Y-95000000D02*
X119350000Y-97000000D01*
X119350000Y-97000000D02*
X115450000Y-97000000D01*
X119350000Y-95000000D02*
X115450000Y-95000000D01*
G04 #@! TO.C,D100*
X120250000Y-105000000D02*
X124150000Y-105000000D01*
X120250000Y-103000000D02*
X124150000Y-103000000D01*
X120250000Y-105000000D02*
X120250000Y-103000000D01*
G04 #@! TO.C,D101*
X119350000Y-103000000D02*
X119350000Y-105000000D01*
X119350000Y-105000000D02*
X115450000Y-105000000D01*
X119350000Y-103000000D02*
X115450000Y-103000000D01*
G04 #@! TO.C,J1*
X108950000Y-80890000D02*
X107620000Y-80890000D01*
X108950000Y-82220000D02*
X108950000Y-80890000D01*
X108950000Y-83490000D02*
X106290000Y-83490000D01*
X106290000Y-83490000D02*
X106290000Y-119110000D01*
X108950000Y-83490000D02*
X108950000Y-119110000D01*
X108950000Y-119110000D02*
X106290000Y-119110000D01*
G04 #@! TO.C,J2*
X93710000Y-119110000D02*
X91050000Y-119110000D01*
X93710000Y-83490000D02*
X93710000Y-119110000D01*
X91050000Y-83490000D02*
X91050000Y-119110000D01*
X93710000Y-83490000D02*
X91050000Y-83490000D01*
X93710000Y-82220000D02*
X93710000Y-80890000D01*
X93710000Y-80890000D02*
X92380000Y-80890000D01*
G04 #@! TO.C,J10*
X121710000Y-115640000D02*
X121990000Y-115640000D01*
X121990000Y-115640000D02*
X121990000Y-114040000D01*
X121990000Y-114040000D02*
X122910000Y-114040000D01*
X122910000Y-114040000D02*
X122910000Y-121860000D01*
X122910000Y-121860000D02*
X116790000Y-121860000D01*
X116790000Y-121860000D02*
X116790000Y-114040000D01*
X116790000Y-114040000D02*
X117710000Y-114040000D01*
X117710000Y-114040000D02*
X117710000Y-115640000D01*
X117710000Y-115640000D02*
X117990000Y-115640000D01*
X120350000Y-121860000D02*
X120350000Y-117500000D01*
X120350000Y-117500000D02*
X119350000Y-117500000D01*
X119350000Y-117500000D02*
X119350000Y-121860000D01*
X122910000Y-115640000D02*
X121990000Y-115640000D01*
X116790000Y-115640000D02*
X117710000Y-115640000D01*
X122150000Y-118000000D02*
X122150000Y-119600000D01*
X122150000Y-119600000D02*
X121150000Y-119600000D01*
X121150000Y-119600000D02*
X121150000Y-118000000D01*
X121150000Y-118000000D02*
X122150000Y-118000000D01*
X117550000Y-118000000D02*
X117550000Y-119600000D01*
X117550000Y-119600000D02*
X118550000Y-119600000D01*
X118550000Y-119600000D02*
X118550000Y-118000000D01*
X118550000Y-118000000D02*
X117550000Y-118000000D01*
X121150000Y-119600000D02*
X121150000Y-121860000D01*
X121650000Y-119600000D02*
X121650000Y-121860000D01*
X121710000Y-115640000D02*
X121710000Y-114425000D01*
G04 #@! TO.C,J11*
X128630000Y-80920000D02*
X127300000Y-80920000D01*
X128630000Y-82250000D02*
X128630000Y-80920000D01*
X128630000Y-83520000D02*
X125970000Y-83520000D01*
X125970000Y-83520000D02*
X125970000Y-119140000D01*
X128630000Y-83520000D02*
X128630000Y-119140000D01*
X128630000Y-119140000D02*
X125970000Y-119140000D01*
G04 #@! TO.C,J12*
X113510000Y-119110000D02*
X110850000Y-119110000D01*
X113510000Y-83490000D02*
X113510000Y-119110000D01*
X110850000Y-83490000D02*
X110850000Y-119110000D01*
X113510000Y-83490000D02*
X110850000Y-83490000D01*
X113510000Y-82220000D02*
X113510000Y-80890000D01*
X113510000Y-80890000D02*
X112180000Y-80890000D01*
G04 #@! TO.C,R11*
X123603922Y-113460000D02*
X124121078Y-113460000D01*
X123603922Y-112040000D02*
X124121078Y-112040000D01*
G04 #@! TO.C,U10*
X118800000Y-110690000D02*
X120600000Y-110690000D01*
X120600000Y-113910000D02*
X118150000Y-113910000D01*
G04 #@! TD*
M02*
