G04 #@! TF.GenerationSoftware,KiCad,Pcbnew,(5.0.1-3-g963ef8bb5)*
G04 #@! TF.CreationDate,2019-07-31T15:24:12+02:00*
G04 #@! TF.ProjectId,StudIOT,53747564494F542E6B696361645F7063,rev?*
G04 #@! TF.SameCoordinates,Original*
G04 #@! TF.FileFunction,Paste,Bot*
G04 #@! TF.FilePolarity,Positive*
%FSLAX46Y46*%
G04 Gerber Fmt 4.6, Leading zero omitted, Abs format (unit mm)*
G04 Created by KiCad (PCBNEW (5.0.1-3-g963ef8bb5)) date 2019 July 31, Wednesday 15:24:12*
%MOMM*%
%LPD*%
G01*
G04 APERTURE LIST*
%ADD10R,1.100000X0.400000*%
%ADD11C,0.100000*%
%ADD12C,0.590000*%
%ADD13R,0.900000X0.800000*%
%ADD14R,0.650000X0.400000*%
%ADD15C,0.875000*%
%ADD16R,0.900000X1.200000*%
%ADD17C,0.975000*%
%ADD18R,1.060000X0.650000*%
G04 APERTURE END LIST*
D10*
G04 #@! TO.C,U20*
X97850000Y-88775000D03*
X97850000Y-88125000D03*
X97850000Y-87475000D03*
X97850000Y-86825000D03*
X102150000Y-86825000D03*
X102150000Y-87475000D03*
X102150000Y-88125000D03*
X102150000Y-88775000D03*
G04 #@! TD*
D11*
G04 #@! TO.C,C30*
G36*
X95676958Y-94480710D02*
X95691276Y-94482834D01*
X95705317Y-94486351D01*
X95718946Y-94491228D01*
X95732031Y-94497417D01*
X95744447Y-94504858D01*
X95756073Y-94513481D01*
X95766798Y-94523202D01*
X95776519Y-94533927D01*
X95785142Y-94545553D01*
X95792583Y-94557969D01*
X95798772Y-94571054D01*
X95803649Y-94584683D01*
X95807166Y-94598724D01*
X95809290Y-94613042D01*
X95810000Y-94627500D01*
X95810000Y-94972500D01*
X95809290Y-94986958D01*
X95807166Y-95001276D01*
X95803649Y-95015317D01*
X95798772Y-95028946D01*
X95792583Y-95042031D01*
X95785142Y-95054447D01*
X95776519Y-95066073D01*
X95766798Y-95076798D01*
X95756073Y-95086519D01*
X95744447Y-95095142D01*
X95732031Y-95102583D01*
X95718946Y-95108772D01*
X95705317Y-95113649D01*
X95691276Y-95117166D01*
X95676958Y-95119290D01*
X95662500Y-95120000D01*
X95367500Y-95120000D01*
X95353042Y-95119290D01*
X95338724Y-95117166D01*
X95324683Y-95113649D01*
X95311054Y-95108772D01*
X95297969Y-95102583D01*
X95285553Y-95095142D01*
X95273927Y-95086519D01*
X95263202Y-95076798D01*
X95253481Y-95066073D01*
X95244858Y-95054447D01*
X95237417Y-95042031D01*
X95231228Y-95028946D01*
X95226351Y-95015317D01*
X95222834Y-95001276D01*
X95220710Y-94986958D01*
X95220000Y-94972500D01*
X95220000Y-94627500D01*
X95220710Y-94613042D01*
X95222834Y-94598724D01*
X95226351Y-94584683D01*
X95231228Y-94571054D01*
X95237417Y-94557969D01*
X95244858Y-94545553D01*
X95253481Y-94533927D01*
X95263202Y-94523202D01*
X95273927Y-94513481D01*
X95285553Y-94504858D01*
X95297969Y-94497417D01*
X95311054Y-94491228D01*
X95324683Y-94486351D01*
X95338724Y-94482834D01*
X95353042Y-94480710D01*
X95367500Y-94480000D01*
X95662500Y-94480000D01*
X95676958Y-94480710D01*
X95676958Y-94480710D01*
G37*
D12*
X95515000Y-94800000D03*
D11*
G36*
X96646958Y-94480710D02*
X96661276Y-94482834D01*
X96675317Y-94486351D01*
X96688946Y-94491228D01*
X96702031Y-94497417D01*
X96714447Y-94504858D01*
X96726073Y-94513481D01*
X96736798Y-94523202D01*
X96746519Y-94533927D01*
X96755142Y-94545553D01*
X96762583Y-94557969D01*
X96768772Y-94571054D01*
X96773649Y-94584683D01*
X96777166Y-94598724D01*
X96779290Y-94613042D01*
X96780000Y-94627500D01*
X96780000Y-94972500D01*
X96779290Y-94986958D01*
X96777166Y-95001276D01*
X96773649Y-95015317D01*
X96768772Y-95028946D01*
X96762583Y-95042031D01*
X96755142Y-95054447D01*
X96746519Y-95066073D01*
X96736798Y-95076798D01*
X96726073Y-95086519D01*
X96714447Y-95095142D01*
X96702031Y-95102583D01*
X96688946Y-95108772D01*
X96675317Y-95113649D01*
X96661276Y-95117166D01*
X96646958Y-95119290D01*
X96632500Y-95120000D01*
X96337500Y-95120000D01*
X96323042Y-95119290D01*
X96308724Y-95117166D01*
X96294683Y-95113649D01*
X96281054Y-95108772D01*
X96267969Y-95102583D01*
X96255553Y-95095142D01*
X96243927Y-95086519D01*
X96233202Y-95076798D01*
X96223481Y-95066073D01*
X96214858Y-95054447D01*
X96207417Y-95042031D01*
X96201228Y-95028946D01*
X96196351Y-95015317D01*
X96192834Y-95001276D01*
X96190710Y-94986958D01*
X96190000Y-94972500D01*
X96190000Y-94627500D01*
X96190710Y-94613042D01*
X96192834Y-94598724D01*
X96196351Y-94584683D01*
X96201228Y-94571054D01*
X96207417Y-94557969D01*
X96214858Y-94545553D01*
X96223481Y-94533927D01*
X96233202Y-94523202D01*
X96243927Y-94513481D01*
X96255553Y-94504858D01*
X96267969Y-94497417D01*
X96281054Y-94491228D01*
X96294683Y-94486351D01*
X96308724Y-94482834D01*
X96323042Y-94480710D01*
X96337500Y-94480000D01*
X96632500Y-94480000D01*
X96646958Y-94480710D01*
X96646958Y-94480710D01*
G37*
D12*
X96485000Y-94800000D03*
G04 #@! TD*
D11*
G04 #@! TO.C,C40*
G36*
X104161958Y-94480710D02*
X104176276Y-94482834D01*
X104190317Y-94486351D01*
X104203946Y-94491228D01*
X104217031Y-94497417D01*
X104229447Y-94504858D01*
X104241073Y-94513481D01*
X104251798Y-94523202D01*
X104261519Y-94533927D01*
X104270142Y-94545553D01*
X104277583Y-94557969D01*
X104283772Y-94571054D01*
X104288649Y-94584683D01*
X104292166Y-94598724D01*
X104294290Y-94613042D01*
X104295000Y-94627500D01*
X104295000Y-94972500D01*
X104294290Y-94986958D01*
X104292166Y-95001276D01*
X104288649Y-95015317D01*
X104283772Y-95028946D01*
X104277583Y-95042031D01*
X104270142Y-95054447D01*
X104261519Y-95066073D01*
X104251798Y-95076798D01*
X104241073Y-95086519D01*
X104229447Y-95095142D01*
X104217031Y-95102583D01*
X104203946Y-95108772D01*
X104190317Y-95113649D01*
X104176276Y-95117166D01*
X104161958Y-95119290D01*
X104147500Y-95120000D01*
X103852500Y-95120000D01*
X103838042Y-95119290D01*
X103823724Y-95117166D01*
X103809683Y-95113649D01*
X103796054Y-95108772D01*
X103782969Y-95102583D01*
X103770553Y-95095142D01*
X103758927Y-95086519D01*
X103748202Y-95076798D01*
X103738481Y-95066073D01*
X103729858Y-95054447D01*
X103722417Y-95042031D01*
X103716228Y-95028946D01*
X103711351Y-95015317D01*
X103707834Y-95001276D01*
X103705710Y-94986958D01*
X103705000Y-94972500D01*
X103705000Y-94627500D01*
X103705710Y-94613042D01*
X103707834Y-94598724D01*
X103711351Y-94584683D01*
X103716228Y-94571054D01*
X103722417Y-94557969D01*
X103729858Y-94545553D01*
X103738481Y-94533927D01*
X103748202Y-94523202D01*
X103758927Y-94513481D01*
X103770553Y-94504858D01*
X103782969Y-94497417D01*
X103796054Y-94491228D01*
X103809683Y-94486351D01*
X103823724Y-94482834D01*
X103838042Y-94480710D01*
X103852500Y-94480000D01*
X104147500Y-94480000D01*
X104161958Y-94480710D01*
X104161958Y-94480710D01*
G37*
D12*
X104000000Y-94800000D03*
D11*
G36*
X105131958Y-94480710D02*
X105146276Y-94482834D01*
X105160317Y-94486351D01*
X105173946Y-94491228D01*
X105187031Y-94497417D01*
X105199447Y-94504858D01*
X105211073Y-94513481D01*
X105221798Y-94523202D01*
X105231519Y-94533927D01*
X105240142Y-94545553D01*
X105247583Y-94557969D01*
X105253772Y-94571054D01*
X105258649Y-94584683D01*
X105262166Y-94598724D01*
X105264290Y-94613042D01*
X105265000Y-94627500D01*
X105265000Y-94972500D01*
X105264290Y-94986958D01*
X105262166Y-95001276D01*
X105258649Y-95015317D01*
X105253772Y-95028946D01*
X105247583Y-95042031D01*
X105240142Y-95054447D01*
X105231519Y-95066073D01*
X105221798Y-95076798D01*
X105211073Y-95086519D01*
X105199447Y-95095142D01*
X105187031Y-95102583D01*
X105173946Y-95108772D01*
X105160317Y-95113649D01*
X105146276Y-95117166D01*
X105131958Y-95119290D01*
X105117500Y-95120000D01*
X104822500Y-95120000D01*
X104808042Y-95119290D01*
X104793724Y-95117166D01*
X104779683Y-95113649D01*
X104766054Y-95108772D01*
X104752969Y-95102583D01*
X104740553Y-95095142D01*
X104728927Y-95086519D01*
X104718202Y-95076798D01*
X104708481Y-95066073D01*
X104699858Y-95054447D01*
X104692417Y-95042031D01*
X104686228Y-95028946D01*
X104681351Y-95015317D01*
X104677834Y-95001276D01*
X104675710Y-94986958D01*
X104675000Y-94972500D01*
X104675000Y-94627500D01*
X104675710Y-94613042D01*
X104677834Y-94598724D01*
X104681351Y-94584683D01*
X104686228Y-94571054D01*
X104692417Y-94557969D01*
X104699858Y-94545553D01*
X104708481Y-94533927D01*
X104718202Y-94523202D01*
X104728927Y-94513481D01*
X104740553Y-94504858D01*
X104752969Y-94497417D01*
X104766054Y-94491228D01*
X104779683Y-94486351D01*
X104793724Y-94482834D01*
X104808042Y-94480710D01*
X104822500Y-94480000D01*
X105117500Y-94480000D01*
X105131958Y-94480710D01*
X105131958Y-94480710D01*
G37*
D12*
X104970000Y-94800000D03*
G04 #@! TD*
D13*
G04 #@! TO.C,Q30*
X99000000Y-95350000D03*
X99000000Y-97250000D03*
X97000000Y-96300000D03*
G04 #@! TD*
G04 #@! TO.C,Q40*
X103000000Y-96300000D03*
X101000000Y-95350000D03*
X101000000Y-97250000D03*
G04 #@! TD*
D11*
G04 #@! TO.C,R30*
G36*
X95676958Y-97480710D02*
X95691276Y-97482834D01*
X95705317Y-97486351D01*
X95718946Y-97491228D01*
X95732031Y-97497417D01*
X95744447Y-97504858D01*
X95756073Y-97513481D01*
X95766798Y-97523202D01*
X95776519Y-97533927D01*
X95785142Y-97545553D01*
X95792583Y-97557969D01*
X95798772Y-97571054D01*
X95803649Y-97584683D01*
X95807166Y-97598724D01*
X95809290Y-97613042D01*
X95810000Y-97627500D01*
X95810000Y-97972500D01*
X95809290Y-97986958D01*
X95807166Y-98001276D01*
X95803649Y-98015317D01*
X95798772Y-98028946D01*
X95792583Y-98042031D01*
X95785142Y-98054447D01*
X95776519Y-98066073D01*
X95766798Y-98076798D01*
X95756073Y-98086519D01*
X95744447Y-98095142D01*
X95732031Y-98102583D01*
X95718946Y-98108772D01*
X95705317Y-98113649D01*
X95691276Y-98117166D01*
X95676958Y-98119290D01*
X95662500Y-98120000D01*
X95367500Y-98120000D01*
X95353042Y-98119290D01*
X95338724Y-98117166D01*
X95324683Y-98113649D01*
X95311054Y-98108772D01*
X95297969Y-98102583D01*
X95285553Y-98095142D01*
X95273927Y-98086519D01*
X95263202Y-98076798D01*
X95253481Y-98066073D01*
X95244858Y-98054447D01*
X95237417Y-98042031D01*
X95231228Y-98028946D01*
X95226351Y-98015317D01*
X95222834Y-98001276D01*
X95220710Y-97986958D01*
X95220000Y-97972500D01*
X95220000Y-97627500D01*
X95220710Y-97613042D01*
X95222834Y-97598724D01*
X95226351Y-97584683D01*
X95231228Y-97571054D01*
X95237417Y-97557969D01*
X95244858Y-97545553D01*
X95253481Y-97533927D01*
X95263202Y-97523202D01*
X95273927Y-97513481D01*
X95285553Y-97504858D01*
X95297969Y-97497417D01*
X95311054Y-97491228D01*
X95324683Y-97486351D01*
X95338724Y-97482834D01*
X95353042Y-97480710D01*
X95367500Y-97480000D01*
X95662500Y-97480000D01*
X95676958Y-97480710D01*
X95676958Y-97480710D01*
G37*
D12*
X95515000Y-97800000D03*
D11*
G36*
X96646958Y-97480710D02*
X96661276Y-97482834D01*
X96675317Y-97486351D01*
X96688946Y-97491228D01*
X96702031Y-97497417D01*
X96714447Y-97504858D01*
X96726073Y-97513481D01*
X96736798Y-97523202D01*
X96746519Y-97533927D01*
X96755142Y-97545553D01*
X96762583Y-97557969D01*
X96768772Y-97571054D01*
X96773649Y-97584683D01*
X96777166Y-97598724D01*
X96779290Y-97613042D01*
X96780000Y-97627500D01*
X96780000Y-97972500D01*
X96779290Y-97986958D01*
X96777166Y-98001276D01*
X96773649Y-98015317D01*
X96768772Y-98028946D01*
X96762583Y-98042031D01*
X96755142Y-98054447D01*
X96746519Y-98066073D01*
X96736798Y-98076798D01*
X96726073Y-98086519D01*
X96714447Y-98095142D01*
X96702031Y-98102583D01*
X96688946Y-98108772D01*
X96675317Y-98113649D01*
X96661276Y-98117166D01*
X96646958Y-98119290D01*
X96632500Y-98120000D01*
X96337500Y-98120000D01*
X96323042Y-98119290D01*
X96308724Y-98117166D01*
X96294683Y-98113649D01*
X96281054Y-98108772D01*
X96267969Y-98102583D01*
X96255553Y-98095142D01*
X96243927Y-98086519D01*
X96233202Y-98076798D01*
X96223481Y-98066073D01*
X96214858Y-98054447D01*
X96207417Y-98042031D01*
X96201228Y-98028946D01*
X96196351Y-98015317D01*
X96192834Y-98001276D01*
X96190710Y-97986958D01*
X96190000Y-97972500D01*
X96190000Y-97627500D01*
X96190710Y-97613042D01*
X96192834Y-97598724D01*
X96196351Y-97584683D01*
X96201228Y-97571054D01*
X96207417Y-97557969D01*
X96214858Y-97545553D01*
X96223481Y-97533927D01*
X96233202Y-97523202D01*
X96243927Y-97513481D01*
X96255553Y-97504858D01*
X96267969Y-97497417D01*
X96281054Y-97491228D01*
X96294683Y-97486351D01*
X96308724Y-97482834D01*
X96323042Y-97480710D01*
X96337500Y-97480000D01*
X96632500Y-97480000D01*
X96646958Y-97480710D01*
X96646958Y-97480710D01*
G37*
D12*
X96485000Y-97800000D03*
G04 #@! TD*
D11*
G04 #@! TO.C,R40*
G36*
X105146958Y-97480710D02*
X105161276Y-97482834D01*
X105175317Y-97486351D01*
X105188946Y-97491228D01*
X105202031Y-97497417D01*
X105214447Y-97504858D01*
X105226073Y-97513481D01*
X105236798Y-97523202D01*
X105246519Y-97533927D01*
X105255142Y-97545553D01*
X105262583Y-97557969D01*
X105268772Y-97571054D01*
X105273649Y-97584683D01*
X105277166Y-97598724D01*
X105279290Y-97613042D01*
X105280000Y-97627500D01*
X105280000Y-97972500D01*
X105279290Y-97986958D01*
X105277166Y-98001276D01*
X105273649Y-98015317D01*
X105268772Y-98028946D01*
X105262583Y-98042031D01*
X105255142Y-98054447D01*
X105246519Y-98066073D01*
X105236798Y-98076798D01*
X105226073Y-98086519D01*
X105214447Y-98095142D01*
X105202031Y-98102583D01*
X105188946Y-98108772D01*
X105175317Y-98113649D01*
X105161276Y-98117166D01*
X105146958Y-98119290D01*
X105132500Y-98120000D01*
X104837500Y-98120000D01*
X104823042Y-98119290D01*
X104808724Y-98117166D01*
X104794683Y-98113649D01*
X104781054Y-98108772D01*
X104767969Y-98102583D01*
X104755553Y-98095142D01*
X104743927Y-98086519D01*
X104733202Y-98076798D01*
X104723481Y-98066073D01*
X104714858Y-98054447D01*
X104707417Y-98042031D01*
X104701228Y-98028946D01*
X104696351Y-98015317D01*
X104692834Y-98001276D01*
X104690710Y-97986958D01*
X104690000Y-97972500D01*
X104690000Y-97627500D01*
X104690710Y-97613042D01*
X104692834Y-97598724D01*
X104696351Y-97584683D01*
X104701228Y-97571054D01*
X104707417Y-97557969D01*
X104714858Y-97545553D01*
X104723481Y-97533927D01*
X104733202Y-97523202D01*
X104743927Y-97513481D01*
X104755553Y-97504858D01*
X104767969Y-97497417D01*
X104781054Y-97491228D01*
X104794683Y-97486351D01*
X104808724Y-97482834D01*
X104823042Y-97480710D01*
X104837500Y-97480000D01*
X105132500Y-97480000D01*
X105146958Y-97480710D01*
X105146958Y-97480710D01*
G37*
D12*
X104985000Y-97800000D03*
D11*
G36*
X104176958Y-97480710D02*
X104191276Y-97482834D01*
X104205317Y-97486351D01*
X104218946Y-97491228D01*
X104232031Y-97497417D01*
X104244447Y-97504858D01*
X104256073Y-97513481D01*
X104266798Y-97523202D01*
X104276519Y-97533927D01*
X104285142Y-97545553D01*
X104292583Y-97557969D01*
X104298772Y-97571054D01*
X104303649Y-97584683D01*
X104307166Y-97598724D01*
X104309290Y-97613042D01*
X104310000Y-97627500D01*
X104310000Y-97972500D01*
X104309290Y-97986958D01*
X104307166Y-98001276D01*
X104303649Y-98015317D01*
X104298772Y-98028946D01*
X104292583Y-98042031D01*
X104285142Y-98054447D01*
X104276519Y-98066073D01*
X104266798Y-98076798D01*
X104256073Y-98086519D01*
X104244447Y-98095142D01*
X104232031Y-98102583D01*
X104218946Y-98108772D01*
X104205317Y-98113649D01*
X104191276Y-98117166D01*
X104176958Y-98119290D01*
X104162500Y-98120000D01*
X103867500Y-98120000D01*
X103853042Y-98119290D01*
X103838724Y-98117166D01*
X103824683Y-98113649D01*
X103811054Y-98108772D01*
X103797969Y-98102583D01*
X103785553Y-98095142D01*
X103773927Y-98086519D01*
X103763202Y-98076798D01*
X103753481Y-98066073D01*
X103744858Y-98054447D01*
X103737417Y-98042031D01*
X103731228Y-98028946D01*
X103726351Y-98015317D01*
X103722834Y-98001276D01*
X103720710Y-97986958D01*
X103720000Y-97972500D01*
X103720000Y-97627500D01*
X103720710Y-97613042D01*
X103722834Y-97598724D01*
X103726351Y-97584683D01*
X103731228Y-97571054D01*
X103737417Y-97557969D01*
X103744858Y-97545553D01*
X103753481Y-97533927D01*
X103763202Y-97523202D01*
X103773927Y-97513481D01*
X103785553Y-97504858D01*
X103797969Y-97497417D01*
X103811054Y-97491228D01*
X103824683Y-97486351D01*
X103838724Y-97482834D01*
X103853042Y-97480710D01*
X103867500Y-97480000D01*
X104162500Y-97480000D01*
X104176958Y-97480710D01*
X104176958Y-97480710D01*
G37*
D12*
X104015000Y-97800000D03*
G04 #@! TD*
D11*
G04 #@! TO.C,C50*
G36*
X98646958Y-111980710D02*
X98661276Y-111982834D01*
X98675317Y-111986351D01*
X98688946Y-111991228D01*
X98702031Y-111997417D01*
X98714447Y-112004858D01*
X98726073Y-112013481D01*
X98736798Y-112023202D01*
X98746519Y-112033927D01*
X98755142Y-112045553D01*
X98762583Y-112057969D01*
X98768772Y-112071054D01*
X98773649Y-112084683D01*
X98777166Y-112098724D01*
X98779290Y-112113042D01*
X98780000Y-112127500D01*
X98780000Y-112472500D01*
X98779290Y-112486958D01*
X98777166Y-112501276D01*
X98773649Y-112515317D01*
X98768772Y-112528946D01*
X98762583Y-112542031D01*
X98755142Y-112554447D01*
X98746519Y-112566073D01*
X98736798Y-112576798D01*
X98726073Y-112586519D01*
X98714447Y-112595142D01*
X98702031Y-112602583D01*
X98688946Y-112608772D01*
X98675317Y-112613649D01*
X98661276Y-112617166D01*
X98646958Y-112619290D01*
X98632500Y-112620000D01*
X98337500Y-112620000D01*
X98323042Y-112619290D01*
X98308724Y-112617166D01*
X98294683Y-112613649D01*
X98281054Y-112608772D01*
X98267969Y-112602583D01*
X98255553Y-112595142D01*
X98243927Y-112586519D01*
X98233202Y-112576798D01*
X98223481Y-112566073D01*
X98214858Y-112554447D01*
X98207417Y-112542031D01*
X98201228Y-112528946D01*
X98196351Y-112515317D01*
X98192834Y-112501276D01*
X98190710Y-112486958D01*
X98190000Y-112472500D01*
X98190000Y-112127500D01*
X98190710Y-112113042D01*
X98192834Y-112098724D01*
X98196351Y-112084683D01*
X98201228Y-112071054D01*
X98207417Y-112057969D01*
X98214858Y-112045553D01*
X98223481Y-112033927D01*
X98233202Y-112023202D01*
X98243927Y-112013481D01*
X98255553Y-112004858D01*
X98267969Y-111997417D01*
X98281054Y-111991228D01*
X98294683Y-111986351D01*
X98308724Y-111982834D01*
X98323042Y-111980710D01*
X98337500Y-111980000D01*
X98632500Y-111980000D01*
X98646958Y-111980710D01*
X98646958Y-111980710D01*
G37*
D12*
X98485000Y-112300000D03*
D11*
G36*
X97676958Y-111980710D02*
X97691276Y-111982834D01*
X97705317Y-111986351D01*
X97718946Y-111991228D01*
X97732031Y-111997417D01*
X97744447Y-112004858D01*
X97756073Y-112013481D01*
X97766798Y-112023202D01*
X97776519Y-112033927D01*
X97785142Y-112045553D01*
X97792583Y-112057969D01*
X97798772Y-112071054D01*
X97803649Y-112084683D01*
X97807166Y-112098724D01*
X97809290Y-112113042D01*
X97810000Y-112127500D01*
X97810000Y-112472500D01*
X97809290Y-112486958D01*
X97807166Y-112501276D01*
X97803649Y-112515317D01*
X97798772Y-112528946D01*
X97792583Y-112542031D01*
X97785142Y-112554447D01*
X97776519Y-112566073D01*
X97766798Y-112576798D01*
X97756073Y-112586519D01*
X97744447Y-112595142D01*
X97732031Y-112602583D01*
X97718946Y-112608772D01*
X97705317Y-112613649D01*
X97691276Y-112617166D01*
X97676958Y-112619290D01*
X97662500Y-112620000D01*
X97367500Y-112620000D01*
X97353042Y-112619290D01*
X97338724Y-112617166D01*
X97324683Y-112613649D01*
X97311054Y-112608772D01*
X97297969Y-112602583D01*
X97285553Y-112595142D01*
X97273927Y-112586519D01*
X97263202Y-112576798D01*
X97253481Y-112566073D01*
X97244858Y-112554447D01*
X97237417Y-112542031D01*
X97231228Y-112528946D01*
X97226351Y-112515317D01*
X97222834Y-112501276D01*
X97220710Y-112486958D01*
X97220000Y-112472500D01*
X97220000Y-112127500D01*
X97220710Y-112113042D01*
X97222834Y-112098724D01*
X97226351Y-112084683D01*
X97231228Y-112071054D01*
X97237417Y-112057969D01*
X97244858Y-112045553D01*
X97253481Y-112033927D01*
X97263202Y-112023202D01*
X97273927Y-112013481D01*
X97285553Y-112004858D01*
X97297969Y-111997417D01*
X97311054Y-111991228D01*
X97324683Y-111986351D01*
X97338724Y-111982834D01*
X97353042Y-111980710D01*
X97367500Y-111980000D01*
X97662500Y-111980000D01*
X97676958Y-111980710D01*
X97676958Y-111980710D01*
G37*
D12*
X97515000Y-112300000D03*
G04 #@! TD*
D14*
G04 #@! TO.C,Q50*
X101900000Y-111650000D03*
X101900000Y-112950000D03*
X100000000Y-112300000D03*
X101900000Y-112300000D03*
X100000000Y-112950000D03*
X100000000Y-111650000D03*
G04 #@! TD*
D11*
G04 #@! TO.C,R50*
G36*
X98661958Y-110480710D02*
X98676276Y-110482834D01*
X98690317Y-110486351D01*
X98703946Y-110491228D01*
X98717031Y-110497417D01*
X98729447Y-110504858D01*
X98741073Y-110513481D01*
X98751798Y-110523202D01*
X98761519Y-110533927D01*
X98770142Y-110545553D01*
X98777583Y-110557969D01*
X98783772Y-110571054D01*
X98788649Y-110584683D01*
X98792166Y-110598724D01*
X98794290Y-110613042D01*
X98795000Y-110627500D01*
X98795000Y-110972500D01*
X98794290Y-110986958D01*
X98792166Y-111001276D01*
X98788649Y-111015317D01*
X98783772Y-111028946D01*
X98777583Y-111042031D01*
X98770142Y-111054447D01*
X98761519Y-111066073D01*
X98751798Y-111076798D01*
X98741073Y-111086519D01*
X98729447Y-111095142D01*
X98717031Y-111102583D01*
X98703946Y-111108772D01*
X98690317Y-111113649D01*
X98676276Y-111117166D01*
X98661958Y-111119290D01*
X98647500Y-111120000D01*
X98352500Y-111120000D01*
X98338042Y-111119290D01*
X98323724Y-111117166D01*
X98309683Y-111113649D01*
X98296054Y-111108772D01*
X98282969Y-111102583D01*
X98270553Y-111095142D01*
X98258927Y-111086519D01*
X98248202Y-111076798D01*
X98238481Y-111066073D01*
X98229858Y-111054447D01*
X98222417Y-111042031D01*
X98216228Y-111028946D01*
X98211351Y-111015317D01*
X98207834Y-111001276D01*
X98205710Y-110986958D01*
X98205000Y-110972500D01*
X98205000Y-110627500D01*
X98205710Y-110613042D01*
X98207834Y-110598724D01*
X98211351Y-110584683D01*
X98216228Y-110571054D01*
X98222417Y-110557969D01*
X98229858Y-110545553D01*
X98238481Y-110533927D01*
X98248202Y-110523202D01*
X98258927Y-110513481D01*
X98270553Y-110504858D01*
X98282969Y-110497417D01*
X98296054Y-110491228D01*
X98309683Y-110486351D01*
X98323724Y-110482834D01*
X98338042Y-110480710D01*
X98352500Y-110480000D01*
X98647500Y-110480000D01*
X98661958Y-110480710D01*
X98661958Y-110480710D01*
G37*
D12*
X98500000Y-110800000D03*
D11*
G36*
X97691958Y-110480710D02*
X97706276Y-110482834D01*
X97720317Y-110486351D01*
X97733946Y-110491228D01*
X97747031Y-110497417D01*
X97759447Y-110504858D01*
X97771073Y-110513481D01*
X97781798Y-110523202D01*
X97791519Y-110533927D01*
X97800142Y-110545553D01*
X97807583Y-110557969D01*
X97813772Y-110571054D01*
X97818649Y-110584683D01*
X97822166Y-110598724D01*
X97824290Y-110613042D01*
X97825000Y-110627500D01*
X97825000Y-110972500D01*
X97824290Y-110986958D01*
X97822166Y-111001276D01*
X97818649Y-111015317D01*
X97813772Y-111028946D01*
X97807583Y-111042031D01*
X97800142Y-111054447D01*
X97791519Y-111066073D01*
X97781798Y-111076798D01*
X97771073Y-111086519D01*
X97759447Y-111095142D01*
X97747031Y-111102583D01*
X97733946Y-111108772D01*
X97720317Y-111113649D01*
X97706276Y-111117166D01*
X97691958Y-111119290D01*
X97677500Y-111120000D01*
X97382500Y-111120000D01*
X97368042Y-111119290D01*
X97353724Y-111117166D01*
X97339683Y-111113649D01*
X97326054Y-111108772D01*
X97312969Y-111102583D01*
X97300553Y-111095142D01*
X97288927Y-111086519D01*
X97278202Y-111076798D01*
X97268481Y-111066073D01*
X97259858Y-111054447D01*
X97252417Y-111042031D01*
X97246228Y-111028946D01*
X97241351Y-111015317D01*
X97237834Y-111001276D01*
X97235710Y-110986958D01*
X97235000Y-110972500D01*
X97235000Y-110627500D01*
X97235710Y-110613042D01*
X97237834Y-110598724D01*
X97241351Y-110584683D01*
X97246228Y-110571054D01*
X97252417Y-110557969D01*
X97259858Y-110545553D01*
X97268481Y-110533927D01*
X97278202Y-110523202D01*
X97288927Y-110513481D01*
X97300553Y-110504858D01*
X97312969Y-110497417D01*
X97326054Y-110491228D01*
X97339683Y-110486351D01*
X97353724Y-110482834D01*
X97368042Y-110480710D01*
X97382500Y-110480000D01*
X97677500Y-110480000D01*
X97691958Y-110480710D01*
X97691958Y-110480710D01*
G37*
D12*
X97530000Y-110800000D03*
G04 #@! TD*
D11*
G04 #@! TO.C,R51*
G36*
X103686958Y-111520710D02*
X103701276Y-111522834D01*
X103715317Y-111526351D01*
X103728946Y-111531228D01*
X103742031Y-111537417D01*
X103754447Y-111544858D01*
X103766073Y-111553481D01*
X103776798Y-111563202D01*
X103786519Y-111573927D01*
X103795142Y-111585553D01*
X103802583Y-111597969D01*
X103808772Y-111611054D01*
X103813649Y-111624683D01*
X103817166Y-111638724D01*
X103819290Y-111653042D01*
X103820000Y-111667500D01*
X103820000Y-111962500D01*
X103819290Y-111976958D01*
X103817166Y-111991276D01*
X103813649Y-112005317D01*
X103808772Y-112018946D01*
X103802583Y-112032031D01*
X103795142Y-112044447D01*
X103786519Y-112056073D01*
X103776798Y-112066798D01*
X103766073Y-112076519D01*
X103754447Y-112085142D01*
X103742031Y-112092583D01*
X103728946Y-112098772D01*
X103715317Y-112103649D01*
X103701276Y-112107166D01*
X103686958Y-112109290D01*
X103672500Y-112110000D01*
X103327500Y-112110000D01*
X103313042Y-112109290D01*
X103298724Y-112107166D01*
X103284683Y-112103649D01*
X103271054Y-112098772D01*
X103257969Y-112092583D01*
X103245553Y-112085142D01*
X103233927Y-112076519D01*
X103223202Y-112066798D01*
X103213481Y-112056073D01*
X103204858Y-112044447D01*
X103197417Y-112032031D01*
X103191228Y-112018946D01*
X103186351Y-112005317D01*
X103182834Y-111991276D01*
X103180710Y-111976958D01*
X103180000Y-111962500D01*
X103180000Y-111667500D01*
X103180710Y-111653042D01*
X103182834Y-111638724D01*
X103186351Y-111624683D01*
X103191228Y-111611054D01*
X103197417Y-111597969D01*
X103204858Y-111585553D01*
X103213481Y-111573927D01*
X103223202Y-111563202D01*
X103233927Y-111553481D01*
X103245553Y-111544858D01*
X103257969Y-111537417D01*
X103271054Y-111531228D01*
X103284683Y-111526351D01*
X103298724Y-111522834D01*
X103313042Y-111520710D01*
X103327500Y-111520000D01*
X103672500Y-111520000D01*
X103686958Y-111520710D01*
X103686958Y-111520710D01*
G37*
D12*
X103500000Y-111815000D03*
D11*
G36*
X103686958Y-112490710D02*
X103701276Y-112492834D01*
X103715317Y-112496351D01*
X103728946Y-112501228D01*
X103742031Y-112507417D01*
X103754447Y-112514858D01*
X103766073Y-112523481D01*
X103776798Y-112533202D01*
X103786519Y-112543927D01*
X103795142Y-112555553D01*
X103802583Y-112567969D01*
X103808772Y-112581054D01*
X103813649Y-112594683D01*
X103817166Y-112608724D01*
X103819290Y-112623042D01*
X103820000Y-112637500D01*
X103820000Y-112932500D01*
X103819290Y-112946958D01*
X103817166Y-112961276D01*
X103813649Y-112975317D01*
X103808772Y-112988946D01*
X103802583Y-113002031D01*
X103795142Y-113014447D01*
X103786519Y-113026073D01*
X103776798Y-113036798D01*
X103766073Y-113046519D01*
X103754447Y-113055142D01*
X103742031Y-113062583D01*
X103728946Y-113068772D01*
X103715317Y-113073649D01*
X103701276Y-113077166D01*
X103686958Y-113079290D01*
X103672500Y-113080000D01*
X103327500Y-113080000D01*
X103313042Y-113079290D01*
X103298724Y-113077166D01*
X103284683Y-113073649D01*
X103271054Y-113068772D01*
X103257969Y-113062583D01*
X103245553Y-113055142D01*
X103233927Y-113046519D01*
X103223202Y-113036798D01*
X103213481Y-113026073D01*
X103204858Y-113014447D01*
X103197417Y-113002031D01*
X103191228Y-112988946D01*
X103186351Y-112975317D01*
X103182834Y-112961276D01*
X103180710Y-112946958D01*
X103180000Y-112932500D01*
X103180000Y-112637500D01*
X103180710Y-112623042D01*
X103182834Y-112608724D01*
X103186351Y-112594683D01*
X103191228Y-112581054D01*
X103197417Y-112567969D01*
X103204858Y-112555553D01*
X103213481Y-112543927D01*
X103223202Y-112533202D01*
X103233927Y-112523481D01*
X103245553Y-112514858D01*
X103257969Y-112507417D01*
X103271054Y-112501228D01*
X103284683Y-112496351D01*
X103298724Y-112492834D01*
X103313042Y-112490710D01*
X103327500Y-112490000D01*
X103672500Y-112490000D01*
X103686958Y-112490710D01*
X103686958Y-112490710D01*
G37*
D12*
X103500000Y-112785000D03*
G04 #@! TD*
D11*
G04 #@! TO.C,C60*
G36*
X99576958Y-104480710D02*
X99591276Y-104482834D01*
X99605317Y-104486351D01*
X99618946Y-104491228D01*
X99632031Y-104497417D01*
X99644447Y-104504858D01*
X99656073Y-104513481D01*
X99666798Y-104523202D01*
X99676519Y-104533927D01*
X99685142Y-104545553D01*
X99692583Y-104557969D01*
X99698772Y-104571054D01*
X99703649Y-104584683D01*
X99707166Y-104598724D01*
X99709290Y-104613042D01*
X99710000Y-104627500D01*
X99710000Y-104972500D01*
X99709290Y-104986958D01*
X99707166Y-105001276D01*
X99703649Y-105015317D01*
X99698772Y-105028946D01*
X99692583Y-105042031D01*
X99685142Y-105054447D01*
X99676519Y-105066073D01*
X99666798Y-105076798D01*
X99656073Y-105086519D01*
X99644447Y-105095142D01*
X99632031Y-105102583D01*
X99618946Y-105108772D01*
X99605317Y-105113649D01*
X99591276Y-105117166D01*
X99576958Y-105119290D01*
X99562500Y-105120000D01*
X99267500Y-105120000D01*
X99253042Y-105119290D01*
X99238724Y-105117166D01*
X99224683Y-105113649D01*
X99211054Y-105108772D01*
X99197969Y-105102583D01*
X99185553Y-105095142D01*
X99173927Y-105086519D01*
X99163202Y-105076798D01*
X99153481Y-105066073D01*
X99144858Y-105054447D01*
X99137417Y-105042031D01*
X99131228Y-105028946D01*
X99126351Y-105015317D01*
X99122834Y-105001276D01*
X99120710Y-104986958D01*
X99120000Y-104972500D01*
X99120000Y-104627500D01*
X99120710Y-104613042D01*
X99122834Y-104598724D01*
X99126351Y-104584683D01*
X99131228Y-104571054D01*
X99137417Y-104557969D01*
X99144858Y-104545553D01*
X99153481Y-104533927D01*
X99163202Y-104523202D01*
X99173927Y-104513481D01*
X99185553Y-104504858D01*
X99197969Y-104497417D01*
X99211054Y-104491228D01*
X99224683Y-104486351D01*
X99238724Y-104482834D01*
X99253042Y-104480710D01*
X99267500Y-104480000D01*
X99562500Y-104480000D01*
X99576958Y-104480710D01*
X99576958Y-104480710D01*
G37*
D12*
X99415000Y-104800000D03*
D11*
G36*
X100546958Y-104480710D02*
X100561276Y-104482834D01*
X100575317Y-104486351D01*
X100588946Y-104491228D01*
X100602031Y-104497417D01*
X100614447Y-104504858D01*
X100626073Y-104513481D01*
X100636798Y-104523202D01*
X100646519Y-104533927D01*
X100655142Y-104545553D01*
X100662583Y-104557969D01*
X100668772Y-104571054D01*
X100673649Y-104584683D01*
X100677166Y-104598724D01*
X100679290Y-104613042D01*
X100680000Y-104627500D01*
X100680000Y-104972500D01*
X100679290Y-104986958D01*
X100677166Y-105001276D01*
X100673649Y-105015317D01*
X100668772Y-105028946D01*
X100662583Y-105042031D01*
X100655142Y-105054447D01*
X100646519Y-105066073D01*
X100636798Y-105076798D01*
X100626073Y-105086519D01*
X100614447Y-105095142D01*
X100602031Y-105102583D01*
X100588946Y-105108772D01*
X100575317Y-105113649D01*
X100561276Y-105117166D01*
X100546958Y-105119290D01*
X100532500Y-105120000D01*
X100237500Y-105120000D01*
X100223042Y-105119290D01*
X100208724Y-105117166D01*
X100194683Y-105113649D01*
X100181054Y-105108772D01*
X100167969Y-105102583D01*
X100155553Y-105095142D01*
X100143927Y-105086519D01*
X100133202Y-105076798D01*
X100123481Y-105066073D01*
X100114858Y-105054447D01*
X100107417Y-105042031D01*
X100101228Y-105028946D01*
X100096351Y-105015317D01*
X100092834Y-105001276D01*
X100090710Y-104986958D01*
X100090000Y-104972500D01*
X100090000Y-104627500D01*
X100090710Y-104613042D01*
X100092834Y-104598724D01*
X100096351Y-104584683D01*
X100101228Y-104571054D01*
X100107417Y-104557969D01*
X100114858Y-104545553D01*
X100123481Y-104533927D01*
X100133202Y-104523202D01*
X100143927Y-104513481D01*
X100155553Y-104504858D01*
X100167969Y-104497417D01*
X100181054Y-104491228D01*
X100194683Y-104486351D01*
X100208724Y-104482834D01*
X100223042Y-104480710D01*
X100237500Y-104480000D01*
X100532500Y-104480000D01*
X100546958Y-104480710D01*
X100546958Y-104480710D01*
G37*
D12*
X100385000Y-104800000D03*
G04 #@! TD*
D11*
G04 #@! TO.C,C62*
G36*
X100546958Y-105980710D02*
X100561276Y-105982834D01*
X100575317Y-105986351D01*
X100588946Y-105991228D01*
X100602031Y-105997417D01*
X100614447Y-106004858D01*
X100626073Y-106013481D01*
X100636798Y-106023202D01*
X100646519Y-106033927D01*
X100655142Y-106045553D01*
X100662583Y-106057969D01*
X100668772Y-106071054D01*
X100673649Y-106084683D01*
X100677166Y-106098724D01*
X100679290Y-106113042D01*
X100680000Y-106127500D01*
X100680000Y-106472500D01*
X100679290Y-106486958D01*
X100677166Y-106501276D01*
X100673649Y-106515317D01*
X100668772Y-106528946D01*
X100662583Y-106542031D01*
X100655142Y-106554447D01*
X100646519Y-106566073D01*
X100636798Y-106576798D01*
X100626073Y-106586519D01*
X100614447Y-106595142D01*
X100602031Y-106602583D01*
X100588946Y-106608772D01*
X100575317Y-106613649D01*
X100561276Y-106617166D01*
X100546958Y-106619290D01*
X100532500Y-106620000D01*
X100237500Y-106620000D01*
X100223042Y-106619290D01*
X100208724Y-106617166D01*
X100194683Y-106613649D01*
X100181054Y-106608772D01*
X100167969Y-106602583D01*
X100155553Y-106595142D01*
X100143927Y-106586519D01*
X100133202Y-106576798D01*
X100123481Y-106566073D01*
X100114858Y-106554447D01*
X100107417Y-106542031D01*
X100101228Y-106528946D01*
X100096351Y-106515317D01*
X100092834Y-106501276D01*
X100090710Y-106486958D01*
X100090000Y-106472500D01*
X100090000Y-106127500D01*
X100090710Y-106113042D01*
X100092834Y-106098724D01*
X100096351Y-106084683D01*
X100101228Y-106071054D01*
X100107417Y-106057969D01*
X100114858Y-106045553D01*
X100123481Y-106033927D01*
X100133202Y-106023202D01*
X100143927Y-106013481D01*
X100155553Y-106004858D01*
X100167969Y-105997417D01*
X100181054Y-105991228D01*
X100194683Y-105986351D01*
X100208724Y-105982834D01*
X100223042Y-105980710D01*
X100237500Y-105980000D01*
X100532500Y-105980000D01*
X100546958Y-105980710D01*
X100546958Y-105980710D01*
G37*
D12*
X100385000Y-106300000D03*
D11*
G36*
X99576958Y-105980710D02*
X99591276Y-105982834D01*
X99605317Y-105986351D01*
X99618946Y-105991228D01*
X99632031Y-105997417D01*
X99644447Y-106004858D01*
X99656073Y-106013481D01*
X99666798Y-106023202D01*
X99676519Y-106033927D01*
X99685142Y-106045553D01*
X99692583Y-106057969D01*
X99698772Y-106071054D01*
X99703649Y-106084683D01*
X99707166Y-106098724D01*
X99709290Y-106113042D01*
X99710000Y-106127500D01*
X99710000Y-106472500D01*
X99709290Y-106486958D01*
X99707166Y-106501276D01*
X99703649Y-106515317D01*
X99698772Y-106528946D01*
X99692583Y-106542031D01*
X99685142Y-106554447D01*
X99676519Y-106566073D01*
X99666798Y-106576798D01*
X99656073Y-106586519D01*
X99644447Y-106595142D01*
X99632031Y-106602583D01*
X99618946Y-106608772D01*
X99605317Y-106613649D01*
X99591276Y-106617166D01*
X99576958Y-106619290D01*
X99562500Y-106620000D01*
X99267500Y-106620000D01*
X99253042Y-106619290D01*
X99238724Y-106617166D01*
X99224683Y-106613649D01*
X99211054Y-106608772D01*
X99197969Y-106602583D01*
X99185553Y-106595142D01*
X99173927Y-106586519D01*
X99163202Y-106576798D01*
X99153481Y-106566073D01*
X99144858Y-106554447D01*
X99137417Y-106542031D01*
X99131228Y-106528946D01*
X99126351Y-106515317D01*
X99122834Y-106501276D01*
X99120710Y-106486958D01*
X99120000Y-106472500D01*
X99120000Y-106127500D01*
X99120710Y-106113042D01*
X99122834Y-106098724D01*
X99126351Y-106084683D01*
X99131228Y-106071054D01*
X99137417Y-106057969D01*
X99144858Y-106045553D01*
X99153481Y-106033927D01*
X99163202Y-106023202D01*
X99173927Y-106013481D01*
X99185553Y-106004858D01*
X99197969Y-105997417D01*
X99211054Y-105991228D01*
X99224683Y-105986351D01*
X99238724Y-105982834D01*
X99253042Y-105980710D01*
X99267500Y-105980000D01*
X99562500Y-105980000D01*
X99576958Y-105980710D01*
X99576958Y-105980710D01*
G37*
D12*
X99415000Y-106300000D03*
G04 #@! TD*
D14*
G04 #@! TO.C,Q60*
X103850000Y-104150000D03*
X103850000Y-105450000D03*
X101950000Y-104800000D03*
X103850000Y-104800000D03*
X101950000Y-105450000D03*
X101950000Y-104150000D03*
G04 #@! TD*
D11*
G04 #@! TO.C,R60*
G36*
X100531958Y-102980710D02*
X100546276Y-102982834D01*
X100560317Y-102986351D01*
X100573946Y-102991228D01*
X100587031Y-102997417D01*
X100599447Y-103004858D01*
X100611073Y-103013481D01*
X100621798Y-103023202D01*
X100631519Y-103033927D01*
X100640142Y-103045553D01*
X100647583Y-103057969D01*
X100653772Y-103071054D01*
X100658649Y-103084683D01*
X100662166Y-103098724D01*
X100664290Y-103113042D01*
X100665000Y-103127500D01*
X100665000Y-103472500D01*
X100664290Y-103486958D01*
X100662166Y-103501276D01*
X100658649Y-103515317D01*
X100653772Y-103528946D01*
X100647583Y-103542031D01*
X100640142Y-103554447D01*
X100631519Y-103566073D01*
X100621798Y-103576798D01*
X100611073Y-103586519D01*
X100599447Y-103595142D01*
X100587031Y-103602583D01*
X100573946Y-103608772D01*
X100560317Y-103613649D01*
X100546276Y-103617166D01*
X100531958Y-103619290D01*
X100517500Y-103620000D01*
X100222500Y-103620000D01*
X100208042Y-103619290D01*
X100193724Y-103617166D01*
X100179683Y-103613649D01*
X100166054Y-103608772D01*
X100152969Y-103602583D01*
X100140553Y-103595142D01*
X100128927Y-103586519D01*
X100118202Y-103576798D01*
X100108481Y-103566073D01*
X100099858Y-103554447D01*
X100092417Y-103542031D01*
X100086228Y-103528946D01*
X100081351Y-103515317D01*
X100077834Y-103501276D01*
X100075710Y-103486958D01*
X100075000Y-103472500D01*
X100075000Y-103127500D01*
X100075710Y-103113042D01*
X100077834Y-103098724D01*
X100081351Y-103084683D01*
X100086228Y-103071054D01*
X100092417Y-103057969D01*
X100099858Y-103045553D01*
X100108481Y-103033927D01*
X100118202Y-103023202D01*
X100128927Y-103013481D01*
X100140553Y-103004858D01*
X100152969Y-102997417D01*
X100166054Y-102991228D01*
X100179683Y-102986351D01*
X100193724Y-102982834D01*
X100208042Y-102980710D01*
X100222500Y-102980000D01*
X100517500Y-102980000D01*
X100531958Y-102980710D01*
X100531958Y-102980710D01*
G37*
D12*
X100370000Y-103300000D03*
D11*
G36*
X99561958Y-102980710D02*
X99576276Y-102982834D01*
X99590317Y-102986351D01*
X99603946Y-102991228D01*
X99617031Y-102997417D01*
X99629447Y-103004858D01*
X99641073Y-103013481D01*
X99651798Y-103023202D01*
X99661519Y-103033927D01*
X99670142Y-103045553D01*
X99677583Y-103057969D01*
X99683772Y-103071054D01*
X99688649Y-103084683D01*
X99692166Y-103098724D01*
X99694290Y-103113042D01*
X99695000Y-103127500D01*
X99695000Y-103472500D01*
X99694290Y-103486958D01*
X99692166Y-103501276D01*
X99688649Y-103515317D01*
X99683772Y-103528946D01*
X99677583Y-103542031D01*
X99670142Y-103554447D01*
X99661519Y-103566073D01*
X99651798Y-103576798D01*
X99641073Y-103586519D01*
X99629447Y-103595142D01*
X99617031Y-103602583D01*
X99603946Y-103608772D01*
X99590317Y-103613649D01*
X99576276Y-103617166D01*
X99561958Y-103619290D01*
X99547500Y-103620000D01*
X99252500Y-103620000D01*
X99238042Y-103619290D01*
X99223724Y-103617166D01*
X99209683Y-103613649D01*
X99196054Y-103608772D01*
X99182969Y-103602583D01*
X99170553Y-103595142D01*
X99158927Y-103586519D01*
X99148202Y-103576798D01*
X99138481Y-103566073D01*
X99129858Y-103554447D01*
X99122417Y-103542031D01*
X99116228Y-103528946D01*
X99111351Y-103515317D01*
X99107834Y-103501276D01*
X99105710Y-103486958D01*
X99105000Y-103472500D01*
X99105000Y-103127500D01*
X99105710Y-103113042D01*
X99107834Y-103098724D01*
X99111351Y-103084683D01*
X99116228Y-103071054D01*
X99122417Y-103057969D01*
X99129858Y-103045553D01*
X99138481Y-103033927D01*
X99148202Y-103023202D01*
X99158927Y-103013481D01*
X99170553Y-103004858D01*
X99182969Y-102997417D01*
X99196054Y-102991228D01*
X99209683Y-102986351D01*
X99223724Y-102982834D01*
X99238042Y-102980710D01*
X99252500Y-102980000D01*
X99547500Y-102980000D01*
X99561958Y-102980710D01*
X99561958Y-102980710D01*
G37*
D12*
X99400000Y-103300000D03*
G04 #@! TD*
D11*
G04 #@! TO.C,R61*
G36*
X105586958Y-102535710D02*
X105601276Y-102537834D01*
X105615317Y-102541351D01*
X105628946Y-102546228D01*
X105642031Y-102552417D01*
X105654447Y-102559858D01*
X105666073Y-102568481D01*
X105676798Y-102578202D01*
X105686519Y-102588927D01*
X105695142Y-102600553D01*
X105702583Y-102612969D01*
X105708772Y-102626054D01*
X105713649Y-102639683D01*
X105717166Y-102653724D01*
X105719290Y-102668042D01*
X105720000Y-102682500D01*
X105720000Y-102977500D01*
X105719290Y-102991958D01*
X105717166Y-103006276D01*
X105713649Y-103020317D01*
X105708772Y-103033946D01*
X105702583Y-103047031D01*
X105695142Y-103059447D01*
X105686519Y-103071073D01*
X105676798Y-103081798D01*
X105666073Y-103091519D01*
X105654447Y-103100142D01*
X105642031Y-103107583D01*
X105628946Y-103113772D01*
X105615317Y-103118649D01*
X105601276Y-103122166D01*
X105586958Y-103124290D01*
X105572500Y-103125000D01*
X105227500Y-103125000D01*
X105213042Y-103124290D01*
X105198724Y-103122166D01*
X105184683Y-103118649D01*
X105171054Y-103113772D01*
X105157969Y-103107583D01*
X105145553Y-103100142D01*
X105133927Y-103091519D01*
X105123202Y-103081798D01*
X105113481Y-103071073D01*
X105104858Y-103059447D01*
X105097417Y-103047031D01*
X105091228Y-103033946D01*
X105086351Y-103020317D01*
X105082834Y-103006276D01*
X105080710Y-102991958D01*
X105080000Y-102977500D01*
X105080000Y-102682500D01*
X105080710Y-102668042D01*
X105082834Y-102653724D01*
X105086351Y-102639683D01*
X105091228Y-102626054D01*
X105097417Y-102612969D01*
X105104858Y-102600553D01*
X105113481Y-102588927D01*
X105123202Y-102578202D01*
X105133927Y-102568481D01*
X105145553Y-102559858D01*
X105157969Y-102552417D01*
X105171054Y-102546228D01*
X105184683Y-102541351D01*
X105198724Y-102537834D01*
X105213042Y-102535710D01*
X105227500Y-102535000D01*
X105572500Y-102535000D01*
X105586958Y-102535710D01*
X105586958Y-102535710D01*
G37*
D12*
X105400000Y-102830000D03*
D11*
G36*
X105586958Y-103505710D02*
X105601276Y-103507834D01*
X105615317Y-103511351D01*
X105628946Y-103516228D01*
X105642031Y-103522417D01*
X105654447Y-103529858D01*
X105666073Y-103538481D01*
X105676798Y-103548202D01*
X105686519Y-103558927D01*
X105695142Y-103570553D01*
X105702583Y-103582969D01*
X105708772Y-103596054D01*
X105713649Y-103609683D01*
X105717166Y-103623724D01*
X105719290Y-103638042D01*
X105720000Y-103652500D01*
X105720000Y-103947500D01*
X105719290Y-103961958D01*
X105717166Y-103976276D01*
X105713649Y-103990317D01*
X105708772Y-104003946D01*
X105702583Y-104017031D01*
X105695142Y-104029447D01*
X105686519Y-104041073D01*
X105676798Y-104051798D01*
X105666073Y-104061519D01*
X105654447Y-104070142D01*
X105642031Y-104077583D01*
X105628946Y-104083772D01*
X105615317Y-104088649D01*
X105601276Y-104092166D01*
X105586958Y-104094290D01*
X105572500Y-104095000D01*
X105227500Y-104095000D01*
X105213042Y-104094290D01*
X105198724Y-104092166D01*
X105184683Y-104088649D01*
X105171054Y-104083772D01*
X105157969Y-104077583D01*
X105145553Y-104070142D01*
X105133927Y-104061519D01*
X105123202Y-104051798D01*
X105113481Y-104041073D01*
X105104858Y-104029447D01*
X105097417Y-104017031D01*
X105091228Y-104003946D01*
X105086351Y-103990317D01*
X105082834Y-103976276D01*
X105080710Y-103961958D01*
X105080000Y-103947500D01*
X105080000Y-103652500D01*
X105080710Y-103638042D01*
X105082834Y-103623724D01*
X105086351Y-103609683D01*
X105091228Y-103596054D01*
X105097417Y-103582969D01*
X105104858Y-103570553D01*
X105113481Y-103558927D01*
X105123202Y-103548202D01*
X105133927Y-103538481D01*
X105145553Y-103529858D01*
X105157969Y-103522417D01*
X105171054Y-103516228D01*
X105184683Y-103511351D01*
X105198724Y-103507834D01*
X105213042Y-103505710D01*
X105227500Y-103505000D01*
X105572500Y-103505000D01*
X105586958Y-103505710D01*
X105586958Y-103505710D01*
G37*
D12*
X105400000Y-103800000D03*
G04 #@! TD*
D11*
G04 #@! TO.C,C20*
G36*
X95176958Y-88980710D02*
X95191276Y-88982834D01*
X95205317Y-88986351D01*
X95218946Y-88991228D01*
X95232031Y-88997417D01*
X95244447Y-89004858D01*
X95256073Y-89013481D01*
X95266798Y-89023202D01*
X95276519Y-89033927D01*
X95285142Y-89045553D01*
X95292583Y-89057969D01*
X95298772Y-89071054D01*
X95303649Y-89084683D01*
X95307166Y-89098724D01*
X95309290Y-89113042D01*
X95310000Y-89127500D01*
X95310000Y-89472500D01*
X95309290Y-89486958D01*
X95307166Y-89501276D01*
X95303649Y-89515317D01*
X95298772Y-89528946D01*
X95292583Y-89542031D01*
X95285142Y-89554447D01*
X95276519Y-89566073D01*
X95266798Y-89576798D01*
X95256073Y-89586519D01*
X95244447Y-89595142D01*
X95232031Y-89602583D01*
X95218946Y-89608772D01*
X95205317Y-89613649D01*
X95191276Y-89617166D01*
X95176958Y-89619290D01*
X95162500Y-89620000D01*
X94867500Y-89620000D01*
X94853042Y-89619290D01*
X94838724Y-89617166D01*
X94824683Y-89613649D01*
X94811054Y-89608772D01*
X94797969Y-89602583D01*
X94785553Y-89595142D01*
X94773927Y-89586519D01*
X94763202Y-89576798D01*
X94753481Y-89566073D01*
X94744858Y-89554447D01*
X94737417Y-89542031D01*
X94731228Y-89528946D01*
X94726351Y-89515317D01*
X94722834Y-89501276D01*
X94720710Y-89486958D01*
X94720000Y-89472500D01*
X94720000Y-89127500D01*
X94720710Y-89113042D01*
X94722834Y-89098724D01*
X94726351Y-89084683D01*
X94731228Y-89071054D01*
X94737417Y-89057969D01*
X94744858Y-89045553D01*
X94753481Y-89033927D01*
X94763202Y-89023202D01*
X94773927Y-89013481D01*
X94785553Y-89004858D01*
X94797969Y-88997417D01*
X94811054Y-88991228D01*
X94824683Y-88986351D01*
X94838724Y-88982834D01*
X94853042Y-88980710D01*
X94867500Y-88980000D01*
X95162500Y-88980000D01*
X95176958Y-88980710D01*
X95176958Y-88980710D01*
G37*
D12*
X95015000Y-89300000D03*
D11*
G36*
X96146958Y-88980710D02*
X96161276Y-88982834D01*
X96175317Y-88986351D01*
X96188946Y-88991228D01*
X96202031Y-88997417D01*
X96214447Y-89004858D01*
X96226073Y-89013481D01*
X96236798Y-89023202D01*
X96246519Y-89033927D01*
X96255142Y-89045553D01*
X96262583Y-89057969D01*
X96268772Y-89071054D01*
X96273649Y-89084683D01*
X96277166Y-89098724D01*
X96279290Y-89113042D01*
X96280000Y-89127500D01*
X96280000Y-89472500D01*
X96279290Y-89486958D01*
X96277166Y-89501276D01*
X96273649Y-89515317D01*
X96268772Y-89528946D01*
X96262583Y-89542031D01*
X96255142Y-89554447D01*
X96246519Y-89566073D01*
X96236798Y-89576798D01*
X96226073Y-89586519D01*
X96214447Y-89595142D01*
X96202031Y-89602583D01*
X96188946Y-89608772D01*
X96175317Y-89613649D01*
X96161276Y-89617166D01*
X96146958Y-89619290D01*
X96132500Y-89620000D01*
X95837500Y-89620000D01*
X95823042Y-89619290D01*
X95808724Y-89617166D01*
X95794683Y-89613649D01*
X95781054Y-89608772D01*
X95767969Y-89602583D01*
X95755553Y-89595142D01*
X95743927Y-89586519D01*
X95733202Y-89576798D01*
X95723481Y-89566073D01*
X95714858Y-89554447D01*
X95707417Y-89542031D01*
X95701228Y-89528946D01*
X95696351Y-89515317D01*
X95692834Y-89501276D01*
X95690710Y-89486958D01*
X95690000Y-89472500D01*
X95690000Y-89127500D01*
X95690710Y-89113042D01*
X95692834Y-89098724D01*
X95696351Y-89084683D01*
X95701228Y-89071054D01*
X95707417Y-89057969D01*
X95714858Y-89045553D01*
X95723481Y-89033927D01*
X95733202Y-89023202D01*
X95743927Y-89013481D01*
X95755553Y-89004858D01*
X95767969Y-88997417D01*
X95781054Y-88991228D01*
X95794683Y-88986351D01*
X95808724Y-88982834D01*
X95823042Y-88980710D01*
X95837500Y-88980000D01*
X96132500Y-88980000D01*
X96146958Y-88980710D01*
X96146958Y-88980710D01*
G37*
D12*
X95985000Y-89300000D03*
G04 #@! TD*
D11*
G04 #@! TO.C,C21*
G36*
X105146958Y-88980710D02*
X105161276Y-88982834D01*
X105175317Y-88986351D01*
X105188946Y-88991228D01*
X105202031Y-88997417D01*
X105214447Y-89004858D01*
X105226073Y-89013481D01*
X105236798Y-89023202D01*
X105246519Y-89033927D01*
X105255142Y-89045553D01*
X105262583Y-89057969D01*
X105268772Y-89071054D01*
X105273649Y-89084683D01*
X105277166Y-89098724D01*
X105279290Y-89113042D01*
X105280000Y-89127500D01*
X105280000Y-89472500D01*
X105279290Y-89486958D01*
X105277166Y-89501276D01*
X105273649Y-89515317D01*
X105268772Y-89528946D01*
X105262583Y-89542031D01*
X105255142Y-89554447D01*
X105246519Y-89566073D01*
X105236798Y-89576798D01*
X105226073Y-89586519D01*
X105214447Y-89595142D01*
X105202031Y-89602583D01*
X105188946Y-89608772D01*
X105175317Y-89613649D01*
X105161276Y-89617166D01*
X105146958Y-89619290D01*
X105132500Y-89620000D01*
X104837500Y-89620000D01*
X104823042Y-89619290D01*
X104808724Y-89617166D01*
X104794683Y-89613649D01*
X104781054Y-89608772D01*
X104767969Y-89602583D01*
X104755553Y-89595142D01*
X104743927Y-89586519D01*
X104733202Y-89576798D01*
X104723481Y-89566073D01*
X104714858Y-89554447D01*
X104707417Y-89542031D01*
X104701228Y-89528946D01*
X104696351Y-89515317D01*
X104692834Y-89501276D01*
X104690710Y-89486958D01*
X104690000Y-89472500D01*
X104690000Y-89127500D01*
X104690710Y-89113042D01*
X104692834Y-89098724D01*
X104696351Y-89084683D01*
X104701228Y-89071054D01*
X104707417Y-89057969D01*
X104714858Y-89045553D01*
X104723481Y-89033927D01*
X104733202Y-89023202D01*
X104743927Y-89013481D01*
X104755553Y-89004858D01*
X104767969Y-88997417D01*
X104781054Y-88991228D01*
X104794683Y-88986351D01*
X104808724Y-88982834D01*
X104823042Y-88980710D01*
X104837500Y-88980000D01*
X105132500Y-88980000D01*
X105146958Y-88980710D01*
X105146958Y-88980710D01*
G37*
D12*
X104985000Y-89300000D03*
D11*
G36*
X104176958Y-88980710D02*
X104191276Y-88982834D01*
X104205317Y-88986351D01*
X104218946Y-88991228D01*
X104232031Y-88997417D01*
X104244447Y-89004858D01*
X104256073Y-89013481D01*
X104266798Y-89023202D01*
X104276519Y-89033927D01*
X104285142Y-89045553D01*
X104292583Y-89057969D01*
X104298772Y-89071054D01*
X104303649Y-89084683D01*
X104307166Y-89098724D01*
X104309290Y-89113042D01*
X104310000Y-89127500D01*
X104310000Y-89472500D01*
X104309290Y-89486958D01*
X104307166Y-89501276D01*
X104303649Y-89515317D01*
X104298772Y-89528946D01*
X104292583Y-89542031D01*
X104285142Y-89554447D01*
X104276519Y-89566073D01*
X104266798Y-89576798D01*
X104256073Y-89586519D01*
X104244447Y-89595142D01*
X104232031Y-89602583D01*
X104218946Y-89608772D01*
X104205317Y-89613649D01*
X104191276Y-89617166D01*
X104176958Y-89619290D01*
X104162500Y-89620000D01*
X103867500Y-89620000D01*
X103853042Y-89619290D01*
X103838724Y-89617166D01*
X103824683Y-89613649D01*
X103811054Y-89608772D01*
X103797969Y-89602583D01*
X103785553Y-89595142D01*
X103773927Y-89586519D01*
X103763202Y-89576798D01*
X103753481Y-89566073D01*
X103744858Y-89554447D01*
X103737417Y-89542031D01*
X103731228Y-89528946D01*
X103726351Y-89515317D01*
X103722834Y-89501276D01*
X103720710Y-89486958D01*
X103720000Y-89472500D01*
X103720000Y-89127500D01*
X103720710Y-89113042D01*
X103722834Y-89098724D01*
X103726351Y-89084683D01*
X103731228Y-89071054D01*
X103737417Y-89057969D01*
X103744858Y-89045553D01*
X103753481Y-89033927D01*
X103763202Y-89023202D01*
X103773927Y-89013481D01*
X103785553Y-89004858D01*
X103797969Y-88997417D01*
X103811054Y-88991228D01*
X103824683Y-88986351D01*
X103838724Y-88982834D01*
X103853042Y-88980710D01*
X103867500Y-88980000D01*
X104162500Y-88980000D01*
X104176958Y-88980710D01*
X104176958Y-88980710D01*
G37*
D12*
X104015000Y-89300000D03*
G04 #@! TD*
D11*
G04 #@! TO.C,C31*
G36*
X99161958Y-100980710D02*
X99176276Y-100982834D01*
X99190317Y-100986351D01*
X99203946Y-100991228D01*
X99217031Y-100997417D01*
X99229447Y-101004858D01*
X99241073Y-101013481D01*
X99251798Y-101023202D01*
X99261519Y-101033927D01*
X99270142Y-101045553D01*
X99277583Y-101057969D01*
X99283772Y-101071054D01*
X99288649Y-101084683D01*
X99292166Y-101098724D01*
X99294290Y-101113042D01*
X99295000Y-101127500D01*
X99295000Y-101472500D01*
X99294290Y-101486958D01*
X99292166Y-101501276D01*
X99288649Y-101515317D01*
X99283772Y-101528946D01*
X99277583Y-101542031D01*
X99270142Y-101554447D01*
X99261519Y-101566073D01*
X99251798Y-101576798D01*
X99241073Y-101586519D01*
X99229447Y-101595142D01*
X99217031Y-101602583D01*
X99203946Y-101608772D01*
X99190317Y-101613649D01*
X99176276Y-101617166D01*
X99161958Y-101619290D01*
X99147500Y-101620000D01*
X98852500Y-101620000D01*
X98838042Y-101619290D01*
X98823724Y-101617166D01*
X98809683Y-101613649D01*
X98796054Y-101608772D01*
X98782969Y-101602583D01*
X98770553Y-101595142D01*
X98758927Y-101586519D01*
X98748202Y-101576798D01*
X98738481Y-101566073D01*
X98729858Y-101554447D01*
X98722417Y-101542031D01*
X98716228Y-101528946D01*
X98711351Y-101515317D01*
X98707834Y-101501276D01*
X98705710Y-101486958D01*
X98705000Y-101472500D01*
X98705000Y-101127500D01*
X98705710Y-101113042D01*
X98707834Y-101098724D01*
X98711351Y-101084683D01*
X98716228Y-101071054D01*
X98722417Y-101057969D01*
X98729858Y-101045553D01*
X98738481Y-101033927D01*
X98748202Y-101023202D01*
X98758927Y-101013481D01*
X98770553Y-101004858D01*
X98782969Y-100997417D01*
X98796054Y-100991228D01*
X98809683Y-100986351D01*
X98823724Y-100982834D01*
X98838042Y-100980710D01*
X98852500Y-100980000D01*
X99147500Y-100980000D01*
X99161958Y-100980710D01*
X99161958Y-100980710D01*
G37*
D12*
X99000000Y-101300000D03*
D11*
G36*
X98191958Y-100980710D02*
X98206276Y-100982834D01*
X98220317Y-100986351D01*
X98233946Y-100991228D01*
X98247031Y-100997417D01*
X98259447Y-101004858D01*
X98271073Y-101013481D01*
X98281798Y-101023202D01*
X98291519Y-101033927D01*
X98300142Y-101045553D01*
X98307583Y-101057969D01*
X98313772Y-101071054D01*
X98318649Y-101084683D01*
X98322166Y-101098724D01*
X98324290Y-101113042D01*
X98325000Y-101127500D01*
X98325000Y-101472500D01*
X98324290Y-101486958D01*
X98322166Y-101501276D01*
X98318649Y-101515317D01*
X98313772Y-101528946D01*
X98307583Y-101542031D01*
X98300142Y-101554447D01*
X98291519Y-101566073D01*
X98281798Y-101576798D01*
X98271073Y-101586519D01*
X98259447Y-101595142D01*
X98247031Y-101602583D01*
X98233946Y-101608772D01*
X98220317Y-101613649D01*
X98206276Y-101617166D01*
X98191958Y-101619290D01*
X98177500Y-101620000D01*
X97882500Y-101620000D01*
X97868042Y-101619290D01*
X97853724Y-101617166D01*
X97839683Y-101613649D01*
X97826054Y-101608772D01*
X97812969Y-101602583D01*
X97800553Y-101595142D01*
X97788927Y-101586519D01*
X97778202Y-101576798D01*
X97768481Y-101566073D01*
X97759858Y-101554447D01*
X97752417Y-101542031D01*
X97746228Y-101528946D01*
X97741351Y-101515317D01*
X97737834Y-101501276D01*
X97735710Y-101486958D01*
X97735000Y-101472500D01*
X97735000Y-101127500D01*
X97735710Y-101113042D01*
X97737834Y-101098724D01*
X97741351Y-101084683D01*
X97746228Y-101071054D01*
X97752417Y-101057969D01*
X97759858Y-101045553D01*
X97768481Y-101033927D01*
X97778202Y-101023202D01*
X97788927Y-101013481D01*
X97800553Y-101004858D01*
X97812969Y-100997417D01*
X97826054Y-100991228D01*
X97839683Y-100986351D01*
X97853724Y-100982834D01*
X97868042Y-100980710D01*
X97882500Y-100980000D01*
X98177500Y-100980000D01*
X98191958Y-100980710D01*
X98191958Y-100980710D01*
G37*
D12*
X98030000Y-101300000D03*
G04 #@! TD*
D11*
G04 #@! TO.C,C52*
G36*
X97676958Y-113462610D02*
X97691276Y-113464734D01*
X97705317Y-113468251D01*
X97718946Y-113473128D01*
X97732031Y-113479317D01*
X97744447Y-113486758D01*
X97756073Y-113495381D01*
X97766798Y-113505102D01*
X97776519Y-113515827D01*
X97785142Y-113527453D01*
X97792583Y-113539869D01*
X97798772Y-113552954D01*
X97803649Y-113566583D01*
X97807166Y-113580624D01*
X97809290Y-113594942D01*
X97810000Y-113609400D01*
X97810000Y-113954400D01*
X97809290Y-113968858D01*
X97807166Y-113983176D01*
X97803649Y-113997217D01*
X97798772Y-114010846D01*
X97792583Y-114023931D01*
X97785142Y-114036347D01*
X97776519Y-114047973D01*
X97766798Y-114058698D01*
X97756073Y-114068419D01*
X97744447Y-114077042D01*
X97732031Y-114084483D01*
X97718946Y-114090672D01*
X97705317Y-114095549D01*
X97691276Y-114099066D01*
X97676958Y-114101190D01*
X97662500Y-114101900D01*
X97367500Y-114101900D01*
X97353042Y-114101190D01*
X97338724Y-114099066D01*
X97324683Y-114095549D01*
X97311054Y-114090672D01*
X97297969Y-114084483D01*
X97285553Y-114077042D01*
X97273927Y-114068419D01*
X97263202Y-114058698D01*
X97253481Y-114047973D01*
X97244858Y-114036347D01*
X97237417Y-114023931D01*
X97231228Y-114010846D01*
X97226351Y-113997217D01*
X97222834Y-113983176D01*
X97220710Y-113968858D01*
X97220000Y-113954400D01*
X97220000Y-113609400D01*
X97220710Y-113594942D01*
X97222834Y-113580624D01*
X97226351Y-113566583D01*
X97231228Y-113552954D01*
X97237417Y-113539869D01*
X97244858Y-113527453D01*
X97253481Y-113515827D01*
X97263202Y-113505102D01*
X97273927Y-113495381D01*
X97285553Y-113486758D01*
X97297969Y-113479317D01*
X97311054Y-113473128D01*
X97324683Y-113468251D01*
X97338724Y-113464734D01*
X97353042Y-113462610D01*
X97367500Y-113461900D01*
X97662500Y-113461900D01*
X97676958Y-113462610D01*
X97676958Y-113462610D01*
G37*
D12*
X97515000Y-113781900D03*
D11*
G36*
X98646958Y-113462610D02*
X98661276Y-113464734D01*
X98675317Y-113468251D01*
X98688946Y-113473128D01*
X98702031Y-113479317D01*
X98714447Y-113486758D01*
X98726073Y-113495381D01*
X98736798Y-113505102D01*
X98746519Y-113515827D01*
X98755142Y-113527453D01*
X98762583Y-113539869D01*
X98768772Y-113552954D01*
X98773649Y-113566583D01*
X98777166Y-113580624D01*
X98779290Y-113594942D01*
X98780000Y-113609400D01*
X98780000Y-113954400D01*
X98779290Y-113968858D01*
X98777166Y-113983176D01*
X98773649Y-113997217D01*
X98768772Y-114010846D01*
X98762583Y-114023931D01*
X98755142Y-114036347D01*
X98746519Y-114047973D01*
X98736798Y-114058698D01*
X98726073Y-114068419D01*
X98714447Y-114077042D01*
X98702031Y-114084483D01*
X98688946Y-114090672D01*
X98675317Y-114095549D01*
X98661276Y-114099066D01*
X98646958Y-114101190D01*
X98632500Y-114101900D01*
X98337500Y-114101900D01*
X98323042Y-114101190D01*
X98308724Y-114099066D01*
X98294683Y-114095549D01*
X98281054Y-114090672D01*
X98267969Y-114084483D01*
X98255553Y-114077042D01*
X98243927Y-114068419D01*
X98233202Y-114058698D01*
X98223481Y-114047973D01*
X98214858Y-114036347D01*
X98207417Y-114023931D01*
X98201228Y-114010846D01*
X98196351Y-113997217D01*
X98192834Y-113983176D01*
X98190710Y-113968858D01*
X98190000Y-113954400D01*
X98190000Y-113609400D01*
X98190710Y-113594942D01*
X98192834Y-113580624D01*
X98196351Y-113566583D01*
X98201228Y-113552954D01*
X98207417Y-113539869D01*
X98214858Y-113527453D01*
X98223481Y-113515827D01*
X98233202Y-113505102D01*
X98243927Y-113495381D01*
X98255553Y-113486758D01*
X98267969Y-113479317D01*
X98281054Y-113473128D01*
X98294683Y-113468251D01*
X98308724Y-113464734D01*
X98323042Y-113462610D01*
X98337500Y-113461900D01*
X98632500Y-113461900D01*
X98646958Y-113462610D01*
X98646958Y-113462610D01*
G37*
D12*
X98485000Y-113781900D03*
G04 #@! TD*
D11*
G04 #@! TO.C,R20*
G36*
X104176958Y-87480710D02*
X104191276Y-87482834D01*
X104205317Y-87486351D01*
X104218946Y-87491228D01*
X104232031Y-87497417D01*
X104244447Y-87504858D01*
X104256073Y-87513481D01*
X104266798Y-87523202D01*
X104276519Y-87533927D01*
X104285142Y-87545553D01*
X104292583Y-87557969D01*
X104298772Y-87571054D01*
X104303649Y-87584683D01*
X104307166Y-87598724D01*
X104309290Y-87613042D01*
X104310000Y-87627500D01*
X104310000Y-87972500D01*
X104309290Y-87986958D01*
X104307166Y-88001276D01*
X104303649Y-88015317D01*
X104298772Y-88028946D01*
X104292583Y-88042031D01*
X104285142Y-88054447D01*
X104276519Y-88066073D01*
X104266798Y-88076798D01*
X104256073Y-88086519D01*
X104244447Y-88095142D01*
X104232031Y-88102583D01*
X104218946Y-88108772D01*
X104205317Y-88113649D01*
X104191276Y-88117166D01*
X104176958Y-88119290D01*
X104162500Y-88120000D01*
X103867500Y-88120000D01*
X103853042Y-88119290D01*
X103838724Y-88117166D01*
X103824683Y-88113649D01*
X103811054Y-88108772D01*
X103797969Y-88102583D01*
X103785553Y-88095142D01*
X103773927Y-88086519D01*
X103763202Y-88076798D01*
X103753481Y-88066073D01*
X103744858Y-88054447D01*
X103737417Y-88042031D01*
X103731228Y-88028946D01*
X103726351Y-88015317D01*
X103722834Y-88001276D01*
X103720710Y-87986958D01*
X103720000Y-87972500D01*
X103720000Y-87627500D01*
X103720710Y-87613042D01*
X103722834Y-87598724D01*
X103726351Y-87584683D01*
X103731228Y-87571054D01*
X103737417Y-87557969D01*
X103744858Y-87545553D01*
X103753481Y-87533927D01*
X103763202Y-87523202D01*
X103773927Y-87513481D01*
X103785553Y-87504858D01*
X103797969Y-87497417D01*
X103811054Y-87491228D01*
X103824683Y-87486351D01*
X103838724Y-87482834D01*
X103853042Y-87480710D01*
X103867500Y-87480000D01*
X104162500Y-87480000D01*
X104176958Y-87480710D01*
X104176958Y-87480710D01*
G37*
D12*
X104015000Y-87800000D03*
D11*
G36*
X105146958Y-87480710D02*
X105161276Y-87482834D01*
X105175317Y-87486351D01*
X105188946Y-87491228D01*
X105202031Y-87497417D01*
X105214447Y-87504858D01*
X105226073Y-87513481D01*
X105236798Y-87523202D01*
X105246519Y-87533927D01*
X105255142Y-87545553D01*
X105262583Y-87557969D01*
X105268772Y-87571054D01*
X105273649Y-87584683D01*
X105277166Y-87598724D01*
X105279290Y-87613042D01*
X105280000Y-87627500D01*
X105280000Y-87972500D01*
X105279290Y-87986958D01*
X105277166Y-88001276D01*
X105273649Y-88015317D01*
X105268772Y-88028946D01*
X105262583Y-88042031D01*
X105255142Y-88054447D01*
X105246519Y-88066073D01*
X105236798Y-88076798D01*
X105226073Y-88086519D01*
X105214447Y-88095142D01*
X105202031Y-88102583D01*
X105188946Y-88108772D01*
X105175317Y-88113649D01*
X105161276Y-88117166D01*
X105146958Y-88119290D01*
X105132500Y-88120000D01*
X104837500Y-88120000D01*
X104823042Y-88119290D01*
X104808724Y-88117166D01*
X104794683Y-88113649D01*
X104781054Y-88108772D01*
X104767969Y-88102583D01*
X104755553Y-88095142D01*
X104743927Y-88086519D01*
X104733202Y-88076798D01*
X104723481Y-88066073D01*
X104714858Y-88054447D01*
X104707417Y-88042031D01*
X104701228Y-88028946D01*
X104696351Y-88015317D01*
X104692834Y-88001276D01*
X104690710Y-87986958D01*
X104690000Y-87972500D01*
X104690000Y-87627500D01*
X104690710Y-87613042D01*
X104692834Y-87598724D01*
X104696351Y-87584683D01*
X104701228Y-87571054D01*
X104707417Y-87557969D01*
X104714858Y-87545553D01*
X104723481Y-87533927D01*
X104733202Y-87523202D01*
X104743927Y-87513481D01*
X104755553Y-87504858D01*
X104767969Y-87497417D01*
X104781054Y-87491228D01*
X104794683Y-87486351D01*
X104808724Y-87482834D01*
X104823042Y-87480710D01*
X104837500Y-87480000D01*
X105132500Y-87480000D01*
X105146958Y-87480710D01*
X105146958Y-87480710D01*
G37*
D12*
X104985000Y-87800000D03*
G04 #@! TD*
D11*
G04 #@! TO.C,R21*
G36*
X95161958Y-86880710D02*
X95176276Y-86882834D01*
X95190317Y-86886351D01*
X95203946Y-86891228D01*
X95217031Y-86897417D01*
X95229447Y-86904858D01*
X95241073Y-86913481D01*
X95251798Y-86923202D01*
X95261519Y-86933927D01*
X95270142Y-86945553D01*
X95277583Y-86957969D01*
X95283772Y-86971054D01*
X95288649Y-86984683D01*
X95292166Y-86998724D01*
X95294290Y-87013042D01*
X95295000Y-87027500D01*
X95295000Y-87372500D01*
X95294290Y-87386958D01*
X95292166Y-87401276D01*
X95288649Y-87415317D01*
X95283772Y-87428946D01*
X95277583Y-87442031D01*
X95270142Y-87454447D01*
X95261519Y-87466073D01*
X95251798Y-87476798D01*
X95241073Y-87486519D01*
X95229447Y-87495142D01*
X95217031Y-87502583D01*
X95203946Y-87508772D01*
X95190317Y-87513649D01*
X95176276Y-87517166D01*
X95161958Y-87519290D01*
X95147500Y-87520000D01*
X94852500Y-87520000D01*
X94838042Y-87519290D01*
X94823724Y-87517166D01*
X94809683Y-87513649D01*
X94796054Y-87508772D01*
X94782969Y-87502583D01*
X94770553Y-87495142D01*
X94758927Y-87486519D01*
X94748202Y-87476798D01*
X94738481Y-87466073D01*
X94729858Y-87454447D01*
X94722417Y-87442031D01*
X94716228Y-87428946D01*
X94711351Y-87415317D01*
X94707834Y-87401276D01*
X94705710Y-87386958D01*
X94705000Y-87372500D01*
X94705000Y-87027500D01*
X94705710Y-87013042D01*
X94707834Y-86998724D01*
X94711351Y-86984683D01*
X94716228Y-86971054D01*
X94722417Y-86957969D01*
X94729858Y-86945553D01*
X94738481Y-86933927D01*
X94748202Y-86923202D01*
X94758927Y-86913481D01*
X94770553Y-86904858D01*
X94782969Y-86897417D01*
X94796054Y-86891228D01*
X94809683Y-86886351D01*
X94823724Y-86882834D01*
X94838042Y-86880710D01*
X94852500Y-86880000D01*
X95147500Y-86880000D01*
X95161958Y-86880710D01*
X95161958Y-86880710D01*
G37*
D12*
X95000000Y-87200000D03*
D11*
G36*
X96131958Y-86880710D02*
X96146276Y-86882834D01*
X96160317Y-86886351D01*
X96173946Y-86891228D01*
X96187031Y-86897417D01*
X96199447Y-86904858D01*
X96211073Y-86913481D01*
X96221798Y-86923202D01*
X96231519Y-86933927D01*
X96240142Y-86945553D01*
X96247583Y-86957969D01*
X96253772Y-86971054D01*
X96258649Y-86984683D01*
X96262166Y-86998724D01*
X96264290Y-87013042D01*
X96265000Y-87027500D01*
X96265000Y-87372500D01*
X96264290Y-87386958D01*
X96262166Y-87401276D01*
X96258649Y-87415317D01*
X96253772Y-87428946D01*
X96247583Y-87442031D01*
X96240142Y-87454447D01*
X96231519Y-87466073D01*
X96221798Y-87476798D01*
X96211073Y-87486519D01*
X96199447Y-87495142D01*
X96187031Y-87502583D01*
X96173946Y-87508772D01*
X96160317Y-87513649D01*
X96146276Y-87517166D01*
X96131958Y-87519290D01*
X96117500Y-87520000D01*
X95822500Y-87520000D01*
X95808042Y-87519290D01*
X95793724Y-87517166D01*
X95779683Y-87513649D01*
X95766054Y-87508772D01*
X95752969Y-87502583D01*
X95740553Y-87495142D01*
X95728927Y-87486519D01*
X95718202Y-87476798D01*
X95708481Y-87466073D01*
X95699858Y-87454447D01*
X95692417Y-87442031D01*
X95686228Y-87428946D01*
X95681351Y-87415317D01*
X95677834Y-87401276D01*
X95675710Y-87386958D01*
X95675000Y-87372500D01*
X95675000Y-87027500D01*
X95675710Y-87013042D01*
X95677834Y-86998724D01*
X95681351Y-86984683D01*
X95686228Y-86971054D01*
X95692417Y-86957969D01*
X95699858Y-86945553D01*
X95708481Y-86933927D01*
X95718202Y-86923202D01*
X95728927Y-86913481D01*
X95740553Y-86904858D01*
X95752969Y-86897417D01*
X95766054Y-86891228D01*
X95779683Y-86886351D01*
X95793724Y-86882834D01*
X95808042Y-86880710D01*
X95822500Y-86880000D01*
X96117500Y-86880000D01*
X96131958Y-86880710D01*
X96131958Y-86880710D01*
G37*
D12*
X95970000Y-87200000D03*
G04 #@! TD*
D11*
G04 #@! TO.C,R62*
G36*
X105586958Y-105990710D02*
X105601276Y-105992834D01*
X105615317Y-105996351D01*
X105628946Y-106001228D01*
X105642031Y-106007417D01*
X105654447Y-106014858D01*
X105666073Y-106023481D01*
X105676798Y-106033202D01*
X105686519Y-106043927D01*
X105695142Y-106055553D01*
X105702583Y-106067969D01*
X105708772Y-106081054D01*
X105713649Y-106094683D01*
X105717166Y-106108724D01*
X105719290Y-106123042D01*
X105720000Y-106137500D01*
X105720000Y-106432500D01*
X105719290Y-106446958D01*
X105717166Y-106461276D01*
X105713649Y-106475317D01*
X105708772Y-106488946D01*
X105702583Y-106502031D01*
X105695142Y-106514447D01*
X105686519Y-106526073D01*
X105676798Y-106536798D01*
X105666073Y-106546519D01*
X105654447Y-106555142D01*
X105642031Y-106562583D01*
X105628946Y-106568772D01*
X105615317Y-106573649D01*
X105601276Y-106577166D01*
X105586958Y-106579290D01*
X105572500Y-106580000D01*
X105227500Y-106580000D01*
X105213042Y-106579290D01*
X105198724Y-106577166D01*
X105184683Y-106573649D01*
X105171054Y-106568772D01*
X105157969Y-106562583D01*
X105145553Y-106555142D01*
X105133927Y-106546519D01*
X105123202Y-106536798D01*
X105113481Y-106526073D01*
X105104858Y-106514447D01*
X105097417Y-106502031D01*
X105091228Y-106488946D01*
X105086351Y-106475317D01*
X105082834Y-106461276D01*
X105080710Y-106446958D01*
X105080000Y-106432500D01*
X105080000Y-106137500D01*
X105080710Y-106123042D01*
X105082834Y-106108724D01*
X105086351Y-106094683D01*
X105091228Y-106081054D01*
X105097417Y-106067969D01*
X105104858Y-106055553D01*
X105113481Y-106043927D01*
X105123202Y-106033202D01*
X105133927Y-106023481D01*
X105145553Y-106014858D01*
X105157969Y-106007417D01*
X105171054Y-106001228D01*
X105184683Y-105996351D01*
X105198724Y-105992834D01*
X105213042Y-105990710D01*
X105227500Y-105990000D01*
X105572500Y-105990000D01*
X105586958Y-105990710D01*
X105586958Y-105990710D01*
G37*
D12*
X105400000Y-106285000D03*
D11*
G36*
X105586958Y-105020710D02*
X105601276Y-105022834D01*
X105615317Y-105026351D01*
X105628946Y-105031228D01*
X105642031Y-105037417D01*
X105654447Y-105044858D01*
X105666073Y-105053481D01*
X105676798Y-105063202D01*
X105686519Y-105073927D01*
X105695142Y-105085553D01*
X105702583Y-105097969D01*
X105708772Y-105111054D01*
X105713649Y-105124683D01*
X105717166Y-105138724D01*
X105719290Y-105153042D01*
X105720000Y-105167500D01*
X105720000Y-105462500D01*
X105719290Y-105476958D01*
X105717166Y-105491276D01*
X105713649Y-105505317D01*
X105708772Y-105518946D01*
X105702583Y-105532031D01*
X105695142Y-105544447D01*
X105686519Y-105556073D01*
X105676798Y-105566798D01*
X105666073Y-105576519D01*
X105654447Y-105585142D01*
X105642031Y-105592583D01*
X105628946Y-105598772D01*
X105615317Y-105603649D01*
X105601276Y-105607166D01*
X105586958Y-105609290D01*
X105572500Y-105610000D01*
X105227500Y-105610000D01*
X105213042Y-105609290D01*
X105198724Y-105607166D01*
X105184683Y-105603649D01*
X105171054Y-105598772D01*
X105157969Y-105592583D01*
X105145553Y-105585142D01*
X105133927Y-105576519D01*
X105123202Y-105566798D01*
X105113481Y-105556073D01*
X105104858Y-105544447D01*
X105097417Y-105532031D01*
X105091228Y-105518946D01*
X105086351Y-105505317D01*
X105082834Y-105491276D01*
X105080710Y-105476958D01*
X105080000Y-105462500D01*
X105080000Y-105167500D01*
X105080710Y-105153042D01*
X105082834Y-105138724D01*
X105086351Y-105124683D01*
X105091228Y-105111054D01*
X105097417Y-105097969D01*
X105104858Y-105085553D01*
X105113481Y-105073927D01*
X105123202Y-105063202D01*
X105133927Y-105053481D01*
X105145553Y-105044858D01*
X105157969Y-105037417D01*
X105171054Y-105031228D01*
X105184683Y-105026351D01*
X105198724Y-105022834D01*
X105213042Y-105020710D01*
X105227500Y-105020000D01*
X105572500Y-105020000D01*
X105586958Y-105020710D01*
X105586958Y-105020710D01*
G37*
D12*
X105400000Y-105315000D03*
G04 #@! TD*
D11*
G04 #@! TO.C,R70*
G36*
X121961958Y-81680710D02*
X121976276Y-81682834D01*
X121990317Y-81686351D01*
X122003946Y-81691228D01*
X122017031Y-81697417D01*
X122029447Y-81704858D01*
X122041073Y-81713481D01*
X122051798Y-81723202D01*
X122061519Y-81733927D01*
X122070142Y-81745553D01*
X122077583Y-81757969D01*
X122083772Y-81771054D01*
X122088649Y-81784683D01*
X122092166Y-81798724D01*
X122094290Y-81813042D01*
X122095000Y-81827500D01*
X122095000Y-82172500D01*
X122094290Y-82186958D01*
X122092166Y-82201276D01*
X122088649Y-82215317D01*
X122083772Y-82228946D01*
X122077583Y-82242031D01*
X122070142Y-82254447D01*
X122061519Y-82266073D01*
X122051798Y-82276798D01*
X122041073Y-82286519D01*
X122029447Y-82295142D01*
X122017031Y-82302583D01*
X122003946Y-82308772D01*
X121990317Y-82313649D01*
X121976276Y-82317166D01*
X121961958Y-82319290D01*
X121947500Y-82320000D01*
X121652500Y-82320000D01*
X121638042Y-82319290D01*
X121623724Y-82317166D01*
X121609683Y-82313649D01*
X121596054Y-82308772D01*
X121582969Y-82302583D01*
X121570553Y-82295142D01*
X121558927Y-82286519D01*
X121548202Y-82276798D01*
X121538481Y-82266073D01*
X121529858Y-82254447D01*
X121522417Y-82242031D01*
X121516228Y-82228946D01*
X121511351Y-82215317D01*
X121507834Y-82201276D01*
X121505710Y-82186958D01*
X121505000Y-82172500D01*
X121505000Y-81827500D01*
X121505710Y-81813042D01*
X121507834Y-81798724D01*
X121511351Y-81784683D01*
X121516228Y-81771054D01*
X121522417Y-81757969D01*
X121529858Y-81745553D01*
X121538481Y-81733927D01*
X121548202Y-81723202D01*
X121558927Y-81713481D01*
X121570553Y-81704858D01*
X121582969Y-81697417D01*
X121596054Y-81691228D01*
X121609683Y-81686351D01*
X121623724Y-81682834D01*
X121638042Y-81680710D01*
X121652500Y-81680000D01*
X121947500Y-81680000D01*
X121961958Y-81680710D01*
X121961958Y-81680710D01*
G37*
D12*
X121800000Y-82000000D03*
D11*
G36*
X122931958Y-81680710D02*
X122946276Y-81682834D01*
X122960317Y-81686351D01*
X122973946Y-81691228D01*
X122987031Y-81697417D01*
X122999447Y-81704858D01*
X123011073Y-81713481D01*
X123021798Y-81723202D01*
X123031519Y-81733927D01*
X123040142Y-81745553D01*
X123047583Y-81757969D01*
X123053772Y-81771054D01*
X123058649Y-81784683D01*
X123062166Y-81798724D01*
X123064290Y-81813042D01*
X123065000Y-81827500D01*
X123065000Y-82172500D01*
X123064290Y-82186958D01*
X123062166Y-82201276D01*
X123058649Y-82215317D01*
X123053772Y-82228946D01*
X123047583Y-82242031D01*
X123040142Y-82254447D01*
X123031519Y-82266073D01*
X123021798Y-82276798D01*
X123011073Y-82286519D01*
X122999447Y-82295142D01*
X122987031Y-82302583D01*
X122973946Y-82308772D01*
X122960317Y-82313649D01*
X122946276Y-82317166D01*
X122931958Y-82319290D01*
X122917500Y-82320000D01*
X122622500Y-82320000D01*
X122608042Y-82319290D01*
X122593724Y-82317166D01*
X122579683Y-82313649D01*
X122566054Y-82308772D01*
X122552969Y-82302583D01*
X122540553Y-82295142D01*
X122528927Y-82286519D01*
X122518202Y-82276798D01*
X122508481Y-82266073D01*
X122499858Y-82254447D01*
X122492417Y-82242031D01*
X122486228Y-82228946D01*
X122481351Y-82215317D01*
X122477834Y-82201276D01*
X122475710Y-82186958D01*
X122475000Y-82172500D01*
X122475000Y-81827500D01*
X122475710Y-81813042D01*
X122477834Y-81798724D01*
X122481351Y-81784683D01*
X122486228Y-81771054D01*
X122492417Y-81757969D01*
X122499858Y-81745553D01*
X122508481Y-81733927D01*
X122518202Y-81723202D01*
X122528927Y-81713481D01*
X122540553Y-81704858D01*
X122552969Y-81697417D01*
X122566054Y-81691228D01*
X122579683Y-81686351D01*
X122593724Y-81682834D01*
X122608042Y-81680710D01*
X122622500Y-81680000D01*
X122917500Y-81680000D01*
X122931958Y-81680710D01*
X122931958Y-81680710D01*
G37*
D12*
X122770000Y-82000000D03*
G04 #@! TD*
D11*
G04 #@! TO.C,R71*
G36*
X120461958Y-81680710D02*
X120476276Y-81682834D01*
X120490317Y-81686351D01*
X120503946Y-81691228D01*
X120517031Y-81697417D01*
X120529447Y-81704858D01*
X120541073Y-81713481D01*
X120551798Y-81723202D01*
X120561519Y-81733927D01*
X120570142Y-81745553D01*
X120577583Y-81757969D01*
X120583772Y-81771054D01*
X120588649Y-81784683D01*
X120592166Y-81798724D01*
X120594290Y-81813042D01*
X120595000Y-81827500D01*
X120595000Y-82172500D01*
X120594290Y-82186958D01*
X120592166Y-82201276D01*
X120588649Y-82215317D01*
X120583772Y-82228946D01*
X120577583Y-82242031D01*
X120570142Y-82254447D01*
X120561519Y-82266073D01*
X120551798Y-82276798D01*
X120541073Y-82286519D01*
X120529447Y-82295142D01*
X120517031Y-82302583D01*
X120503946Y-82308772D01*
X120490317Y-82313649D01*
X120476276Y-82317166D01*
X120461958Y-82319290D01*
X120447500Y-82320000D01*
X120152500Y-82320000D01*
X120138042Y-82319290D01*
X120123724Y-82317166D01*
X120109683Y-82313649D01*
X120096054Y-82308772D01*
X120082969Y-82302583D01*
X120070553Y-82295142D01*
X120058927Y-82286519D01*
X120048202Y-82276798D01*
X120038481Y-82266073D01*
X120029858Y-82254447D01*
X120022417Y-82242031D01*
X120016228Y-82228946D01*
X120011351Y-82215317D01*
X120007834Y-82201276D01*
X120005710Y-82186958D01*
X120005000Y-82172500D01*
X120005000Y-81827500D01*
X120005710Y-81813042D01*
X120007834Y-81798724D01*
X120011351Y-81784683D01*
X120016228Y-81771054D01*
X120022417Y-81757969D01*
X120029858Y-81745553D01*
X120038481Y-81733927D01*
X120048202Y-81723202D01*
X120058927Y-81713481D01*
X120070553Y-81704858D01*
X120082969Y-81697417D01*
X120096054Y-81691228D01*
X120109683Y-81686351D01*
X120123724Y-81682834D01*
X120138042Y-81680710D01*
X120152500Y-81680000D01*
X120447500Y-81680000D01*
X120461958Y-81680710D01*
X120461958Y-81680710D01*
G37*
D12*
X120300000Y-82000000D03*
D11*
G36*
X119491958Y-81680710D02*
X119506276Y-81682834D01*
X119520317Y-81686351D01*
X119533946Y-81691228D01*
X119547031Y-81697417D01*
X119559447Y-81704858D01*
X119571073Y-81713481D01*
X119581798Y-81723202D01*
X119591519Y-81733927D01*
X119600142Y-81745553D01*
X119607583Y-81757969D01*
X119613772Y-81771054D01*
X119618649Y-81784683D01*
X119622166Y-81798724D01*
X119624290Y-81813042D01*
X119625000Y-81827500D01*
X119625000Y-82172500D01*
X119624290Y-82186958D01*
X119622166Y-82201276D01*
X119618649Y-82215317D01*
X119613772Y-82228946D01*
X119607583Y-82242031D01*
X119600142Y-82254447D01*
X119591519Y-82266073D01*
X119581798Y-82276798D01*
X119571073Y-82286519D01*
X119559447Y-82295142D01*
X119547031Y-82302583D01*
X119533946Y-82308772D01*
X119520317Y-82313649D01*
X119506276Y-82317166D01*
X119491958Y-82319290D01*
X119477500Y-82320000D01*
X119182500Y-82320000D01*
X119168042Y-82319290D01*
X119153724Y-82317166D01*
X119139683Y-82313649D01*
X119126054Y-82308772D01*
X119112969Y-82302583D01*
X119100553Y-82295142D01*
X119088927Y-82286519D01*
X119078202Y-82276798D01*
X119068481Y-82266073D01*
X119059858Y-82254447D01*
X119052417Y-82242031D01*
X119046228Y-82228946D01*
X119041351Y-82215317D01*
X119037834Y-82201276D01*
X119035710Y-82186958D01*
X119035000Y-82172500D01*
X119035000Y-81827500D01*
X119035710Y-81813042D01*
X119037834Y-81798724D01*
X119041351Y-81784683D01*
X119046228Y-81771054D01*
X119052417Y-81757969D01*
X119059858Y-81745553D01*
X119068481Y-81733927D01*
X119078202Y-81723202D01*
X119088927Y-81713481D01*
X119100553Y-81704858D01*
X119112969Y-81697417D01*
X119126054Y-81691228D01*
X119139683Y-81686351D01*
X119153724Y-81682834D01*
X119168042Y-81680710D01*
X119182500Y-81680000D01*
X119477500Y-81680000D01*
X119491958Y-81680710D01*
X119491958Y-81680710D01*
G37*
D12*
X119330000Y-82000000D03*
G04 #@! TD*
D11*
G04 #@! TO.C,C70*
G36*
X117931958Y-81680710D02*
X117946276Y-81682834D01*
X117960317Y-81686351D01*
X117973946Y-81691228D01*
X117987031Y-81697417D01*
X117999447Y-81704858D01*
X118011073Y-81713481D01*
X118021798Y-81723202D01*
X118031519Y-81733927D01*
X118040142Y-81745553D01*
X118047583Y-81757969D01*
X118053772Y-81771054D01*
X118058649Y-81784683D01*
X118062166Y-81798724D01*
X118064290Y-81813042D01*
X118065000Y-81827500D01*
X118065000Y-82172500D01*
X118064290Y-82186958D01*
X118062166Y-82201276D01*
X118058649Y-82215317D01*
X118053772Y-82228946D01*
X118047583Y-82242031D01*
X118040142Y-82254447D01*
X118031519Y-82266073D01*
X118021798Y-82276798D01*
X118011073Y-82286519D01*
X117999447Y-82295142D01*
X117987031Y-82302583D01*
X117973946Y-82308772D01*
X117960317Y-82313649D01*
X117946276Y-82317166D01*
X117931958Y-82319290D01*
X117917500Y-82320000D01*
X117622500Y-82320000D01*
X117608042Y-82319290D01*
X117593724Y-82317166D01*
X117579683Y-82313649D01*
X117566054Y-82308772D01*
X117552969Y-82302583D01*
X117540553Y-82295142D01*
X117528927Y-82286519D01*
X117518202Y-82276798D01*
X117508481Y-82266073D01*
X117499858Y-82254447D01*
X117492417Y-82242031D01*
X117486228Y-82228946D01*
X117481351Y-82215317D01*
X117477834Y-82201276D01*
X117475710Y-82186958D01*
X117475000Y-82172500D01*
X117475000Y-81827500D01*
X117475710Y-81813042D01*
X117477834Y-81798724D01*
X117481351Y-81784683D01*
X117486228Y-81771054D01*
X117492417Y-81757969D01*
X117499858Y-81745553D01*
X117508481Y-81733927D01*
X117518202Y-81723202D01*
X117528927Y-81713481D01*
X117540553Y-81704858D01*
X117552969Y-81697417D01*
X117566054Y-81691228D01*
X117579683Y-81686351D01*
X117593724Y-81682834D01*
X117608042Y-81680710D01*
X117622500Y-81680000D01*
X117917500Y-81680000D01*
X117931958Y-81680710D01*
X117931958Y-81680710D01*
G37*
D12*
X117770000Y-82000000D03*
D11*
G36*
X116961958Y-81680710D02*
X116976276Y-81682834D01*
X116990317Y-81686351D01*
X117003946Y-81691228D01*
X117017031Y-81697417D01*
X117029447Y-81704858D01*
X117041073Y-81713481D01*
X117051798Y-81723202D01*
X117061519Y-81733927D01*
X117070142Y-81745553D01*
X117077583Y-81757969D01*
X117083772Y-81771054D01*
X117088649Y-81784683D01*
X117092166Y-81798724D01*
X117094290Y-81813042D01*
X117095000Y-81827500D01*
X117095000Y-82172500D01*
X117094290Y-82186958D01*
X117092166Y-82201276D01*
X117088649Y-82215317D01*
X117083772Y-82228946D01*
X117077583Y-82242031D01*
X117070142Y-82254447D01*
X117061519Y-82266073D01*
X117051798Y-82276798D01*
X117041073Y-82286519D01*
X117029447Y-82295142D01*
X117017031Y-82302583D01*
X117003946Y-82308772D01*
X116990317Y-82313649D01*
X116976276Y-82317166D01*
X116961958Y-82319290D01*
X116947500Y-82320000D01*
X116652500Y-82320000D01*
X116638042Y-82319290D01*
X116623724Y-82317166D01*
X116609683Y-82313649D01*
X116596054Y-82308772D01*
X116582969Y-82302583D01*
X116570553Y-82295142D01*
X116558927Y-82286519D01*
X116548202Y-82276798D01*
X116538481Y-82266073D01*
X116529858Y-82254447D01*
X116522417Y-82242031D01*
X116516228Y-82228946D01*
X116511351Y-82215317D01*
X116507834Y-82201276D01*
X116505710Y-82186958D01*
X116505000Y-82172500D01*
X116505000Y-81827500D01*
X116505710Y-81813042D01*
X116507834Y-81798724D01*
X116511351Y-81784683D01*
X116516228Y-81771054D01*
X116522417Y-81757969D01*
X116529858Y-81745553D01*
X116538481Y-81733927D01*
X116548202Y-81723202D01*
X116558927Y-81713481D01*
X116570553Y-81704858D01*
X116582969Y-81697417D01*
X116596054Y-81691228D01*
X116609683Y-81686351D01*
X116623724Y-81682834D01*
X116638042Y-81680710D01*
X116652500Y-81680000D01*
X116947500Y-81680000D01*
X116961958Y-81680710D01*
X116961958Y-81680710D01*
G37*
D12*
X116800000Y-82000000D03*
G04 #@! TD*
D11*
G04 #@! TO.C,C10*
G36*
X117077691Y-111026053D02*
X117098926Y-111029203D01*
X117119750Y-111034419D01*
X117139962Y-111041651D01*
X117159368Y-111050830D01*
X117177781Y-111061866D01*
X117195024Y-111074654D01*
X117210930Y-111089070D01*
X117225346Y-111104976D01*
X117238134Y-111122219D01*
X117249170Y-111140632D01*
X117258349Y-111160038D01*
X117265581Y-111180250D01*
X117270797Y-111201074D01*
X117273947Y-111222309D01*
X117275000Y-111243750D01*
X117275000Y-111756250D01*
X117273947Y-111777691D01*
X117270797Y-111798926D01*
X117265581Y-111819750D01*
X117258349Y-111839962D01*
X117249170Y-111859368D01*
X117238134Y-111877781D01*
X117225346Y-111895024D01*
X117210930Y-111910930D01*
X117195024Y-111925346D01*
X117177781Y-111938134D01*
X117159368Y-111949170D01*
X117139962Y-111958349D01*
X117119750Y-111965581D01*
X117098926Y-111970797D01*
X117077691Y-111973947D01*
X117056250Y-111975000D01*
X116618750Y-111975000D01*
X116597309Y-111973947D01*
X116576074Y-111970797D01*
X116555250Y-111965581D01*
X116535038Y-111958349D01*
X116515632Y-111949170D01*
X116497219Y-111938134D01*
X116479976Y-111925346D01*
X116464070Y-111910930D01*
X116449654Y-111895024D01*
X116436866Y-111877781D01*
X116425830Y-111859368D01*
X116416651Y-111839962D01*
X116409419Y-111819750D01*
X116404203Y-111798926D01*
X116401053Y-111777691D01*
X116400000Y-111756250D01*
X116400000Y-111243750D01*
X116401053Y-111222309D01*
X116404203Y-111201074D01*
X116409419Y-111180250D01*
X116416651Y-111160038D01*
X116425830Y-111140632D01*
X116436866Y-111122219D01*
X116449654Y-111104976D01*
X116464070Y-111089070D01*
X116479976Y-111074654D01*
X116497219Y-111061866D01*
X116515632Y-111050830D01*
X116535038Y-111041651D01*
X116555250Y-111034419D01*
X116576074Y-111029203D01*
X116597309Y-111026053D01*
X116618750Y-111025000D01*
X117056250Y-111025000D01*
X117077691Y-111026053D01*
X117077691Y-111026053D01*
G37*
D15*
X116837500Y-111500000D03*
D11*
G36*
X115502691Y-111026053D02*
X115523926Y-111029203D01*
X115544750Y-111034419D01*
X115564962Y-111041651D01*
X115584368Y-111050830D01*
X115602781Y-111061866D01*
X115620024Y-111074654D01*
X115635930Y-111089070D01*
X115650346Y-111104976D01*
X115663134Y-111122219D01*
X115674170Y-111140632D01*
X115683349Y-111160038D01*
X115690581Y-111180250D01*
X115695797Y-111201074D01*
X115698947Y-111222309D01*
X115700000Y-111243750D01*
X115700000Y-111756250D01*
X115698947Y-111777691D01*
X115695797Y-111798926D01*
X115690581Y-111819750D01*
X115683349Y-111839962D01*
X115674170Y-111859368D01*
X115663134Y-111877781D01*
X115650346Y-111895024D01*
X115635930Y-111910930D01*
X115620024Y-111925346D01*
X115602781Y-111938134D01*
X115584368Y-111949170D01*
X115564962Y-111958349D01*
X115544750Y-111965581D01*
X115523926Y-111970797D01*
X115502691Y-111973947D01*
X115481250Y-111975000D01*
X115043750Y-111975000D01*
X115022309Y-111973947D01*
X115001074Y-111970797D01*
X114980250Y-111965581D01*
X114960038Y-111958349D01*
X114940632Y-111949170D01*
X114922219Y-111938134D01*
X114904976Y-111925346D01*
X114889070Y-111910930D01*
X114874654Y-111895024D01*
X114861866Y-111877781D01*
X114850830Y-111859368D01*
X114841651Y-111839962D01*
X114834419Y-111819750D01*
X114829203Y-111798926D01*
X114826053Y-111777691D01*
X114825000Y-111756250D01*
X114825000Y-111243750D01*
X114826053Y-111222309D01*
X114829203Y-111201074D01*
X114834419Y-111180250D01*
X114841651Y-111160038D01*
X114850830Y-111140632D01*
X114861866Y-111122219D01*
X114874654Y-111104976D01*
X114889070Y-111089070D01*
X114904976Y-111074654D01*
X114922219Y-111061866D01*
X114940632Y-111050830D01*
X114960038Y-111041651D01*
X114980250Y-111034419D01*
X115001074Y-111029203D01*
X115022309Y-111026053D01*
X115043750Y-111025000D01*
X115481250Y-111025000D01*
X115502691Y-111026053D01*
X115502691Y-111026053D01*
G37*
D15*
X115262500Y-111500000D03*
G04 #@! TD*
D11*
G04 #@! TO.C,C80*
G36*
X117961958Y-89680710D02*
X117976276Y-89682834D01*
X117990317Y-89686351D01*
X118003946Y-89691228D01*
X118017031Y-89697417D01*
X118029447Y-89704858D01*
X118041073Y-89713481D01*
X118051798Y-89723202D01*
X118061519Y-89733927D01*
X118070142Y-89745553D01*
X118077583Y-89757969D01*
X118083772Y-89771054D01*
X118088649Y-89784683D01*
X118092166Y-89798724D01*
X118094290Y-89813042D01*
X118095000Y-89827500D01*
X118095000Y-90172500D01*
X118094290Y-90186958D01*
X118092166Y-90201276D01*
X118088649Y-90215317D01*
X118083772Y-90228946D01*
X118077583Y-90242031D01*
X118070142Y-90254447D01*
X118061519Y-90266073D01*
X118051798Y-90276798D01*
X118041073Y-90286519D01*
X118029447Y-90295142D01*
X118017031Y-90302583D01*
X118003946Y-90308772D01*
X117990317Y-90313649D01*
X117976276Y-90317166D01*
X117961958Y-90319290D01*
X117947500Y-90320000D01*
X117652500Y-90320000D01*
X117638042Y-90319290D01*
X117623724Y-90317166D01*
X117609683Y-90313649D01*
X117596054Y-90308772D01*
X117582969Y-90302583D01*
X117570553Y-90295142D01*
X117558927Y-90286519D01*
X117548202Y-90276798D01*
X117538481Y-90266073D01*
X117529858Y-90254447D01*
X117522417Y-90242031D01*
X117516228Y-90228946D01*
X117511351Y-90215317D01*
X117507834Y-90201276D01*
X117505710Y-90186958D01*
X117505000Y-90172500D01*
X117505000Y-89827500D01*
X117505710Y-89813042D01*
X117507834Y-89798724D01*
X117511351Y-89784683D01*
X117516228Y-89771054D01*
X117522417Y-89757969D01*
X117529858Y-89745553D01*
X117538481Y-89733927D01*
X117548202Y-89723202D01*
X117558927Y-89713481D01*
X117570553Y-89704858D01*
X117582969Y-89697417D01*
X117596054Y-89691228D01*
X117609683Y-89686351D01*
X117623724Y-89682834D01*
X117638042Y-89680710D01*
X117652500Y-89680000D01*
X117947500Y-89680000D01*
X117961958Y-89680710D01*
X117961958Y-89680710D01*
G37*
D12*
X117800000Y-90000000D03*
D11*
G36*
X116991958Y-89680710D02*
X117006276Y-89682834D01*
X117020317Y-89686351D01*
X117033946Y-89691228D01*
X117047031Y-89697417D01*
X117059447Y-89704858D01*
X117071073Y-89713481D01*
X117081798Y-89723202D01*
X117091519Y-89733927D01*
X117100142Y-89745553D01*
X117107583Y-89757969D01*
X117113772Y-89771054D01*
X117118649Y-89784683D01*
X117122166Y-89798724D01*
X117124290Y-89813042D01*
X117125000Y-89827500D01*
X117125000Y-90172500D01*
X117124290Y-90186958D01*
X117122166Y-90201276D01*
X117118649Y-90215317D01*
X117113772Y-90228946D01*
X117107583Y-90242031D01*
X117100142Y-90254447D01*
X117091519Y-90266073D01*
X117081798Y-90276798D01*
X117071073Y-90286519D01*
X117059447Y-90295142D01*
X117047031Y-90302583D01*
X117033946Y-90308772D01*
X117020317Y-90313649D01*
X117006276Y-90317166D01*
X116991958Y-90319290D01*
X116977500Y-90320000D01*
X116682500Y-90320000D01*
X116668042Y-90319290D01*
X116653724Y-90317166D01*
X116639683Y-90313649D01*
X116626054Y-90308772D01*
X116612969Y-90302583D01*
X116600553Y-90295142D01*
X116588927Y-90286519D01*
X116578202Y-90276798D01*
X116568481Y-90266073D01*
X116559858Y-90254447D01*
X116552417Y-90242031D01*
X116546228Y-90228946D01*
X116541351Y-90215317D01*
X116537834Y-90201276D01*
X116535710Y-90186958D01*
X116535000Y-90172500D01*
X116535000Y-89827500D01*
X116535710Y-89813042D01*
X116537834Y-89798724D01*
X116541351Y-89784683D01*
X116546228Y-89771054D01*
X116552417Y-89757969D01*
X116559858Y-89745553D01*
X116568481Y-89733927D01*
X116578202Y-89723202D01*
X116588927Y-89713481D01*
X116600553Y-89704858D01*
X116612969Y-89697417D01*
X116626054Y-89691228D01*
X116639683Y-89686351D01*
X116653724Y-89682834D01*
X116668042Y-89680710D01*
X116682500Y-89680000D01*
X116977500Y-89680000D01*
X116991958Y-89680710D01*
X116991958Y-89680710D01*
G37*
D12*
X116830000Y-90000000D03*
G04 #@! TD*
D11*
G04 #@! TO.C,C90*
G36*
X116961958Y-97680710D02*
X116976276Y-97682834D01*
X116990317Y-97686351D01*
X117003946Y-97691228D01*
X117017031Y-97697417D01*
X117029447Y-97704858D01*
X117041073Y-97713481D01*
X117051798Y-97723202D01*
X117061519Y-97733927D01*
X117070142Y-97745553D01*
X117077583Y-97757969D01*
X117083772Y-97771054D01*
X117088649Y-97784683D01*
X117092166Y-97798724D01*
X117094290Y-97813042D01*
X117095000Y-97827500D01*
X117095000Y-98172500D01*
X117094290Y-98186958D01*
X117092166Y-98201276D01*
X117088649Y-98215317D01*
X117083772Y-98228946D01*
X117077583Y-98242031D01*
X117070142Y-98254447D01*
X117061519Y-98266073D01*
X117051798Y-98276798D01*
X117041073Y-98286519D01*
X117029447Y-98295142D01*
X117017031Y-98302583D01*
X117003946Y-98308772D01*
X116990317Y-98313649D01*
X116976276Y-98317166D01*
X116961958Y-98319290D01*
X116947500Y-98320000D01*
X116652500Y-98320000D01*
X116638042Y-98319290D01*
X116623724Y-98317166D01*
X116609683Y-98313649D01*
X116596054Y-98308772D01*
X116582969Y-98302583D01*
X116570553Y-98295142D01*
X116558927Y-98286519D01*
X116548202Y-98276798D01*
X116538481Y-98266073D01*
X116529858Y-98254447D01*
X116522417Y-98242031D01*
X116516228Y-98228946D01*
X116511351Y-98215317D01*
X116507834Y-98201276D01*
X116505710Y-98186958D01*
X116505000Y-98172500D01*
X116505000Y-97827500D01*
X116505710Y-97813042D01*
X116507834Y-97798724D01*
X116511351Y-97784683D01*
X116516228Y-97771054D01*
X116522417Y-97757969D01*
X116529858Y-97745553D01*
X116538481Y-97733927D01*
X116548202Y-97723202D01*
X116558927Y-97713481D01*
X116570553Y-97704858D01*
X116582969Y-97697417D01*
X116596054Y-97691228D01*
X116609683Y-97686351D01*
X116623724Y-97682834D01*
X116638042Y-97680710D01*
X116652500Y-97680000D01*
X116947500Y-97680000D01*
X116961958Y-97680710D01*
X116961958Y-97680710D01*
G37*
D12*
X116800000Y-98000000D03*
D11*
G36*
X117931958Y-97680710D02*
X117946276Y-97682834D01*
X117960317Y-97686351D01*
X117973946Y-97691228D01*
X117987031Y-97697417D01*
X117999447Y-97704858D01*
X118011073Y-97713481D01*
X118021798Y-97723202D01*
X118031519Y-97733927D01*
X118040142Y-97745553D01*
X118047583Y-97757969D01*
X118053772Y-97771054D01*
X118058649Y-97784683D01*
X118062166Y-97798724D01*
X118064290Y-97813042D01*
X118065000Y-97827500D01*
X118065000Y-98172500D01*
X118064290Y-98186958D01*
X118062166Y-98201276D01*
X118058649Y-98215317D01*
X118053772Y-98228946D01*
X118047583Y-98242031D01*
X118040142Y-98254447D01*
X118031519Y-98266073D01*
X118021798Y-98276798D01*
X118011073Y-98286519D01*
X117999447Y-98295142D01*
X117987031Y-98302583D01*
X117973946Y-98308772D01*
X117960317Y-98313649D01*
X117946276Y-98317166D01*
X117931958Y-98319290D01*
X117917500Y-98320000D01*
X117622500Y-98320000D01*
X117608042Y-98319290D01*
X117593724Y-98317166D01*
X117579683Y-98313649D01*
X117566054Y-98308772D01*
X117552969Y-98302583D01*
X117540553Y-98295142D01*
X117528927Y-98286519D01*
X117518202Y-98276798D01*
X117508481Y-98266073D01*
X117499858Y-98254447D01*
X117492417Y-98242031D01*
X117486228Y-98228946D01*
X117481351Y-98215317D01*
X117477834Y-98201276D01*
X117475710Y-98186958D01*
X117475000Y-98172500D01*
X117475000Y-97827500D01*
X117475710Y-97813042D01*
X117477834Y-97798724D01*
X117481351Y-97784683D01*
X117486228Y-97771054D01*
X117492417Y-97757969D01*
X117499858Y-97745553D01*
X117508481Y-97733927D01*
X117518202Y-97723202D01*
X117528927Y-97713481D01*
X117540553Y-97704858D01*
X117552969Y-97697417D01*
X117566054Y-97691228D01*
X117579683Y-97686351D01*
X117593724Y-97682834D01*
X117608042Y-97680710D01*
X117622500Y-97680000D01*
X117917500Y-97680000D01*
X117931958Y-97680710D01*
X117931958Y-97680710D01*
G37*
D12*
X117770000Y-98000000D03*
G04 #@! TD*
D11*
G04 #@! TO.C,C100*
G36*
X117931958Y-105680710D02*
X117946276Y-105682834D01*
X117960317Y-105686351D01*
X117973946Y-105691228D01*
X117987031Y-105697417D01*
X117999447Y-105704858D01*
X118011073Y-105713481D01*
X118021798Y-105723202D01*
X118031519Y-105733927D01*
X118040142Y-105745553D01*
X118047583Y-105757969D01*
X118053772Y-105771054D01*
X118058649Y-105784683D01*
X118062166Y-105798724D01*
X118064290Y-105813042D01*
X118065000Y-105827500D01*
X118065000Y-106172500D01*
X118064290Y-106186958D01*
X118062166Y-106201276D01*
X118058649Y-106215317D01*
X118053772Y-106228946D01*
X118047583Y-106242031D01*
X118040142Y-106254447D01*
X118031519Y-106266073D01*
X118021798Y-106276798D01*
X118011073Y-106286519D01*
X117999447Y-106295142D01*
X117987031Y-106302583D01*
X117973946Y-106308772D01*
X117960317Y-106313649D01*
X117946276Y-106317166D01*
X117931958Y-106319290D01*
X117917500Y-106320000D01*
X117622500Y-106320000D01*
X117608042Y-106319290D01*
X117593724Y-106317166D01*
X117579683Y-106313649D01*
X117566054Y-106308772D01*
X117552969Y-106302583D01*
X117540553Y-106295142D01*
X117528927Y-106286519D01*
X117518202Y-106276798D01*
X117508481Y-106266073D01*
X117499858Y-106254447D01*
X117492417Y-106242031D01*
X117486228Y-106228946D01*
X117481351Y-106215317D01*
X117477834Y-106201276D01*
X117475710Y-106186958D01*
X117475000Y-106172500D01*
X117475000Y-105827500D01*
X117475710Y-105813042D01*
X117477834Y-105798724D01*
X117481351Y-105784683D01*
X117486228Y-105771054D01*
X117492417Y-105757969D01*
X117499858Y-105745553D01*
X117508481Y-105733927D01*
X117518202Y-105723202D01*
X117528927Y-105713481D01*
X117540553Y-105704858D01*
X117552969Y-105697417D01*
X117566054Y-105691228D01*
X117579683Y-105686351D01*
X117593724Y-105682834D01*
X117608042Y-105680710D01*
X117622500Y-105680000D01*
X117917500Y-105680000D01*
X117931958Y-105680710D01*
X117931958Y-105680710D01*
G37*
D12*
X117770000Y-106000000D03*
D11*
G36*
X116961958Y-105680710D02*
X116976276Y-105682834D01*
X116990317Y-105686351D01*
X117003946Y-105691228D01*
X117017031Y-105697417D01*
X117029447Y-105704858D01*
X117041073Y-105713481D01*
X117051798Y-105723202D01*
X117061519Y-105733927D01*
X117070142Y-105745553D01*
X117077583Y-105757969D01*
X117083772Y-105771054D01*
X117088649Y-105784683D01*
X117092166Y-105798724D01*
X117094290Y-105813042D01*
X117095000Y-105827500D01*
X117095000Y-106172500D01*
X117094290Y-106186958D01*
X117092166Y-106201276D01*
X117088649Y-106215317D01*
X117083772Y-106228946D01*
X117077583Y-106242031D01*
X117070142Y-106254447D01*
X117061519Y-106266073D01*
X117051798Y-106276798D01*
X117041073Y-106286519D01*
X117029447Y-106295142D01*
X117017031Y-106302583D01*
X117003946Y-106308772D01*
X116990317Y-106313649D01*
X116976276Y-106317166D01*
X116961958Y-106319290D01*
X116947500Y-106320000D01*
X116652500Y-106320000D01*
X116638042Y-106319290D01*
X116623724Y-106317166D01*
X116609683Y-106313649D01*
X116596054Y-106308772D01*
X116582969Y-106302583D01*
X116570553Y-106295142D01*
X116558927Y-106286519D01*
X116548202Y-106276798D01*
X116538481Y-106266073D01*
X116529858Y-106254447D01*
X116522417Y-106242031D01*
X116516228Y-106228946D01*
X116511351Y-106215317D01*
X116507834Y-106201276D01*
X116505710Y-106186958D01*
X116505000Y-106172500D01*
X116505000Y-105827500D01*
X116505710Y-105813042D01*
X116507834Y-105798724D01*
X116511351Y-105784683D01*
X116516228Y-105771054D01*
X116522417Y-105757969D01*
X116529858Y-105745553D01*
X116538481Y-105733927D01*
X116548202Y-105723202D01*
X116558927Y-105713481D01*
X116570553Y-105704858D01*
X116582969Y-105697417D01*
X116596054Y-105691228D01*
X116609683Y-105686351D01*
X116623724Y-105682834D01*
X116638042Y-105680710D01*
X116652500Y-105680000D01*
X116947500Y-105680000D01*
X116961958Y-105680710D01*
X116961958Y-105680710D01*
G37*
D12*
X116800000Y-106000000D03*
G04 #@! TD*
D11*
G04 #@! TO.C,C110*
G36*
X97136958Y-80105710D02*
X97151276Y-80107834D01*
X97165317Y-80111351D01*
X97178946Y-80116228D01*
X97192031Y-80122417D01*
X97204447Y-80129858D01*
X97216073Y-80138481D01*
X97226798Y-80148202D01*
X97236519Y-80158927D01*
X97245142Y-80170553D01*
X97252583Y-80182969D01*
X97258772Y-80196054D01*
X97263649Y-80209683D01*
X97267166Y-80223724D01*
X97269290Y-80238042D01*
X97270000Y-80252500D01*
X97270000Y-80547500D01*
X97269290Y-80561958D01*
X97267166Y-80576276D01*
X97263649Y-80590317D01*
X97258772Y-80603946D01*
X97252583Y-80617031D01*
X97245142Y-80629447D01*
X97236519Y-80641073D01*
X97226798Y-80651798D01*
X97216073Y-80661519D01*
X97204447Y-80670142D01*
X97192031Y-80677583D01*
X97178946Y-80683772D01*
X97165317Y-80688649D01*
X97151276Y-80692166D01*
X97136958Y-80694290D01*
X97122500Y-80695000D01*
X96777500Y-80695000D01*
X96763042Y-80694290D01*
X96748724Y-80692166D01*
X96734683Y-80688649D01*
X96721054Y-80683772D01*
X96707969Y-80677583D01*
X96695553Y-80670142D01*
X96683927Y-80661519D01*
X96673202Y-80651798D01*
X96663481Y-80641073D01*
X96654858Y-80629447D01*
X96647417Y-80617031D01*
X96641228Y-80603946D01*
X96636351Y-80590317D01*
X96632834Y-80576276D01*
X96630710Y-80561958D01*
X96630000Y-80547500D01*
X96630000Y-80252500D01*
X96630710Y-80238042D01*
X96632834Y-80223724D01*
X96636351Y-80209683D01*
X96641228Y-80196054D01*
X96647417Y-80182969D01*
X96654858Y-80170553D01*
X96663481Y-80158927D01*
X96673202Y-80148202D01*
X96683927Y-80138481D01*
X96695553Y-80129858D01*
X96707969Y-80122417D01*
X96721054Y-80116228D01*
X96734683Y-80111351D01*
X96748724Y-80107834D01*
X96763042Y-80105710D01*
X96777500Y-80105000D01*
X97122500Y-80105000D01*
X97136958Y-80105710D01*
X97136958Y-80105710D01*
G37*
D12*
X96950000Y-80400000D03*
D11*
G36*
X97136958Y-81075710D02*
X97151276Y-81077834D01*
X97165317Y-81081351D01*
X97178946Y-81086228D01*
X97192031Y-81092417D01*
X97204447Y-81099858D01*
X97216073Y-81108481D01*
X97226798Y-81118202D01*
X97236519Y-81128927D01*
X97245142Y-81140553D01*
X97252583Y-81152969D01*
X97258772Y-81166054D01*
X97263649Y-81179683D01*
X97267166Y-81193724D01*
X97269290Y-81208042D01*
X97270000Y-81222500D01*
X97270000Y-81517500D01*
X97269290Y-81531958D01*
X97267166Y-81546276D01*
X97263649Y-81560317D01*
X97258772Y-81573946D01*
X97252583Y-81587031D01*
X97245142Y-81599447D01*
X97236519Y-81611073D01*
X97226798Y-81621798D01*
X97216073Y-81631519D01*
X97204447Y-81640142D01*
X97192031Y-81647583D01*
X97178946Y-81653772D01*
X97165317Y-81658649D01*
X97151276Y-81662166D01*
X97136958Y-81664290D01*
X97122500Y-81665000D01*
X96777500Y-81665000D01*
X96763042Y-81664290D01*
X96748724Y-81662166D01*
X96734683Y-81658649D01*
X96721054Y-81653772D01*
X96707969Y-81647583D01*
X96695553Y-81640142D01*
X96683927Y-81631519D01*
X96673202Y-81621798D01*
X96663481Y-81611073D01*
X96654858Y-81599447D01*
X96647417Y-81587031D01*
X96641228Y-81573946D01*
X96636351Y-81560317D01*
X96632834Y-81546276D01*
X96630710Y-81531958D01*
X96630000Y-81517500D01*
X96630000Y-81222500D01*
X96630710Y-81208042D01*
X96632834Y-81193724D01*
X96636351Y-81179683D01*
X96641228Y-81166054D01*
X96647417Y-81152969D01*
X96654858Y-81140553D01*
X96663481Y-81128927D01*
X96673202Y-81118202D01*
X96683927Y-81108481D01*
X96695553Y-81099858D01*
X96707969Y-81092417D01*
X96721054Y-81086228D01*
X96734683Y-81081351D01*
X96748724Y-81077834D01*
X96763042Y-81075710D01*
X96777500Y-81075000D01*
X97122500Y-81075000D01*
X97136958Y-81075710D01*
X97136958Y-81075710D01*
G37*
D12*
X96950000Y-81370000D03*
G04 #@! TD*
D16*
G04 #@! TO.C,D70*
X124150000Y-80000000D03*
X120850000Y-80000000D03*
G04 #@! TD*
G04 #@! TO.C,D71*
X118750000Y-80000000D03*
X115450000Y-80000000D03*
G04 #@! TD*
G04 #@! TO.C,D80*
X124150000Y-88000000D03*
X120850000Y-88000000D03*
G04 #@! TD*
G04 #@! TO.C,D81*
X118750000Y-88000000D03*
X115450000Y-88000000D03*
G04 #@! TD*
G04 #@! TO.C,D90*
X124150000Y-96000000D03*
X120850000Y-96000000D03*
G04 #@! TD*
G04 #@! TO.C,D91*
X118750000Y-96000000D03*
X115450000Y-96000000D03*
G04 #@! TD*
G04 #@! TO.C,D100*
X124150000Y-104000000D03*
X120850000Y-104000000D03*
G04 #@! TD*
G04 #@! TO.C,D101*
X118750000Y-104000000D03*
X115450000Y-104000000D03*
G04 #@! TD*
D11*
G04 #@! TO.C,R10*
G36*
X115726958Y-112930710D02*
X115741276Y-112932834D01*
X115755317Y-112936351D01*
X115768946Y-112941228D01*
X115782031Y-112947417D01*
X115794447Y-112954858D01*
X115806073Y-112963481D01*
X115816798Y-112973202D01*
X115826519Y-112983927D01*
X115835142Y-112995553D01*
X115842583Y-113007969D01*
X115848772Y-113021054D01*
X115853649Y-113034683D01*
X115857166Y-113048724D01*
X115859290Y-113063042D01*
X115860000Y-113077500D01*
X115860000Y-113422500D01*
X115859290Y-113436958D01*
X115857166Y-113451276D01*
X115853649Y-113465317D01*
X115848772Y-113478946D01*
X115842583Y-113492031D01*
X115835142Y-113504447D01*
X115826519Y-113516073D01*
X115816798Y-113526798D01*
X115806073Y-113536519D01*
X115794447Y-113545142D01*
X115782031Y-113552583D01*
X115768946Y-113558772D01*
X115755317Y-113563649D01*
X115741276Y-113567166D01*
X115726958Y-113569290D01*
X115712500Y-113570000D01*
X115417500Y-113570000D01*
X115403042Y-113569290D01*
X115388724Y-113567166D01*
X115374683Y-113563649D01*
X115361054Y-113558772D01*
X115347969Y-113552583D01*
X115335553Y-113545142D01*
X115323927Y-113536519D01*
X115313202Y-113526798D01*
X115303481Y-113516073D01*
X115294858Y-113504447D01*
X115287417Y-113492031D01*
X115281228Y-113478946D01*
X115276351Y-113465317D01*
X115272834Y-113451276D01*
X115270710Y-113436958D01*
X115270000Y-113422500D01*
X115270000Y-113077500D01*
X115270710Y-113063042D01*
X115272834Y-113048724D01*
X115276351Y-113034683D01*
X115281228Y-113021054D01*
X115287417Y-113007969D01*
X115294858Y-112995553D01*
X115303481Y-112983927D01*
X115313202Y-112973202D01*
X115323927Y-112963481D01*
X115335553Y-112954858D01*
X115347969Y-112947417D01*
X115361054Y-112941228D01*
X115374683Y-112936351D01*
X115388724Y-112932834D01*
X115403042Y-112930710D01*
X115417500Y-112930000D01*
X115712500Y-112930000D01*
X115726958Y-112930710D01*
X115726958Y-112930710D01*
G37*
D12*
X115565000Y-113250000D03*
D11*
G36*
X116696958Y-112930710D02*
X116711276Y-112932834D01*
X116725317Y-112936351D01*
X116738946Y-112941228D01*
X116752031Y-112947417D01*
X116764447Y-112954858D01*
X116776073Y-112963481D01*
X116786798Y-112973202D01*
X116796519Y-112983927D01*
X116805142Y-112995553D01*
X116812583Y-113007969D01*
X116818772Y-113021054D01*
X116823649Y-113034683D01*
X116827166Y-113048724D01*
X116829290Y-113063042D01*
X116830000Y-113077500D01*
X116830000Y-113422500D01*
X116829290Y-113436958D01*
X116827166Y-113451276D01*
X116823649Y-113465317D01*
X116818772Y-113478946D01*
X116812583Y-113492031D01*
X116805142Y-113504447D01*
X116796519Y-113516073D01*
X116786798Y-113526798D01*
X116776073Y-113536519D01*
X116764447Y-113545142D01*
X116752031Y-113552583D01*
X116738946Y-113558772D01*
X116725317Y-113563649D01*
X116711276Y-113567166D01*
X116696958Y-113569290D01*
X116682500Y-113570000D01*
X116387500Y-113570000D01*
X116373042Y-113569290D01*
X116358724Y-113567166D01*
X116344683Y-113563649D01*
X116331054Y-113558772D01*
X116317969Y-113552583D01*
X116305553Y-113545142D01*
X116293927Y-113536519D01*
X116283202Y-113526798D01*
X116273481Y-113516073D01*
X116264858Y-113504447D01*
X116257417Y-113492031D01*
X116251228Y-113478946D01*
X116246351Y-113465317D01*
X116242834Y-113451276D01*
X116240710Y-113436958D01*
X116240000Y-113422500D01*
X116240000Y-113077500D01*
X116240710Y-113063042D01*
X116242834Y-113048724D01*
X116246351Y-113034683D01*
X116251228Y-113021054D01*
X116257417Y-113007969D01*
X116264858Y-112995553D01*
X116273481Y-112983927D01*
X116283202Y-112973202D01*
X116293927Y-112963481D01*
X116305553Y-112954858D01*
X116317969Y-112947417D01*
X116331054Y-112941228D01*
X116344683Y-112936351D01*
X116358724Y-112932834D01*
X116373042Y-112930710D01*
X116387500Y-112930000D01*
X116682500Y-112930000D01*
X116696958Y-112930710D01*
X116696958Y-112930710D01*
G37*
D12*
X116535000Y-113250000D03*
G04 #@! TD*
D11*
G04 #@! TO.C,R11*
G36*
X123192642Y-112051174D02*
X123216303Y-112054684D01*
X123239507Y-112060496D01*
X123262029Y-112068554D01*
X123283653Y-112078782D01*
X123304170Y-112091079D01*
X123323383Y-112105329D01*
X123341107Y-112121393D01*
X123357171Y-112139117D01*
X123371421Y-112158330D01*
X123383718Y-112178847D01*
X123393946Y-112200471D01*
X123402004Y-112222993D01*
X123407816Y-112246197D01*
X123411326Y-112269858D01*
X123412500Y-112293750D01*
X123412500Y-113206250D01*
X123411326Y-113230142D01*
X123407816Y-113253803D01*
X123402004Y-113277007D01*
X123393946Y-113299529D01*
X123383718Y-113321153D01*
X123371421Y-113341670D01*
X123357171Y-113360883D01*
X123341107Y-113378607D01*
X123323383Y-113394671D01*
X123304170Y-113408921D01*
X123283653Y-113421218D01*
X123262029Y-113431446D01*
X123239507Y-113439504D01*
X123216303Y-113445316D01*
X123192642Y-113448826D01*
X123168750Y-113450000D01*
X122681250Y-113450000D01*
X122657358Y-113448826D01*
X122633697Y-113445316D01*
X122610493Y-113439504D01*
X122587971Y-113431446D01*
X122566347Y-113421218D01*
X122545830Y-113408921D01*
X122526617Y-113394671D01*
X122508893Y-113378607D01*
X122492829Y-113360883D01*
X122478579Y-113341670D01*
X122466282Y-113321153D01*
X122456054Y-113299529D01*
X122447996Y-113277007D01*
X122442184Y-113253803D01*
X122438674Y-113230142D01*
X122437500Y-113206250D01*
X122437500Y-112293750D01*
X122438674Y-112269858D01*
X122442184Y-112246197D01*
X122447996Y-112222993D01*
X122456054Y-112200471D01*
X122466282Y-112178847D01*
X122478579Y-112158330D01*
X122492829Y-112139117D01*
X122508893Y-112121393D01*
X122526617Y-112105329D01*
X122545830Y-112091079D01*
X122566347Y-112078782D01*
X122587971Y-112068554D01*
X122610493Y-112060496D01*
X122633697Y-112054684D01*
X122657358Y-112051174D01*
X122681250Y-112050000D01*
X123168750Y-112050000D01*
X123192642Y-112051174D01*
X123192642Y-112051174D01*
G37*
D17*
X122925000Y-112750000D03*
D11*
G36*
X125067642Y-112051174D02*
X125091303Y-112054684D01*
X125114507Y-112060496D01*
X125137029Y-112068554D01*
X125158653Y-112078782D01*
X125179170Y-112091079D01*
X125198383Y-112105329D01*
X125216107Y-112121393D01*
X125232171Y-112139117D01*
X125246421Y-112158330D01*
X125258718Y-112178847D01*
X125268946Y-112200471D01*
X125277004Y-112222993D01*
X125282816Y-112246197D01*
X125286326Y-112269858D01*
X125287500Y-112293750D01*
X125287500Y-113206250D01*
X125286326Y-113230142D01*
X125282816Y-113253803D01*
X125277004Y-113277007D01*
X125268946Y-113299529D01*
X125258718Y-113321153D01*
X125246421Y-113341670D01*
X125232171Y-113360883D01*
X125216107Y-113378607D01*
X125198383Y-113394671D01*
X125179170Y-113408921D01*
X125158653Y-113421218D01*
X125137029Y-113431446D01*
X125114507Y-113439504D01*
X125091303Y-113445316D01*
X125067642Y-113448826D01*
X125043750Y-113450000D01*
X124556250Y-113450000D01*
X124532358Y-113448826D01*
X124508697Y-113445316D01*
X124485493Y-113439504D01*
X124462971Y-113431446D01*
X124441347Y-113421218D01*
X124420830Y-113408921D01*
X124401617Y-113394671D01*
X124383893Y-113378607D01*
X124367829Y-113360883D01*
X124353579Y-113341670D01*
X124341282Y-113321153D01*
X124331054Y-113299529D01*
X124322996Y-113277007D01*
X124317184Y-113253803D01*
X124313674Y-113230142D01*
X124312500Y-113206250D01*
X124312500Y-112293750D01*
X124313674Y-112269858D01*
X124317184Y-112246197D01*
X124322996Y-112222993D01*
X124331054Y-112200471D01*
X124341282Y-112178847D01*
X124353579Y-112158330D01*
X124367829Y-112139117D01*
X124383893Y-112121393D01*
X124401617Y-112105329D01*
X124420830Y-112091079D01*
X124441347Y-112078782D01*
X124462971Y-112068554D01*
X124485493Y-112060496D01*
X124508697Y-112054684D01*
X124532358Y-112051174D01*
X124556250Y-112050000D01*
X125043750Y-112050000D01*
X125067642Y-112051174D01*
X125067642Y-112051174D01*
G37*
D17*
X124800000Y-112750000D03*
G04 #@! TD*
D11*
G04 #@! TO.C,R12*
G36*
X123236958Y-109720710D02*
X123251276Y-109722834D01*
X123265317Y-109726351D01*
X123278946Y-109731228D01*
X123292031Y-109737417D01*
X123304447Y-109744858D01*
X123316073Y-109753481D01*
X123326798Y-109763202D01*
X123336519Y-109773927D01*
X123345142Y-109785553D01*
X123352583Y-109797969D01*
X123358772Y-109811054D01*
X123363649Y-109824683D01*
X123367166Y-109838724D01*
X123369290Y-109853042D01*
X123370000Y-109867500D01*
X123370000Y-110162500D01*
X123369290Y-110176958D01*
X123367166Y-110191276D01*
X123363649Y-110205317D01*
X123358772Y-110218946D01*
X123352583Y-110232031D01*
X123345142Y-110244447D01*
X123336519Y-110256073D01*
X123326798Y-110266798D01*
X123316073Y-110276519D01*
X123304447Y-110285142D01*
X123292031Y-110292583D01*
X123278946Y-110298772D01*
X123265317Y-110303649D01*
X123251276Y-110307166D01*
X123236958Y-110309290D01*
X123222500Y-110310000D01*
X122877500Y-110310000D01*
X122863042Y-110309290D01*
X122848724Y-110307166D01*
X122834683Y-110303649D01*
X122821054Y-110298772D01*
X122807969Y-110292583D01*
X122795553Y-110285142D01*
X122783927Y-110276519D01*
X122773202Y-110266798D01*
X122763481Y-110256073D01*
X122754858Y-110244447D01*
X122747417Y-110232031D01*
X122741228Y-110218946D01*
X122736351Y-110205317D01*
X122732834Y-110191276D01*
X122730710Y-110176958D01*
X122730000Y-110162500D01*
X122730000Y-109867500D01*
X122730710Y-109853042D01*
X122732834Y-109838724D01*
X122736351Y-109824683D01*
X122741228Y-109811054D01*
X122747417Y-109797969D01*
X122754858Y-109785553D01*
X122763481Y-109773927D01*
X122773202Y-109763202D01*
X122783927Y-109753481D01*
X122795553Y-109744858D01*
X122807969Y-109737417D01*
X122821054Y-109731228D01*
X122834683Y-109726351D01*
X122848724Y-109722834D01*
X122863042Y-109720710D01*
X122877500Y-109720000D01*
X123222500Y-109720000D01*
X123236958Y-109720710D01*
X123236958Y-109720710D01*
G37*
D12*
X123050000Y-110015000D03*
D11*
G36*
X123236958Y-110690710D02*
X123251276Y-110692834D01*
X123265317Y-110696351D01*
X123278946Y-110701228D01*
X123292031Y-110707417D01*
X123304447Y-110714858D01*
X123316073Y-110723481D01*
X123326798Y-110733202D01*
X123336519Y-110743927D01*
X123345142Y-110755553D01*
X123352583Y-110767969D01*
X123358772Y-110781054D01*
X123363649Y-110794683D01*
X123367166Y-110808724D01*
X123369290Y-110823042D01*
X123370000Y-110837500D01*
X123370000Y-111132500D01*
X123369290Y-111146958D01*
X123367166Y-111161276D01*
X123363649Y-111175317D01*
X123358772Y-111188946D01*
X123352583Y-111202031D01*
X123345142Y-111214447D01*
X123336519Y-111226073D01*
X123326798Y-111236798D01*
X123316073Y-111246519D01*
X123304447Y-111255142D01*
X123292031Y-111262583D01*
X123278946Y-111268772D01*
X123265317Y-111273649D01*
X123251276Y-111277166D01*
X123236958Y-111279290D01*
X123222500Y-111280000D01*
X122877500Y-111280000D01*
X122863042Y-111279290D01*
X122848724Y-111277166D01*
X122834683Y-111273649D01*
X122821054Y-111268772D01*
X122807969Y-111262583D01*
X122795553Y-111255142D01*
X122783927Y-111246519D01*
X122773202Y-111236798D01*
X122763481Y-111226073D01*
X122754858Y-111214447D01*
X122747417Y-111202031D01*
X122741228Y-111188946D01*
X122736351Y-111175317D01*
X122732834Y-111161276D01*
X122730710Y-111146958D01*
X122730000Y-111132500D01*
X122730000Y-110837500D01*
X122730710Y-110823042D01*
X122732834Y-110808724D01*
X122736351Y-110794683D01*
X122741228Y-110781054D01*
X122747417Y-110767969D01*
X122754858Y-110755553D01*
X122763481Y-110743927D01*
X122773202Y-110733202D01*
X122783927Y-110723481D01*
X122795553Y-110714858D01*
X122807969Y-110707417D01*
X122821054Y-110701228D01*
X122834683Y-110696351D01*
X122848724Y-110692834D01*
X122863042Y-110690710D01*
X122877500Y-110690000D01*
X123222500Y-110690000D01*
X123236958Y-110690710D01*
X123236958Y-110690710D01*
G37*
D12*
X123050000Y-110985000D03*
G04 #@! TD*
D11*
G04 #@! TO.C,R13*
G36*
X124736958Y-110690710D02*
X124751276Y-110692834D01*
X124765317Y-110696351D01*
X124778946Y-110701228D01*
X124792031Y-110707417D01*
X124804447Y-110714858D01*
X124816073Y-110723481D01*
X124826798Y-110733202D01*
X124836519Y-110743927D01*
X124845142Y-110755553D01*
X124852583Y-110767969D01*
X124858772Y-110781054D01*
X124863649Y-110794683D01*
X124867166Y-110808724D01*
X124869290Y-110823042D01*
X124870000Y-110837500D01*
X124870000Y-111132500D01*
X124869290Y-111146958D01*
X124867166Y-111161276D01*
X124863649Y-111175317D01*
X124858772Y-111188946D01*
X124852583Y-111202031D01*
X124845142Y-111214447D01*
X124836519Y-111226073D01*
X124826798Y-111236798D01*
X124816073Y-111246519D01*
X124804447Y-111255142D01*
X124792031Y-111262583D01*
X124778946Y-111268772D01*
X124765317Y-111273649D01*
X124751276Y-111277166D01*
X124736958Y-111279290D01*
X124722500Y-111280000D01*
X124377500Y-111280000D01*
X124363042Y-111279290D01*
X124348724Y-111277166D01*
X124334683Y-111273649D01*
X124321054Y-111268772D01*
X124307969Y-111262583D01*
X124295553Y-111255142D01*
X124283927Y-111246519D01*
X124273202Y-111236798D01*
X124263481Y-111226073D01*
X124254858Y-111214447D01*
X124247417Y-111202031D01*
X124241228Y-111188946D01*
X124236351Y-111175317D01*
X124232834Y-111161276D01*
X124230710Y-111146958D01*
X124230000Y-111132500D01*
X124230000Y-110837500D01*
X124230710Y-110823042D01*
X124232834Y-110808724D01*
X124236351Y-110794683D01*
X124241228Y-110781054D01*
X124247417Y-110767969D01*
X124254858Y-110755553D01*
X124263481Y-110743927D01*
X124273202Y-110733202D01*
X124283927Y-110723481D01*
X124295553Y-110714858D01*
X124307969Y-110707417D01*
X124321054Y-110701228D01*
X124334683Y-110696351D01*
X124348724Y-110692834D01*
X124363042Y-110690710D01*
X124377500Y-110690000D01*
X124722500Y-110690000D01*
X124736958Y-110690710D01*
X124736958Y-110690710D01*
G37*
D12*
X124550000Y-110985000D03*
D11*
G36*
X124736958Y-109720710D02*
X124751276Y-109722834D01*
X124765317Y-109726351D01*
X124778946Y-109731228D01*
X124792031Y-109737417D01*
X124804447Y-109744858D01*
X124816073Y-109753481D01*
X124826798Y-109763202D01*
X124836519Y-109773927D01*
X124845142Y-109785553D01*
X124852583Y-109797969D01*
X124858772Y-109811054D01*
X124863649Y-109824683D01*
X124867166Y-109838724D01*
X124869290Y-109853042D01*
X124870000Y-109867500D01*
X124870000Y-110162500D01*
X124869290Y-110176958D01*
X124867166Y-110191276D01*
X124863649Y-110205317D01*
X124858772Y-110218946D01*
X124852583Y-110232031D01*
X124845142Y-110244447D01*
X124836519Y-110256073D01*
X124826798Y-110266798D01*
X124816073Y-110276519D01*
X124804447Y-110285142D01*
X124792031Y-110292583D01*
X124778946Y-110298772D01*
X124765317Y-110303649D01*
X124751276Y-110307166D01*
X124736958Y-110309290D01*
X124722500Y-110310000D01*
X124377500Y-110310000D01*
X124363042Y-110309290D01*
X124348724Y-110307166D01*
X124334683Y-110303649D01*
X124321054Y-110298772D01*
X124307969Y-110292583D01*
X124295553Y-110285142D01*
X124283927Y-110276519D01*
X124273202Y-110266798D01*
X124263481Y-110256073D01*
X124254858Y-110244447D01*
X124247417Y-110232031D01*
X124241228Y-110218946D01*
X124236351Y-110205317D01*
X124232834Y-110191276D01*
X124230710Y-110176958D01*
X124230000Y-110162500D01*
X124230000Y-109867500D01*
X124230710Y-109853042D01*
X124232834Y-109838724D01*
X124236351Y-109824683D01*
X124241228Y-109811054D01*
X124247417Y-109797969D01*
X124254858Y-109785553D01*
X124263481Y-109773927D01*
X124273202Y-109763202D01*
X124283927Y-109753481D01*
X124295553Y-109744858D01*
X124307969Y-109737417D01*
X124321054Y-109731228D01*
X124334683Y-109726351D01*
X124348724Y-109722834D01*
X124363042Y-109720710D01*
X124377500Y-109720000D01*
X124722500Y-109720000D01*
X124736958Y-109720710D01*
X124736958Y-109720710D01*
G37*
D12*
X124550000Y-110015000D03*
G04 #@! TD*
D11*
G04 #@! TO.C,R80*
G36*
X121976958Y-89680710D02*
X121991276Y-89682834D01*
X122005317Y-89686351D01*
X122018946Y-89691228D01*
X122032031Y-89697417D01*
X122044447Y-89704858D01*
X122056073Y-89713481D01*
X122066798Y-89723202D01*
X122076519Y-89733927D01*
X122085142Y-89745553D01*
X122092583Y-89757969D01*
X122098772Y-89771054D01*
X122103649Y-89784683D01*
X122107166Y-89798724D01*
X122109290Y-89813042D01*
X122110000Y-89827500D01*
X122110000Y-90172500D01*
X122109290Y-90186958D01*
X122107166Y-90201276D01*
X122103649Y-90215317D01*
X122098772Y-90228946D01*
X122092583Y-90242031D01*
X122085142Y-90254447D01*
X122076519Y-90266073D01*
X122066798Y-90276798D01*
X122056073Y-90286519D01*
X122044447Y-90295142D01*
X122032031Y-90302583D01*
X122018946Y-90308772D01*
X122005317Y-90313649D01*
X121991276Y-90317166D01*
X121976958Y-90319290D01*
X121962500Y-90320000D01*
X121667500Y-90320000D01*
X121653042Y-90319290D01*
X121638724Y-90317166D01*
X121624683Y-90313649D01*
X121611054Y-90308772D01*
X121597969Y-90302583D01*
X121585553Y-90295142D01*
X121573927Y-90286519D01*
X121563202Y-90276798D01*
X121553481Y-90266073D01*
X121544858Y-90254447D01*
X121537417Y-90242031D01*
X121531228Y-90228946D01*
X121526351Y-90215317D01*
X121522834Y-90201276D01*
X121520710Y-90186958D01*
X121520000Y-90172500D01*
X121520000Y-89827500D01*
X121520710Y-89813042D01*
X121522834Y-89798724D01*
X121526351Y-89784683D01*
X121531228Y-89771054D01*
X121537417Y-89757969D01*
X121544858Y-89745553D01*
X121553481Y-89733927D01*
X121563202Y-89723202D01*
X121573927Y-89713481D01*
X121585553Y-89704858D01*
X121597969Y-89697417D01*
X121611054Y-89691228D01*
X121624683Y-89686351D01*
X121638724Y-89682834D01*
X121653042Y-89680710D01*
X121667500Y-89680000D01*
X121962500Y-89680000D01*
X121976958Y-89680710D01*
X121976958Y-89680710D01*
G37*
D12*
X121815000Y-90000000D03*
D11*
G36*
X122946958Y-89680710D02*
X122961276Y-89682834D01*
X122975317Y-89686351D01*
X122988946Y-89691228D01*
X123002031Y-89697417D01*
X123014447Y-89704858D01*
X123026073Y-89713481D01*
X123036798Y-89723202D01*
X123046519Y-89733927D01*
X123055142Y-89745553D01*
X123062583Y-89757969D01*
X123068772Y-89771054D01*
X123073649Y-89784683D01*
X123077166Y-89798724D01*
X123079290Y-89813042D01*
X123080000Y-89827500D01*
X123080000Y-90172500D01*
X123079290Y-90186958D01*
X123077166Y-90201276D01*
X123073649Y-90215317D01*
X123068772Y-90228946D01*
X123062583Y-90242031D01*
X123055142Y-90254447D01*
X123046519Y-90266073D01*
X123036798Y-90276798D01*
X123026073Y-90286519D01*
X123014447Y-90295142D01*
X123002031Y-90302583D01*
X122988946Y-90308772D01*
X122975317Y-90313649D01*
X122961276Y-90317166D01*
X122946958Y-90319290D01*
X122932500Y-90320000D01*
X122637500Y-90320000D01*
X122623042Y-90319290D01*
X122608724Y-90317166D01*
X122594683Y-90313649D01*
X122581054Y-90308772D01*
X122567969Y-90302583D01*
X122555553Y-90295142D01*
X122543927Y-90286519D01*
X122533202Y-90276798D01*
X122523481Y-90266073D01*
X122514858Y-90254447D01*
X122507417Y-90242031D01*
X122501228Y-90228946D01*
X122496351Y-90215317D01*
X122492834Y-90201276D01*
X122490710Y-90186958D01*
X122490000Y-90172500D01*
X122490000Y-89827500D01*
X122490710Y-89813042D01*
X122492834Y-89798724D01*
X122496351Y-89784683D01*
X122501228Y-89771054D01*
X122507417Y-89757969D01*
X122514858Y-89745553D01*
X122523481Y-89733927D01*
X122533202Y-89723202D01*
X122543927Y-89713481D01*
X122555553Y-89704858D01*
X122567969Y-89697417D01*
X122581054Y-89691228D01*
X122594683Y-89686351D01*
X122608724Y-89682834D01*
X122623042Y-89680710D01*
X122637500Y-89680000D01*
X122932500Y-89680000D01*
X122946958Y-89680710D01*
X122946958Y-89680710D01*
G37*
D12*
X122785000Y-90000000D03*
G04 #@! TD*
D11*
G04 #@! TO.C,R81*
G36*
X120431958Y-89680710D02*
X120446276Y-89682834D01*
X120460317Y-89686351D01*
X120473946Y-89691228D01*
X120487031Y-89697417D01*
X120499447Y-89704858D01*
X120511073Y-89713481D01*
X120521798Y-89723202D01*
X120531519Y-89733927D01*
X120540142Y-89745553D01*
X120547583Y-89757969D01*
X120553772Y-89771054D01*
X120558649Y-89784683D01*
X120562166Y-89798724D01*
X120564290Y-89813042D01*
X120565000Y-89827500D01*
X120565000Y-90172500D01*
X120564290Y-90186958D01*
X120562166Y-90201276D01*
X120558649Y-90215317D01*
X120553772Y-90228946D01*
X120547583Y-90242031D01*
X120540142Y-90254447D01*
X120531519Y-90266073D01*
X120521798Y-90276798D01*
X120511073Y-90286519D01*
X120499447Y-90295142D01*
X120487031Y-90302583D01*
X120473946Y-90308772D01*
X120460317Y-90313649D01*
X120446276Y-90317166D01*
X120431958Y-90319290D01*
X120417500Y-90320000D01*
X120122500Y-90320000D01*
X120108042Y-90319290D01*
X120093724Y-90317166D01*
X120079683Y-90313649D01*
X120066054Y-90308772D01*
X120052969Y-90302583D01*
X120040553Y-90295142D01*
X120028927Y-90286519D01*
X120018202Y-90276798D01*
X120008481Y-90266073D01*
X119999858Y-90254447D01*
X119992417Y-90242031D01*
X119986228Y-90228946D01*
X119981351Y-90215317D01*
X119977834Y-90201276D01*
X119975710Y-90186958D01*
X119975000Y-90172500D01*
X119975000Y-89827500D01*
X119975710Y-89813042D01*
X119977834Y-89798724D01*
X119981351Y-89784683D01*
X119986228Y-89771054D01*
X119992417Y-89757969D01*
X119999858Y-89745553D01*
X120008481Y-89733927D01*
X120018202Y-89723202D01*
X120028927Y-89713481D01*
X120040553Y-89704858D01*
X120052969Y-89697417D01*
X120066054Y-89691228D01*
X120079683Y-89686351D01*
X120093724Y-89682834D01*
X120108042Y-89680710D01*
X120122500Y-89680000D01*
X120417500Y-89680000D01*
X120431958Y-89680710D01*
X120431958Y-89680710D01*
G37*
D12*
X120270000Y-90000000D03*
D11*
G36*
X119461958Y-89680710D02*
X119476276Y-89682834D01*
X119490317Y-89686351D01*
X119503946Y-89691228D01*
X119517031Y-89697417D01*
X119529447Y-89704858D01*
X119541073Y-89713481D01*
X119551798Y-89723202D01*
X119561519Y-89733927D01*
X119570142Y-89745553D01*
X119577583Y-89757969D01*
X119583772Y-89771054D01*
X119588649Y-89784683D01*
X119592166Y-89798724D01*
X119594290Y-89813042D01*
X119595000Y-89827500D01*
X119595000Y-90172500D01*
X119594290Y-90186958D01*
X119592166Y-90201276D01*
X119588649Y-90215317D01*
X119583772Y-90228946D01*
X119577583Y-90242031D01*
X119570142Y-90254447D01*
X119561519Y-90266073D01*
X119551798Y-90276798D01*
X119541073Y-90286519D01*
X119529447Y-90295142D01*
X119517031Y-90302583D01*
X119503946Y-90308772D01*
X119490317Y-90313649D01*
X119476276Y-90317166D01*
X119461958Y-90319290D01*
X119447500Y-90320000D01*
X119152500Y-90320000D01*
X119138042Y-90319290D01*
X119123724Y-90317166D01*
X119109683Y-90313649D01*
X119096054Y-90308772D01*
X119082969Y-90302583D01*
X119070553Y-90295142D01*
X119058927Y-90286519D01*
X119048202Y-90276798D01*
X119038481Y-90266073D01*
X119029858Y-90254447D01*
X119022417Y-90242031D01*
X119016228Y-90228946D01*
X119011351Y-90215317D01*
X119007834Y-90201276D01*
X119005710Y-90186958D01*
X119005000Y-90172500D01*
X119005000Y-89827500D01*
X119005710Y-89813042D01*
X119007834Y-89798724D01*
X119011351Y-89784683D01*
X119016228Y-89771054D01*
X119022417Y-89757969D01*
X119029858Y-89745553D01*
X119038481Y-89733927D01*
X119048202Y-89723202D01*
X119058927Y-89713481D01*
X119070553Y-89704858D01*
X119082969Y-89697417D01*
X119096054Y-89691228D01*
X119109683Y-89686351D01*
X119123724Y-89682834D01*
X119138042Y-89680710D01*
X119152500Y-89680000D01*
X119447500Y-89680000D01*
X119461958Y-89680710D01*
X119461958Y-89680710D01*
G37*
D12*
X119300000Y-90000000D03*
G04 #@! TD*
D11*
G04 #@! TO.C,R90*
G36*
X121961958Y-97680710D02*
X121976276Y-97682834D01*
X121990317Y-97686351D01*
X122003946Y-97691228D01*
X122017031Y-97697417D01*
X122029447Y-97704858D01*
X122041073Y-97713481D01*
X122051798Y-97723202D01*
X122061519Y-97733927D01*
X122070142Y-97745553D01*
X122077583Y-97757969D01*
X122083772Y-97771054D01*
X122088649Y-97784683D01*
X122092166Y-97798724D01*
X122094290Y-97813042D01*
X122095000Y-97827500D01*
X122095000Y-98172500D01*
X122094290Y-98186958D01*
X122092166Y-98201276D01*
X122088649Y-98215317D01*
X122083772Y-98228946D01*
X122077583Y-98242031D01*
X122070142Y-98254447D01*
X122061519Y-98266073D01*
X122051798Y-98276798D01*
X122041073Y-98286519D01*
X122029447Y-98295142D01*
X122017031Y-98302583D01*
X122003946Y-98308772D01*
X121990317Y-98313649D01*
X121976276Y-98317166D01*
X121961958Y-98319290D01*
X121947500Y-98320000D01*
X121652500Y-98320000D01*
X121638042Y-98319290D01*
X121623724Y-98317166D01*
X121609683Y-98313649D01*
X121596054Y-98308772D01*
X121582969Y-98302583D01*
X121570553Y-98295142D01*
X121558927Y-98286519D01*
X121548202Y-98276798D01*
X121538481Y-98266073D01*
X121529858Y-98254447D01*
X121522417Y-98242031D01*
X121516228Y-98228946D01*
X121511351Y-98215317D01*
X121507834Y-98201276D01*
X121505710Y-98186958D01*
X121505000Y-98172500D01*
X121505000Y-97827500D01*
X121505710Y-97813042D01*
X121507834Y-97798724D01*
X121511351Y-97784683D01*
X121516228Y-97771054D01*
X121522417Y-97757969D01*
X121529858Y-97745553D01*
X121538481Y-97733927D01*
X121548202Y-97723202D01*
X121558927Y-97713481D01*
X121570553Y-97704858D01*
X121582969Y-97697417D01*
X121596054Y-97691228D01*
X121609683Y-97686351D01*
X121623724Y-97682834D01*
X121638042Y-97680710D01*
X121652500Y-97680000D01*
X121947500Y-97680000D01*
X121961958Y-97680710D01*
X121961958Y-97680710D01*
G37*
D12*
X121800000Y-98000000D03*
D11*
G36*
X122931958Y-97680710D02*
X122946276Y-97682834D01*
X122960317Y-97686351D01*
X122973946Y-97691228D01*
X122987031Y-97697417D01*
X122999447Y-97704858D01*
X123011073Y-97713481D01*
X123021798Y-97723202D01*
X123031519Y-97733927D01*
X123040142Y-97745553D01*
X123047583Y-97757969D01*
X123053772Y-97771054D01*
X123058649Y-97784683D01*
X123062166Y-97798724D01*
X123064290Y-97813042D01*
X123065000Y-97827500D01*
X123065000Y-98172500D01*
X123064290Y-98186958D01*
X123062166Y-98201276D01*
X123058649Y-98215317D01*
X123053772Y-98228946D01*
X123047583Y-98242031D01*
X123040142Y-98254447D01*
X123031519Y-98266073D01*
X123021798Y-98276798D01*
X123011073Y-98286519D01*
X122999447Y-98295142D01*
X122987031Y-98302583D01*
X122973946Y-98308772D01*
X122960317Y-98313649D01*
X122946276Y-98317166D01*
X122931958Y-98319290D01*
X122917500Y-98320000D01*
X122622500Y-98320000D01*
X122608042Y-98319290D01*
X122593724Y-98317166D01*
X122579683Y-98313649D01*
X122566054Y-98308772D01*
X122552969Y-98302583D01*
X122540553Y-98295142D01*
X122528927Y-98286519D01*
X122518202Y-98276798D01*
X122508481Y-98266073D01*
X122499858Y-98254447D01*
X122492417Y-98242031D01*
X122486228Y-98228946D01*
X122481351Y-98215317D01*
X122477834Y-98201276D01*
X122475710Y-98186958D01*
X122475000Y-98172500D01*
X122475000Y-97827500D01*
X122475710Y-97813042D01*
X122477834Y-97798724D01*
X122481351Y-97784683D01*
X122486228Y-97771054D01*
X122492417Y-97757969D01*
X122499858Y-97745553D01*
X122508481Y-97733927D01*
X122518202Y-97723202D01*
X122528927Y-97713481D01*
X122540553Y-97704858D01*
X122552969Y-97697417D01*
X122566054Y-97691228D01*
X122579683Y-97686351D01*
X122593724Y-97682834D01*
X122608042Y-97680710D01*
X122622500Y-97680000D01*
X122917500Y-97680000D01*
X122931958Y-97680710D01*
X122931958Y-97680710D01*
G37*
D12*
X122770000Y-98000000D03*
G04 #@! TD*
D11*
G04 #@! TO.C,R91*
G36*
X120431958Y-97680710D02*
X120446276Y-97682834D01*
X120460317Y-97686351D01*
X120473946Y-97691228D01*
X120487031Y-97697417D01*
X120499447Y-97704858D01*
X120511073Y-97713481D01*
X120521798Y-97723202D01*
X120531519Y-97733927D01*
X120540142Y-97745553D01*
X120547583Y-97757969D01*
X120553772Y-97771054D01*
X120558649Y-97784683D01*
X120562166Y-97798724D01*
X120564290Y-97813042D01*
X120565000Y-97827500D01*
X120565000Y-98172500D01*
X120564290Y-98186958D01*
X120562166Y-98201276D01*
X120558649Y-98215317D01*
X120553772Y-98228946D01*
X120547583Y-98242031D01*
X120540142Y-98254447D01*
X120531519Y-98266073D01*
X120521798Y-98276798D01*
X120511073Y-98286519D01*
X120499447Y-98295142D01*
X120487031Y-98302583D01*
X120473946Y-98308772D01*
X120460317Y-98313649D01*
X120446276Y-98317166D01*
X120431958Y-98319290D01*
X120417500Y-98320000D01*
X120122500Y-98320000D01*
X120108042Y-98319290D01*
X120093724Y-98317166D01*
X120079683Y-98313649D01*
X120066054Y-98308772D01*
X120052969Y-98302583D01*
X120040553Y-98295142D01*
X120028927Y-98286519D01*
X120018202Y-98276798D01*
X120008481Y-98266073D01*
X119999858Y-98254447D01*
X119992417Y-98242031D01*
X119986228Y-98228946D01*
X119981351Y-98215317D01*
X119977834Y-98201276D01*
X119975710Y-98186958D01*
X119975000Y-98172500D01*
X119975000Y-97827500D01*
X119975710Y-97813042D01*
X119977834Y-97798724D01*
X119981351Y-97784683D01*
X119986228Y-97771054D01*
X119992417Y-97757969D01*
X119999858Y-97745553D01*
X120008481Y-97733927D01*
X120018202Y-97723202D01*
X120028927Y-97713481D01*
X120040553Y-97704858D01*
X120052969Y-97697417D01*
X120066054Y-97691228D01*
X120079683Y-97686351D01*
X120093724Y-97682834D01*
X120108042Y-97680710D01*
X120122500Y-97680000D01*
X120417500Y-97680000D01*
X120431958Y-97680710D01*
X120431958Y-97680710D01*
G37*
D12*
X120270000Y-98000000D03*
D11*
G36*
X119461958Y-97680710D02*
X119476276Y-97682834D01*
X119490317Y-97686351D01*
X119503946Y-97691228D01*
X119517031Y-97697417D01*
X119529447Y-97704858D01*
X119541073Y-97713481D01*
X119551798Y-97723202D01*
X119561519Y-97733927D01*
X119570142Y-97745553D01*
X119577583Y-97757969D01*
X119583772Y-97771054D01*
X119588649Y-97784683D01*
X119592166Y-97798724D01*
X119594290Y-97813042D01*
X119595000Y-97827500D01*
X119595000Y-98172500D01*
X119594290Y-98186958D01*
X119592166Y-98201276D01*
X119588649Y-98215317D01*
X119583772Y-98228946D01*
X119577583Y-98242031D01*
X119570142Y-98254447D01*
X119561519Y-98266073D01*
X119551798Y-98276798D01*
X119541073Y-98286519D01*
X119529447Y-98295142D01*
X119517031Y-98302583D01*
X119503946Y-98308772D01*
X119490317Y-98313649D01*
X119476276Y-98317166D01*
X119461958Y-98319290D01*
X119447500Y-98320000D01*
X119152500Y-98320000D01*
X119138042Y-98319290D01*
X119123724Y-98317166D01*
X119109683Y-98313649D01*
X119096054Y-98308772D01*
X119082969Y-98302583D01*
X119070553Y-98295142D01*
X119058927Y-98286519D01*
X119048202Y-98276798D01*
X119038481Y-98266073D01*
X119029858Y-98254447D01*
X119022417Y-98242031D01*
X119016228Y-98228946D01*
X119011351Y-98215317D01*
X119007834Y-98201276D01*
X119005710Y-98186958D01*
X119005000Y-98172500D01*
X119005000Y-97827500D01*
X119005710Y-97813042D01*
X119007834Y-97798724D01*
X119011351Y-97784683D01*
X119016228Y-97771054D01*
X119022417Y-97757969D01*
X119029858Y-97745553D01*
X119038481Y-97733927D01*
X119048202Y-97723202D01*
X119058927Y-97713481D01*
X119070553Y-97704858D01*
X119082969Y-97697417D01*
X119096054Y-97691228D01*
X119109683Y-97686351D01*
X119123724Y-97682834D01*
X119138042Y-97680710D01*
X119152500Y-97680000D01*
X119447500Y-97680000D01*
X119461958Y-97680710D01*
X119461958Y-97680710D01*
G37*
D12*
X119300000Y-98000000D03*
G04 #@! TD*
D11*
G04 #@! TO.C,R100*
G36*
X122946958Y-105680710D02*
X122961276Y-105682834D01*
X122975317Y-105686351D01*
X122988946Y-105691228D01*
X123002031Y-105697417D01*
X123014447Y-105704858D01*
X123026073Y-105713481D01*
X123036798Y-105723202D01*
X123046519Y-105733927D01*
X123055142Y-105745553D01*
X123062583Y-105757969D01*
X123068772Y-105771054D01*
X123073649Y-105784683D01*
X123077166Y-105798724D01*
X123079290Y-105813042D01*
X123080000Y-105827500D01*
X123080000Y-106172500D01*
X123079290Y-106186958D01*
X123077166Y-106201276D01*
X123073649Y-106215317D01*
X123068772Y-106228946D01*
X123062583Y-106242031D01*
X123055142Y-106254447D01*
X123046519Y-106266073D01*
X123036798Y-106276798D01*
X123026073Y-106286519D01*
X123014447Y-106295142D01*
X123002031Y-106302583D01*
X122988946Y-106308772D01*
X122975317Y-106313649D01*
X122961276Y-106317166D01*
X122946958Y-106319290D01*
X122932500Y-106320000D01*
X122637500Y-106320000D01*
X122623042Y-106319290D01*
X122608724Y-106317166D01*
X122594683Y-106313649D01*
X122581054Y-106308772D01*
X122567969Y-106302583D01*
X122555553Y-106295142D01*
X122543927Y-106286519D01*
X122533202Y-106276798D01*
X122523481Y-106266073D01*
X122514858Y-106254447D01*
X122507417Y-106242031D01*
X122501228Y-106228946D01*
X122496351Y-106215317D01*
X122492834Y-106201276D01*
X122490710Y-106186958D01*
X122490000Y-106172500D01*
X122490000Y-105827500D01*
X122490710Y-105813042D01*
X122492834Y-105798724D01*
X122496351Y-105784683D01*
X122501228Y-105771054D01*
X122507417Y-105757969D01*
X122514858Y-105745553D01*
X122523481Y-105733927D01*
X122533202Y-105723202D01*
X122543927Y-105713481D01*
X122555553Y-105704858D01*
X122567969Y-105697417D01*
X122581054Y-105691228D01*
X122594683Y-105686351D01*
X122608724Y-105682834D01*
X122623042Y-105680710D01*
X122637500Y-105680000D01*
X122932500Y-105680000D01*
X122946958Y-105680710D01*
X122946958Y-105680710D01*
G37*
D12*
X122785000Y-106000000D03*
D11*
G36*
X121976958Y-105680710D02*
X121991276Y-105682834D01*
X122005317Y-105686351D01*
X122018946Y-105691228D01*
X122032031Y-105697417D01*
X122044447Y-105704858D01*
X122056073Y-105713481D01*
X122066798Y-105723202D01*
X122076519Y-105733927D01*
X122085142Y-105745553D01*
X122092583Y-105757969D01*
X122098772Y-105771054D01*
X122103649Y-105784683D01*
X122107166Y-105798724D01*
X122109290Y-105813042D01*
X122110000Y-105827500D01*
X122110000Y-106172500D01*
X122109290Y-106186958D01*
X122107166Y-106201276D01*
X122103649Y-106215317D01*
X122098772Y-106228946D01*
X122092583Y-106242031D01*
X122085142Y-106254447D01*
X122076519Y-106266073D01*
X122066798Y-106276798D01*
X122056073Y-106286519D01*
X122044447Y-106295142D01*
X122032031Y-106302583D01*
X122018946Y-106308772D01*
X122005317Y-106313649D01*
X121991276Y-106317166D01*
X121976958Y-106319290D01*
X121962500Y-106320000D01*
X121667500Y-106320000D01*
X121653042Y-106319290D01*
X121638724Y-106317166D01*
X121624683Y-106313649D01*
X121611054Y-106308772D01*
X121597969Y-106302583D01*
X121585553Y-106295142D01*
X121573927Y-106286519D01*
X121563202Y-106276798D01*
X121553481Y-106266073D01*
X121544858Y-106254447D01*
X121537417Y-106242031D01*
X121531228Y-106228946D01*
X121526351Y-106215317D01*
X121522834Y-106201276D01*
X121520710Y-106186958D01*
X121520000Y-106172500D01*
X121520000Y-105827500D01*
X121520710Y-105813042D01*
X121522834Y-105798724D01*
X121526351Y-105784683D01*
X121531228Y-105771054D01*
X121537417Y-105757969D01*
X121544858Y-105745553D01*
X121553481Y-105733927D01*
X121563202Y-105723202D01*
X121573927Y-105713481D01*
X121585553Y-105704858D01*
X121597969Y-105697417D01*
X121611054Y-105691228D01*
X121624683Y-105686351D01*
X121638724Y-105682834D01*
X121653042Y-105680710D01*
X121667500Y-105680000D01*
X121962500Y-105680000D01*
X121976958Y-105680710D01*
X121976958Y-105680710D01*
G37*
D12*
X121815000Y-106000000D03*
G04 #@! TD*
D11*
G04 #@! TO.C,R101*
G36*
X120431958Y-105680710D02*
X120446276Y-105682834D01*
X120460317Y-105686351D01*
X120473946Y-105691228D01*
X120487031Y-105697417D01*
X120499447Y-105704858D01*
X120511073Y-105713481D01*
X120521798Y-105723202D01*
X120531519Y-105733927D01*
X120540142Y-105745553D01*
X120547583Y-105757969D01*
X120553772Y-105771054D01*
X120558649Y-105784683D01*
X120562166Y-105798724D01*
X120564290Y-105813042D01*
X120565000Y-105827500D01*
X120565000Y-106172500D01*
X120564290Y-106186958D01*
X120562166Y-106201276D01*
X120558649Y-106215317D01*
X120553772Y-106228946D01*
X120547583Y-106242031D01*
X120540142Y-106254447D01*
X120531519Y-106266073D01*
X120521798Y-106276798D01*
X120511073Y-106286519D01*
X120499447Y-106295142D01*
X120487031Y-106302583D01*
X120473946Y-106308772D01*
X120460317Y-106313649D01*
X120446276Y-106317166D01*
X120431958Y-106319290D01*
X120417500Y-106320000D01*
X120122500Y-106320000D01*
X120108042Y-106319290D01*
X120093724Y-106317166D01*
X120079683Y-106313649D01*
X120066054Y-106308772D01*
X120052969Y-106302583D01*
X120040553Y-106295142D01*
X120028927Y-106286519D01*
X120018202Y-106276798D01*
X120008481Y-106266073D01*
X119999858Y-106254447D01*
X119992417Y-106242031D01*
X119986228Y-106228946D01*
X119981351Y-106215317D01*
X119977834Y-106201276D01*
X119975710Y-106186958D01*
X119975000Y-106172500D01*
X119975000Y-105827500D01*
X119975710Y-105813042D01*
X119977834Y-105798724D01*
X119981351Y-105784683D01*
X119986228Y-105771054D01*
X119992417Y-105757969D01*
X119999858Y-105745553D01*
X120008481Y-105733927D01*
X120018202Y-105723202D01*
X120028927Y-105713481D01*
X120040553Y-105704858D01*
X120052969Y-105697417D01*
X120066054Y-105691228D01*
X120079683Y-105686351D01*
X120093724Y-105682834D01*
X120108042Y-105680710D01*
X120122500Y-105680000D01*
X120417500Y-105680000D01*
X120431958Y-105680710D01*
X120431958Y-105680710D01*
G37*
D12*
X120270000Y-106000000D03*
D11*
G36*
X119461958Y-105680710D02*
X119476276Y-105682834D01*
X119490317Y-105686351D01*
X119503946Y-105691228D01*
X119517031Y-105697417D01*
X119529447Y-105704858D01*
X119541073Y-105713481D01*
X119551798Y-105723202D01*
X119561519Y-105733927D01*
X119570142Y-105745553D01*
X119577583Y-105757969D01*
X119583772Y-105771054D01*
X119588649Y-105784683D01*
X119592166Y-105798724D01*
X119594290Y-105813042D01*
X119595000Y-105827500D01*
X119595000Y-106172500D01*
X119594290Y-106186958D01*
X119592166Y-106201276D01*
X119588649Y-106215317D01*
X119583772Y-106228946D01*
X119577583Y-106242031D01*
X119570142Y-106254447D01*
X119561519Y-106266073D01*
X119551798Y-106276798D01*
X119541073Y-106286519D01*
X119529447Y-106295142D01*
X119517031Y-106302583D01*
X119503946Y-106308772D01*
X119490317Y-106313649D01*
X119476276Y-106317166D01*
X119461958Y-106319290D01*
X119447500Y-106320000D01*
X119152500Y-106320000D01*
X119138042Y-106319290D01*
X119123724Y-106317166D01*
X119109683Y-106313649D01*
X119096054Y-106308772D01*
X119082969Y-106302583D01*
X119070553Y-106295142D01*
X119058927Y-106286519D01*
X119048202Y-106276798D01*
X119038481Y-106266073D01*
X119029858Y-106254447D01*
X119022417Y-106242031D01*
X119016228Y-106228946D01*
X119011351Y-106215317D01*
X119007834Y-106201276D01*
X119005710Y-106186958D01*
X119005000Y-106172500D01*
X119005000Y-105827500D01*
X119005710Y-105813042D01*
X119007834Y-105798724D01*
X119011351Y-105784683D01*
X119016228Y-105771054D01*
X119022417Y-105757969D01*
X119029858Y-105745553D01*
X119038481Y-105733927D01*
X119048202Y-105723202D01*
X119058927Y-105713481D01*
X119070553Y-105704858D01*
X119082969Y-105697417D01*
X119096054Y-105691228D01*
X119109683Y-105686351D01*
X119123724Y-105682834D01*
X119138042Y-105680710D01*
X119152500Y-105680000D01*
X119447500Y-105680000D01*
X119461958Y-105680710D01*
X119461958Y-105680710D01*
G37*
D12*
X119300000Y-106000000D03*
G04 #@! TD*
D11*
G04 #@! TO.C,R110*
G36*
X101686958Y-81075710D02*
X101701276Y-81077834D01*
X101715317Y-81081351D01*
X101728946Y-81086228D01*
X101742031Y-81092417D01*
X101754447Y-81099858D01*
X101766073Y-81108481D01*
X101776798Y-81118202D01*
X101786519Y-81128927D01*
X101795142Y-81140553D01*
X101802583Y-81152969D01*
X101808772Y-81166054D01*
X101813649Y-81179683D01*
X101817166Y-81193724D01*
X101819290Y-81208042D01*
X101820000Y-81222500D01*
X101820000Y-81517500D01*
X101819290Y-81531958D01*
X101817166Y-81546276D01*
X101813649Y-81560317D01*
X101808772Y-81573946D01*
X101802583Y-81587031D01*
X101795142Y-81599447D01*
X101786519Y-81611073D01*
X101776798Y-81621798D01*
X101766073Y-81631519D01*
X101754447Y-81640142D01*
X101742031Y-81647583D01*
X101728946Y-81653772D01*
X101715317Y-81658649D01*
X101701276Y-81662166D01*
X101686958Y-81664290D01*
X101672500Y-81665000D01*
X101327500Y-81665000D01*
X101313042Y-81664290D01*
X101298724Y-81662166D01*
X101284683Y-81658649D01*
X101271054Y-81653772D01*
X101257969Y-81647583D01*
X101245553Y-81640142D01*
X101233927Y-81631519D01*
X101223202Y-81621798D01*
X101213481Y-81611073D01*
X101204858Y-81599447D01*
X101197417Y-81587031D01*
X101191228Y-81573946D01*
X101186351Y-81560317D01*
X101182834Y-81546276D01*
X101180710Y-81531958D01*
X101180000Y-81517500D01*
X101180000Y-81222500D01*
X101180710Y-81208042D01*
X101182834Y-81193724D01*
X101186351Y-81179683D01*
X101191228Y-81166054D01*
X101197417Y-81152969D01*
X101204858Y-81140553D01*
X101213481Y-81128927D01*
X101223202Y-81118202D01*
X101233927Y-81108481D01*
X101245553Y-81099858D01*
X101257969Y-81092417D01*
X101271054Y-81086228D01*
X101284683Y-81081351D01*
X101298724Y-81077834D01*
X101313042Y-81075710D01*
X101327500Y-81075000D01*
X101672500Y-81075000D01*
X101686958Y-81075710D01*
X101686958Y-81075710D01*
G37*
D12*
X101500000Y-81370000D03*
D11*
G36*
X101686958Y-80105710D02*
X101701276Y-80107834D01*
X101715317Y-80111351D01*
X101728946Y-80116228D01*
X101742031Y-80122417D01*
X101754447Y-80129858D01*
X101766073Y-80138481D01*
X101776798Y-80148202D01*
X101786519Y-80158927D01*
X101795142Y-80170553D01*
X101802583Y-80182969D01*
X101808772Y-80196054D01*
X101813649Y-80209683D01*
X101817166Y-80223724D01*
X101819290Y-80238042D01*
X101820000Y-80252500D01*
X101820000Y-80547500D01*
X101819290Y-80561958D01*
X101817166Y-80576276D01*
X101813649Y-80590317D01*
X101808772Y-80603946D01*
X101802583Y-80617031D01*
X101795142Y-80629447D01*
X101786519Y-80641073D01*
X101776798Y-80651798D01*
X101766073Y-80661519D01*
X101754447Y-80670142D01*
X101742031Y-80677583D01*
X101728946Y-80683772D01*
X101715317Y-80688649D01*
X101701276Y-80692166D01*
X101686958Y-80694290D01*
X101672500Y-80695000D01*
X101327500Y-80695000D01*
X101313042Y-80694290D01*
X101298724Y-80692166D01*
X101284683Y-80688649D01*
X101271054Y-80683772D01*
X101257969Y-80677583D01*
X101245553Y-80670142D01*
X101233927Y-80661519D01*
X101223202Y-80651798D01*
X101213481Y-80641073D01*
X101204858Y-80629447D01*
X101197417Y-80617031D01*
X101191228Y-80603946D01*
X101186351Y-80590317D01*
X101182834Y-80576276D01*
X101180710Y-80561958D01*
X101180000Y-80547500D01*
X101180000Y-80252500D01*
X101180710Y-80238042D01*
X101182834Y-80223724D01*
X101186351Y-80209683D01*
X101191228Y-80196054D01*
X101197417Y-80182969D01*
X101204858Y-80170553D01*
X101213481Y-80158927D01*
X101223202Y-80148202D01*
X101233927Y-80138481D01*
X101245553Y-80129858D01*
X101257969Y-80122417D01*
X101271054Y-80116228D01*
X101284683Y-80111351D01*
X101298724Y-80107834D01*
X101313042Y-80105710D01*
X101327500Y-80105000D01*
X101672500Y-80105000D01*
X101686958Y-80105710D01*
X101686958Y-80105710D01*
G37*
D12*
X101500000Y-80400000D03*
G04 #@! TD*
D11*
G04 #@! TO.C,R111*
G36*
X103186958Y-80105710D02*
X103201276Y-80107834D01*
X103215317Y-80111351D01*
X103228946Y-80116228D01*
X103242031Y-80122417D01*
X103254447Y-80129858D01*
X103266073Y-80138481D01*
X103276798Y-80148202D01*
X103286519Y-80158927D01*
X103295142Y-80170553D01*
X103302583Y-80182969D01*
X103308772Y-80196054D01*
X103313649Y-80209683D01*
X103317166Y-80223724D01*
X103319290Y-80238042D01*
X103320000Y-80252500D01*
X103320000Y-80547500D01*
X103319290Y-80561958D01*
X103317166Y-80576276D01*
X103313649Y-80590317D01*
X103308772Y-80603946D01*
X103302583Y-80617031D01*
X103295142Y-80629447D01*
X103286519Y-80641073D01*
X103276798Y-80651798D01*
X103266073Y-80661519D01*
X103254447Y-80670142D01*
X103242031Y-80677583D01*
X103228946Y-80683772D01*
X103215317Y-80688649D01*
X103201276Y-80692166D01*
X103186958Y-80694290D01*
X103172500Y-80695000D01*
X102827500Y-80695000D01*
X102813042Y-80694290D01*
X102798724Y-80692166D01*
X102784683Y-80688649D01*
X102771054Y-80683772D01*
X102757969Y-80677583D01*
X102745553Y-80670142D01*
X102733927Y-80661519D01*
X102723202Y-80651798D01*
X102713481Y-80641073D01*
X102704858Y-80629447D01*
X102697417Y-80617031D01*
X102691228Y-80603946D01*
X102686351Y-80590317D01*
X102682834Y-80576276D01*
X102680710Y-80561958D01*
X102680000Y-80547500D01*
X102680000Y-80252500D01*
X102680710Y-80238042D01*
X102682834Y-80223724D01*
X102686351Y-80209683D01*
X102691228Y-80196054D01*
X102697417Y-80182969D01*
X102704858Y-80170553D01*
X102713481Y-80158927D01*
X102723202Y-80148202D01*
X102733927Y-80138481D01*
X102745553Y-80129858D01*
X102757969Y-80122417D01*
X102771054Y-80116228D01*
X102784683Y-80111351D01*
X102798724Y-80107834D01*
X102813042Y-80105710D01*
X102827500Y-80105000D01*
X103172500Y-80105000D01*
X103186958Y-80105710D01*
X103186958Y-80105710D01*
G37*
D12*
X103000000Y-80400000D03*
D11*
G36*
X103186958Y-81075710D02*
X103201276Y-81077834D01*
X103215317Y-81081351D01*
X103228946Y-81086228D01*
X103242031Y-81092417D01*
X103254447Y-81099858D01*
X103266073Y-81108481D01*
X103276798Y-81118202D01*
X103286519Y-81128927D01*
X103295142Y-81140553D01*
X103302583Y-81152969D01*
X103308772Y-81166054D01*
X103313649Y-81179683D01*
X103317166Y-81193724D01*
X103319290Y-81208042D01*
X103320000Y-81222500D01*
X103320000Y-81517500D01*
X103319290Y-81531958D01*
X103317166Y-81546276D01*
X103313649Y-81560317D01*
X103308772Y-81573946D01*
X103302583Y-81587031D01*
X103295142Y-81599447D01*
X103286519Y-81611073D01*
X103276798Y-81621798D01*
X103266073Y-81631519D01*
X103254447Y-81640142D01*
X103242031Y-81647583D01*
X103228946Y-81653772D01*
X103215317Y-81658649D01*
X103201276Y-81662166D01*
X103186958Y-81664290D01*
X103172500Y-81665000D01*
X102827500Y-81665000D01*
X102813042Y-81664290D01*
X102798724Y-81662166D01*
X102784683Y-81658649D01*
X102771054Y-81653772D01*
X102757969Y-81647583D01*
X102745553Y-81640142D01*
X102733927Y-81631519D01*
X102723202Y-81621798D01*
X102713481Y-81611073D01*
X102704858Y-81599447D01*
X102697417Y-81587031D01*
X102691228Y-81573946D01*
X102686351Y-81560317D01*
X102682834Y-81546276D01*
X102680710Y-81531958D01*
X102680000Y-81517500D01*
X102680000Y-81222500D01*
X102680710Y-81208042D01*
X102682834Y-81193724D01*
X102686351Y-81179683D01*
X102691228Y-81166054D01*
X102697417Y-81152969D01*
X102704858Y-81140553D01*
X102713481Y-81128927D01*
X102723202Y-81118202D01*
X102733927Y-81108481D01*
X102745553Y-81099858D01*
X102757969Y-81092417D01*
X102771054Y-81086228D01*
X102784683Y-81081351D01*
X102798724Y-81077834D01*
X102813042Y-81075710D01*
X102827500Y-81075000D01*
X103172500Y-81075000D01*
X103186958Y-81075710D01*
X103186958Y-81075710D01*
G37*
D12*
X103000000Y-81370000D03*
G04 #@! TD*
D11*
G04 #@! TO.C,R112*
G36*
X98686958Y-80105710D02*
X98701276Y-80107834D01*
X98715317Y-80111351D01*
X98728946Y-80116228D01*
X98742031Y-80122417D01*
X98754447Y-80129858D01*
X98766073Y-80138481D01*
X98776798Y-80148202D01*
X98786519Y-80158927D01*
X98795142Y-80170553D01*
X98802583Y-80182969D01*
X98808772Y-80196054D01*
X98813649Y-80209683D01*
X98817166Y-80223724D01*
X98819290Y-80238042D01*
X98820000Y-80252500D01*
X98820000Y-80547500D01*
X98819290Y-80561958D01*
X98817166Y-80576276D01*
X98813649Y-80590317D01*
X98808772Y-80603946D01*
X98802583Y-80617031D01*
X98795142Y-80629447D01*
X98786519Y-80641073D01*
X98776798Y-80651798D01*
X98766073Y-80661519D01*
X98754447Y-80670142D01*
X98742031Y-80677583D01*
X98728946Y-80683772D01*
X98715317Y-80688649D01*
X98701276Y-80692166D01*
X98686958Y-80694290D01*
X98672500Y-80695000D01*
X98327500Y-80695000D01*
X98313042Y-80694290D01*
X98298724Y-80692166D01*
X98284683Y-80688649D01*
X98271054Y-80683772D01*
X98257969Y-80677583D01*
X98245553Y-80670142D01*
X98233927Y-80661519D01*
X98223202Y-80651798D01*
X98213481Y-80641073D01*
X98204858Y-80629447D01*
X98197417Y-80617031D01*
X98191228Y-80603946D01*
X98186351Y-80590317D01*
X98182834Y-80576276D01*
X98180710Y-80561958D01*
X98180000Y-80547500D01*
X98180000Y-80252500D01*
X98180710Y-80238042D01*
X98182834Y-80223724D01*
X98186351Y-80209683D01*
X98191228Y-80196054D01*
X98197417Y-80182969D01*
X98204858Y-80170553D01*
X98213481Y-80158927D01*
X98223202Y-80148202D01*
X98233927Y-80138481D01*
X98245553Y-80129858D01*
X98257969Y-80122417D01*
X98271054Y-80116228D01*
X98284683Y-80111351D01*
X98298724Y-80107834D01*
X98313042Y-80105710D01*
X98327500Y-80105000D01*
X98672500Y-80105000D01*
X98686958Y-80105710D01*
X98686958Y-80105710D01*
G37*
D12*
X98500000Y-80400000D03*
D11*
G36*
X98686958Y-81075710D02*
X98701276Y-81077834D01*
X98715317Y-81081351D01*
X98728946Y-81086228D01*
X98742031Y-81092417D01*
X98754447Y-81099858D01*
X98766073Y-81108481D01*
X98776798Y-81118202D01*
X98786519Y-81128927D01*
X98795142Y-81140553D01*
X98802583Y-81152969D01*
X98808772Y-81166054D01*
X98813649Y-81179683D01*
X98817166Y-81193724D01*
X98819290Y-81208042D01*
X98820000Y-81222500D01*
X98820000Y-81517500D01*
X98819290Y-81531958D01*
X98817166Y-81546276D01*
X98813649Y-81560317D01*
X98808772Y-81573946D01*
X98802583Y-81587031D01*
X98795142Y-81599447D01*
X98786519Y-81611073D01*
X98776798Y-81621798D01*
X98766073Y-81631519D01*
X98754447Y-81640142D01*
X98742031Y-81647583D01*
X98728946Y-81653772D01*
X98715317Y-81658649D01*
X98701276Y-81662166D01*
X98686958Y-81664290D01*
X98672500Y-81665000D01*
X98327500Y-81665000D01*
X98313042Y-81664290D01*
X98298724Y-81662166D01*
X98284683Y-81658649D01*
X98271054Y-81653772D01*
X98257969Y-81647583D01*
X98245553Y-81640142D01*
X98233927Y-81631519D01*
X98223202Y-81621798D01*
X98213481Y-81611073D01*
X98204858Y-81599447D01*
X98197417Y-81587031D01*
X98191228Y-81573946D01*
X98186351Y-81560317D01*
X98182834Y-81546276D01*
X98180710Y-81531958D01*
X98180000Y-81517500D01*
X98180000Y-81222500D01*
X98180710Y-81208042D01*
X98182834Y-81193724D01*
X98186351Y-81179683D01*
X98191228Y-81166054D01*
X98197417Y-81152969D01*
X98204858Y-81140553D01*
X98213481Y-81128927D01*
X98223202Y-81118202D01*
X98233927Y-81108481D01*
X98245553Y-81099858D01*
X98257969Y-81092417D01*
X98271054Y-81086228D01*
X98284683Y-81081351D01*
X98298724Y-81077834D01*
X98313042Y-81075710D01*
X98327500Y-81075000D01*
X98672500Y-81075000D01*
X98686958Y-81075710D01*
X98686958Y-81075710D01*
G37*
D12*
X98500000Y-81370000D03*
G04 #@! TD*
D11*
G04 #@! TO.C,R113*
G36*
X100186958Y-81075710D02*
X100201276Y-81077834D01*
X100215317Y-81081351D01*
X100228946Y-81086228D01*
X100242031Y-81092417D01*
X100254447Y-81099858D01*
X100266073Y-81108481D01*
X100276798Y-81118202D01*
X100286519Y-81128927D01*
X100295142Y-81140553D01*
X100302583Y-81152969D01*
X100308772Y-81166054D01*
X100313649Y-81179683D01*
X100317166Y-81193724D01*
X100319290Y-81208042D01*
X100320000Y-81222500D01*
X100320000Y-81517500D01*
X100319290Y-81531958D01*
X100317166Y-81546276D01*
X100313649Y-81560317D01*
X100308772Y-81573946D01*
X100302583Y-81587031D01*
X100295142Y-81599447D01*
X100286519Y-81611073D01*
X100276798Y-81621798D01*
X100266073Y-81631519D01*
X100254447Y-81640142D01*
X100242031Y-81647583D01*
X100228946Y-81653772D01*
X100215317Y-81658649D01*
X100201276Y-81662166D01*
X100186958Y-81664290D01*
X100172500Y-81665000D01*
X99827500Y-81665000D01*
X99813042Y-81664290D01*
X99798724Y-81662166D01*
X99784683Y-81658649D01*
X99771054Y-81653772D01*
X99757969Y-81647583D01*
X99745553Y-81640142D01*
X99733927Y-81631519D01*
X99723202Y-81621798D01*
X99713481Y-81611073D01*
X99704858Y-81599447D01*
X99697417Y-81587031D01*
X99691228Y-81573946D01*
X99686351Y-81560317D01*
X99682834Y-81546276D01*
X99680710Y-81531958D01*
X99680000Y-81517500D01*
X99680000Y-81222500D01*
X99680710Y-81208042D01*
X99682834Y-81193724D01*
X99686351Y-81179683D01*
X99691228Y-81166054D01*
X99697417Y-81152969D01*
X99704858Y-81140553D01*
X99713481Y-81128927D01*
X99723202Y-81118202D01*
X99733927Y-81108481D01*
X99745553Y-81099858D01*
X99757969Y-81092417D01*
X99771054Y-81086228D01*
X99784683Y-81081351D01*
X99798724Y-81077834D01*
X99813042Y-81075710D01*
X99827500Y-81075000D01*
X100172500Y-81075000D01*
X100186958Y-81075710D01*
X100186958Y-81075710D01*
G37*
D12*
X100000000Y-81370000D03*
D11*
G36*
X100186958Y-80105710D02*
X100201276Y-80107834D01*
X100215317Y-80111351D01*
X100228946Y-80116228D01*
X100242031Y-80122417D01*
X100254447Y-80129858D01*
X100266073Y-80138481D01*
X100276798Y-80148202D01*
X100286519Y-80158927D01*
X100295142Y-80170553D01*
X100302583Y-80182969D01*
X100308772Y-80196054D01*
X100313649Y-80209683D01*
X100317166Y-80223724D01*
X100319290Y-80238042D01*
X100320000Y-80252500D01*
X100320000Y-80547500D01*
X100319290Y-80561958D01*
X100317166Y-80576276D01*
X100313649Y-80590317D01*
X100308772Y-80603946D01*
X100302583Y-80617031D01*
X100295142Y-80629447D01*
X100286519Y-80641073D01*
X100276798Y-80651798D01*
X100266073Y-80661519D01*
X100254447Y-80670142D01*
X100242031Y-80677583D01*
X100228946Y-80683772D01*
X100215317Y-80688649D01*
X100201276Y-80692166D01*
X100186958Y-80694290D01*
X100172500Y-80695000D01*
X99827500Y-80695000D01*
X99813042Y-80694290D01*
X99798724Y-80692166D01*
X99784683Y-80688649D01*
X99771054Y-80683772D01*
X99757969Y-80677583D01*
X99745553Y-80670142D01*
X99733927Y-80661519D01*
X99723202Y-80651798D01*
X99713481Y-80641073D01*
X99704858Y-80629447D01*
X99697417Y-80617031D01*
X99691228Y-80603946D01*
X99686351Y-80590317D01*
X99682834Y-80576276D01*
X99680710Y-80561958D01*
X99680000Y-80547500D01*
X99680000Y-80252500D01*
X99680710Y-80238042D01*
X99682834Y-80223724D01*
X99686351Y-80209683D01*
X99691228Y-80196054D01*
X99697417Y-80182969D01*
X99704858Y-80170553D01*
X99713481Y-80158927D01*
X99723202Y-80148202D01*
X99733927Y-80138481D01*
X99745553Y-80129858D01*
X99757969Y-80122417D01*
X99771054Y-80116228D01*
X99784683Y-80111351D01*
X99798724Y-80107834D01*
X99813042Y-80105710D01*
X99827500Y-80105000D01*
X100172500Y-80105000D01*
X100186958Y-80105710D01*
X100186958Y-80105710D01*
G37*
D12*
X100000000Y-80400000D03*
G04 #@! TD*
D18*
G04 #@! TO.C,U10*
X118600000Y-113250000D03*
X118600000Y-112300000D03*
X118600000Y-111350000D03*
X120800000Y-111350000D03*
X120800000Y-113250000D03*
G04 #@! TD*
M02*
