G04 #@! TF.GenerationSoftware,KiCad,Pcbnew,(5.0.1-3-g963ef8bb5)*
G04 #@! TF.CreationDate,2019-07-31T15:24:12+02:00*
G04 #@! TF.ProjectId,StudIOT,53747564494F542E6B696361645F7063,rev?*
G04 #@! TF.SameCoordinates,Original*
G04 #@! TF.FileFunction,Soldermask,Top*
G04 #@! TF.FilePolarity,Negative*
%FSLAX46Y46*%
G04 Gerber Fmt 4.6, Leading zero omitted, Abs format (unit mm)*
G04 Created by KiCad (PCBNEW (5.0.1-3-g963ef8bb5)) date 2019 July 31, Wednesday 15:24:12*
%MOMM*%
%LPD*%
G01*
G04 APERTURE LIST*
%ADD10C,0.100000*%
G04 APERTURE END LIST*
D10*
G36*
X123051000Y-121501000D02*
X121449000Y-121501000D01*
X121449000Y-120399000D01*
X123051000Y-120399000D01*
X123051000Y-121501000D01*
X123051000Y-121501000D01*
G37*
G36*
X118151000Y-121501000D02*
X116549000Y-121501000D01*
X116549000Y-120399000D01*
X118151000Y-120399000D01*
X118151000Y-121501000D01*
X118151000Y-121501000D01*
G37*
G36*
X107955734Y-119213232D02*
X108165202Y-119299996D01*
X108353723Y-119425962D01*
X108514038Y-119586277D01*
X108640004Y-119774798D01*
X108726768Y-119984266D01*
X108771000Y-120206635D01*
X108771000Y-120433365D01*
X108726768Y-120655734D01*
X108640004Y-120865202D01*
X108514038Y-121053723D01*
X108353723Y-121214038D01*
X108165202Y-121340004D01*
X107955734Y-121426768D01*
X107733365Y-121471000D01*
X107506635Y-121471000D01*
X107284266Y-121426768D01*
X107074798Y-121340004D01*
X106886277Y-121214038D01*
X106725962Y-121053723D01*
X106599996Y-120865202D01*
X106513232Y-120655734D01*
X106469000Y-120433365D01*
X106469000Y-120206635D01*
X106513232Y-119984266D01*
X106599996Y-119774798D01*
X106725962Y-119586277D01*
X106886277Y-119425962D01*
X107074798Y-119299996D01*
X107284266Y-119213232D01*
X107506635Y-119169000D01*
X107733365Y-119169000D01*
X107955734Y-119213232D01*
X107955734Y-119213232D01*
G37*
G36*
X92715734Y-119213232D02*
X92925202Y-119299996D01*
X93113723Y-119425962D01*
X93274038Y-119586277D01*
X93400004Y-119774798D01*
X93486768Y-119984266D01*
X93531000Y-120206635D01*
X93531000Y-120433365D01*
X93486768Y-120655734D01*
X93400004Y-120865202D01*
X93274038Y-121053723D01*
X93113723Y-121214038D01*
X92925202Y-121340004D01*
X92715734Y-121426768D01*
X92493365Y-121471000D01*
X92266635Y-121471000D01*
X92044266Y-121426768D01*
X91834798Y-121340004D01*
X91646277Y-121214038D01*
X91485962Y-121053723D01*
X91359996Y-120865202D01*
X91273232Y-120655734D01*
X91229000Y-120433365D01*
X91229000Y-120206635D01*
X91273232Y-119984266D01*
X91359996Y-119774798D01*
X91485962Y-119586277D01*
X91646277Y-119425962D01*
X91834798Y-119299996D01*
X92044266Y-119213232D01*
X92266635Y-119169000D01*
X92493365Y-119169000D01*
X92715734Y-119213232D01*
X92715734Y-119213232D01*
G37*
G36*
X127755734Y-119213232D02*
X127965202Y-119299996D01*
X128153723Y-119425962D01*
X128314038Y-119586277D01*
X128440004Y-119774798D01*
X128526768Y-119984266D01*
X128571000Y-120206635D01*
X128571000Y-120433365D01*
X128526768Y-120655734D01*
X128440004Y-120865202D01*
X128314038Y-121053723D01*
X128153723Y-121214038D01*
X127965202Y-121340004D01*
X127755734Y-121426768D01*
X127533365Y-121471000D01*
X127306635Y-121471000D01*
X127084266Y-121426768D01*
X126874798Y-121340004D01*
X126686277Y-121214038D01*
X126525962Y-121053723D01*
X126399996Y-120865202D01*
X126313232Y-120655734D01*
X126269000Y-120433365D01*
X126269000Y-120206635D01*
X126313232Y-119984266D01*
X126399996Y-119774798D01*
X126525962Y-119586277D01*
X126686277Y-119425962D01*
X126874798Y-119299996D01*
X127084266Y-119213232D01*
X127306635Y-119169000D01*
X127533365Y-119169000D01*
X127755734Y-119213232D01*
X127755734Y-119213232D01*
G37*
G36*
X112515734Y-119213232D02*
X112725202Y-119299996D01*
X112913723Y-119425962D01*
X113074038Y-119586277D01*
X113200004Y-119774798D01*
X113286768Y-119984266D01*
X113331000Y-120206635D01*
X113331000Y-120433365D01*
X113286768Y-120655734D01*
X113200004Y-120865202D01*
X113074038Y-121053723D01*
X112913723Y-121214038D01*
X112725202Y-121340004D01*
X112515734Y-121426768D01*
X112293365Y-121471000D01*
X112066635Y-121471000D01*
X111844266Y-121426768D01*
X111634798Y-121340004D01*
X111446277Y-121214038D01*
X111285962Y-121053723D01*
X111159996Y-120865202D01*
X111073232Y-120655734D01*
X111029000Y-120433365D01*
X111029000Y-120206635D01*
X111073232Y-119984266D01*
X111159996Y-119774798D01*
X111285962Y-119586277D01*
X111446277Y-119425962D01*
X111634798Y-119299996D01*
X111844266Y-119213232D01*
X112066635Y-119169000D01*
X112293365Y-119169000D01*
X112515734Y-119213232D01*
X112515734Y-119213232D01*
G37*
G36*
X115679591Y-118553085D02*
X115713569Y-118563393D01*
X115744887Y-118580133D01*
X115772339Y-118602661D01*
X115794867Y-118630113D01*
X115811607Y-118661431D01*
X115821915Y-118695409D01*
X115826000Y-118736890D01*
X115826000Y-119338110D01*
X115821915Y-119379591D01*
X115811607Y-119413569D01*
X115794867Y-119444887D01*
X115772339Y-119472339D01*
X115744887Y-119494867D01*
X115713569Y-119511607D01*
X115679591Y-119521915D01*
X115638110Y-119526000D01*
X114961890Y-119526000D01*
X114920409Y-119521915D01*
X114886431Y-119511607D01*
X114855113Y-119494867D01*
X114827661Y-119472339D01*
X114805133Y-119444887D01*
X114788393Y-119413569D01*
X114778085Y-119379591D01*
X114774000Y-119338110D01*
X114774000Y-118736890D01*
X114778085Y-118695409D01*
X114788393Y-118661431D01*
X114805133Y-118630113D01*
X114827661Y-118602661D01*
X114855113Y-118580133D01*
X114886431Y-118563393D01*
X114920409Y-118553085D01*
X114961890Y-118549000D01*
X115638110Y-118549000D01*
X115679591Y-118553085D01*
X115679591Y-118553085D01*
G37*
G36*
X127410442Y-116915518D02*
X127476627Y-116922037D01*
X127589853Y-116956384D01*
X127646467Y-116973557D01*
X127747687Y-117027661D01*
X127802991Y-117057222D01*
X127833855Y-117082552D01*
X127940186Y-117169814D01*
X128023448Y-117271271D01*
X128052778Y-117307009D01*
X128052779Y-117307011D01*
X128136443Y-117463533D01*
X128136443Y-117463534D01*
X128187963Y-117633373D01*
X128205359Y-117810000D01*
X128187963Y-117986627D01*
X128153616Y-118099853D01*
X128136443Y-118156467D01*
X128062348Y-118295087D01*
X128052778Y-118312991D01*
X128023448Y-118348729D01*
X127940186Y-118450186D01*
X127839546Y-118532778D01*
X127802991Y-118562778D01*
X127802989Y-118562779D01*
X127646467Y-118646443D01*
X127597057Y-118661431D01*
X127476627Y-118697963D01*
X127410443Y-118704481D01*
X127344260Y-118711000D01*
X127255740Y-118711000D01*
X127189557Y-118704481D01*
X127123373Y-118697963D01*
X127002943Y-118661431D01*
X126953533Y-118646443D01*
X126797011Y-118562779D01*
X126797009Y-118562778D01*
X126760454Y-118532778D01*
X126659814Y-118450186D01*
X126576552Y-118348729D01*
X126547222Y-118312991D01*
X126537652Y-118295087D01*
X126463557Y-118156467D01*
X126446384Y-118099853D01*
X126412037Y-117986627D01*
X126394641Y-117810000D01*
X126412037Y-117633373D01*
X126463557Y-117463534D01*
X126463557Y-117463533D01*
X126547221Y-117307011D01*
X126547222Y-117307009D01*
X126576552Y-117271271D01*
X126659814Y-117169814D01*
X126766145Y-117082552D01*
X126797009Y-117057222D01*
X126852313Y-117027661D01*
X126953533Y-116973557D01*
X127010147Y-116956384D01*
X127123373Y-116922037D01*
X127189558Y-116915518D01*
X127255740Y-116909000D01*
X127344260Y-116909000D01*
X127410442Y-116915518D01*
X127410442Y-116915518D01*
G37*
G36*
X112290442Y-116885518D02*
X112356627Y-116892037D01*
X112455524Y-116922037D01*
X112526467Y-116943557D01*
X112641666Y-117005133D01*
X112682991Y-117027222D01*
X112705310Y-117045539D01*
X112820186Y-117139814D01*
X112903448Y-117241271D01*
X112932778Y-117277009D01*
X112932779Y-117277011D01*
X113016443Y-117433533D01*
X113033616Y-117490147D01*
X113067963Y-117603373D01*
X113085359Y-117780000D01*
X113067963Y-117956627D01*
X113033616Y-118069853D01*
X113016443Y-118126467D01*
X113000408Y-118156466D01*
X112932778Y-118282991D01*
X112917998Y-118301000D01*
X112820186Y-118420186D01*
X112718729Y-118503448D01*
X112682991Y-118532778D01*
X112682989Y-118532779D01*
X112526467Y-118616443D01*
X112481402Y-118630113D01*
X112356627Y-118667963D01*
X112290442Y-118674482D01*
X112224260Y-118681000D01*
X112135740Y-118681000D01*
X112069558Y-118674482D01*
X112003373Y-118667963D01*
X111878598Y-118630113D01*
X111833533Y-118616443D01*
X111677011Y-118532779D01*
X111677009Y-118532778D01*
X111641271Y-118503448D01*
X111539814Y-118420186D01*
X111442002Y-118301000D01*
X111427222Y-118282991D01*
X111359592Y-118156466D01*
X111343557Y-118126467D01*
X111326384Y-118069853D01*
X111292037Y-117956627D01*
X111274641Y-117780000D01*
X111292037Y-117603373D01*
X111326384Y-117490147D01*
X111343557Y-117433533D01*
X111427221Y-117277011D01*
X111427222Y-117277009D01*
X111456552Y-117241271D01*
X111539814Y-117139814D01*
X111654690Y-117045539D01*
X111677009Y-117027222D01*
X111718334Y-117005133D01*
X111833533Y-116943557D01*
X111904476Y-116922037D01*
X112003373Y-116892037D01*
X112069558Y-116885518D01*
X112135740Y-116879000D01*
X112224260Y-116879000D01*
X112290442Y-116885518D01*
X112290442Y-116885518D01*
G37*
G36*
X107730442Y-116885518D02*
X107796627Y-116892037D01*
X107895524Y-116922037D01*
X107966467Y-116943557D01*
X108081666Y-117005133D01*
X108122991Y-117027222D01*
X108145310Y-117045539D01*
X108260186Y-117139814D01*
X108343448Y-117241271D01*
X108372778Y-117277009D01*
X108372779Y-117277011D01*
X108456443Y-117433533D01*
X108473616Y-117490147D01*
X108507963Y-117603373D01*
X108525359Y-117780000D01*
X108507963Y-117956627D01*
X108473616Y-118069853D01*
X108456443Y-118126467D01*
X108440408Y-118156466D01*
X108372778Y-118282991D01*
X108357998Y-118301000D01*
X108260186Y-118420186D01*
X108158729Y-118503448D01*
X108122991Y-118532778D01*
X108122989Y-118532779D01*
X107966467Y-118616443D01*
X107921402Y-118630113D01*
X107796627Y-118667963D01*
X107730442Y-118674482D01*
X107664260Y-118681000D01*
X107575740Y-118681000D01*
X107509558Y-118674482D01*
X107443373Y-118667963D01*
X107318598Y-118630113D01*
X107273533Y-118616443D01*
X107117011Y-118532779D01*
X107117009Y-118532778D01*
X107081271Y-118503448D01*
X106979814Y-118420186D01*
X106882002Y-118301000D01*
X106867222Y-118282991D01*
X106799592Y-118156466D01*
X106783557Y-118126467D01*
X106766384Y-118069853D01*
X106732037Y-117956627D01*
X106714641Y-117780000D01*
X106732037Y-117603373D01*
X106766384Y-117490147D01*
X106783557Y-117433533D01*
X106867221Y-117277011D01*
X106867222Y-117277009D01*
X106896552Y-117241271D01*
X106979814Y-117139814D01*
X107094690Y-117045539D01*
X107117009Y-117027222D01*
X107158334Y-117005133D01*
X107273533Y-116943557D01*
X107344476Y-116922037D01*
X107443373Y-116892037D01*
X107509558Y-116885518D01*
X107575740Y-116879000D01*
X107664260Y-116879000D01*
X107730442Y-116885518D01*
X107730442Y-116885518D01*
G37*
G36*
X92490442Y-116885518D02*
X92556627Y-116892037D01*
X92655524Y-116922037D01*
X92726467Y-116943557D01*
X92841666Y-117005133D01*
X92882991Y-117027222D01*
X92905310Y-117045539D01*
X93020186Y-117139814D01*
X93103448Y-117241271D01*
X93132778Y-117277009D01*
X93132779Y-117277011D01*
X93216443Y-117433533D01*
X93233616Y-117490147D01*
X93267963Y-117603373D01*
X93285359Y-117780000D01*
X93267963Y-117956627D01*
X93233616Y-118069853D01*
X93216443Y-118126467D01*
X93200408Y-118156466D01*
X93132778Y-118282991D01*
X93117998Y-118301000D01*
X93020186Y-118420186D01*
X92918729Y-118503448D01*
X92882991Y-118532778D01*
X92882989Y-118532779D01*
X92726467Y-118616443D01*
X92681402Y-118630113D01*
X92556627Y-118667963D01*
X92490442Y-118674482D01*
X92424260Y-118681000D01*
X92335740Y-118681000D01*
X92269558Y-118674482D01*
X92203373Y-118667963D01*
X92078598Y-118630113D01*
X92033533Y-118616443D01*
X91877011Y-118532779D01*
X91877009Y-118532778D01*
X91841271Y-118503448D01*
X91739814Y-118420186D01*
X91642002Y-118301000D01*
X91627222Y-118282991D01*
X91559592Y-118156466D01*
X91543557Y-118126467D01*
X91526384Y-118069853D01*
X91492037Y-117956627D01*
X91474641Y-117780000D01*
X91492037Y-117603373D01*
X91526384Y-117490147D01*
X91543557Y-117433533D01*
X91627221Y-117277011D01*
X91627222Y-117277009D01*
X91656552Y-117241271D01*
X91739814Y-117139814D01*
X91854690Y-117045539D01*
X91877009Y-117027222D01*
X91918334Y-117005133D01*
X92033533Y-116943557D01*
X92104476Y-116922037D01*
X92203373Y-116892037D01*
X92269558Y-116885518D01*
X92335740Y-116879000D01*
X92424260Y-116879000D01*
X92490442Y-116885518D01*
X92490442Y-116885518D01*
G37*
G36*
X123051000Y-118301000D02*
X121449000Y-118301000D01*
X121449000Y-117199000D01*
X123051000Y-117199000D01*
X123051000Y-118301000D01*
X123051000Y-118301000D01*
G37*
G36*
X118151000Y-118301000D02*
X116549000Y-118301000D01*
X116549000Y-117199000D01*
X118151000Y-117199000D01*
X118151000Y-118301000D01*
X118151000Y-118301000D01*
G37*
G36*
X115679591Y-116978085D02*
X115713569Y-116988393D01*
X115744887Y-117005133D01*
X115772339Y-117027661D01*
X115794867Y-117055113D01*
X115811607Y-117086431D01*
X115821915Y-117120409D01*
X115826000Y-117161890D01*
X115826000Y-117763110D01*
X115821915Y-117804591D01*
X115811607Y-117838569D01*
X115794867Y-117869887D01*
X115772339Y-117897339D01*
X115744887Y-117919867D01*
X115713569Y-117936607D01*
X115679591Y-117946915D01*
X115638110Y-117951000D01*
X114961890Y-117951000D01*
X114920409Y-117946915D01*
X114886431Y-117936607D01*
X114855113Y-117919867D01*
X114827661Y-117897339D01*
X114805133Y-117869887D01*
X114788393Y-117838569D01*
X114778085Y-117804591D01*
X114774000Y-117763110D01*
X114774000Y-117161890D01*
X114778085Y-117120409D01*
X114788393Y-117086431D01*
X114805133Y-117055113D01*
X114827661Y-117027661D01*
X114855113Y-117005133D01*
X114886431Y-116988393D01*
X114920409Y-116978085D01*
X114961890Y-116974000D01*
X115638110Y-116974000D01*
X115679591Y-116978085D01*
X115679591Y-116978085D01*
G37*
G36*
X97813000Y-116613000D02*
X96187000Y-116613000D01*
X96187000Y-114987000D01*
X97813000Y-114987000D01*
X97813000Y-116613000D01*
X97813000Y-116613000D01*
G37*
G36*
X103237142Y-115018242D02*
X103385102Y-115079530D01*
X103411819Y-115097382D01*
X103518257Y-115168501D01*
X103631499Y-115281743D01*
X103720471Y-115414900D01*
X103721186Y-115416627D01*
X103781758Y-115562858D01*
X103813000Y-115719925D01*
X103813000Y-115880075D01*
X103781758Y-116037142D01*
X103739804Y-116138426D01*
X103720471Y-116185100D01*
X103639929Y-116305641D01*
X103631498Y-116318258D01*
X103518258Y-116431498D01*
X103385102Y-116520470D01*
X103237142Y-116581758D01*
X103080075Y-116613000D01*
X102919925Y-116613000D01*
X102762858Y-116581758D01*
X102614898Y-116520470D01*
X102481742Y-116431498D01*
X102368502Y-116318258D01*
X102360072Y-116305641D01*
X102279529Y-116185100D01*
X102260196Y-116138426D01*
X102218242Y-116037142D01*
X102187000Y-115880075D01*
X102187000Y-115719925D01*
X102218242Y-115562858D01*
X102278814Y-115416627D01*
X102279529Y-115414900D01*
X102368501Y-115281743D01*
X102481743Y-115168501D01*
X102588181Y-115097382D01*
X102614898Y-115079530D01*
X102762858Y-115018242D01*
X102919925Y-114987000D01*
X103080075Y-114987000D01*
X103237142Y-115018242D01*
X103237142Y-115018242D01*
G37*
G36*
X101237142Y-115018242D02*
X101385102Y-115079530D01*
X101411819Y-115097382D01*
X101518257Y-115168501D01*
X101631499Y-115281743D01*
X101720471Y-115414900D01*
X101721186Y-115416627D01*
X101781758Y-115562858D01*
X101813000Y-115719925D01*
X101813000Y-115880075D01*
X101781758Y-116037142D01*
X101739804Y-116138426D01*
X101720471Y-116185100D01*
X101639929Y-116305641D01*
X101631498Y-116318258D01*
X101518258Y-116431498D01*
X101385102Y-116520470D01*
X101237142Y-116581758D01*
X101080075Y-116613000D01*
X100919925Y-116613000D01*
X100762858Y-116581758D01*
X100614898Y-116520470D01*
X100481742Y-116431498D01*
X100368502Y-116318258D01*
X100360072Y-116305641D01*
X100279529Y-116185100D01*
X100260196Y-116138426D01*
X100218242Y-116037142D01*
X100187000Y-115880075D01*
X100187000Y-115719925D01*
X100218242Y-115562858D01*
X100278814Y-115416627D01*
X100279529Y-115414900D01*
X100368501Y-115281743D01*
X100481743Y-115168501D01*
X100588181Y-115097382D01*
X100614898Y-115079530D01*
X100762858Y-115018242D01*
X100919925Y-114987000D01*
X101080075Y-114987000D01*
X101237142Y-115018242D01*
X101237142Y-115018242D01*
G37*
G36*
X99237142Y-115018242D02*
X99385102Y-115079530D01*
X99411819Y-115097382D01*
X99518257Y-115168501D01*
X99631499Y-115281743D01*
X99720471Y-115414900D01*
X99721186Y-115416627D01*
X99781758Y-115562858D01*
X99813000Y-115719925D01*
X99813000Y-115880075D01*
X99781758Y-116037142D01*
X99739804Y-116138426D01*
X99720471Y-116185100D01*
X99639929Y-116305641D01*
X99631498Y-116318258D01*
X99518258Y-116431498D01*
X99385102Y-116520470D01*
X99237142Y-116581758D01*
X99080075Y-116613000D01*
X98919925Y-116613000D01*
X98762858Y-116581758D01*
X98614898Y-116520470D01*
X98481742Y-116431498D01*
X98368502Y-116318258D01*
X98360072Y-116305641D01*
X98279529Y-116185100D01*
X98260196Y-116138426D01*
X98218242Y-116037142D01*
X98187000Y-115880075D01*
X98187000Y-115719925D01*
X98218242Y-115562858D01*
X98278814Y-115416627D01*
X98279529Y-115414900D01*
X98368501Y-115281743D01*
X98481743Y-115168501D01*
X98588181Y-115097382D01*
X98614898Y-115079530D01*
X98762858Y-115018242D01*
X98919925Y-114987000D01*
X99080075Y-114987000D01*
X99237142Y-115018242D01*
X99237142Y-115018242D01*
G37*
G36*
X118977618Y-114583420D02*
X119058130Y-114607843D01*
X119100333Y-114620645D01*
X119161463Y-114653320D01*
X119213426Y-114681095D01*
X119312553Y-114762447D01*
X119393905Y-114861574D01*
X119393906Y-114861576D01*
X119454355Y-114974667D01*
X119454355Y-114974668D01*
X119491580Y-115097382D01*
X119501000Y-115193027D01*
X119501000Y-115806973D01*
X119491580Y-115902618D01*
X119489284Y-115910186D01*
X119454355Y-116025333D01*
X119448042Y-116037143D01*
X119393905Y-116138426D01*
X119312553Y-116237553D01*
X119213425Y-116318905D01*
X119161462Y-116346680D01*
X119100332Y-116379355D01*
X119059426Y-116391763D01*
X118977617Y-116416580D01*
X118850000Y-116429149D01*
X118722382Y-116416580D01*
X118640573Y-116391763D01*
X118599667Y-116379355D01*
X118486576Y-116318906D01*
X118486574Y-116318905D01*
X118387447Y-116237553D01*
X118306095Y-116138425D01*
X118272965Y-116076443D01*
X118245645Y-116025332D01*
X118233237Y-115984426D01*
X118208420Y-115902617D01*
X118199000Y-115806972D01*
X118199000Y-115193027D01*
X118208420Y-115097382D01*
X118245645Y-114974668D01*
X118245645Y-114974667D01*
X118272977Y-114923533D01*
X118306095Y-114861574D01*
X118387448Y-114762447D01*
X118486575Y-114681095D01*
X118538538Y-114653320D01*
X118599668Y-114620645D01*
X118641871Y-114607843D01*
X118722383Y-114583420D01*
X118850000Y-114570851D01*
X118977618Y-114583420D01*
X118977618Y-114583420D01*
G37*
G36*
X121291656Y-114578394D02*
X121328653Y-114589617D01*
X121362752Y-114607843D01*
X121392633Y-114632367D01*
X121417157Y-114662248D01*
X121435383Y-114696347D01*
X121446606Y-114733344D01*
X121451000Y-114777957D01*
X121451000Y-116222043D01*
X121446606Y-116266656D01*
X121435383Y-116303653D01*
X121417157Y-116337752D01*
X121392633Y-116367633D01*
X121362752Y-116392157D01*
X121328653Y-116410383D01*
X121291656Y-116421606D01*
X121247043Y-116426000D01*
X120352957Y-116426000D01*
X120308344Y-116421606D01*
X120271347Y-116410383D01*
X120237248Y-116392157D01*
X120207367Y-116367633D01*
X120182843Y-116337752D01*
X120164617Y-116303653D01*
X120153394Y-116266656D01*
X120149000Y-116222043D01*
X120149000Y-114777957D01*
X120153394Y-114733344D01*
X120164617Y-114696347D01*
X120182843Y-114662248D01*
X120207367Y-114632367D01*
X120237248Y-114607843D01*
X120271347Y-114589617D01*
X120308344Y-114578394D01*
X120352957Y-114574000D01*
X121247043Y-114574000D01*
X121291656Y-114578394D01*
X121291656Y-114578394D01*
G37*
G36*
X127410442Y-114375518D02*
X127476627Y-114382037D01*
X127589853Y-114416384D01*
X127646467Y-114433557D01*
X127785087Y-114507652D01*
X127802991Y-114517222D01*
X127838729Y-114546552D01*
X127940186Y-114629814D01*
X127994787Y-114696347D01*
X128052778Y-114767009D01*
X128052779Y-114767011D01*
X128136443Y-114923533D01*
X128136443Y-114923534D01*
X128187963Y-115093373D01*
X128205359Y-115270000D01*
X128187963Y-115446627D01*
X128153616Y-115559853D01*
X128136443Y-115616467D01*
X128062348Y-115755087D01*
X128052778Y-115772991D01*
X128024890Y-115806972D01*
X127940186Y-115910186D01*
X127839546Y-115992778D01*
X127802991Y-116022778D01*
X127802989Y-116022779D01*
X127646467Y-116106443D01*
X127589853Y-116123616D01*
X127476627Y-116157963D01*
X127410442Y-116164482D01*
X127344260Y-116171000D01*
X127255740Y-116171000D01*
X127189558Y-116164482D01*
X127123373Y-116157963D01*
X127010147Y-116123616D01*
X126953533Y-116106443D01*
X126797011Y-116022779D01*
X126797009Y-116022778D01*
X126760454Y-115992778D01*
X126659814Y-115910186D01*
X126575110Y-115806972D01*
X126547222Y-115772991D01*
X126537652Y-115755087D01*
X126463557Y-115616467D01*
X126446384Y-115559853D01*
X126412037Y-115446627D01*
X126394641Y-115270000D01*
X126412037Y-115093373D01*
X126463557Y-114923534D01*
X126463557Y-114923533D01*
X126547221Y-114767011D01*
X126547222Y-114767009D01*
X126605213Y-114696347D01*
X126659814Y-114629814D01*
X126761271Y-114546552D01*
X126797009Y-114517222D01*
X126814913Y-114507652D01*
X126953533Y-114433557D01*
X127010147Y-114416384D01*
X127123373Y-114382037D01*
X127189558Y-114375518D01*
X127255740Y-114369000D01*
X127344260Y-114369000D01*
X127410442Y-114375518D01*
X127410442Y-114375518D01*
G37*
G36*
X107730443Y-114345519D02*
X107796627Y-114352037D01*
X107895524Y-114382037D01*
X107966467Y-114403557D01*
X108022592Y-114433557D01*
X108122991Y-114487222D01*
X108158729Y-114516552D01*
X108260186Y-114599814D01*
X108337776Y-114694359D01*
X108372778Y-114737009D01*
X108372779Y-114737011D01*
X108456443Y-114893533D01*
X108473616Y-114950147D01*
X108507963Y-115063373D01*
X108525359Y-115240000D01*
X108507963Y-115416627D01*
X108473616Y-115529853D01*
X108456443Y-115586467D01*
X108440408Y-115616466D01*
X108372778Y-115742991D01*
X108348159Y-115772989D01*
X108260186Y-115880186D01*
X108158729Y-115963448D01*
X108122991Y-115992778D01*
X108122989Y-115992779D01*
X107966467Y-116076443D01*
X107909853Y-116093616D01*
X107796627Y-116127963D01*
X107730442Y-116134482D01*
X107664260Y-116141000D01*
X107575740Y-116141000D01*
X107509558Y-116134482D01*
X107443373Y-116127963D01*
X107330147Y-116093616D01*
X107273533Y-116076443D01*
X107117011Y-115992779D01*
X107117009Y-115992778D01*
X107081271Y-115963448D01*
X106979814Y-115880186D01*
X106891841Y-115772989D01*
X106867222Y-115742991D01*
X106799592Y-115616466D01*
X106783557Y-115586467D01*
X106766384Y-115529853D01*
X106732037Y-115416627D01*
X106714641Y-115240000D01*
X106732037Y-115063373D01*
X106766384Y-114950147D01*
X106783557Y-114893533D01*
X106867221Y-114737011D01*
X106867222Y-114737009D01*
X106902224Y-114694359D01*
X106979814Y-114599814D01*
X107081271Y-114516552D01*
X107117009Y-114487222D01*
X107217408Y-114433557D01*
X107273533Y-114403557D01*
X107344476Y-114382037D01*
X107443373Y-114352037D01*
X107509557Y-114345519D01*
X107575740Y-114339000D01*
X107664260Y-114339000D01*
X107730443Y-114345519D01*
X107730443Y-114345519D01*
G37*
G36*
X92490443Y-114345519D02*
X92556627Y-114352037D01*
X92655524Y-114382037D01*
X92726467Y-114403557D01*
X92782592Y-114433557D01*
X92882991Y-114487222D01*
X92918729Y-114516552D01*
X93020186Y-114599814D01*
X93097776Y-114694359D01*
X93132778Y-114737009D01*
X93132779Y-114737011D01*
X93216443Y-114893533D01*
X93233616Y-114950147D01*
X93267963Y-115063373D01*
X93285359Y-115240000D01*
X93267963Y-115416627D01*
X93233616Y-115529853D01*
X93216443Y-115586467D01*
X93200408Y-115616466D01*
X93132778Y-115742991D01*
X93108159Y-115772989D01*
X93020186Y-115880186D01*
X92918729Y-115963448D01*
X92882991Y-115992778D01*
X92882989Y-115992779D01*
X92726467Y-116076443D01*
X92669853Y-116093616D01*
X92556627Y-116127963D01*
X92490442Y-116134482D01*
X92424260Y-116141000D01*
X92335740Y-116141000D01*
X92269558Y-116134482D01*
X92203373Y-116127963D01*
X92090147Y-116093616D01*
X92033533Y-116076443D01*
X91877011Y-115992779D01*
X91877009Y-115992778D01*
X91841271Y-115963448D01*
X91739814Y-115880186D01*
X91651841Y-115772989D01*
X91627222Y-115742991D01*
X91559592Y-115616466D01*
X91543557Y-115586467D01*
X91526384Y-115529853D01*
X91492037Y-115416627D01*
X91474641Y-115240000D01*
X91492037Y-115063373D01*
X91526384Y-114950147D01*
X91543557Y-114893533D01*
X91627221Y-114737011D01*
X91627222Y-114737009D01*
X91662224Y-114694359D01*
X91739814Y-114599814D01*
X91841271Y-114516552D01*
X91877009Y-114487222D01*
X91977408Y-114433557D01*
X92033533Y-114403557D01*
X92104476Y-114382037D01*
X92203373Y-114352037D01*
X92269557Y-114345519D01*
X92335740Y-114339000D01*
X92424260Y-114339000D01*
X92490443Y-114345519D01*
X92490443Y-114345519D01*
G37*
G36*
X112290443Y-114345519D02*
X112356627Y-114352037D01*
X112455524Y-114382037D01*
X112526467Y-114403557D01*
X112582592Y-114433557D01*
X112682991Y-114487222D01*
X112718729Y-114516552D01*
X112820186Y-114599814D01*
X112897776Y-114694359D01*
X112932778Y-114737009D01*
X112932779Y-114737011D01*
X113016443Y-114893533D01*
X113033616Y-114950147D01*
X113067963Y-115063373D01*
X113085359Y-115240000D01*
X113067963Y-115416627D01*
X113033616Y-115529853D01*
X113016443Y-115586467D01*
X113000408Y-115616466D01*
X112932778Y-115742991D01*
X112908159Y-115772989D01*
X112820186Y-115880186D01*
X112718729Y-115963448D01*
X112682991Y-115992778D01*
X112682989Y-115992779D01*
X112526467Y-116076443D01*
X112469853Y-116093616D01*
X112356627Y-116127963D01*
X112290442Y-116134482D01*
X112224260Y-116141000D01*
X112135740Y-116141000D01*
X112069558Y-116134482D01*
X112003373Y-116127963D01*
X111890147Y-116093616D01*
X111833533Y-116076443D01*
X111677011Y-115992779D01*
X111677009Y-115992778D01*
X111641271Y-115963448D01*
X111539814Y-115880186D01*
X111451841Y-115772989D01*
X111427222Y-115742991D01*
X111359592Y-115616466D01*
X111343557Y-115586467D01*
X111326384Y-115529853D01*
X111292037Y-115416627D01*
X111274641Y-115240000D01*
X111292037Y-115063373D01*
X111326384Y-114950147D01*
X111343557Y-114893533D01*
X111427221Y-114737011D01*
X111427222Y-114737009D01*
X111462224Y-114694359D01*
X111539814Y-114599814D01*
X111641271Y-114516552D01*
X111677009Y-114487222D01*
X111777408Y-114433557D01*
X111833533Y-114403557D01*
X111904476Y-114382037D01*
X112003373Y-114352037D01*
X112069557Y-114345519D01*
X112135740Y-114339000D01*
X112224260Y-114339000D01*
X112290443Y-114345519D01*
X112290443Y-114345519D01*
G37*
G36*
X127410442Y-111835518D02*
X127476627Y-111842037D01*
X127589853Y-111876384D01*
X127646467Y-111893557D01*
X127785087Y-111967652D01*
X127802991Y-111977222D01*
X127838729Y-112006552D01*
X127940186Y-112089814D01*
X128023448Y-112191271D01*
X128052778Y-112227009D01*
X128052779Y-112227011D01*
X128136443Y-112383533D01*
X128136443Y-112383534D01*
X128187963Y-112553373D01*
X128205359Y-112730000D01*
X128187963Y-112906627D01*
X128153616Y-113019853D01*
X128136443Y-113076467D01*
X128062348Y-113215087D01*
X128052778Y-113232991D01*
X128023448Y-113268729D01*
X127940186Y-113370186D01*
X127839546Y-113452778D01*
X127802991Y-113482778D01*
X127802989Y-113482779D01*
X127646467Y-113566443D01*
X127589853Y-113583616D01*
X127476627Y-113617963D01*
X127410442Y-113624482D01*
X127344260Y-113631000D01*
X127255740Y-113631000D01*
X127189558Y-113624482D01*
X127123373Y-113617963D01*
X127010147Y-113583616D01*
X126953533Y-113566443D01*
X126797011Y-113482779D01*
X126797009Y-113482778D01*
X126760454Y-113452778D01*
X126659814Y-113370186D01*
X126576552Y-113268729D01*
X126547222Y-113232991D01*
X126537652Y-113215087D01*
X126463557Y-113076467D01*
X126446384Y-113019853D01*
X126412037Y-112906627D01*
X126394641Y-112730000D01*
X126412037Y-112553373D01*
X126463557Y-112383534D01*
X126463557Y-112383533D01*
X126547221Y-112227011D01*
X126547222Y-112227009D01*
X126576552Y-112191271D01*
X126659814Y-112089814D01*
X126761271Y-112006552D01*
X126797009Y-111977222D01*
X126814913Y-111967652D01*
X126953533Y-111893557D01*
X127010147Y-111876384D01*
X127123373Y-111842037D01*
X127189558Y-111835518D01*
X127255740Y-111829000D01*
X127344260Y-111829000D01*
X127410442Y-111835518D01*
X127410442Y-111835518D01*
G37*
G36*
X107730442Y-111805518D02*
X107796627Y-111812037D01*
X107895524Y-111842037D01*
X107966467Y-111863557D01*
X108022592Y-111893557D01*
X108122991Y-111947222D01*
X108158729Y-111976552D01*
X108260186Y-112059814D01*
X108343448Y-112161271D01*
X108372778Y-112197009D01*
X108372779Y-112197011D01*
X108456443Y-112353533D01*
X108473616Y-112410147D01*
X108507963Y-112523373D01*
X108525359Y-112700000D01*
X108507963Y-112876627D01*
X108473616Y-112989853D01*
X108456443Y-113046467D01*
X108440408Y-113076466D01*
X108372778Y-113202991D01*
X108348159Y-113232989D01*
X108260186Y-113340186D01*
X108158729Y-113423448D01*
X108122991Y-113452778D01*
X108122989Y-113452779D01*
X107966467Y-113536443D01*
X107909853Y-113553616D01*
X107796627Y-113587963D01*
X107730443Y-113594481D01*
X107664260Y-113601000D01*
X107575740Y-113601000D01*
X107509557Y-113594481D01*
X107443373Y-113587963D01*
X107330147Y-113553616D01*
X107273533Y-113536443D01*
X107117011Y-113452779D01*
X107117009Y-113452778D01*
X107081271Y-113423448D01*
X106979814Y-113340186D01*
X106891841Y-113232989D01*
X106867222Y-113202991D01*
X106799592Y-113076466D01*
X106783557Y-113046467D01*
X106766384Y-112989853D01*
X106732037Y-112876627D01*
X106714641Y-112700000D01*
X106732037Y-112523373D01*
X106766384Y-112410147D01*
X106783557Y-112353533D01*
X106867221Y-112197011D01*
X106867222Y-112197009D01*
X106896552Y-112161271D01*
X106979814Y-112059814D01*
X107081271Y-111976552D01*
X107117009Y-111947222D01*
X107217408Y-111893557D01*
X107273533Y-111863557D01*
X107344476Y-111842037D01*
X107443373Y-111812037D01*
X107509558Y-111805518D01*
X107575740Y-111799000D01*
X107664260Y-111799000D01*
X107730442Y-111805518D01*
X107730442Y-111805518D01*
G37*
G36*
X92490442Y-111805518D02*
X92556627Y-111812037D01*
X92655524Y-111842037D01*
X92726467Y-111863557D01*
X92782592Y-111893557D01*
X92882991Y-111947222D01*
X92918729Y-111976552D01*
X93020186Y-112059814D01*
X93103448Y-112161271D01*
X93132778Y-112197009D01*
X93132779Y-112197011D01*
X93216443Y-112353533D01*
X93233616Y-112410147D01*
X93267963Y-112523373D01*
X93285359Y-112700000D01*
X93267963Y-112876627D01*
X93233616Y-112989853D01*
X93216443Y-113046467D01*
X93200408Y-113076466D01*
X93132778Y-113202991D01*
X93108159Y-113232989D01*
X93020186Y-113340186D01*
X92918729Y-113423448D01*
X92882991Y-113452778D01*
X92882989Y-113452779D01*
X92726467Y-113536443D01*
X92669853Y-113553616D01*
X92556627Y-113587963D01*
X92490443Y-113594481D01*
X92424260Y-113601000D01*
X92335740Y-113601000D01*
X92269557Y-113594481D01*
X92203373Y-113587963D01*
X92090147Y-113553616D01*
X92033533Y-113536443D01*
X91877011Y-113452779D01*
X91877009Y-113452778D01*
X91841271Y-113423448D01*
X91739814Y-113340186D01*
X91651841Y-113232989D01*
X91627222Y-113202991D01*
X91559592Y-113076466D01*
X91543557Y-113046467D01*
X91526384Y-112989853D01*
X91492037Y-112876627D01*
X91474641Y-112700000D01*
X91492037Y-112523373D01*
X91526384Y-112410147D01*
X91543557Y-112353533D01*
X91627221Y-112197011D01*
X91627222Y-112197009D01*
X91656552Y-112161271D01*
X91739814Y-112059814D01*
X91841271Y-111976552D01*
X91877009Y-111947222D01*
X91977408Y-111893557D01*
X92033533Y-111863557D01*
X92104476Y-111842037D01*
X92203373Y-111812037D01*
X92269558Y-111805518D01*
X92335740Y-111799000D01*
X92424260Y-111799000D01*
X92490442Y-111805518D01*
X92490442Y-111805518D01*
G37*
G36*
X112290442Y-111805518D02*
X112356627Y-111812037D01*
X112455524Y-111842037D01*
X112526467Y-111863557D01*
X112582592Y-111893557D01*
X112682991Y-111947222D01*
X112718729Y-111976552D01*
X112820186Y-112059814D01*
X112903448Y-112161271D01*
X112932778Y-112197009D01*
X112932779Y-112197011D01*
X113016443Y-112353533D01*
X113033616Y-112410147D01*
X113067963Y-112523373D01*
X113085359Y-112700000D01*
X113067963Y-112876627D01*
X113033616Y-112989853D01*
X113016443Y-113046467D01*
X113000408Y-113076466D01*
X112932778Y-113202991D01*
X112908159Y-113232989D01*
X112820186Y-113340186D01*
X112718729Y-113423448D01*
X112682991Y-113452778D01*
X112682989Y-113452779D01*
X112526467Y-113536443D01*
X112469853Y-113553616D01*
X112356627Y-113587963D01*
X112290443Y-113594481D01*
X112224260Y-113601000D01*
X112135740Y-113601000D01*
X112069557Y-113594481D01*
X112003373Y-113587963D01*
X111890147Y-113553616D01*
X111833533Y-113536443D01*
X111677011Y-113452779D01*
X111677009Y-113452778D01*
X111641271Y-113423448D01*
X111539814Y-113340186D01*
X111451841Y-113232989D01*
X111427222Y-113202991D01*
X111359592Y-113076466D01*
X111343557Y-113046467D01*
X111326384Y-112989853D01*
X111292037Y-112876627D01*
X111274641Y-112700000D01*
X111292037Y-112523373D01*
X111326384Y-112410147D01*
X111343557Y-112353533D01*
X111427221Y-112197011D01*
X111427222Y-112197009D01*
X111456552Y-112161271D01*
X111539814Y-112059814D01*
X111641271Y-111976552D01*
X111677009Y-111947222D01*
X111777408Y-111893557D01*
X111833533Y-111863557D01*
X111904476Y-111842037D01*
X112003373Y-111812037D01*
X112069558Y-111805518D01*
X112135740Y-111799000D01*
X112224260Y-111799000D01*
X112290442Y-111805518D01*
X112290442Y-111805518D01*
G37*
G36*
X127410443Y-109295519D02*
X127476627Y-109302037D01*
X127589853Y-109336384D01*
X127646467Y-109353557D01*
X127785087Y-109427652D01*
X127802991Y-109437222D01*
X127838729Y-109466552D01*
X127940186Y-109549814D01*
X128023448Y-109651271D01*
X128052778Y-109687009D01*
X128052779Y-109687011D01*
X128136443Y-109843533D01*
X128136443Y-109843534D01*
X128187963Y-110013373D01*
X128205359Y-110190000D01*
X128187963Y-110366627D01*
X128153616Y-110479853D01*
X128136443Y-110536467D01*
X128062348Y-110675087D01*
X128052778Y-110692991D01*
X128023448Y-110728729D01*
X127940186Y-110830186D01*
X127839546Y-110912778D01*
X127802991Y-110942778D01*
X127802989Y-110942779D01*
X127646467Y-111026443D01*
X127589853Y-111043616D01*
X127476627Y-111077963D01*
X127410443Y-111084481D01*
X127344260Y-111091000D01*
X127255740Y-111091000D01*
X127189557Y-111084481D01*
X127123373Y-111077963D01*
X127010147Y-111043616D01*
X126953533Y-111026443D01*
X126797011Y-110942779D01*
X126797009Y-110942778D01*
X126760454Y-110912778D01*
X126659814Y-110830186D01*
X126576552Y-110728729D01*
X126547222Y-110692991D01*
X126537652Y-110675087D01*
X126463557Y-110536467D01*
X126446384Y-110479853D01*
X126412037Y-110366627D01*
X126394641Y-110190000D01*
X126412037Y-110013373D01*
X126463557Y-109843534D01*
X126463557Y-109843533D01*
X126547221Y-109687011D01*
X126547222Y-109687009D01*
X126576552Y-109651271D01*
X126659814Y-109549814D01*
X126761271Y-109466552D01*
X126797009Y-109437222D01*
X126814913Y-109427652D01*
X126953533Y-109353557D01*
X127010147Y-109336384D01*
X127123373Y-109302037D01*
X127189557Y-109295519D01*
X127255740Y-109289000D01*
X127344260Y-109289000D01*
X127410443Y-109295519D01*
X127410443Y-109295519D01*
G37*
G36*
X92490442Y-109265518D02*
X92556627Y-109272037D01*
X92655524Y-109302037D01*
X92726467Y-109323557D01*
X92782592Y-109353557D01*
X92882991Y-109407222D01*
X92918729Y-109436552D01*
X93020186Y-109519814D01*
X93103448Y-109621271D01*
X93132778Y-109657009D01*
X93132779Y-109657011D01*
X93216443Y-109813533D01*
X93233616Y-109870147D01*
X93267963Y-109983373D01*
X93285359Y-110160000D01*
X93267963Y-110336627D01*
X93233616Y-110449853D01*
X93216443Y-110506467D01*
X93200408Y-110536466D01*
X93132778Y-110662991D01*
X93108159Y-110692989D01*
X93020186Y-110800186D01*
X92918729Y-110883448D01*
X92882991Y-110912778D01*
X92882989Y-110912779D01*
X92726467Y-110996443D01*
X92669853Y-111013616D01*
X92556627Y-111047963D01*
X92490442Y-111054482D01*
X92424260Y-111061000D01*
X92335740Y-111061000D01*
X92269558Y-111054482D01*
X92203373Y-111047963D01*
X92090147Y-111013616D01*
X92033533Y-110996443D01*
X91877011Y-110912779D01*
X91877009Y-110912778D01*
X91841271Y-110883448D01*
X91739814Y-110800186D01*
X91651841Y-110692989D01*
X91627222Y-110662991D01*
X91559592Y-110536466D01*
X91543557Y-110506467D01*
X91526384Y-110449853D01*
X91492037Y-110336627D01*
X91474641Y-110160000D01*
X91492037Y-109983373D01*
X91526384Y-109870147D01*
X91543557Y-109813533D01*
X91627221Y-109657011D01*
X91627222Y-109657009D01*
X91656552Y-109621271D01*
X91739814Y-109519814D01*
X91841271Y-109436552D01*
X91877009Y-109407222D01*
X91977408Y-109353557D01*
X92033533Y-109323557D01*
X92104476Y-109302037D01*
X92203373Y-109272037D01*
X92269558Y-109265518D01*
X92335740Y-109259000D01*
X92424260Y-109259000D01*
X92490442Y-109265518D01*
X92490442Y-109265518D01*
G37*
G36*
X107730442Y-109265518D02*
X107796627Y-109272037D01*
X107895524Y-109302037D01*
X107966467Y-109323557D01*
X108022592Y-109353557D01*
X108122991Y-109407222D01*
X108158729Y-109436552D01*
X108260186Y-109519814D01*
X108343448Y-109621271D01*
X108372778Y-109657009D01*
X108372779Y-109657011D01*
X108456443Y-109813533D01*
X108473616Y-109870147D01*
X108507963Y-109983373D01*
X108525359Y-110160000D01*
X108507963Y-110336627D01*
X108473616Y-110449853D01*
X108456443Y-110506467D01*
X108440408Y-110536466D01*
X108372778Y-110662991D01*
X108348159Y-110692989D01*
X108260186Y-110800186D01*
X108158729Y-110883448D01*
X108122991Y-110912778D01*
X108122989Y-110912779D01*
X107966467Y-110996443D01*
X107909853Y-111013616D01*
X107796627Y-111047963D01*
X107730442Y-111054482D01*
X107664260Y-111061000D01*
X107575740Y-111061000D01*
X107509558Y-111054482D01*
X107443373Y-111047963D01*
X107330147Y-111013616D01*
X107273533Y-110996443D01*
X107117011Y-110912779D01*
X107117009Y-110912778D01*
X107081271Y-110883448D01*
X106979814Y-110800186D01*
X106891841Y-110692989D01*
X106867222Y-110662991D01*
X106799592Y-110536466D01*
X106783557Y-110506467D01*
X106766384Y-110449853D01*
X106732037Y-110336627D01*
X106714641Y-110160000D01*
X106732037Y-109983373D01*
X106766384Y-109870147D01*
X106783557Y-109813533D01*
X106867221Y-109657011D01*
X106867222Y-109657009D01*
X106896552Y-109621271D01*
X106979814Y-109519814D01*
X107081271Y-109436552D01*
X107117009Y-109407222D01*
X107217408Y-109353557D01*
X107273533Y-109323557D01*
X107344476Y-109302037D01*
X107443373Y-109272037D01*
X107509558Y-109265518D01*
X107575740Y-109259000D01*
X107664260Y-109259000D01*
X107730442Y-109265518D01*
X107730442Y-109265518D01*
G37*
G36*
X112290442Y-109265518D02*
X112356627Y-109272037D01*
X112455524Y-109302037D01*
X112526467Y-109323557D01*
X112582592Y-109353557D01*
X112682991Y-109407222D01*
X112718729Y-109436552D01*
X112820186Y-109519814D01*
X112903448Y-109621271D01*
X112932778Y-109657009D01*
X112932779Y-109657011D01*
X113016443Y-109813533D01*
X113033616Y-109870147D01*
X113067963Y-109983373D01*
X113085359Y-110160000D01*
X113067963Y-110336627D01*
X113033616Y-110449853D01*
X113016443Y-110506467D01*
X113000408Y-110536466D01*
X112932778Y-110662991D01*
X112908159Y-110692989D01*
X112820186Y-110800186D01*
X112718729Y-110883448D01*
X112682991Y-110912778D01*
X112682989Y-110912779D01*
X112526467Y-110996443D01*
X112469853Y-111013616D01*
X112356627Y-111047963D01*
X112290442Y-111054482D01*
X112224260Y-111061000D01*
X112135740Y-111061000D01*
X112069558Y-111054482D01*
X112003373Y-111047963D01*
X111890147Y-111013616D01*
X111833533Y-110996443D01*
X111677011Y-110912779D01*
X111677009Y-110912778D01*
X111641271Y-110883448D01*
X111539814Y-110800186D01*
X111451841Y-110692989D01*
X111427222Y-110662991D01*
X111359592Y-110536466D01*
X111343557Y-110506467D01*
X111326384Y-110449853D01*
X111292037Y-110336627D01*
X111274641Y-110160000D01*
X111292037Y-109983373D01*
X111326384Y-109870147D01*
X111343557Y-109813533D01*
X111427221Y-109657011D01*
X111427222Y-109657009D01*
X111456552Y-109621271D01*
X111539814Y-109519814D01*
X111641271Y-109436552D01*
X111677009Y-109407222D01*
X111777408Y-109353557D01*
X111833533Y-109323557D01*
X111904476Y-109302037D01*
X112003373Y-109272037D01*
X112069558Y-109265518D01*
X112135740Y-109259000D01*
X112224260Y-109259000D01*
X112290442Y-109265518D01*
X112290442Y-109265518D01*
G37*
G36*
X121037142Y-107018242D02*
X121185102Y-107079530D01*
X121241193Y-107117009D01*
X121318257Y-107168501D01*
X121431499Y-107281743D01*
X121446059Y-107303534D01*
X121520470Y-107414898D01*
X121581758Y-107562858D01*
X121613000Y-107719925D01*
X121613000Y-107880075D01*
X121581758Y-108037142D01*
X121534354Y-108151583D01*
X121520471Y-108185100D01*
X121470301Y-108260186D01*
X121431498Y-108318258D01*
X121318258Y-108431498D01*
X121185102Y-108520470D01*
X121185101Y-108520471D01*
X121185100Y-108520471D01*
X121151583Y-108534354D01*
X121037142Y-108581758D01*
X120880075Y-108613000D01*
X120719925Y-108613000D01*
X120562858Y-108581758D01*
X120448417Y-108534354D01*
X120414900Y-108520471D01*
X120414899Y-108520471D01*
X120414898Y-108520470D01*
X120281742Y-108431498D01*
X120168502Y-108318258D01*
X120129700Y-108260186D01*
X120079529Y-108185100D01*
X120065646Y-108151583D01*
X120018242Y-108037142D01*
X119987000Y-107880075D01*
X119987000Y-107719925D01*
X120018242Y-107562858D01*
X120079530Y-107414898D01*
X120153941Y-107303534D01*
X120168501Y-107281743D01*
X120281743Y-107168501D01*
X120358807Y-107117009D01*
X120414898Y-107079530D01*
X120562858Y-107018242D01*
X120719925Y-106987000D01*
X120880075Y-106987000D01*
X121037142Y-107018242D01*
X121037142Y-107018242D01*
G37*
G36*
X101237142Y-107018242D02*
X101385102Y-107079530D01*
X101441193Y-107117009D01*
X101518257Y-107168501D01*
X101631499Y-107281743D01*
X101646059Y-107303534D01*
X101720470Y-107414898D01*
X101781758Y-107562858D01*
X101813000Y-107719925D01*
X101813000Y-107880075D01*
X101781758Y-108037142D01*
X101734354Y-108151583D01*
X101720471Y-108185100D01*
X101670301Y-108260186D01*
X101631498Y-108318258D01*
X101518258Y-108431498D01*
X101385102Y-108520470D01*
X101385101Y-108520471D01*
X101385100Y-108520471D01*
X101351583Y-108534354D01*
X101237142Y-108581758D01*
X101080075Y-108613000D01*
X100919925Y-108613000D01*
X100762858Y-108581758D01*
X100648417Y-108534354D01*
X100614900Y-108520471D01*
X100614899Y-108520471D01*
X100614898Y-108520470D01*
X100481742Y-108431498D01*
X100368502Y-108318258D01*
X100329700Y-108260186D01*
X100279529Y-108185100D01*
X100265646Y-108151583D01*
X100218242Y-108037142D01*
X100187000Y-107880075D01*
X100187000Y-107719925D01*
X100218242Y-107562858D01*
X100279530Y-107414898D01*
X100353941Y-107303534D01*
X100368501Y-107281743D01*
X100481743Y-107168501D01*
X100558807Y-107117009D01*
X100614898Y-107079530D01*
X100762858Y-107018242D01*
X100919925Y-106987000D01*
X101080075Y-106987000D01*
X101237142Y-107018242D01*
X101237142Y-107018242D01*
G37*
G36*
X97813000Y-108613000D02*
X96187000Y-108613000D01*
X96187000Y-106987000D01*
X97813000Y-106987000D01*
X97813000Y-108613000D01*
X97813000Y-108613000D01*
G37*
G36*
X99237142Y-107018242D02*
X99385102Y-107079530D01*
X99441193Y-107117009D01*
X99518257Y-107168501D01*
X99631499Y-107281743D01*
X99646059Y-107303534D01*
X99720470Y-107414898D01*
X99781758Y-107562858D01*
X99813000Y-107719925D01*
X99813000Y-107880075D01*
X99781758Y-108037142D01*
X99734354Y-108151583D01*
X99720471Y-108185100D01*
X99670301Y-108260186D01*
X99631498Y-108318258D01*
X99518258Y-108431498D01*
X99385102Y-108520470D01*
X99385101Y-108520471D01*
X99385100Y-108520471D01*
X99351583Y-108534354D01*
X99237142Y-108581758D01*
X99080075Y-108613000D01*
X98919925Y-108613000D01*
X98762858Y-108581758D01*
X98648417Y-108534354D01*
X98614900Y-108520471D01*
X98614899Y-108520471D01*
X98614898Y-108520470D01*
X98481742Y-108431498D01*
X98368502Y-108318258D01*
X98329700Y-108260186D01*
X98279529Y-108185100D01*
X98265646Y-108151583D01*
X98218242Y-108037142D01*
X98187000Y-107880075D01*
X98187000Y-107719925D01*
X98218242Y-107562858D01*
X98279530Y-107414898D01*
X98353941Y-107303534D01*
X98368501Y-107281743D01*
X98481743Y-107168501D01*
X98558807Y-107117009D01*
X98614898Y-107079530D01*
X98762858Y-107018242D01*
X98919925Y-106987000D01*
X99080075Y-106987000D01*
X99237142Y-107018242D01*
X99237142Y-107018242D01*
G37*
G36*
X103237142Y-107018242D02*
X103385102Y-107079530D01*
X103441193Y-107117009D01*
X103518257Y-107168501D01*
X103631499Y-107281743D01*
X103646059Y-107303534D01*
X103720470Y-107414898D01*
X103781758Y-107562858D01*
X103813000Y-107719925D01*
X103813000Y-107880075D01*
X103781758Y-108037142D01*
X103734354Y-108151583D01*
X103720471Y-108185100D01*
X103670301Y-108260186D01*
X103631498Y-108318258D01*
X103518258Y-108431498D01*
X103385102Y-108520470D01*
X103385101Y-108520471D01*
X103385100Y-108520471D01*
X103351583Y-108534354D01*
X103237142Y-108581758D01*
X103080075Y-108613000D01*
X102919925Y-108613000D01*
X102762858Y-108581758D01*
X102648417Y-108534354D01*
X102614900Y-108520471D01*
X102614899Y-108520471D01*
X102614898Y-108520470D01*
X102481742Y-108431498D01*
X102368502Y-108318258D01*
X102329700Y-108260186D01*
X102279529Y-108185100D01*
X102265646Y-108151583D01*
X102218242Y-108037142D01*
X102187000Y-107880075D01*
X102187000Y-107719925D01*
X102218242Y-107562858D01*
X102279530Y-107414898D01*
X102353941Y-107303534D01*
X102368501Y-107281743D01*
X102481743Y-107168501D01*
X102558807Y-107117009D01*
X102614898Y-107079530D01*
X102762858Y-107018242D01*
X102919925Y-106987000D01*
X103080075Y-106987000D01*
X103237142Y-107018242D01*
X103237142Y-107018242D01*
G37*
G36*
X123037142Y-107018242D02*
X123185102Y-107079530D01*
X123241193Y-107117009D01*
X123318257Y-107168501D01*
X123431499Y-107281743D01*
X123446059Y-107303534D01*
X123520470Y-107414898D01*
X123581758Y-107562858D01*
X123613000Y-107719925D01*
X123613000Y-107880075D01*
X123581758Y-108037142D01*
X123534354Y-108151583D01*
X123520471Y-108185100D01*
X123470301Y-108260186D01*
X123431498Y-108318258D01*
X123318258Y-108431498D01*
X123185102Y-108520470D01*
X123185101Y-108520471D01*
X123185100Y-108520471D01*
X123151583Y-108534354D01*
X123037142Y-108581758D01*
X122880075Y-108613000D01*
X122719925Y-108613000D01*
X122562858Y-108581758D01*
X122448417Y-108534354D01*
X122414900Y-108520471D01*
X122414899Y-108520471D01*
X122414898Y-108520470D01*
X122281742Y-108431498D01*
X122168502Y-108318258D01*
X122129700Y-108260186D01*
X122079529Y-108185100D01*
X122065646Y-108151583D01*
X122018242Y-108037142D01*
X121987000Y-107880075D01*
X121987000Y-107719925D01*
X122018242Y-107562858D01*
X122079530Y-107414898D01*
X122153941Y-107303534D01*
X122168501Y-107281743D01*
X122281743Y-107168501D01*
X122358807Y-107117009D01*
X122414898Y-107079530D01*
X122562858Y-107018242D01*
X122719925Y-106987000D01*
X122880075Y-106987000D01*
X123037142Y-107018242D01*
X123037142Y-107018242D01*
G37*
G36*
X119037142Y-107018242D02*
X119185102Y-107079530D01*
X119241193Y-107117009D01*
X119318257Y-107168501D01*
X119431499Y-107281743D01*
X119446059Y-107303534D01*
X119520470Y-107414898D01*
X119581758Y-107562858D01*
X119613000Y-107719925D01*
X119613000Y-107880075D01*
X119581758Y-108037142D01*
X119534354Y-108151583D01*
X119520471Y-108185100D01*
X119470301Y-108260186D01*
X119431498Y-108318258D01*
X119318258Y-108431498D01*
X119185102Y-108520470D01*
X119185101Y-108520471D01*
X119185100Y-108520471D01*
X119151583Y-108534354D01*
X119037142Y-108581758D01*
X118880075Y-108613000D01*
X118719925Y-108613000D01*
X118562858Y-108581758D01*
X118448417Y-108534354D01*
X118414900Y-108520471D01*
X118414899Y-108520471D01*
X118414898Y-108520470D01*
X118281742Y-108431498D01*
X118168502Y-108318258D01*
X118129700Y-108260186D01*
X118079529Y-108185100D01*
X118065646Y-108151583D01*
X118018242Y-108037142D01*
X117987000Y-107880075D01*
X117987000Y-107719925D01*
X118018242Y-107562858D01*
X118079530Y-107414898D01*
X118153941Y-107303534D01*
X118168501Y-107281743D01*
X118281743Y-107168501D01*
X118358807Y-107117009D01*
X118414898Y-107079530D01*
X118562858Y-107018242D01*
X118719925Y-106987000D01*
X118880075Y-106987000D01*
X119037142Y-107018242D01*
X119037142Y-107018242D01*
G37*
G36*
X117613000Y-108613000D02*
X115987000Y-108613000D01*
X115987000Y-106987000D01*
X117613000Y-106987000D01*
X117613000Y-108613000D01*
X117613000Y-108613000D01*
G37*
G36*
X127410442Y-106755518D02*
X127476627Y-106762037D01*
X127589853Y-106796384D01*
X127646467Y-106813557D01*
X127785087Y-106887652D01*
X127802991Y-106897222D01*
X127838729Y-106926552D01*
X127940186Y-107009814D01*
X128023448Y-107111271D01*
X128052778Y-107147009D01*
X128052779Y-107147011D01*
X128136443Y-107303533D01*
X128136443Y-107303534D01*
X128187963Y-107473373D01*
X128205359Y-107650000D01*
X128187963Y-107826627D01*
X128153616Y-107939853D01*
X128136443Y-107996467D01*
X128062348Y-108135087D01*
X128052778Y-108152991D01*
X128026427Y-108185100D01*
X127940186Y-108290186D01*
X127839546Y-108372778D01*
X127802991Y-108402778D01*
X127802989Y-108402779D01*
X127646467Y-108486443D01*
X127589853Y-108503616D01*
X127476627Y-108537963D01*
X127410442Y-108544482D01*
X127344260Y-108551000D01*
X127255740Y-108551000D01*
X127189558Y-108544482D01*
X127123373Y-108537963D01*
X127010147Y-108503616D01*
X126953533Y-108486443D01*
X126797011Y-108402779D01*
X126797009Y-108402778D01*
X126760454Y-108372778D01*
X126659814Y-108290186D01*
X126573573Y-108185100D01*
X126547222Y-108152991D01*
X126537652Y-108135087D01*
X126463557Y-107996467D01*
X126446384Y-107939853D01*
X126412037Y-107826627D01*
X126394641Y-107650000D01*
X126412037Y-107473373D01*
X126463557Y-107303534D01*
X126463557Y-107303533D01*
X126547221Y-107147011D01*
X126547222Y-107147009D01*
X126576552Y-107111271D01*
X126659814Y-107009814D01*
X126761271Y-106926552D01*
X126797009Y-106897222D01*
X126814913Y-106887652D01*
X126953533Y-106813557D01*
X127010147Y-106796384D01*
X127123373Y-106762037D01*
X127189558Y-106755518D01*
X127255740Y-106749000D01*
X127344260Y-106749000D01*
X127410442Y-106755518D01*
X127410442Y-106755518D01*
G37*
G36*
X112290443Y-106725519D02*
X112356627Y-106732037D01*
X112455524Y-106762037D01*
X112526467Y-106783557D01*
X112582592Y-106813557D01*
X112682991Y-106867222D01*
X112718729Y-106896552D01*
X112820186Y-106979814D01*
X112902019Y-107079529D01*
X112932778Y-107117009D01*
X112932779Y-107117011D01*
X113016443Y-107273533D01*
X113033616Y-107330147D01*
X113067963Y-107443373D01*
X113085359Y-107620000D01*
X113067963Y-107796627D01*
X113042650Y-107880074D01*
X113016443Y-107966467D01*
X113000408Y-107996466D01*
X112932778Y-108122991D01*
X112908159Y-108152989D01*
X112820186Y-108260186D01*
X112718729Y-108343448D01*
X112682991Y-108372778D01*
X112682989Y-108372779D01*
X112526467Y-108456443D01*
X112469853Y-108473616D01*
X112356627Y-108507963D01*
X112290442Y-108514482D01*
X112224260Y-108521000D01*
X112135740Y-108521000D01*
X112069558Y-108514482D01*
X112003373Y-108507963D01*
X111890147Y-108473616D01*
X111833533Y-108456443D01*
X111677011Y-108372779D01*
X111677009Y-108372778D01*
X111641271Y-108343448D01*
X111539814Y-108260186D01*
X111451841Y-108152989D01*
X111427222Y-108122991D01*
X111359592Y-107996466D01*
X111343557Y-107966467D01*
X111317350Y-107880074D01*
X111292037Y-107796627D01*
X111274641Y-107620000D01*
X111292037Y-107443373D01*
X111326384Y-107330147D01*
X111343557Y-107273533D01*
X111427221Y-107117011D01*
X111427222Y-107117009D01*
X111457981Y-107079529D01*
X111539814Y-106979814D01*
X111641271Y-106896552D01*
X111677009Y-106867222D01*
X111777408Y-106813557D01*
X111833533Y-106783557D01*
X111904476Y-106762037D01*
X112003373Y-106732037D01*
X112069557Y-106725519D01*
X112135740Y-106719000D01*
X112224260Y-106719000D01*
X112290443Y-106725519D01*
X112290443Y-106725519D01*
G37*
G36*
X92490443Y-106725519D02*
X92556627Y-106732037D01*
X92655524Y-106762037D01*
X92726467Y-106783557D01*
X92782592Y-106813557D01*
X92882991Y-106867222D01*
X92918729Y-106896552D01*
X93020186Y-106979814D01*
X93102019Y-107079529D01*
X93132778Y-107117009D01*
X93132779Y-107117011D01*
X93216443Y-107273533D01*
X93233616Y-107330147D01*
X93267963Y-107443373D01*
X93285359Y-107620000D01*
X93267963Y-107796627D01*
X93242650Y-107880074D01*
X93216443Y-107966467D01*
X93200408Y-107996466D01*
X93132778Y-108122991D01*
X93108159Y-108152989D01*
X93020186Y-108260186D01*
X92918729Y-108343448D01*
X92882991Y-108372778D01*
X92882989Y-108372779D01*
X92726467Y-108456443D01*
X92669853Y-108473616D01*
X92556627Y-108507963D01*
X92490442Y-108514482D01*
X92424260Y-108521000D01*
X92335740Y-108521000D01*
X92269558Y-108514482D01*
X92203373Y-108507963D01*
X92090147Y-108473616D01*
X92033533Y-108456443D01*
X91877011Y-108372779D01*
X91877009Y-108372778D01*
X91841271Y-108343448D01*
X91739814Y-108260186D01*
X91651841Y-108152989D01*
X91627222Y-108122991D01*
X91559592Y-107996466D01*
X91543557Y-107966467D01*
X91517350Y-107880074D01*
X91492037Y-107796627D01*
X91474641Y-107620000D01*
X91492037Y-107443373D01*
X91526384Y-107330147D01*
X91543557Y-107273533D01*
X91627221Y-107117011D01*
X91627222Y-107117009D01*
X91657981Y-107079529D01*
X91739814Y-106979814D01*
X91841271Y-106896552D01*
X91877009Y-106867222D01*
X91977408Y-106813557D01*
X92033533Y-106783557D01*
X92104476Y-106762037D01*
X92203373Y-106732037D01*
X92269557Y-106725519D01*
X92335740Y-106719000D01*
X92424260Y-106719000D01*
X92490443Y-106725519D01*
X92490443Y-106725519D01*
G37*
G36*
X107730443Y-106725519D02*
X107796627Y-106732037D01*
X107895524Y-106762037D01*
X107966467Y-106783557D01*
X108022592Y-106813557D01*
X108122991Y-106867222D01*
X108158729Y-106896552D01*
X108260186Y-106979814D01*
X108342019Y-107079529D01*
X108372778Y-107117009D01*
X108372779Y-107117011D01*
X108456443Y-107273533D01*
X108473616Y-107330147D01*
X108507963Y-107443373D01*
X108525359Y-107620000D01*
X108507963Y-107796627D01*
X108482650Y-107880074D01*
X108456443Y-107966467D01*
X108440408Y-107996466D01*
X108372778Y-108122991D01*
X108348159Y-108152989D01*
X108260186Y-108260186D01*
X108158729Y-108343448D01*
X108122991Y-108372778D01*
X108122989Y-108372779D01*
X107966467Y-108456443D01*
X107909853Y-108473616D01*
X107796627Y-108507963D01*
X107730442Y-108514482D01*
X107664260Y-108521000D01*
X107575740Y-108521000D01*
X107509558Y-108514482D01*
X107443373Y-108507963D01*
X107330147Y-108473616D01*
X107273533Y-108456443D01*
X107117011Y-108372779D01*
X107117009Y-108372778D01*
X107081271Y-108343448D01*
X106979814Y-108260186D01*
X106891841Y-108152989D01*
X106867222Y-108122991D01*
X106799592Y-107996466D01*
X106783557Y-107966467D01*
X106757350Y-107880074D01*
X106732037Y-107796627D01*
X106714641Y-107620000D01*
X106732037Y-107443373D01*
X106766384Y-107330147D01*
X106783557Y-107273533D01*
X106867221Y-107117011D01*
X106867222Y-107117009D01*
X106897981Y-107079529D01*
X106979814Y-106979814D01*
X107081271Y-106896552D01*
X107117009Y-106867222D01*
X107217408Y-106813557D01*
X107273533Y-106783557D01*
X107344476Y-106762037D01*
X107443373Y-106732037D01*
X107509557Y-106725519D01*
X107575740Y-106719000D01*
X107664260Y-106719000D01*
X107730443Y-106725519D01*
X107730443Y-106725519D01*
G37*
G36*
X127410443Y-104215519D02*
X127476627Y-104222037D01*
X127589853Y-104256384D01*
X127646467Y-104273557D01*
X127785087Y-104347652D01*
X127802991Y-104357222D01*
X127838729Y-104386552D01*
X127940186Y-104469814D01*
X128023448Y-104571271D01*
X128052778Y-104607009D01*
X128052779Y-104607011D01*
X128136443Y-104763533D01*
X128136443Y-104763534D01*
X128187963Y-104933373D01*
X128205359Y-105110000D01*
X128187963Y-105286627D01*
X128153616Y-105399853D01*
X128136443Y-105456467D01*
X128062348Y-105595087D01*
X128052778Y-105612991D01*
X128023448Y-105648729D01*
X127940186Y-105750186D01*
X127839546Y-105832778D01*
X127802991Y-105862778D01*
X127802989Y-105862779D01*
X127646467Y-105946443D01*
X127589853Y-105963616D01*
X127476627Y-105997963D01*
X127410442Y-106004482D01*
X127344260Y-106011000D01*
X127255740Y-106011000D01*
X127189558Y-106004482D01*
X127123373Y-105997963D01*
X127010147Y-105963616D01*
X126953533Y-105946443D01*
X126797011Y-105862779D01*
X126797009Y-105862778D01*
X126760454Y-105832778D01*
X126659814Y-105750186D01*
X126576552Y-105648729D01*
X126547222Y-105612991D01*
X126537652Y-105595087D01*
X126463557Y-105456467D01*
X126446384Y-105399853D01*
X126412037Y-105286627D01*
X126394641Y-105110000D01*
X126412037Y-104933373D01*
X126463557Y-104763534D01*
X126463557Y-104763533D01*
X126547221Y-104607011D01*
X126547222Y-104607009D01*
X126576552Y-104571271D01*
X126659814Y-104469814D01*
X126761271Y-104386552D01*
X126797009Y-104357222D01*
X126814913Y-104347652D01*
X126953533Y-104273557D01*
X127010147Y-104256384D01*
X127123373Y-104222037D01*
X127189557Y-104215519D01*
X127255740Y-104209000D01*
X127344260Y-104209000D01*
X127410443Y-104215519D01*
X127410443Y-104215519D01*
G37*
G36*
X92490443Y-104185519D02*
X92556627Y-104192037D01*
X92655524Y-104222037D01*
X92726467Y-104243557D01*
X92782592Y-104273557D01*
X92882991Y-104327222D01*
X92918729Y-104356552D01*
X93020186Y-104439814D01*
X93103448Y-104541271D01*
X93132778Y-104577009D01*
X93132779Y-104577011D01*
X93216443Y-104733533D01*
X93233616Y-104790147D01*
X93267963Y-104903373D01*
X93285359Y-105080000D01*
X93267963Y-105256627D01*
X93233616Y-105369853D01*
X93216443Y-105426467D01*
X93200408Y-105456466D01*
X93132778Y-105582991D01*
X93108159Y-105612989D01*
X93020186Y-105720186D01*
X92918729Y-105803448D01*
X92882991Y-105832778D01*
X92882989Y-105832779D01*
X92726467Y-105916443D01*
X92669853Y-105933616D01*
X92556627Y-105967963D01*
X92490443Y-105974481D01*
X92424260Y-105981000D01*
X92335740Y-105981000D01*
X92269557Y-105974481D01*
X92203373Y-105967963D01*
X92090147Y-105933616D01*
X92033533Y-105916443D01*
X91877011Y-105832779D01*
X91877009Y-105832778D01*
X91841271Y-105803448D01*
X91739814Y-105720186D01*
X91651841Y-105612989D01*
X91627222Y-105582991D01*
X91559592Y-105456466D01*
X91543557Y-105426467D01*
X91526384Y-105369853D01*
X91492037Y-105256627D01*
X91474641Y-105080000D01*
X91492037Y-104903373D01*
X91526384Y-104790147D01*
X91543557Y-104733533D01*
X91627221Y-104577011D01*
X91627222Y-104577009D01*
X91656552Y-104541271D01*
X91739814Y-104439814D01*
X91841271Y-104356552D01*
X91877009Y-104327222D01*
X91977408Y-104273557D01*
X92033533Y-104243557D01*
X92104476Y-104222037D01*
X92203373Y-104192037D01*
X92269557Y-104185519D01*
X92335740Y-104179000D01*
X92424260Y-104179000D01*
X92490443Y-104185519D01*
X92490443Y-104185519D01*
G37*
G36*
X107730443Y-104185519D02*
X107796627Y-104192037D01*
X107895524Y-104222037D01*
X107966467Y-104243557D01*
X108022592Y-104273557D01*
X108122991Y-104327222D01*
X108158729Y-104356552D01*
X108260186Y-104439814D01*
X108343448Y-104541271D01*
X108372778Y-104577009D01*
X108372779Y-104577011D01*
X108456443Y-104733533D01*
X108473616Y-104790147D01*
X108507963Y-104903373D01*
X108525359Y-105080000D01*
X108507963Y-105256627D01*
X108473616Y-105369853D01*
X108456443Y-105426467D01*
X108440408Y-105456466D01*
X108372778Y-105582991D01*
X108348159Y-105612989D01*
X108260186Y-105720186D01*
X108158729Y-105803448D01*
X108122991Y-105832778D01*
X108122989Y-105832779D01*
X107966467Y-105916443D01*
X107909853Y-105933616D01*
X107796627Y-105967963D01*
X107730443Y-105974481D01*
X107664260Y-105981000D01*
X107575740Y-105981000D01*
X107509557Y-105974481D01*
X107443373Y-105967963D01*
X107330147Y-105933616D01*
X107273533Y-105916443D01*
X107117011Y-105832779D01*
X107117009Y-105832778D01*
X107081271Y-105803448D01*
X106979814Y-105720186D01*
X106891841Y-105612989D01*
X106867222Y-105582991D01*
X106799592Y-105456466D01*
X106783557Y-105426467D01*
X106766384Y-105369853D01*
X106732037Y-105256627D01*
X106714641Y-105080000D01*
X106732037Y-104903373D01*
X106766384Y-104790147D01*
X106783557Y-104733533D01*
X106867221Y-104577011D01*
X106867222Y-104577009D01*
X106896552Y-104541271D01*
X106979814Y-104439814D01*
X107081271Y-104356552D01*
X107117009Y-104327222D01*
X107217408Y-104273557D01*
X107273533Y-104243557D01*
X107344476Y-104222037D01*
X107443373Y-104192037D01*
X107509557Y-104185519D01*
X107575740Y-104179000D01*
X107664260Y-104179000D01*
X107730443Y-104185519D01*
X107730443Y-104185519D01*
G37*
G36*
X112290443Y-104185519D02*
X112356627Y-104192037D01*
X112455524Y-104222037D01*
X112526467Y-104243557D01*
X112582592Y-104273557D01*
X112682991Y-104327222D01*
X112718729Y-104356552D01*
X112820186Y-104439814D01*
X112903448Y-104541271D01*
X112932778Y-104577009D01*
X112932779Y-104577011D01*
X113016443Y-104733533D01*
X113033616Y-104790147D01*
X113067963Y-104903373D01*
X113085359Y-105080000D01*
X113067963Y-105256627D01*
X113033616Y-105369853D01*
X113016443Y-105426467D01*
X113000408Y-105456466D01*
X112932778Y-105582991D01*
X112908159Y-105612989D01*
X112820186Y-105720186D01*
X112718729Y-105803448D01*
X112682991Y-105832778D01*
X112682989Y-105832779D01*
X112526467Y-105916443D01*
X112469853Y-105933616D01*
X112356627Y-105967963D01*
X112290443Y-105974481D01*
X112224260Y-105981000D01*
X112135740Y-105981000D01*
X112069557Y-105974481D01*
X112003373Y-105967963D01*
X111890147Y-105933616D01*
X111833533Y-105916443D01*
X111677011Y-105832779D01*
X111677009Y-105832778D01*
X111641271Y-105803448D01*
X111539814Y-105720186D01*
X111451841Y-105612989D01*
X111427222Y-105582991D01*
X111359592Y-105456466D01*
X111343557Y-105426467D01*
X111326384Y-105369853D01*
X111292037Y-105256627D01*
X111274641Y-105080000D01*
X111292037Y-104903373D01*
X111326384Y-104790147D01*
X111343557Y-104733533D01*
X111427221Y-104577011D01*
X111427222Y-104577009D01*
X111456552Y-104541271D01*
X111539814Y-104439814D01*
X111641271Y-104356552D01*
X111677009Y-104327222D01*
X111777408Y-104273557D01*
X111833533Y-104243557D01*
X111904476Y-104222037D01*
X112003373Y-104192037D01*
X112069557Y-104185519D01*
X112135740Y-104179000D01*
X112224260Y-104179000D01*
X112290443Y-104185519D01*
X112290443Y-104185519D01*
G37*
G36*
X127410443Y-101675519D02*
X127476627Y-101682037D01*
X127589853Y-101716384D01*
X127646467Y-101733557D01*
X127785087Y-101807652D01*
X127802991Y-101817222D01*
X127838729Y-101846552D01*
X127940186Y-101929814D01*
X128023448Y-102031271D01*
X128052778Y-102067009D01*
X128052779Y-102067011D01*
X128136443Y-102223533D01*
X128136443Y-102223534D01*
X128187963Y-102393373D01*
X128205359Y-102570000D01*
X128187963Y-102746627D01*
X128153616Y-102859853D01*
X128136443Y-102916467D01*
X128062348Y-103055087D01*
X128052778Y-103072991D01*
X128023448Y-103108729D01*
X127940186Y-103210186D01*
X127839546Y-103292778D01*
X127802991Y-103322778D01*
X127802989Y-103322779D01*
X127646467Y-103406443D01*
X127589853Y-103423616D01*
X127476627Y-103457963D01*
X127410443Y-103464481D01*
X127344260Y-103471000D01*
X127255740Y-103471000D01*
X127189557Y-103464481D01*
X127123373Y-103457963D01*
X127010147Y-103423616D01*
X126953533Y-103406443D01*
X126797011Y-103322779D01*
X126797009Y-103322778D01*
X126760454Y-103292778D01*
X126659814Y-103210186D01*
X126576552Y-103108729D01*
X126547222Y-103072991D01*
X126537652Y-103055087D01*
X126463557Y-102916467D01*
X126446384Y-102859853D01*
X126412037Y-102746627D01*
X126394641Y-102570000D01*
X126412037Y-102393373D01*
X126463557Y-102223534D01*
X126463557Y-102223533D01*
X126547221Y-102067011D01*
X126547222Y-102067009D01*
X126576552Y-102031271D01*
X126659814Y-101929814D01*
X126761271Y-101846552D01*
X126797009Y-101817222D01*
X126814913Y-101807652D01*
X126953533Y-101733557D01*
X127010147Y-101716384D01*
X127123373Y-101682037D01*
X127189557Y-101675519D01*
X127255740Y-101669000D01*
X127344260Y-101669000D01*
X127410443Y-101675519D01*
X127410443Y-101675519D01*
G37*
G36*
X107730442Y-101645518D02*
X107796627Y-101652037D01*
X107895524Y-101682037D01*
X107966467Y-101703557D01*
X108022592Y-101733557D01*
X108122991Y-101787222D01*
X108158729Y-101816552D01*
X108260186Y-101899814D01*
X108343448Y-102001271D01*
X108372778Y-102037009D01*
X108372779Y-102037011D01*
X108456443Y-102193533D01*
X108473616Y-102250147D01*
X108507963Y-102363373D01*
X108525359Y-102540000D01*
X108507963Y-102716627D01*
X108473616Y-102829853D01*
X108456443Y-102886467D01*
X108440408Y-102916466D01*
X108372778Y-103042991D01*
X108348159Y-103072989D01*
X108260186Y-103180186D01*
X108158729Y-103263448D01*
X108122991Y-103292778D01*
X108122989Y-103292779D01*
X107966467Y-103376443D01*
X107909853Y-103393616D01*
X107796627Y-103427963D01*
X107730442Y-103434482D01*
X107664260Y-103441000D01*
X107575740Y-103441000D01*
X107509558Y-103434482D01*
X107443373Y-103427963D01*
X107330147Y-103393616D01*
X107273533Y-103376443D01*
X107117011Y-103292779D01*
X107117009Y-103292778D01*
X107081271Y-103263448D01*
X106979814Y-103180186D01*
X106891841Y-103072989D01*
X106867222Y-103042991D01*
X106799592Y-102916466D01*
X106783557Y-102886467D01*
X106766384Y-102829853D01*
X106732037Y-102716627D01*
X106714641Y-102540000D01*
X106732037Y-102363373D01*
X106766384Y-102250147D01*
X106783557Y-102193533D01*
X106867221Y-102037011D01*
X106867222Y-102037009D01*
X106896552Y-102001271D01*
X106979814Y-101899814D01*
X107081271Y-101816552D01*
X107117009Y-101787222D01*
X107217408Y-101733557D01*
X107273533Y-101703557D01*
X107344476Y-101682037D01*
X107443373Y-101652037D01*
X107509557Y-101645519D01*
X107575740Y-101639000D01*
X107664260Y-101639000D01*
X107730442Y-101645518D01*
X107730442Y-101645518D01*
G37*
G36*
X92490442Y-101645518D02*
X92556627Y-101652037D01*
X92655524Y-101682037D01*
X92726467Y-101703557D01*
X92782592Y-101733557D01*
X92882991Y-101787222D01*
X92918729Y-101816552D01*
X93020186Y-101899814D01*
X93103448Y-102001271D01*
X93132778Y-102037009D01*
X93132779Y-102037011D01*
X93216443Y-102193533D01*
X93233616Y-102250147D01*
X93267963Y-102363373D01*
X93285359Y-102540000D01*
X93267963Y-102716627D01*
X93233616Y-102829853D01*
X93216443Y-102886467D01*
X93200408Y-102916466D01*
X93132778Y-103042991D01*
X93108159Y-103072989D01*
X93020186Y-103180186D01*
X92918729Y-103263448D01*
X92882991Y-103292778D01*
X92882989Y-103292779D01*
X92726467Y-103376443D01*
X92669853Y-103393616D01*
X92556627Y-103427963D01*
X92490442Y-103434482D01*
X92424260Y-103441000D01*
X92335740Y-103441000D01*
X92269558Y-103434482D01*
X92203373Y-103427963D01*
X92090147Y-103393616D01*
X92033533Y-103376443D01*
X91877011Y-103292779D01*
X91877009Y-103292778D01*
X91841271Y-103263448D01*
X91739814Y-103180186D01*
X91651841Y-103072989D01*
X91627222Y-103042991D01*
X91559592Y-102916466D01*
X91543557Y-102886467D01*
X91526384Y-102829853D01*
X91492037Y-102716627D01*
X91474641Y-102540000D01*
X91492037Y-102363373D01*
X91526384Y-102250147D01*
X91543557Y-102193533D01*
X91627221Y-102037011D01*
X91627222Y-102037009D01*
X91656552Y-102001271D01*
X91739814Y-101899814D01*
X91841271Y-101816552D01*
X91877009Y-101787222D01*
X91977408Y-101733557D01*
X92033533Y-101703557D01*
X92104476Y-101682037D01*
X92203373Y-101652037D01*
X92269557Y-101645519D01*
X92335740Y-101639000D01*
X92424260Y-101639000D01*
X92490442Y-101645518D01*
X92490442Y-101645518D01*
G37*
G36*
X112290442Y-101645518D02*
X112356627Y-101652037D01*
X112455524Y-101682037D01*
X112526467Y-101703557D01*
X112582592Y-101733557D01*
X112682991Y-101787222D01*
X112718729Y-101816552D01*
X112820186Y-101899814D01*
X112903448Y-102001271D01*
X112932778Y-102037009D01*
X112932779Y-102037011D01*
X113016443Y-102193533D01*
X113033616Y-102250147D01*
X113067963Y-102363373D01*
X113085359Y-102540000D01*
X113067963Y-102716627D01*
X113033616Y-102829853D01*
X113016443Y-102886467D01*
X113000408Y-102916466D01*
X112932778Y-103042991D01*
X112908159Y-103072989D01*
X112820186Y-103180186D01*
X112718729Y-103263448D01*
X112682991Y-103292778D01*
X112682989Y-103292779D01*
X112526467Y-103376443D01*
X112469853Y-103393616D01*
X112356627Y-103427963D01*
X112290442Y-103434482D01*
X112224260Y-103441000D01*
X112135740Y-103441000D01*
X112069558Y-103434482D01*
X112003373Y-103427963D01*
X111890147Y-103393616D01*
X111833533Y-103376443D01*
X111677011Y-103292779D01*
X111677009Y-103292778D01*
X111641271Y-103263448D01*
X111539814Y-103180186D01*
X111451841Y-103072989D01*
X111427222Y-103042991D01*
X111359592Y-102916466D01*
X111343557Y-102886467D01*
X111326384Y-102829853D01*
X111292037Y-102716627D01*
X111274641Y-102540000D01*
X111292037Y-102363373D01*
X111326384Y-102250147D01*
X111343557Y-102193533D01*
X111427221Y-102037011D01*
X111427222Y-102037009D01*
X111456552Y-102001271D01*
X111539814Y-101899814D01*
X111641271Y-101816552D01*
X111677009Y-101787222D01*
X111777408Y-101733557D01*
X111833533Y-101703557D01*
X111904476Y-101682037D01*
X112003373Y-101652037D01*
X112069557Y-101645519D01*
X112135740Y-101639000D01*
X112224260Y-101639000D01*
X112290442Y-101645518D01*
X112290442Y-101645518D01*
G37*
G36*
X127410442Y-99135518D02*
X127476627Y-99142037D01*
X127589853Y-99176384D01*
X127646467Y-99193557D01*
X127785087Y-99267652D01*
X127802991Y-99277222D01*
X127838729Y-99306552D01*
X127940186Y-99389814D01*
X128023448Y-99491271D01*
X128052778Y-99527009D01*
X128052779Y-99527011D01*
X128136443Y-99683533D01*
X128136443Y-99683534D01*
X128187963Y-99853373D01*
X128205359Y-100030000D01*
X128187963Y-100206627D01*
X128154100Y-100318257D01*
X128136443Y-100376467D01*
X128062348Y-100515087D01*
X128052778Y-100532991D01*
X128023448Y-100568729D01*
X127940186Y-100670186D01*
X127839546Y-100752778D01*
X127802991Y-100782778D01*
X127802989Y-100782779D01*
X127646467Y-100866443D01*
X127589853Y-100883616D01*
X127476627Y-100917963D01*
X127410442Y-100924482D01*
X127344260Y-100931000D01*
X127255740Y-100931000D01*
X127189558Y-100924482D01*
X127123373Y-100917963D01*
X127010147Y-100883616D01*
X126953533Y-100866443D01*
X126797011Y-100782779D01*
X126797009Y-100782778D01*
X126760454Y-100752778D01*
X126659814Y-100670186D01*
X126576552Y-100568729D01*
X126547222Y-100532991D01*
X126537652Y-100515087D01*
X126463557Y-100376467D01*
X126445900Y-100318257D01*
X126412037Y-100206627D01*
X126394641Y-100030000D01*
X126412037Y-99853373D01*
X126463557Y-99683534D01*
X126463557Y-99683533D01*
X126547221Y-99527011D01*
X126547222Y-99527009D01*
X126576552Y-99491271D01*
X126659814Y-99389814D01*
X126761271Y-99306552D01*
X126797009Y-99277222D01*
X126814913Y-99267652D01*
X126953533Y-99193557D01*
X127010147Y-99176384D01*
X127123373Y-99142037D01*
X127189558Y-99135518D01*
X127255740Y-99129000D01*
X127344260Y-99129000D01*
X127410442Y-99135518D01*
X127410442Y-99135518D01*
G37*
G36*
X112290442Y-99105518D02*
X112356627Y-99112037D01*
X112455524Y-99142037D01*
X112526467Y-99163557D01*
X112582592Y-99193557D01*
X112682991Y-99247222D01*
X112718729Y-99276552D01*
X112820186Y-99359814D01*
X112903448Y-99461271D01*
X112932778Y-99497009D01*
X112932779Y-99497011D01*
X113016443Y-99653533D01*
X113033616Y-99710147D01*
X113067963Y-99823373D01*
X113085359Y-100000000D01*
X113067963Y-100176627D01*
X113033616Y-100289853D01*
X113016443Y-100346467D01*
X113000408Y-100376466D01*
X112932778Y-100502991D01*
X112918433Y-100520470D01*
X112820186Y-100640186D01*
X112718729Y-100723448D01*
X112682991Y-100752778D01*
X112682989Y-100752779D01*
X112526467Y-100836443D01*
X112469853Y-100853616D01*
X112356627Y-100887963D01*
X112290443Y-100894481D01*
X112224260Y-100901000D01*
X112135740Y-100901000D01*
X112069557Y-100894481D01*
X112003373Y-100887963D01*
X111890147Y-100853616D01*
X111833533Y-100836443D01*
X111677011Y-100752779D01*
X111677009Y-100752778D01*
X111641271Y-100723448D01*
X111539814Y-100640186D01*
X111441567Y-100520470D01*
X111427222Y-100502991D01*
X111359592Y-100376466D01*
X111343557Y-100346467D01*
X111326384Y-100289853D01*
X111292037Y-100176627D01*
X111274641Y-100000000D01*
X111292037Y-99823373D01*
X111326384Y-99710147D01*
X111343557Y-99653533D01*
X111427221Y-99497011D01*
X111427222Y-99497009D01*
X111456552Y-99461271D01*
X111539814Y-99359814D01*
X111641271Y-99276552D01*
X111677009Y-99247222D01*
X111777408Y-99193557D01*
X111833533Y-99163557D01*
X111904476Y-99142037D01*
X112003373Y-99112037D01*
X112069558Y-99105518D01*
X112135740Y-99099000D01*
X112224260Y-99099000D01*
X112290442Y-99105518D01*
X112290442Y-99105518D01*
G37*
G36*
X107730442Y-99105518D02*
X107796627Y-99112037D01*
X107895524Y-99142037D01*
X107966467Y-99163557D01*
X108022592Y-99193557D01*
X108122991Y-99247222D01*
X108158729Y-99276552D01*
X108260186Y-99359814D01*
X108343448Y-99461271D01*
X108372778Y-99497009D01*
X108372779Y-99497011D01*
X108456443Y-99653533D01*
X108473616Y-99710147D01*
X108507963Y-99823373D01*
X108525359Y-100000000D01*
X108507963Y-100176627D01*
X108473616Y-100289853D01*
X108456443Y-100346467D01*
X108440408Y-100376466D01*
X108372778Y-100502991D01*
X108358433Y-100520470D01*
X108260186Y-100640186D01*
X108158729Y-100723448D01*
X108122991Y-100752778D01*
X108122989Y-100752779D01*
X107966467Y-100836443D01*
X107909853Y-100853616D01*
X107796627Y-100887963D01*
X107730443Y-100894481D01*
X107664260Y-100901000D01*
X107575740Y-100901000D01*
X107509557Y-100894481D01*
X107443373Y-100887963D01*
X107330147Y-100853616D01*
X107273533Y-100836443D01*
X107117011Y-100752779D01*
X107117009Y-100752778D01*
X107081271Y-100723448D01*
X106979814Y-100640186D01*
X106881567Y-100520470D01*
X106867222Y-100502991D01*
X106799592Y-100376466D01*
X106783557Y-100346467D01*
X106766384Y-100289853D01*
X106732037Y-100176627D01*
X106714641Y-100000000D01*
X106732037Y-99823373D01*
X106766384Y-99710147D01*
X106783557Y-99653533D01*
X106867221Y-99497011D01*
X106867222Y-99497009D01*
X106896552Y-99461271D01*
X106979814Y-99359814D01*
X107081271Y-99276552D01*
X107117009Y-99247222D01*
X107217408Y-99193557D01*
X107273533Y-99163557D01*
X107344476Y-99142037D01*
X107443373Y-99112037D01*
X107509558Y-99105518D01*
X107575740Y-99099000D01*
X107664260Y-99099000D01*
X107730442Y-99105518D01*
X107730442Y-99105518D01*
G37*
G36*
X92490442Y-99105518D02*
X92556627Y-99112037D01*
X92655524Y-99142037D01*
X92726467Y-99163557D01*
X92782592Y-99193557D01*
X92882991Y-99247222D01*
X92918729Y-99276552D01*
X93020186Y-99359814D01*
X93103448Y-99461271D01*
X93132778Y-99497009D01*
X93132779Y-99497011D01*
X93216443Y-99653533D01*
X93233616Y-99710147D01*
X93267963Y-99823373D01*
X93285359Y-100000000D01*
X93267963Y-100176627D01*
X93233616Y-100289853D01*
X93216443Y-100346467D01*
X93200408Y-100376466D01*
X93132778Y-100502991D01*
X93118433Y-100520470D01*
X93020186Y-100640186D01*
X92918729Y-100723448D01*
X92882991Y-100752778D01*
X92882989Y-100752779D01*
X92726467Y-100836443D01*
X92669853Y-100853616D01*
X92556627Y-100887963D01*
X92490443Y-100894481D01*
X92424260Y-100901000D01*
X92335740Y-100901000D01*
X92269557Y-100894481D01*
X92203373Y-100887963D01*
X92090147Y-100853616D01*
X92033533Y-100836443D01*
X91877011Y-100752779D01*
X91877009Y-100752778D01*
X91841271Y-100723448D01*
X91739814Y-100640186D01*
X91641567Y-100520470D01*
X91627222Y-100502991D01*
X91559592Y-100376466D01*
X91543557Y-100346467D01*
X91526384Y-100289853D01*
X91492037Y-100176627D01*
X91474641Y-100000000D01*
X91492037Y-99823373D01*
X91526384Y-99710147D01*
X91543557Y-99653533D01*
X91627221Y-99497011D01*
X91627222Y-99497009D01*
X91656552Y-99461271D01*
X91739814Y-99359814D01*
X91841271Y-99276552D01*
X91877009Y-99247222D01*
X91977408Y-99193557D01*
X92033533Y-99163557D01*
X92104476Y-99142037D01*
X92203373Y-99112037D01*
X92269558Y-99105518D01*
X92335740Y-99099000D01*
X92424260Y-99099000D01*
X92490442Y-99105518D01*
X92490442Y-99105518D01*
G37*
G36*
X117613000Y-100613000D02*
X115987000Y-100613000D01*
X115987000Y-98987000D01*
X117613000Y-98987000D01*
X117613000Y-100613000D01*
X117613000Y-100613000D01*
G37*
G36*
X103237142Y-99018242D02*
X103385102Y-99079530D01*
X103414241Y-99099000D01*
X103510858Y-99163557D01*
X103518258Y-99168502D01*
X103631498Y-99281742D01*
X103720470Y-99414898D01*
X103781758Y-99562858D01*
X103813000Y-99719925D01*
X103813000Y-99880075D01*
X103781758Y-100037142D01*
X103720470Y-100185102D01*
X103631498Y-100318258D01*
X103518258Y-100431498D01*
X103385102Y-100520470D01*
X103237142Y-100581758D01*
X103080075Y-100613000D01*
X102919925Y-100613000D01*
X102762858Y-100581758D01*
X102614898Y-100520470D01*
X102481742Y-100431498D01*
X102368502Y-100318258D01*
X102279530Y-100185102D01*
X102218242Y-100037142D01*
X102187000Y-99880075D01*
X102187000Y-99719925D01*
X102218242Y-99562858D01*
X102279530Y-99414898D01*
X102368502Y-99281742D01*
X102481742Y-99168502D01*
X102489143Y-99163557D01*
X102585759Y-99099000D01*
X102614898Y-99079530D01*
X102762858Y-99018242D01*
X102919925Y-98987000D01*
X103080075Y-98987000D01*
X103237142Y-99018242D01*
X103237142Y-99018242D01*
G37*
G36*
X101237142Y-99018242D02*
X101385102Y-99079530D01*
X101414241Y-99099000D01*
X101510858Y-99163557D01*
X101518258Y-99168502D01*
X101631498Y-99281742D01*
X101720470Y-99414898D01*
X101781758Y-99562858D01*
X101813000Y-99719925D01*
X101813000Y-99880075D01*
X101781758Y-100037142D01*
X101720470Y-100185102D01*
X101631498Y-100318258D01*
X101518258Y-100431498D01*
X101385102Y-100520470D01*
X101237142Y-100581758D01*
X101080075Y-100613000D01*
X100919925Y-100613000D01*
X100762858Y-100581758D01*
X100614898Y-100520470D01*
X100481742Y-100431498D01*
X100368502Y-100318258D01*
X100279530Y-100185102D01*
X100218242Y-100037142D01*
X100187000Y-99880075D01*
X100187000Y-99719925D01*
X100218242Y-99562858D01*
X100279530Y-99414898D01*
X100368502Y-99281742D01*
X100481742Y-99168502D01*
X100489143Y-99163557D01*
X100585759Y-99099000D01*
X100614898Y-99079530D01*
X100762858Y-99018242D01*
X100919925Y-98987000D01*
X101080075Y-98987000D01*
X101237142Y-99018242D01*
X101237142Y-99018242D01*
G37*
G36*
X119037142Y-99018242D02*
X119185102Y-99079530D01*
X119214241Y-99099000D01*
X119310858Y-99163557D01*
X119318258Y-99168502D01*
X119431498Y-99281742D01*
X119520470Y-99414898D01*
X119581758Y-99562858D01*
X119613000Y-99719925D01*
X119613000Y-99880075D01*
X119581758Y-100037142D01*
X119520470Y-100185102D01*
X119431498Y-100318258D01*
X119318258Y-100431498D01*
X119185102Y-100520470D01*
X119037142Y-100581758D01*
X118880075Y-100613000D01*
X118719925Y-100613000D01*
X118562858Y-100581758D01*
X118414898Y-100520470D01*
X118281742Y-100431498D01*
X118168502Y-100318258D01*
X118079530Y-100185102D01*
X118018242Y-100037142D01*
X117987000Y-99880075D01*
X117987000Y-99719925D01*
X118018242Y-99562858D01*
X118079530Y-99414898D01*
X118168502Y-99281742D01*
X118281742Y-99168502D01*
X118289143Y-99163557D01*
X118385759Y-99099000D01*
X118414898Y-99079530D01*
X118562858Y-99018242D01*
X118719925Y-98987000D01*
X118880075Y-98987000D01*
X119037142Y-99018242D01*
X119037142Y-99018242D01*
G37*
G36*
X97813000Y-100613000D02*
X96187000Y-100613000D01*
X96187000Y-98987000D01*
X97813000Y-98987000D01*
X97813000Y-100613000D01*
X97813000Y-100613000D01*
G37*
G36*
X99237142Y-99018242D02*
X99385102Y-99079530D01*
X99414241Y-99099000D01*
X99510858Y-99163557D01*
X99518258Y-99168502D01*
X99631498Y-99281742D01*
X99720470Y-99414898D01*
X99781758Y-99562858D01*
X99813000Y-99719925D01*
X99813000Y-99880075D01*
X99781758Y-100037142D01*
X99720470Y-100185102D01*
X99631498Y-100318258D01*
X99518258Y-100431498D01*
X99385102Y-100520470D01*
X99237142Y-100581758D01*
X99080075Y-100613000D01*
X98919925Y-100613000D01*
X98762858Y-100581758D01*
X98614898Y-100520470D01*
X98481742Y-100431498D01*
X98368502Y-100318258D01*
X98279530Y-100185102D01*
X98218242Y-100037142D01*
X98187000Y-99880075D01*
X98187000Y-99719925D01*
X98218242Y-99562858D01*
X98279530Y-99414898D01*
X98368502Y-99281742D01*
X98481742Y-99168502D01*
X98489143Y-99163557D01*
X98585759Y-99099000D01*
X98614898Y-99079530D01*
X98762858Y-99018242D01*
X98919925Y-98987000D01*
X99080075Y-98987000D01*
X99237142Y-99018242D01*
X99237142Y-99018242D01*
G37*
G36*
X121037142Y-99018242D02*
X121185102Y-99079530D01*
X121214241Y-99099000D01*
X121310858Y-99163557D01*
X121318258Y-99168502D01*
X121431498Y-99281742D01*
X121520470Y-99414898D01*
X121581758Y-99562858D01*
X121613000Y-99719925D01*
X121613000Y-99880075D01*
X121581758Y-100037142D01*
X121520470Y-100185102D01*
X121431498Y-100318258D01*
X121318258Y-100431498D01*
X121185102Y-100520470D01*
X121037142Y-100581758D01*
X120880075Y-100613000D01*
X120719925Y-100613000D01*
X120562858Y-100581758D01*
X120414898Y-100520470D01*
X120281742Y-100431498D01*
X120168502Y-100318258D01*
X120079530Y-100185102D01*
X120018242Y-100037142D01*
X119987000Y-99880075D01*
X119987000Y-99719925D01*
X120018242Y-99562858D01*
X120079530Y-99414898D01*
X120168502Y-99281742D01*
X120281742Y-99168502D01*
X120289143Y-99163557D01*
X120385759Y-99099000D01*
X120414898Y-99079530D01*
X120562858Y-99018242D01*
X120719925Y-98987000D01*
X120880075Y-98987000D01*
X121037142Y-99018242D01*
X121037142Y-99018242D01*
G37*
G36*
X123037142Y-99018242D02*
X123185102Y-99079530D01*
X123214241Y-99099000D01*
X123310858Y-99163557D01*
X123318258Y-99168502D01*
X123431498Y-99281742D01*
X123520470Y-99414898D01*
X123581758Y-99562858D01*
X123613000Y-99719925D01*
X123613000Y-99880075D01*
X123581758Y-100037142D01*
X123520470Y-100185102D01*
X123431498Y-100318258D01*
X123318258Y-100431498D01*
X123185102Y-100520470D01*
X123037142Y-100581758D01*
X122880075Y-100613000D01*
X122719925Y-100613000D01*
X122562858Y-100581758D01*
X122414898Y-100520470D01*
X122281742Y-100431498D01*
X122168502Y-100318258D01*
X122079530Y-100185102D01*
X122018242Y-100037142D01*
X121987000Y-99880075D01*
X121987000Y-99719925D01*
X122018242Y-99562858D01*
X122079530Y-99414898D01*
X122168502Y-99281742D01*
X122281742Y-99168502D01*
X122289143Y-99163557D01*
X122385759Y-99099000D01*
X122414898Y-99079530D01*
X122562858Y-99018242D01*
X122719925Y-98987000D01*
X122880075Y-98987000D01*
X123037142Y-99018242D01*
X123037142Y-99018242D01*
G37*
G36*
X127410443Y-96595519D02*
X127476627Y-96602037D01*
X127589853Y-96636384D01*
X127646467Y-96653557D01*
X127785087Y-96727652D01*
X127802991Y-96737222D01*
X127838729Y-96766552D01*
X127940186Y-96849814D01*
X128023448Y-96951271D01*
X128052778Y-96987009D01*
X128052779Y-96987011D01*
X128136443Y-97143533D01*
X128136443Y-97143534D01*
X128187963Y-97313373D01*
X128205359Y-97490000D01*
X128187963Y-97666627D01*
X128153616Y-97779853D01*
X128136443Y-97836467D01*
X128062348Y-97975087D01*
X128052778Y-97992991D01*
X128023448Y-98028729D01*
X127940186Y-98130186D01*
X127839546Y-98212778D01*
X127802991Y-98242778D01*
X127802989Y-98242779D01*
X127646467Y-98326443D01*
X127589853Y-98343616D01*
X127476627Y-98377963D01*
X127410443Y-98384481D01*
X127344260Y-98391000D01*
X127255740Y-98391000D01*
X127189557Y-98384481D01*
X127123373Y-98377963D01*
X127010147Y-98343616D01*
X126953533Y-98326443D01*
X126797011Y-98242779D01*
X126797009Y-98242778D01*
X126760454Y-98212778D01*
X126659814Y-98130186D01*
X126576552Y-98028729D01*
X126547222Y-97992991D01*
X126537652Y-97975087D01*
X126463557Y-97836467D01*
X126446384Y-97779853D01*
X126412037Y-97666627D01*
X126394641Y-97490000D01*
X126412037Y-97313373D01*
X126463557Y-97143534D01*
X126463557Y-97143533D01*
X126547221Y-96987011D01*
X126547222Y-96987009D01*
X126576552Y-96951271D01*
X126659814Y-96849814D01*
X126761271Y-96766552D01*
X126797009Y-96737222D01*
X126814913Y-96727652D01*
X126953533Y-96653557D01*
X127010147Y-96636384D01*
X127123373Y-96602037D01*
X127189557Y-96595519D01*
X127255740Y-96589000D01*
X127344260Y-96589000D01*
X127410443Y-96595519D01*
X127410443Y-96595519D01*
G37*
G36*
X107730443Y-96565519D02*
X107796627Y-96572037D01*
X107895524Y-96602037D01*
X107966467Y-96623557D01*
X108022592Y-96653557D01*
X108122991Y-96707222D01*
X108158729Y-96736552D01*
X108260186Y-96819814D01*
X108343448Y-96921271D01*
X108372778Y-96957009D01*
X108372779Y-96957011D01*
X108456443Y-97113533D01*
X108473616Y-97170147D01*
X108507963Y-97283373D01*
X108525359Y-97460000D01*
X108507963Y-97636627D01*
X108473616Y-97749853D01*
X108456443Y-97806467D01*
X108440408Y-97836466D01*
X108372778Y-97962991D01*
X108348159Y-97992989D01*
X108260186Y-98100186D01*
X108158729Y-98183448D01*
X108122991Y-98212778D01*
X108122989Y-98212779D01*
X107966467Y-98296443D01*
X107909853Y-98313616D01*
X107796627Y-98347963D01*
X107730442Y-98354482D01*
X107664260Y-98361000D01*
X107575740Y-98361000D01*
X107509558Y-98354482D01*
X107443373Y-98347963D01*
X107330147Y-98313616D01*
X107273533Y-98296443D01*
X107117011Y-98212779D01*
X107117009Y-98212778D01*
X107081271Y-98183448D01*
X106979814Y-98100186D01*
X106891841Y-97992989D01*
X106867222Y-97962991D01*
X106799592Y-97836466D01*
X106783557Y-97806467D01*
X106766384Y-97749853D01*
X106732037Y-97636627D01*
X106714641Y-97460000D01*
X106732037Y-97283373D01*
X106766384Y-97170147D01*
X106783557Y-97113533D01*
X106867221Y-96957011D01*
X106867222Y-96957009D01*
X106896552Y-96921271D01*
X106979814Y-96819814D01*
X107081271Y-96736552D01*
X107117009Y-96707222D01*
X107217408Y-96653557D01*
X107273533Y-96623557D01*
X107344476Y-96602037D01*
X107443373Y-96572037D01*
X107509557Y-96565519D01*
X107575740Y-96559000D01*
X107664260Y-96559000D01*
X107730443Y-96565519D01*
X107730443Y-96565519D01*
G37*
G36*
X92490443Y-96565519D02*
X92556627Y-96572037D01*
X92655524Y-96602037D01*
X92726467Y-96623557D01*
X92782592Y-96653557D01*
X92882991Y-96707222D01*
X92918729Y-96736552D01*
X93020186Y-96819814D01*
X93103448Y-96921271D01*
X93132778Y-96957009D01*
X93132779Y-96957011D01*
X93216443Y-97113533D01*
X93233616Y-97170147D01*
X93267963Y-97283373D01*
X93285359Y-97460000D01*
X93267963Y-97636627D01*
X93233616Y-97749853D01*
X93216443Y-97806467D01*
X93200408Y-97836466D01*
X93132778Y-97962991D01*
X93108159Y-97992989D01*
X93020186Y-98100186D01*
X92918729Y-98183448D01*
X92882991Y-98212778D01*
X92882989Y-98212779D01*
X92726467Y-98296443D01*
X92669853Y-98313616D01*
X92556627Y-98347963D01*
X92490442Y-98354482D01*
X92424260Y-98361000D01*
X92335740Y-98361000D01*
X92269558Y-98354482D01*
X92203373Y-98347963D01*
X92090147Y-98313616D01*
X92033533Y-98296443D01*
X91877011Y-98212779D01*
X91877009Y-98212778D01*
X91841271Y-98183448D01*
X91739814Y-98100186D01*
X91651841Y-97992989D01*
X91627222Y-97962991D01*
X91559592Y-97836466D01*
X91543557Y-97806467D01*
X91526384Y-97749853D01*
X91492037Y-97636627D01*
X91474641Y-97460000D01*
X91492037Y-97283373D01*
X91526384Y-97170147D01*
X91543557Y-97113533D01*
X91627221Y-96957011D01*
X91627222Y-96957009D01*
X91656552Y-96921271D01*
X91739814Y-96819814D01*
X91841271Y-96736552D01*
X91877009Y-96707222D01*
X91977408Y-96653557D01*
X92033533Y-96623557D01*
X92104476Y-96602037D01*
X92203373Y-96572037D01*
X92269557Y-96565519D01*
X92335740Y-96559000D01*
X92424260Y-96559000D01*
X92490443Y-96565519D01*
X92490443Y-96565519D01*
G37*
G36*
X112290443Y-96565519D02*
X112356627Y-96572037D01*
X112455524Y-96602037D01*
X112526467Y-96623557D01*
X112582592Y-96653557D01*
X112682991Y-96707222D01*
X112718729Y-96736552D01*
X112820186Y-96819814D01*
X112903448Y-96921271D01*
X112932778Y-96957009D01*
X112932779Y-96957011D01*
X113016443Y-97113533D01*
X113033616Y-97170147D01*
X113067963Y-97283373D01*
X113085359Y-97460000D01*
X113067963Y-97636627D01*
X113033616Y-97749853D01*
X113016443Y-97806467D01*
X113000408Y-97836466D01*
X112932778Y-97962991D01*
X112908159Y-97992989D01*
X112820186Y-98100186D01*
X112718729Y-98183448D01*
X112682991Y-98212778D01*
X112682989Y-98212779D01*
X112526467Y-98296443D01*
X112469853Y-98313616D01*
X112356627Y-98347963D01*
X112290442Y-98354482D01*
X112224260Y-98361000D01*
X112135740Y-98361000D01*
X112069558Y-98354482D01*
X112003373Y-98347963D01*
X111890147Y-98313616D01*
X111833533Y-98296443D01*
X111677011Y-98212779D01*
X111677009Y-98212778D01*
X111641271Y-98183448D01*
X111539814Y-98100186D01*
X111451841Y-97992989D01*
X111427222Y-97962991D01*
X111359592Y-97836466D01*
X111343557Y-97806467D01*
X111326384Y-97749853D01*
X111292037Y-97636627D01*
X111274641Y-97460000D01*
X111292037Y-97283373D01*
X111326384Y-97170147D01*
X111343557Y-97113533D01*
X111427221Y-96957011D01*
X111427222Y-96957009D01*
X111456552Y-96921271D01*
X111539814Y-96819814D01*
X111641271Y-96736552D01*
X111677009Y-96707222D01*
X111777408Y-96653557D01*
X111833533Y-96623557D01*
X111904476Y-96602037D01*
X112003373Y-96572037D01*
X112069557Y-96565519D01*
X112135740Y-96559000D01*
X112224260Y-96559000D01*
X112290443Y-96565519D01*
X112290443Y-96565519D01*
G37*
G36*
X127410442Y-94055518D02*
X127476627Y-94062037D01*
X127589853Y-94096384D01*
X127646467Y-94113557D01*
X127785087Y-94187652D01*
X127802991Y-94197222D01*
X127838729Y-94226552D01*
X127940186Y-94309814D01*
X128023448Y-94411271D01*
X128052778Y-94447009D01*
X128052779Y-94447011D01*
X128136443Y-94603533D01*
X128136443Y-94603534D01*
X128187963Y-94773373D01*
X128205359Y-94950000D01*
X128187963Y-95126627D01*
X128153616Y-95239853D01*
X128136443Y-95296467D01*
X128062348Y-95435087D01*
X128052778Y-95452991D01*
X128023448Y-95488729D01*
X127940186Y-95590186D01*
X127839546Y-95672778D01*
X127802991Y-95702778D01*
X127802989Y-95702779D01*
X127646467Y-95786443D01*
X127589853Y-95803616D01*
X127476627Y-95837963D01*
X127410443Y-95844481D01*
X127344260Y-95851000D01*
X127255740Y-95851000D01*
X127189557Y-95844481D01*
X127123373Y-95837963D01*
X127010147Y-95803616D01*
X126953533Y-95786443D01*
X126797011Y-95702779D01*
X126797009Y-95702778D01*
X126760454Y-95672778D01*
X126659814Y-95590186D01*
X126576552Y-95488729D01*
X126547222Y-95452991D01*
X126537652Y-95435087D01*
X126463557Y-95296467D01*
X126446384Y-95239853D01*
X126412037Y-95126627D01*
X126394641Y-94950000D01*
X126412037Y-94773373D01*
X126463557Y-94603534D01*
X126463557Y-94603533D01*
X126547221Y-94447011D01*
X126547222Y-94447009D01*
X126576552Y-94411271D01*
X126659814Y-94309814D01*
X126761271Y-94226552D01*
X126797009Y-94197222D01*
X126814913Y-94187652D01*
X126953533Y-94113557D01*
X127010147Y-94096384D01*
X127123373Y-94062037D01*
X127189558Y-94055518D01*
X127255740Y-94049000D01*
X127344260Y-94049000D01*
X127410442Y-94055518D01*
X127410442Y-94055518D01*
G37*
G36*
X107730442Y-94025518D02*
X107796627Y-94032037D01*
X107895524Y-94062037D01*
X107966467Y-94083557D01*
X108022592Y-94113557D01*
X108122991Y-94167222D01*
X108158729Y-94196552D01*
X108260186Y-94279814D01*
X108343448Y-94381271D01*
X108372778Y-94417009D01*
X108372779Y-94417011D01*
X108456443Y-94573533D01*
X108473616Y-94630147D01*
X108507963Y-94743373D01*
X108525359Y-94920000D01*
X108507963Y-95096627D01*
X108473616Y-95209853D01*
X108456443Y-95266467D01*
X108440408Y-95296466D01*
X108372778Y-95422991D01*
X108348159Y-95452989D01*
X108260186Y-95560186D01*
X108158729Y-95643448D01*
X108122991Y-95672778D01*
X108122989Y-95672779D01*
X107966467Y-95756443D01*
X107909853Y-95773616D01*
X107796627Y-95807963D01*
X107730443Y-95814481D01*
X107664260Y-95821000D01*
X107575740Y-95821000D01*
X107509557Y-95814481D01*
X107443373Y-95807963D01*
X107330147Y-95773616D01*
X107273533Y-95756443D01*
X107117011Y-95672779D01*
X107117009Y-95672778D01*
X107081271Y-95643448D01*
X106979814Y-95560186D01*
X106891841Y-95452989D01*
X106867222Y-95422991D01*
X106799592Y-95296466D01*
X106783557Y-95266467D01*
X106766384Y-95209853D01*
X106732037Y-95096627D01*
X106714641Y-94920000D01*
X106732037Y-94743373D01*
X106766384Y-94630147D01*
X106783557Y-94573533D01*
X106867221Y-94417011D01*
X106867222Y-94417009D01*
X106896552Y-94381271D01*
X106979814Y-94279814D01*
X107081271Y-94196552D01*
X107117009Y-94167222D01*
X107217408Y-94113557D01*
X107273533Y-94083557D01*
X107344476Y-94062037D01*
X107443373Y-94032037D01*
X107509558Y-94025518D01*
X107575740Y-94019000D01*
X107664260Y-94019000D01*
X107730442Y-94025518D01*
X107730442Y-94025518D01*
G37*
G36*
X92490442Y-94025518D02*
X92556627Y-94032037D01*
X92655524Y-94062037D01*
X92726467Y-94083557D01*
X92782592Y-94113557D01*
X92882991Y-94167222D01*
X92918729Y-94196552D01*
X93020186Y-94279814D01*
X93103448Y-94381271D01*
X93132778Y-94417009D01*
X93132779Y-94417011D01*
X93216443Y-94573533D01*
X93233616Y-94630147D01*
X93267963Y-94743373D01*
X93285359Y-94920000D01*
X93267963Y-95096627D01*
X93233616Y-95209853D01*
X93216443Y-95266467D01*
X93200408Y-95296466D01*
X93132778Y-95422991D01*
X93108159Y-95452989D01*
X93020186Y-95560186D01*
X92918729Y-95643448D01*
X92882991Y-95672778D01*
X92882989Y-95672779D01*
X92726467Y-95756443D01*
X92669853Y-95773616D01*
X92556627Y-95807963D01*
X92490443Y-95814481D01*
X92424260Y-95821000D01*
X92335740Y-95821000D01*
X92269557Y-95814481D01*
X92203373Y-95807963D01*
X92090147Y-95773616D01*
X92033533Y-95756443D01*
X91877011Y-95672779D01*
X91877009Y-95672778D01*
X91841271Y-95643448D01*
X91739814Y-95560186D01*
X91651841Y-95452989D01*
X91627222Y-95422991D01*
X91559592Y-95296466D01*
X91543557Y-95266467D01*
X91526384Y-95209853D01*
X91492037Y-95096627D01*
X91474641Y-94920000D01*
X91492037Y-94743373D01*
X91526384Y-94630147D01*
X91543557Y-94573533D01*
X91627221Y-94417011D01*
X91627222Y-94417009D01*
X91656552Y-94381271D01*
X91739814Y-94279814D01*
X91841271Y-94196552D01*
X91877009Y-94167222D01*
X91977408Y-94113557D01*
X92033533Y-94083557D01*
X92104476Y-94062037D01*
X92203373Y-94032037D01*
X92269558Y-94025518D01*
X92335740Y-94019000D01*
X92424260Y-94019000D01*
X92490442Y-94025518D01*
X92490442Y-94025518D01*
G37*
G36*
X112290442Y-94025518D02*
X112356627Y-94032037D01*
X112455524Y-94062037D01*
X112526467Y-94083557D01*
X112582592Y-94113557D01*
X112682991Y-94167222D01*
X112718729Y-94196552D01*
X112820186Y-94279814D01*
X112903448Y-94381271D01*
X112932778Y-94417009D01*
X112932779Y-94417011D01*
X113016443Y-94573533D01*
X113033616Y-94630147D01*
X113067963Y-94743373D01*
X113085359Y-94920000D01*
X113067963Y-95096627D01*
X113033616Y-95209853D01*
X113016443Y-95266467D01*
X113000408Y-95296466D01*
X112932778Y-95422991D01*
X112908159Y-95452989D01*
X112820186Y-95560186D01*
X112718729Y-95643448D01*
X112682991Y-95672778D01*
X112682989Y-95672779D01*
X112526467Y-95756443D01*
X112469853Y-95773616D01*
X112356627Y-95807963D01*
X112290443Y-95814481D01*
X112224260Y-95821000D01*
X112135740Y-95821000D01*
X112069557Y-95814481D01*
X112003373Y-95807963D01*
X111890147Y-95773616D01*
X111833533Y-95756443D01*
X111677011Y-95672779D01*
X111677009Y-95672778D01*
X111641271Y-95643448D01*
X111539814Y-95560186D01*
X111451841Y-95452989D01*
X111427222Y-95422991D01*
X111359592Y-95296466D01*
X111343557Y-95266467D01*
X111326384Y-95209853D01*
X111292037Y-95096627D01*
X111274641Y-94920000D01*
X111292037Y-94743373D01*
X111326384Y-94630147D01*
X111343557Y-94573533D01*
X111427221Y-94417011D01*
X111427222Y-94417009D01*
X111456552Y-94381271D01*
X111539814Y-94279814D01*
X111641271Y-94196552D01*
X111677009Y-94167222D01*
X111777408Y-94113557D01*
X111833533Y-94083557D01*
X111904476Y-94062037D01*
X112003373Y-94032037D01*
X112069558Y-94025518D01*
X112135740Y-94019000D01*
X112224260Y-94019000D01*
X112290442Y-94025518D01*
X112290442Y-94025518D01*
G37*
G36*
X127410443Y-91515519D02*
X127476627Y-91522037D01*
X127589853Y-91556384D01*
X127646467Y-91573557D01*
X127785087Y-91647652D01*
X127802991Y-91657222D01*
X127838729Y-91686552D01*
X127940186Y-91769814D01*
X128023448Y-91871271D01*
X128052778Y-91907009D01*
X128052779Y-91907011D01*
X128136443Y-92063533D01*
X128136443Y-92063534D01*
X128187963Y-92233373D01*
X128205359Y-92410000D01*
X128187963Y-92586627D01*
X128153616Y-92699853D01*
X128136443Y-92756467D01*
X128062348Y-92895087D01*
X128052778Y-92912991D01*
X128023448Y-92948729D01*
X127940186Y-93050186D01*
X127839546Y-93132778D01*
X127802991Y-93162778D01*
X127802989Y-93162779D01*
X127646467Y-93246443D01*
X127589853Y-93263616D01*
X127476627Y-93297963D01*
X127410442Y-93304482D01*
X127344260Y-93311000D01*
X127255740Y-93311000D01*
X127189558Y-93304482D01*
X127123373Y-93297963D01*
X127010147Y-93263616D01*
X126953533Y-93246443D01*
X126797011Y-93162779D01*
X126797009Y-93162778D01*
X126760454Y-93132778D01*
X126659814Y-93050186D01*
X126576552Y-92948729D01*
X126547222Y-92912991D01*
X126537652Y-92895087D01*
X126463557Y-92756467D01*
X126446384Y-92699853D01*
X126412037Y-92586627D01*
X126394641Y-92410000D01*
X126412037Y-92233373D01*
X126463557Y-92063534D01*
X126463557Y-92063533D01*
X126547221Y-91907011D01*
X126547222Y-91907009D01*
X126576552Y-91871271D01*
X126659814Y-91769814D01*
X126761271Y-91686552D01*
X126797009Y-91657222D01*
X126814913Y-91647652D01*
X126953533Y-91573557D01*
X127010147Y-91556384D01*
X127123373Y-91522037D01*
X127189557Y-91515519D01*
X127255740Y-91509000D01*
X127344260Y-91509000D01*
X127410443Y-91515519D01*
X127410443Y-91515519D01*
G37*
G36*
X107730442Y-91485518D02*
X107796627Y-91492037D01*
X107895524Y-91522037D01*
X107966467Y-91543557D01*
X108022592Y-91573557D01*
X108122991Y-91627222D01*
X108158729Y-91656552D01*
X108260186Y-91739814D01*
X108343448Y-91841271D01*
X108372778Y-91877009D01*
X108372779Y-91877011D01*
X108456443Y-92033533D01*
X108473616Y-92090147D01*
X108507963Y-92203373D01*
X108525359Y-92380000D01*
X108507963Y-92556627D01*
X108490862Y-92613000D01*
X108456443Y-92726467D01*
X108440408Y-92756466D01*
X108372778Y-92882991D01*
X108348159Y-92912989D01*
X108260186Y-93020186D01*
X108158729Y-93103448D01*
X108122991Y-93132778D01*
X108122989Y-93132779D01*
X107966467Y-93216443D01*
X107909853Y-93233616D01*
X107796627Y-93267963D01*
X107730442Y-93274482D01*
X107664260Y-93281000D01*
X107575740Y-93281000D01*
X107509558Y-93274482D01*
X107443373Y-93267963D01*
X107330147Y-93233616D01*
X107273533Y-93216443D01*
X107117011Y-93132779D01*
X107117009Y-93132778D01*
X107081271Y-93103448D01*
X106979814Y-93020186D01*
X106891841Y-92912989D01*
X106867222Y-92882991D01*
X106799592Y-92756466D01*
X106783557Y-92726467D01*
X106749138Y-92613000D01*
X106732037Y-92556627D01*
X106714641Y-92380000D01*
X106732037Y-92203373D01*
X106766384Y-92090147D01*
X106783557Y-92033533D01*
X106867221Y-91877011D01*
X106867222Y-91877009D01*
X106896552Y-91841271D01*
X106979814Y-91739814D01*
X107081271Y-91656552D01*
X107117009Y-91627222D01*
X107217408Y-91573557D01*
X107273533Y-91543557D01*
X107344476Y-91522037D01*
X107443373Y-91492037D01*
X107509558Y-91485518D01*
X107575740Y-91479000D01*
X107664260Y-91479000D01*
X107730442Y-91485518D01*
X107730442Y-91485518D01*
G37*
G36*
X92490442Y-91485518D02*
X92556627Y-91492037D01*
X92655524Y-91522037D01*
X92726467Y-91543557D01*
X92782592Y-91573557D01*
X92882991Y-91627222D01*
X92918729Y-91656552D01*
X93020186Y-91739814D01*
X93103448Y-91841271D01*
X93132778Y-91877009D01*
X93132779Y-91877011D01*
X93216443Y-92033533D01*
X93233616Y-92090147D01*
X93267963Y-92203373D01*
X93285359Y-92380000D01*
X93267963Y-92556627D01*
X93250862Y-92613000D01*
X93216443Y-92726467D01*
X93200408Y-92756466D01*
X93132778Y-92882991D01*
X93108159Y-92912989D01*
X93020186Y-93020186D01*
X92918729Y-93103448D01*
X92882991Y-93132778D01*
X92882989Y-93132779D01*
X92726467Y-93216443D01*
X92669853Y-93233616D01*
X92556627Y-93267963D01*
X92490442Y-93274482D01*
X92424260Y-93281000D01*
X92335740Y-93281000D01*
X92269558Y-93274482D01*
X92203373Y-93267963D01*
X92090147Y-93233616D01*
X92033533Y-93216443D01*
X91877011Y-93132779D01*
X91877009Y-93132778D01*
X91841271Y-93103448D01*
X91739814Y-93020186D01*
X91651841Y-92912989D01*
X91627222Y-92882991D01*
X91559592Y-92756466D01*
X91543557Y-92726467D01*
X91509138Y-92613000D01*
X91492037Y-92556627D01*
X91474641Y-92380000D01*
X91492037Y-92203373D01*
X91526384Y-92090147D01*
X91543557Y-92033533D01*
X91627221Y-91877011D01*
X91627222Y-91877009D01*
X91656552Y-91841271D01*
X91739814Y-91739814D01*
X91841271Y-91656552D01*
X91877009Y-91627222D01*
X91977408Y-91573557D01*
X92033533Y-91543557D01*
X92104476Y-91522037D01*
X92203373Y-91492037D01*
X92269558Y-91485518D01*
X92335740Y-91479000D01*
X92424260Y-91479000D01*
X92490442Y-91485518D01*
X92490442Y-91485518D01*
G37*
G36*
X112290442Y-91485518D02*
X112356627Y-91492037D01*
X112455524Y-91522037D01*
X112526467Y-91543557D01*
X112582592Y-91573557D01*
X112682991Y-91627222D01*
X112718729Y-91656552D01*
X112820186Y-91739814D01*
X112903448Y-91841271D01*
X112932778Y-91877009D01*
X112932779Y-91877011D01*
X113016443Y-92033533D01*
X113033616Y-92090147D01*
X113067963Y-92203373D01*
X113085359Y-92380000D01*
X113067963Y-92556627D01*
X113050862Y-92613000D01*
X113016443Y-92726467D01*
X113000408Y-92756466D01*
X112932778Y-92882991D01*
X112908159Y-92912989D01*
X112820186Y-93020186D01*
X112718729Y-93103448D01*
X112682991Y-93132778D01*
X112682989Y-93132779D01*
X112526467Y-93216443D01*
X112469853Y-93233616D01*
X112356627Y-93267963D01*
X112290442Y-93274482D01*
X112224260Y-93281000D01*
X112135740Y-93281000D01*
X112069558Y-93274482D01*
X112003373Y-93267963D01*
X111890147Y-93233616D01*
X111833533Y-93216443D01*
X111677011Y-93132779D01*
X111677009Y-93132778D01*
X111641271Y-93103448D01*
X111539814Y-93020186D01*
X111451841Y-92912989D01*
X111427222Y-92882991D01*
X111359592Y-92756466D01*
X111343557Y-92726467D01*
X111309138Y-92613000D01*
X111292037Y-92556627D01*
X111274641Y-92380000D01*
X111292037Y-92203373D01*
X111326384Y-92090147D01*
X111343557Y-92033533D01*
X111427221Y-91877011D01*
X111427222Y-91877009D01*
X111456552Y-91841271D01*
X111539814Y-91739814D01*
X111641271Y-91656552D01*
X111677009Y-91627222D01*
X111777408Y-91573557D01*
X111833533Y-91543557D01*
X111904476Y-91522037D01*
X112003373Y-91492037D01*
X112069558Y-91485518D01*
X112135740Y-91479000D01*
X112224260Y-91479000D01*
X112290442Y-91485518D01*
X112290442Y-91485518D01*
G37*
G36*
X97813000Y-92613000D02*
X96187000Y-92613000D01*
X96187000Y-90987000D01*
X97813000Y-90987000D01*
X97813000Y-92613000D01*
X97813000Y-92613000D01*
G37*
G36*
X103237142Y-91018242D02*
X103385102Y-91079530D01*
X103518258Y-91168502D01*
X103631498Y-91281742D01*
X103720470Y-91414898D01*
X103781758Y-91562858D01*
X103813000Y-91719925D01*
X103813000Y-91880075D01*
X103781758Y-92037142D01*
X103720470Y-92185102D01*
X103631498Y-92318258D01*
X103518258Y-92431498D01*
X103385102Y-92520470D01*
X103237142Y-92581758D01*
X103080075Y-92613000D01*
X102919925Y-92613000D01*
X102762858Y-92581758D01*
X102614898Y-92520470D01*
X102481742Y-92431498D01*
X102368502Y-92318258D01*
X102279530Y-92185102D01*
X102218242Y-92037142D01*
X102187000Y-91880075D01*
X102187000Y-91719925D01*
X102218242Y-91562858D01*
X102279530Y-91414898D01*
X102368502Y-91281742D01*
X102481742Y-91168502D01*
X102614898Y-91079530D01*
X102762858Y-91018242D01*
X102919925Y-90987000D01*
X103080075Y-90987000D01*
X103237142Y-91018242D01*
X103237142Y-91018242D01*
G37*
G36*
X101237142Y-91018242D02*
X101385102Y-91079530D01*
X101518258Y-91168502D01*
X101631498Y-91281742D01*
X101720470Y-91414898D01*
X101781758Y-91562858D01*
X101813000Y-91719925D01*
X101813000Y-91880075D01*
X101781758Y-92037142D01*
X101720470Y-92185102D01*
X101631498Y-92318258D01*
X101518258Y-92431498D01*
X101385102Y-92520470D01*
X101237142Y-92581758D01*
X101080075Y-92613000D01*
X100919925Y-92613000D01*
X100762858Y-92581758D01*
X100614898Y-92520470D01*
X100481742Y-92431498D01*
X100368502Y-92318258D01*
X100279530Y-92185102D01*
X100218242Y-92037142D01*
X100187000Y-91880075D01*
X100187000Y-91719925D01*
X100218242Y-91562858D01*
X100279530Y-91414898D01*
X100368502Y-91281742D01*
X100481742Y-91168502D01*
X100614898Y-91079530D01*
X100762858Y-91018242D01*
X100919925Y-90987000D01*
X101080075Y-90987000D01*
X101237142Y-91018242D01*
X101237142Y-91018242D01*
G37*
G36*
X99237142Y-91018242D02*
X99385102Y-91079530D01*
X99518258Y-91168502D01*
X99631498Y-91281742D01*
X99720470Y-91414898D01*
X99781758Y-91562858D01*
X99813000Y-91719925D01*
X99813000Y-91880075D01*
X99781758Y-92037142D01*
X99720470Y-92185102D01*
X99631498Y-92318258D01*
X99518258Y-92431498D01*
X99385102Y-92520470D01*
X99237142Y-92581758D01*
X99080075Y-92613000D01*
X98919925Y-92613000D01*
X98762858Y-92581758D01*
X98614898Y-92520470D01*
X98481742Y-92431498D01*
X98368502Y-92318258D01*
X98279530Y-92185102D01*
X98218242Y-92037142D01*
X98187000Y-91880075D01*
X98187000Y-91719925D01*
X98218242Y-91562858D01*
X98279530Y-91414898D01*
X98368502Y-91281742D01*
X98481742Y-91168502D01*
X98614898Y-91079530D01*
X98762858Y-91018242D01*
X98919925Y-90987000D01*
X99080075Y-90987000D01*
X99237142Y-91018242D01*
X99237142Y-91018242D01*
G37*
G36*
X117613000Y-92613000D02*
X115987000Y-92613000D01*
X115987000Y-90987000D01*
X117613000Y-90987000D01*
X117613000Y-92613000D01*
X117613000Y-92613000D01*
G37*
G36*
X119037142Y-91018242D02*
X119185102Y-91079530D01*
X119318258Y-91168502D01*
X119431498Y-91281742D01*
X119520470Y-91414898D01*
X119581758Y-91562858D01*
X119613000Y-91719925D01*
X119613000Y-91880075D01*
X119581758Y-92037142D01*
X119520470Y-92185102D01*
X119431498Y-92318258D01*
X119318258Y-92431498D01*
X119185102Y-92520470D01*
X119037142Y-92581758D01*
X118880075Y-92613000D01*
X118719925Y-92613000D01*
X118562858Y-92581758D01*
X118414898Y-92520470D01*
X118281742Y-92431498D01*
X118168502Y-92318258D01*
X118079530Y-92185102D01*
X118018242Y-92037142D01*
X117987000Y-91880075D01*
X117987000Y-91719925D01*
X118018242Y-91562858D01*
X118079530Y-91414898D01*
X118168502Y-91281742D01*
X118281742Y-91168502D01*
X118414898Y-91079530D01*
X118562858Y-91018242D01*
X118719925Y-90987000D01*
X118880075Y-90987000D01*
X119037142Y-91018242D01*
X119037142Y-91018242D01*
G37*
G36*
X123037142Y-91018242D02*
X123185102Y-91079530D01*
X123318258Y-91168502D01*
X123431498Y-91281742D01*
X123520470Y-91414898D01*
X123581758Y-91562858D01*
X123613000Y-91719925D01*
X123613000Y-91880075D01*
X123581758Y-92037142D01*
X123520470Y-92185102D01*
X123431498Y-92318258D01*
X123318258Y-92431498D01*
X123185102Y-92520470D01*
X123037142Y-92581758D01*
X122880075Y-92613000D01*
X122719925Y-92613000D01*
X122562858Y-92581758D01*
X122414898Y-92520470D01*
X122281742Y-92431498D01*
X122168502Y-92318258D01*
X122079530Y-92185102D01*
X122018242Y-92037142D01*
X121987000Y-91880075D01*
X121987000Y-91719925D01*
X122018242Y-91562858D01*
X122079530Y-91414898D01*
X122168502Y-91281742D01*
X122281742Y-91168502D01*
X122414898Y-91079530D01*
X122562858Y-91018242D01*
X122719925Y-90987000D01*
X122880075Y-90987000D01*
X123037142Y-91018242D01*
X123037142Y-91018242D01*
G37*
G36*
X121037142Y-91018242D02*
X121185102Y-91079530D01*
X121318258Y-91168502D01*
X121431498Y-91281742D01*
X121520470Y-91414898D01*
X121581758Y-91562858D01*
X121613000Y-91719925D01*
X121613000Y-91880075D01*
X121581758Y-92037142D01*
X121520470Y-92185102D01*
X121431498Y-92318258D01*
X121318258Y-92431498D01*
X121185102Y-92520470D01*
X121037142Y-92581758D01*
X120880075Y-92613000D01*
X120719925Y-92613000D01*
X120562858Y-92581758D01*
X120414898Y-92520470D01*
X120281742Y-92431498D01*
X120168502Y-92318258D01*
X120079530Y-92185102D01*
X120018242Y-92037142D01*
X119987000Y-91880075D01*
X119987000Y-91719925D01*
X120018242Y-91562858D01*
X120079530Y-91414898D01*
X120168502Y-91281742D01*
X120281742Y-91168502D01*
X120414898Y-91079530D01*
X120562858Y-91018242D01*
X120719925Y-90987000D01*
X120880075Y-90987000D01*
X121037142Y-91018242D01*
X121037142Y-91018242D01*
G37*
G36*
X127410442Y-88975518D02*
X127476627Y-88982037D01*
X127589853Y-89016384D01*
X127646467Y-89033557D01*
X127785087Y-89107652D01*
X127802991Y-89117222D01*
X127838729Y-89146552D01*
X127940186Y-89229814D01*
X128023448Y-89331271D01*
X128052778Y-89367009D01*
X128052779Y-89367011D01*
X128136443Y-89523533D01*
X128136443Y-89523534D01*
X128187963Y-89693373D01*
X128205359Y-89870000D01*
X128187963Y-90046627D01*
X128153616Y-90159853D01*
X128136443Y-90216467D01*
X128062348Y-90355087D01*
X128052778Y-90372991D01*
X128023448Y-90408729D01*
X127940186Y-90510186D01*
X127839546Y-90592778D01*
X127802991Y-90622778D01*
X127802989Y-90622779D01*
X127646467Y-90706443D01*
X127589853Y-90723616D01*
X127476627Y-90757963D01*
X127410442Y-90764482D01*
X127344260Y-90771000D01*
X127255740Y-90771000D01*
X127189558Y-90764482D01*
X127123373Y-90757963D01*
X127010147Y-90723616D01*
X126953533Y-90706443D01*
X126797011Y-90622779D01*
X126797009Y-90622778D01*
X126760454Y-90592778D01*
X126659814Y-90510186D01*
X126576552Y-90408729D01*
X126547222Y-90372991D01*
X126537652Y-90355087D01*
X126463557Y-90216467D01*
X126446384Y-90159853D01*
X126412037Y-90046627D01*
X126394641Y-89870000D01*
X126412037Y-89693373D01*
X126463557Y-89523534D01*
X126463557Y-89523533D01*
X126547221Y-89367011D01*
X126547222Y-89367009D01*
X126576552Y-89331271D01*
X126659814Y-89229814D01*
X126761271Y-89146552D01*
X126797009Y-89117222D01*
X126814913Y-89107652D01*
X126953533Y-89033557D01*
X127010147Y-89016384D01*
X127123373Y-88982037D01*
X127189558Y-88975518D01*
X127255740Y-88969000D01*
X127344260Y-88969000D01*
X127410442Y-88975518D01*
X127410442Y-88975518D01*
G37*
G36*
X92490443Y-88945519D02*
X92556627Y-88952037D01*
X92655524Y-88982037D01*
X92726467Y-89003557D01*
X92782592Y-89033557D01*
X92882991Y-89087222D01*
X92918729Y-89116552D01*
X93020186Y-89199814D01*
X93103448Y-89301271D01*
X93132778Y-89337009D01*
X93132779Y-89337011D01*
X93216443Y-89493533D01*
X93233616Y-89550147D01*
X93267963Y-89663373D01*
X93285359Y-89840000D01*
X93267963Y-90016627D01*
X93233616Y-90129853D01*
X93216443Y-90186467D01*
X93200408Y-90216466D01*
X93132778Y-90342991D01*
X93108159Y-90372989D01*
X93020186Y-90480186D01*
X92918729Y-90563448D01*
X92882991Y-90592778D01*
X92882989Y-90592779D01*
X92726467Y-90676443D01*
X92669853Y-90693616D01*
X92556627Y-90727963D01*
X92490443Y-90734481D01*
X92424260Y-90741000D01*
X92335740Y-90741000D01*
X92269557Y-90734481D01*
X92203373Y-90727963D01*
X92090147Y-90693616D01*
X92033533Y-90676443D01*
X91877011Y-90592779D01*
X91877009Y-90592778D01*
X91841271Y-90563448D01*
X91739814Y-90480186D01*
X91651841Y-90372989D01*
X91627222Y-90342991D01*
X91559592Y-90216466D01*
X91543557Y-90186467D01*
X91526384Y-90129853D01*
X91492037Y-90016627D01*
X91474641Y-89840000D01*
X91492037Y-89663373D01*
X91526384Y-89550147D01*
X91543557Y-89493533D01*
X91627221Y-89337011D01*
X91627222Y-89337009D01*
X91656552Y-89301271D01*
X91739814Y-89199814D01*
X91841271Y-89116552D01*
X91877009Y-89087222D01*
X91977408Y-89033557D01*
X92033533Y-89003557D01*
X92104476Y-88982037D01*
X92203373Y-88952037D01*
X92269557Y-88945519D01*
X92335740Y-88939000D01*
X92424260Y-88939000D01*
X92490443Y-88945519D01*
X92490443Y-88945519D01*
G37*
G36*
X107730443Y-88945519D02*
X107796627Y-88952037D01*
X107895524Y-88982037D01*
X107966467Y-89003557D01*
X108022592Y-89033557D01*
X108122991Y-89087222D01*
X108158729Y-89116552D01*
X108260186Y-89199814D01*
X108343448Y-89301271D01*
X108372778Y-89337009D01*
X108372779Y-89337011D01*
X108456443Y-89493533D01*
X108473616Y-89550147D01*
X108507963Y-89663373D01*
X108525359Y-89840000D01*
X108507963Y-90016627D01*
X108473616Y-90129853D01*
X108456443Y-90186467D01*
X108440408Y-90216466D01*
X108372778Y-90342991D01*
X108348159Y-90372989D01*
X108260186Y-90480186D01*
X108158729Y-90563448D01*
X108122991Y-90592778D01*
X108122989Y-90592779D01*
X107966467Y-90676443D01*
X107909853Y-90693616D01*
X107796627Y-90727963D01*
X107730443Y-90734481D01*
X107664260Y-90741000D01*
X107575740Y-90741000D01*
X107509557Y-90734481D01*
X107443373Y-90727963D01*
X107330147Y-90693616D01*
X107273533Y-90676443D01*
X107117011Y-90592779D01*
X107117009Y-90592778D01*
X107081271Y-90563448D01*
X106979814Y-90480186D01*
X106891841Y-90372989D01*
X106867222Y-90342991D01*
X106799592Y-90216466D01*
X106783557Y-90186467D01*
X106766384Y-90129853D01*
X106732037Y-90016627D01*
X106714641Y-89840000D01*
X106732037Y-89663373D01*
X106766384Y-89550147D01*
X106783557Y-89493533D01*
X106867221Y-89337011D01*
X106867222Y-89337009D01*
X106896552Y-89301271D01*
X106979814Y-89199814D01*
X107081271Y-89116552D01*
X107117009Y-89087222D01*
X107217408Y-89033557D01*
X107273533Y-89003557D01*
X107344476Y-88982037D01*
X107443373Y-88952037D01*
X107509557Y-88945519D01*
X107575740Y-88939000D01*
X107664260Y-88939000D01*
X107730443Y-88945519D01*
X107730443Y-88945519D01*
G37*
G36*
X112290443Y-88945519D02*
X112356627Y-88952037D01*
X112455524Y-88982037D01*
X112526467Y-89003557D01*
X112582592Y-89033557D01*
X112682991Y-89087222D01*
X112718729Y-89116552D01*
X112820186Y-89199814D01*
X112903448Y-89301271D01*
X112932778Y-89337009D01*
X112932779Y-89337011D01*
X113016443Y-89493533D01*
X113033616Y-89550147D01*
X113067963Y-89663373D01*
X113085359Y-89840000D01*
X113067963Y-90016627D01*
X113033616Y-90129853D01*
X113016443Y-90186467D01*
X113000408Y-90216466D01*
X112932778Y-90342991D01*
X112908159Y-90372989D01*
X112820186Y-90480186D01*
X112718729Y-90563448D01*
X112682991Y-90592778D01*
X112682989Y-90592779D01*
X112526467Y-90676443D01*
X112469853Y-90693616D01*
X112356627Y-90727963D01*
X112290443Y-90734481D01*
X112224260Y-90741000D01*
X112135740Y-90741000D01*
X112069557Y-90734481D01*
X112003373Y-90727963D01*
X111890147Y-90693616D01*
X111833533Y-90676443D01*
X111677011Y-90592779D01*
X111677009Y-90592778D01*
X111641271Y-90563448D01*
X111539814Y-90480186D01*
X111451841Y-90372989D01*
X111427222Y-90342991D01*
X111359592Y-90216466D01*
X111343557Y-90186467D01*
X111326384Y-90129853D01*
X111292037Y-90016627D01*
X111274641Y-89840000D01*
X111292037Y-89663373D01*
X111326384Y-89550147D01*
X111343557Y-89493533D01*
X111427221Y-89337011D01*
X111427222Y-89337009D01*
X111456552Y-89301271D01*
X111539814Y-89199814D01*
X111641271Y-89116552D01*
X111677009Y-89087222D01*
X111777408Y-89033557D01*
X111833533Y-89003557D01*
X111904476Y-88982037D01*
X112003373Y-88952037D01*
X112069557Y-88945519D01*
X112135740Y-88939000D01*
X112224260Y-88939000D01*
X112290443Y-88945519D01*
X112290443Y-88945519D01*
G37*
G36*
X127410443Y-86435519D02*
X127476627Y-86442037D01*
X127589853Y-86476384D01*
X127646467Y-86493557D01*
X127785087Y-86567652D01*
X127802991Y-86577222D01*
X127838729Y-86606552D01*
X127940186Y-86689814D01*
X128023448Y-86791271D01*
X128052778Y-86827009D01*
X128052779Y-86827011D01*
X128136443Y-86983533D01*
X128136443Y-86983534D01*
X128187963Y-87153373D01*
X128205359Y-87330000D01*
X128187963Y-87506627D01*
X128153616Y-87619853D01*
X128136443Y-87676467D01*
X128062348Y-87815087D01*
X128052778Y-87832991D01*
X128023448Y-87868729D01*
X127940186Y-87970186D01*
X127839546Y-88052778D01*
X127802991Y-88082778D01*
X127802989Y-88082779D01*
X127646467Y-88166443D01*
X127589853Y-88183616D01*
X127476627Y-88217963D01*
X127410443Y-88224481D01*
X127344260Y-88231000D01*
X127255740Y-88231000D01*
X127189557Y-88224481D01*
X127123373Y-88217963D01*
X127010147Y-88183616D01*
X126953533Y-88166443D01*
X126797011Y-88082779D01*
X126797009Y-88082778D01*
X126760454Y-88052778D01*
X126659814Y-87970186D01*
X126576552Y-87868729D01*
X126547222Y-87832991D01*
X126537652Y-87815087D01*
X126463557Y-87676467D01*
X126446384Y-87619853D01*
X126412037Y-87506627D01*
X126394641Y-87330000D01*
X126412037Y-87153373D01*
X126463557Y-86983534D01*
X126463557Y-86983533D01*
X126547221Y-86827011D01*
X126547222Y-86827009D01*
X126576552Y-86791271D01*
X126659814Y-86689814D01*
X126761271Y-86606552D01*
X126797009Y-86577222D01*
X126814913Y-86567652D01*
X126953533Y-86493557D01*
X127010147Y-86476384D01*
X127123373Y-86442037D01*
X127189557Y-86435519D01*
X127255740Y-86429000D01*
X127344260Y-86429000D01*
X127410443Y-86435519D01*
X127410443Y-86435519D01*
G37*
G36*
X92490443Y-86405519D02*
X92556627Y-86412037D01*
X92655524Y-86442037D01*
X92726467Y-86463557D01*
X92782592Y-86493557D01*
X92882991Y-86547222D01*
X92918729Y-86576552D01*
X93020186Y-86659814D01*
X93103448Y-86761271D01*
X93132778Y-86797009D01*
X93132779Y-86797011D01*
X93216443Y-86953533D01*
X93233616Y-87010147D01*
X93267963Y-87123373D01*
X93285359Y-87300000D01*
X93267963Y-87476627D01*
X93233616Y-87589853D01*
X93216443Y-87646467D01*
X93200408Y-87676466D01*
X93132778Y-87802991D01*
X93108159Y-87832989D01*
X93020186Y-87940186D01*
X92918729Y-88023448D01*
X92882991Y-88052778D01*
X92882989Y-88052779D01*
X92726467Y-88136443D01*
X92669853Y-88153616D01*
X92556627Y-88187963D01*
X92490443Y-88194481D01*
X92424260Y-88201000D01*
X92335740Y-88201000D01*
X92269557Y-88194481D01*
X92203373Y-88187963D01*
X92090147Y-88153616D01*
X92033533Y-88136443D01*
X91877011Y-88052779D01*
X91877009Y-88052778D01*
X91841271Y-88023448D01*
X91739814Y-87940186D01*
X91651841Y-87832989D01*
X91627222Y-87802991D01*
X91559592Y-87676466D01*
X91543557Y-87646467D01*
X91526384Y-87589853D01*
X91492037Y-87476627D01*
X91474641Y-87300000D01*
X91492037Y-87123373D01*
X91526384Y-87010147D01*
X91543557Y-86953533D01*
X91627221Y-86797011D01*
X91627222Y-86797009D01*
X91656552Y-86761271D01*
X91739814Y-86659814D01*
X91841271Y-86576552D01*
X91877009Y-86547222D01*
X91977408Y-86493557D01*
X92033533Y-86463557D01*
X92104476Y-86442037D01*
X92203373Y-86412037D01*
X92269557Y-86405519D01*
X92335740Y-86399000D01*
X92424260Y-86399000D01*
X92490443Y-86405519D01*
X92490443Y-86405519D01*
G37*
G36*
X112290443Y-86405519D02*
X112356627Y-86412037D01*
X112455524Y-86442037D01*
X112526467Y-86463557D01*
X112582592Y-86493557D01*
X112682991Y-86547222D01*
X112718729Y-86576552D01*
X112820186Y-86659814D01*
X112903448Y-86761271D01*
X112932778Y-86797009D01*
X112932779Y-86797011D01*
X113016443Y-86953533D01*
X113033616Y-87010147D01*
X113067963Y-87123373D01*
X113085359Y-87300000D01*
X113067963Y-87476627D01*
X113033616Y-87589853D01*
X113016443Y-87646467D01*
X113000408Y-87676466D01*
X112932778Y-87802991D01*
X112908159Y-87832989D01*
X112820186Y-87940186D01*
X112718729Y-88023448D01*
X112682991Y-88052778D01*
X112682989Y-88052779D01*
X112526467Y-88136443D01*
X112469853Y-88153616D01*
X112356627Y-88187963D01*
X112290443Y-88194481D01*
X112224260Y-88201000D01*
X112135740Y-88201000D01*
X112069557Y-88194481D01*
X112003373Y-88187963D01*
X111890147Y-88153616D01*
X111833533Y-88136443D01*
X111677011Y-88052779D01*
X111677009Y-88052778D01*
X111641271Y-88023448D01*
X111539814Y-87940186D01*
X111451841Y-87832989D01*
X111427222Y-87802991D01*
X111359592Y-87676466D01*
X111343557Y-87646467D01*
X111326384Y-87589853D01*
X111292037Y-87476627D01*
X111274641Y-87300000D01*
X111292037Y-87123373D01*
X111326384Y-87010147D01*
X111343557Y-86953533D01*
X111427221Y-86797011D01*
X111427222Y-86797009D01*
X111456552Y-86761271D01*
X111539814Y-86659814D01*
X111641271Y-86576552D01*
X111677009Y-86547222D01*
X111777408Y-86493557D01*
X111833533Y-86463557D01*
X111904476Y-86442037D01*
X112003373Y-86412037D01*
X112069557Y-86405519D01*
X112135740Y-86399000D01*
X112224260Y-86399000D01*
X112290443Y-86405519D01*
X112290443Y-86405519D01*
G37*
G36*
X107730443Y-86405519D02*
X107796627Y-86412037D01*
X107895524Y-86442037D01*
X107966467Y-86463557D01*
X108022592Y-86493557D01*
X108122991Y-86547222D01*
X108158729Y-86576552D01*
X108260186Y-86659814D01*
X108343448Y-86761271D01*
X108372778Y-86797009D01*
X108372779Y-86797011D01*
X108456443Y-86953533D01*
X108473616Y-87010147D01*
X108507963Y-87123373D01*
X108525359Y-87300000D01*
X108507963Y-87476627D01*
X108473616Y-87589853D01*
X108456443Y-87646467D01*
X108440408Y-87676466D01*
X108372778Y-87802991D01*
X108348159Y-87832989D01*
X108260186Y-87940186D01*
X108158729Y-88023448D01*
X108122991Y-88052778D01*
X108122989Y-88052779D01*
X107966467Y-88136443D01*
X107909853Y-88153616D01*
X107796627Y-88187963D01*
X107730443Y-88194481D01*
X107664260Y-88201000D01*
X107575740Y-88201000D01*
X107509557Y-88194481D01*
X107443373Y-88187963D01*
X107330147Y-88153616D01*
X107273533Y-88136443D01*
X107117011Y-88052779D01*
X107117009Y-88052778D01*
X107081271Y-88023448D01*
X106979814Y-87940186D01*
X106891841Y-87832989D01*
X106867222Y-87802991D01*
X106799592Y-87676466D01*
X106783557Y-87646467D01*
X106766384Y-87589853D01*
X106732037Y-87476627D01*
X106714641Y-87300000D01*
X106732037Y-87123373D01*
X106766384Y-87010147D01*
X106783557Y-86953533D01*
X106867221Y-86797011D01*
X106867222Y-86797009D01*
X106896552Y-86761271D01*
X106979814Y-86659814D01*
X107081271Y-86576552D01*
X107117009Y-86547222D01*
X107217408Y-86493557D01*
X107273533Y-86463557D01*
X107344476Y-86442037D01*
X107443373Y-86412037D01*
X107509557Y-86405519D01*
X107575740Y-86399000D01*
X107664260Y-86399000D01*
X107730443Y-86405519D01*
X107730443Y-86405519D01*
G37*
G36*
X127410442Y-83895518D02*
X127476627Y-83902037D01*
X127589853Y-83936384D01*
X127646467Y-83953557D01*
X127785087Y-84027652D01*
X127802991Y-84037222D01*
X127838729Y-84066552D01*
X127940186Y-84149814D01*
X128023448Y-84251271D01*
X128052778Y-84287009D01*
X128052779Y-84287011D01*
X128136443Y-84443533D01*
X128136443Y-84443534D01*
X128187963Y-84613373D01*
X128205359Y-84790000D01*
X128187963Y-84966627D01*
X128153616Y-85079853D01*
X128136443Y-85136467D01*
X128062348Y-85275087D01*
X128052778Y-85292991D01*
X128023448Y-85328729D01*
X127940186Y-85430186D01*
X127839546Y-85512778D01*
X127802991Y-85542778D01*
X127802989Y-85542779D01*
X127646467Y-85626443D01*
X127589853Y-85643616D01*
X127476627Y-85677963D01*
X127410443Y-85684481D01*
X127344260Y-85691000D01*
X127255740Y-85691000D01*
X127189557Y-85684481D01*
X127123373Y-85677963D01*
X127010147Y-85643616D01*
X126953533Y-85626443D01*
X126797011Y-85542779D01*
X126797009Y-85542778D01*
X126760454Y-85512778D01*
X126659814Y-85430186D01*
X126576552Y-85328729D01*
X126547222Y-85292991D01*
X126537652Y-85275087D01*
X126463557Y-85136467D01*
X126446384Y-85079853D01*
X126412037Y-84966627D01*
X126394641Y-84790000D01*
X126412037Y-84613373D01*
X126463557Y-84443534D01*
X126463557Y-84443533D01*
X126547221Y-84287011D01*
X126547222Y-84287009D01*
X126576552Y-84251271D01*
X126659814Y-84149814D01*
X126761271Y-84066552D01*
X126797009Y-84037222D01*
X126814913Y-84027652D01*
X126953533Y-83953557D01*
X127010147Y-83936384D01*
X127123373Y-83902037D01*
X127189558Y-83895518D01*
X127255740Y-83889000D01*
X127344260Y-83889000D01*
X127410442Y-83895518D01*
X127410442Y-83895518D01*
G37*
G36*
X112290443Y-83865519D02*
X112356627Y-83872037D01*
X112455524Y-83902037D01*
X112526467Y-83923557D01*
X112582592Y-83953557D01*
X112682991Y-84007222D01*
X112718729Y-84036552D01*
X112820186Y-84119814D01*
X112903448Y-84221271D01*
X112932778Y-84257009D01*
X112932779Y-84257011D01*
X113016443Y-84413533D01*
X113033616Y-84470147D01*
X113067963Y-84583373D01*
X113085359Y-84760000D01*
X113067963Y-84936627D01*
X113033616Y-85049853D01*
X113016443Y-85106467D01*
X113000408Y-85136466D01*
X112932778Y-85262991D01*
X112908159Y-85292989D01*
X112820186Y-85400186D01*
X112718729Y-85483448D01*
X112682991Y-85512778D01*
X112682989Y-85512779D01*
X112526467Y-85596443D01*
X112469853Y-85613616D01*
X112356627Y-85647963D01*
X112290443Y-85654481D01*
X112224260Y-85661000D01*
X112135740Y-85661000D01*
X112069557Y-85654481D01*
X112003373Y-85647963D01*
X111890147Y-85613616D01*
X111833533Y-85596443D01*
X111677011Y-85512779D01*
X111677009Y-85512778D01*
X111641271Y-85483448D01*
X111539814Y-85400186D01*
X111451841Y-85292989D01*
X111427222Y-85262991D01*
X111359592Y-85136466D01*
X111343557Y-85106467D01*
X111326384Y-85049853D01*
X111292037Y-84936627D01*
X111274641Y-84760000D01*
X111292037Y-84583373D01*
X111326384Y-84470147D01*
X111343557Y-84413533D01*
X111427221Y-84257011D01*
X111427222Y-84257009D01*
X111456552Y-84221271D01*
X111539814Y-84119814D01*
X111641271Y-84036552D01*
X111677009Y-84007222D01*
X111777408Y-83953557D01*
X111833533Y-83923557D01*
X111904476Y-83902037D01*
X112003373Y-83872037D01*
X112069557Y-83865519D01*
X112135740Y-83859000D01*
X112224260Y-83859000D01*
X112290443Y-83865519D01*
X112290443Y-83865519D01*
G37*
G36*
X107730443Y-83865519D02*
X107796627Y-83872037D01*
X107895524Y-83902037D01*
X107966467Y-83923557D01*
X108022592Y-83953557D01*
X108122991Y-84007222D01*
X108158729Y-84036552D01*
X108260186Y-84119814D01*
X108343448Y-84221271D01*
X108372778Y-84257009D01*
X108372779Y-84257011D01*
X108456443Y-84413533D01*
X108473616Y-84470147D01*
X108507963Y-84583373D01*
X108525359Y-84760000D01*
X108507963Y-84936627D01*
X108473616Y-85049853D01*
X108456443Y-85106467D01*
X108440408Y-85136466D01*
X108372778Y-85262991D01*
X108348159Y-85292989D01*
X108260186Y-85400186D01*
X108158729Y-85483448D01*
X108122991Y-85512778D01*
X108122989Y-85512779D01*
X107966467Y-85596443D01*
X107909853Y-85613616D01*
X107796627Y-85647963D01*
X107730443Y-85654481D01*
X107664260Y-85661000D01*
X107575740Y-85661000D01*
X107509557Y-85654481D01*
X107443373Y-85647963D01*
X107330147Y-85613616D01*
X107273533Y-85596443D01*
X107117011Y-85512779D01*
X107117009Y-85512778D01*
X107081271Y-85483448D01*
X106979814Y-85400186D01*
X106891841Y-85292989D01*
X106867222Y-85262991D01*
X106799592Y-85136466D01*
X106783557Y-85106467D01*
X106766384Y-85049853D01*
X106732037Y-84936627D01*
X106714641Y-84760000D01*
X106732037Y-84583373D01*
X106766384Y-84470147D01*
X106783557Y-84413533D01*
X106867221Y-84257011D01*
X106867222Y-84257009D01*
X106896552Y-84221271D01*
X106979814Y-84119814D01*
X107081271Y-84036552D01*
X107117009Y-84007222D01*
X107217408Y-83953557D01*
X107273533Y-83923557D01*
X107344476Y-83902037D01*
X107443373Y-83872037D01*
X107509557Y-83865519D01*
X107575740Y-83859000D01*
X107664260Y-83859000D01*
X107730443Y-83865519D01*
X107730443Y-83865519D01*
G37*
G36*
X92490443Y-83865519D02*
X92556627Y-83872037D01*
X92655524Y-83902037D01*
X92726467Y-83923557D01*
X92782592Y-83953557D01*
X92882991Y-84007222D01*
X92918729Y-84036552D01*
X93020186Y-84119814D01*
X93103448Y-84221271D01*
X93132778Y-84257009D01*
X93132779Y-84257011D01*
X93216443Y-84413533D01*
X93233616Y-84470147D01*
X93267963Y-84583373D01*
X93285359Y-84760000D01*
X93267963Y-84936627D01*
X93233616Y-85049853D01*
X93216443Y-85106467D01*
X93200408Y-85136466D01*
X93132778Y-85262991D01*
X93108159Y-85292989D01*
X93020186Y-85400186D01*
X92918729Y-85483448D01*
X92882991Y-85512778D01*
X92882989Y-85512779D01*
X92726467Y-85596443D01*
X92669853Y-85613616D01*
X92556627Y-85647963D01*
X92490443Y-85654481D01*
X92424260Y-85661000D01*
X92335740Y-85661000D01*
X92269557Y-85654481D01*
X92203373Y-85647963D01*
X92090147Y-85613616D01*
X92033533Y-85596443D01*
X91877011Y-85512779D01*
X91877009Y-85512778D01*
X91841271Y-85483448D01*
X91739814Y-85400186D01*
X91651841Y-85292989D01*
X91627222Y-85262991D01*
X91559592Y-85136466D01*
X91543557Y-85106467D01*
X91526384Y-85049853D01*
X91492037Y-84936627D01*
X91474641Y-84760000D01*
X91492037Y-84583373D01*
X91526384Y-84470147D01*
X91543557Y-84413533D01*
X91627221Y-84257011D01*
X91627222Y-84257009D01*
X91656552Y-84221271D01*
X91739814Y-84119814D01*
X91841271Y-84036552D01*
X91877009Y-84007222D01*
X91977408Y-83953557D01*
X92033533Y-83923557D01*
X92104476Y-83902037D01*
X92203373Y-83872037D01*
X92269557Y-83865519D01*
X92335740Y-83859000D01*
X92424260Y-83859000D01*
X92490443Y-83865519D01*
X92490443Y-83865519D01*
G37*
G36*
X103237142Y-83018242D02*
X103385102Y-83079530D01*
X103447166Y-83121000D01*
X103492065Y-83151000D01*
X103518258Y-83168502D01*
X103631498Y-83281742D01*
X103720470Y-83414898D01*
X103781758Y-83562858D01*
X103813000Y-83719925D01*
X103813000Y-83880075D01*
X103781758Y-84037142D01*
X103747513Y-84119815D01*
X103720471Y-84185100D01*
X103631499Y-84318257D01*
X103518257Y-84431499D01*
X103500245Y-84443534D01*
X103385102Y-84520470D01*
X103237142Y-84581758D01*
X103080075Y-84613000D01*
X102919925Y-84613000D01*
X102762858Y-84581758D01*
X102614898Y-84520470D01*
X102499755Y-84443534D01*
X102481743Y-84431499D01*
X102368501Y-84318257D01*
X102279529Y-84185100D01*
X102252487Y-84119815D01*
X102218242Y-84037142D01*
X102187000Y-83880075D01*
X102187000Y-83719925D01*
X102218242Y-83562858D01*
X102279530Y-83414898D01*
X102368502Y-83281742D01*
X102481742Y-83168502D01*
X102507936Y-83151000D01*
X102552834Y-83121000D01*
X102614898Y-83079530D01*
X102762858Y-83018242D01*
X102919925Y-82987000D01*
X103080075Y-82987000D01*
X103237142Y-83018242D01*
X103237142Y-83018242D01*
G37*
G36*
X101237142Y-83018242D02*
X101385102Y-83079530D01*
X101447166Y-83121000D01*
X101492065Y-83151000D01*
X101518258Y-83168502D01*
X101631498Y-83281742D01*
X101720470Y-83414898D01*
X101781758Y-83562858D01*
X101813000Y-83719925D01*
X101813000Y-83880075D01*
X101781758Y-84037142D01*
X101747513Y-84119815D01*
X101720471Y-84185100D01*
X101631499Y-84318257D01*
X101518257Y-84431499D01*
X101500245Y-84443534D01*
X101385102Y-84520470D01*
X101237142Y-84581758D01*
X101080075Y-84613000D01*
X100919925Y-84613000D01*
X100762858Y-84581758D01*
X100614898Y-84520470D01*
X100499755Y-84443534D01*
X100481743Y-84431499D01*
X100368501Y-84318257D01*
X100279529Y-84185100D01*
X100252487Y-84119815D01*
X100218242Y-84037142D01*
X100187000Y-83880075D01*
X100187000Y-83719925D01*
X100218242Y-83562858D01*
X100279530Y-83414898D01*
X100368502Y-83281742D01*
X100481742Y-83168502D01*
X100507936Y-83151000D01*
X100552834Y-83121000D01*
X100614898Y-83079530D01*
X100762858Y-83018242D01*
X100919925Y-82987000D01*
X101080075Y-82987000D01*
X101237142Y-83018242D01*
X101237142Y-83018242D01*
G37*
G36*
X99237142Y-83018242D02*
X99385102Y-83079530D01*
X99447166Y-83121000D01*
X99492065Y-83151000D01*
X99518258Y-83168502D01*
X99631498Y-83281742D01*
X99720470Y-83414898D01*
X99781758Y-83562858D01*
X99813000Y-83719925D01*
X99813000Y-83880075D01*
X99781758Y-84037142D01*
X99747513Y-84119815D01*
X99720471Y-84185100D01*
X99631499Y-84318257D01*
X99518257Y-84431499D01*
X99500245Y-84443534D01*
X99385102Y-84520470D01*
X99237142Y-84581758D01*
X99080075Y-84613000D01*
X98919925Y-84613000D01*
X98762858Y-84581758D01*
X98614898Y-84520470D01*
X98499755Y-84443534D01*
X98481743Y-84431499D01*
X98368501Y-84318257D01*
X98279529Y-84185100D01*
X98252487Y-84119815D01*
X98218242Y-84037142D01*
X98187000Y-83880075D01*
X98187000Y-83719925D01*
X98218242Y-83562858D01*
X98279530Y-83414898D01*
X98368502Y-83281742D01*
X98481742Y-83168502D01*
X98507936Y-83151000D01*
X98552834Y-83121000D01*
X98614898Y-83079530D01*
X98762858Y-83018242D01*
X98919925Y-82987000D01*
X99080075Y-82987000D01*
X99237142Y-83018242D01*
X99237142Y-83018242D01*
G37*
G36*
X97813000Y-84613000D02*
X96187000Y-84613000D01*
X96187000Y-82987000D01*
X97813000Y-82987000D01*
X97813000Y-84613000D01*
X97813000Y-84613000D01*
G37*
G36*
X123037142Y-83018242D02*
X123185102Y-83079530D01*
X123247166Y-83121000D01*
X123292065Y-83151000D01*
X123318258Y-83168502D01*
X123431498Y-83281742D01*
X123520470Y-83414898D01*
X123581758Y-83562858D01*
X123613000Y-83719925D01*
X123613000Y-83880075D01*
X123581758Y-84037142D01*
X123547513Y-84119815D01*
X123520471Y-84185100D01*
X123431499Y-84318257D01*
X123318257Y-84431499D01*
X123300245Y-84443534D01*
X123185102Y-84520470D01*
X123037142Y-84581758D01*
X122880075Y-84613000D01*
X122719925Y-84613000D01*
X122562858Y-84581758D01*
X122414898Y-84520470D01*
X122299755Y-84443534D01*
X122281743Y-84431499D01*
X122168501Y-84318257D01*
X122079529Y-84185100D01*
X122052487Y-84119815D01*
X122018242Y-84037142D01*
X121987000Y-83880075D01*
X121987000Y-83719925D01*
X122018242Y-83562858D01*
X122079530Y-83414898D01*
X122168502Y-83281742D01*
X122281742Y-83168502D01*
X122307936Y-83151000D01*
X122352834Y-83121000D01*
X122414898Y-83079530D01*
X122562858Y-83018242D01*
X122719925Y-82987000D01*
X122880075Y-82987000D01*
X123037142Y-83018242D01*
X123037142Y-83018242D01*
G37*
G36*
X121037142Y-83018242D02*
X121185102Y-83079530D01*
X121247166Y-83121000D01*
X121292065Y-83151000D01*
X121318258Y-83168502D01*
X121431498Y-83281742D01*
X121520470Y-83414898D01*
X121581758Y-83562858D01*
X121613000Y-83719925D01*
X121613000Y-83880075D01*
X121581758Y-84037142D01*
X121547513Y-84119815D01*
X121520471Y-84185100D01*
X121431499Y-84318257D01*
X121318257Y-84431499D01*
X121300245Y-84443534D01*
X121185102Y-84520470D01*
X121037142Y-84581758D01*
X120880075Y-84613000D01*
X120719925Y-84613000D01*
X120562858Y-84581758D01*
X120414898Y-84520470D01*
X120299755Y-84443534D01*
X120281743Y-84431499D01*
X120168501Y-84318257D01*
X120079529Y-84185100D01*
X120052487Y-84119815D01*
X120018242Y-84037142D01*
X119987000Y-83880075D01*
X119987000Y-83719925D01*
X120018242Y-83562858D01*
X120079530Y-83414898D01*
X120168502Y-83281742D01*
X120281742Y-83168502D01*
X120307936Y-83151000D01*
X120352834Y-83121000D01*
X120414898Y-83079530D01*
X120562858Y-83018242D01*
X120719925Y-82987000D01*
X120880075Y-82987000D01*
X121037142Y-83018242D01*
X121037142Y-83018242D01*
G37*
G36*
X119037142Y-83018242D02*
X119185102Y-83079530D01*
X119247166Y-83121000D01*
X119292065Y-83151000D01*
X119318258Y-83168502D01*
X119431498Y-83281742D01*
X119520470Y-83414898D01*
X119581758Y-83562858D01*
X119613000Y-83719925D01*
X119613000Y-83880075D01*
X119581758Y-84037142D01*
X119547513Y-84119815D01*
X119520471Y-84185100D01*
X119431499Y-84318257D01*
X119318257Y-84431499D01*
X119300245Y-84443534D01*
X119185102Y-84520470D01*
X119037142Y-84581758D01*
X118880075Y-84613000D01*
X118719925Y-84613000D01*
X118562858Y-84581758D01*
X118414898Y-84520470D01*
X118299755Y-84443534D01*
X118281743Y-84431499D01*
X118168501Y-84318257D01*
X118079529Y-84185100D01*
X118052487Y-84119815D01*
X118018242Y-84037142D01*
X117987000Y-83880075D01*
X117987000Y-83719925D01*
X118018242Y-83562858D01*
X118079530Y-83414898D01*
X118168502Y-83281742D01*
X118281742Y-83168502D01*
X118307936Y-83151000D01*
X118352834Y-83121000D01*
X118414898Y-83079530D01*
X118562858Y-83018242D01*
X118719925Y-82987000D01*
X118880075Y-82987000D01*
X119037142Y-83018242D01*
X119037142Y-83018242D01*
G37*
G36*
X117613000Y-84613000D02*
X115987000Y-84613000D01*
X115987000Y-82987000D01*
X117613000Y-82987000D01*
X117613000Y-84613000D01*
X117613000Y-84613000D01*
G37*
G36*
X128201000Y-83151000D02*
X126399000Y-83151000D01*
X126399000Y-81349000D01*
X128201000Y-81349000D01*
X128201000Y-83151000D01*
X128201000Y-83151000D01*
G37*
G36*
X113081000Y-83121000D02*
X111279000Y-83121000D01*
X111279000Y-81319000D01*
X113081000Y-81319000D01*
X113081000Y-83121000D01*
X113081000Y-83121000D01*
G37*
G36*
X108521000Y-83121000D02*
X106719000Y-83121000D01*
X106719000Y-81319000D01*
X108521000Y-81319000D01*
X108521000Y-83121000D01*
X108521000Y-83121000D01*
G37*
G36*
X93281000Y-83121000D02*
X91479000Y-83121000D01*
X91479000Y-81319000D01*
X93281000Y-81319000D01*
X93281000Y-83121000D01*
X93281000Y-83121000D01*
G37*
G36*
X127755734Y-78573232D02*
X127965202Y-78659996D01*
X128153723Y-78785962D01*
X128314038Y-78946277D01*
X128440004Y-79134798D01*
X128526768Y-79344266D01*
X128571000Y-79566635D01*
X128571000Y-79793365D01*
X128526768Y-80015734D01*
X128440004Y-80225202D01*
X128314038Y-80413723D01*
X128153723Y-80574038D01*
X127965202Y-80700004D01*
X127755734Y-80786768D01*
X127533365Y-80831000D01*
X127306635Y-80831000D01*
X127084266Y-80786768D01*
X126874798Y-80700004D01*
X126686277Y-80574038D01*
X126525962Y-80413723D01*
X126399996Y-80225202D01*
X126313232Y-80015734D01*
X126269000Y-79793365D01*
X126269000Y-79566635D01*
X126313232Y-79344266D01*
X126399996Y-79134798D01*
X126525962Y-78946277D01*
X126686277Y-78785962D01*
X126874798Y-78659996D01*
X127084266Y-78573232D01*
X127306635Y-78529000D01*
X127533365Y-78529000D01*
X127755734Y-78573232D01*
X127755734Y-78573232D01*
G37*
G36*
X112515734Y-78573232D02*
X112725202Y-78659996D01*
X112913723Y-78785962D01*
X113074038Y-78946277D01*
X113200004Y-79134798D01*
X113286768Y-79344266D01*
X113331000Y-79566635D01*
X113331000Y-79793365D01*
X113286768Y-80015734D01*
X113200004Y-80225202D01*
X113074038Y-80413723D01*
X112913723Y-80574038D01*
X112725202Y-80700004D01*
X112515734Y-80786768D01*
X112293365Y-80831000D01*
X112066635Y-80831000D01*
X111844266Y-80786768D01*
X111634798Y-80700004D01*
X111446277Y-80574038D01*
X111285962Y-80413723D01*
X111159996Y-80225202D01*
X111073232Y-80015734D01*
X111029000Y-79793365D01*
X111029000Y-79566635D01*
X111073232Y-79344266D01*
X111159996Y-79134798D01*
X111285962Y-78946277D01*
X111446277Y-78785962D01*
X111634798Y-78659996D01*
X111844266Y-78573232D01*
X112066635Y-78529000D01*
X112293365Y-78529000D01*
X112515734Y-78573232D01*
X112515734Y-78573232D01*
G37*
G36*
X107955734Y-78573232D02*
X108165202Y-78659996D01*
X108353723Y-78785962D01*
X108514038Y-78946277D01*
X108640004Y-79134798D01*
X108726768Y-79344266D01*
X108771000Y-79566635D01*
X108771000Y-79793365D01*
X108726768Y-80015734D01*
X108640004Y-80225202D01*
X108514038Y-80413723D01*
X108353723Y-80574038D01*
X108165202Y-80700004D01*
X107955734Y-80786768D01*
X107733365Y-80831000D01*
X107506635Y-80831000D01*
X107284266Y-80786768D01*
X107074798Y-80700004D01*
X106886277Y-80574038D01*
X106725962Y-80413723D01*
X106599996Y-80225202D01*
X106513232Y-80015734D01*
X106469000Y-79793365D01*
X106469000Y-79566635D01*
X106513232Y-79344266D01*
X106599996Y-79134798D01*
X106725962Y-78946277D01*
X106886277Y-78785962D01*
X107074798Y-78659996D01*
X107284266Y-78573232D01*
X107506635Y-78529000D01*
X107733365Y-78529000D01*
X107955734Y-78573232D01*
X107955734Y-78573232D01*
G37*
G36*
X92715734Y-78573232D02*
X92925202Y-78659996D01*
X93113723Y-78785962D01*
X93274038Y-78946277D01*
X93400004Y-79134798D01*
X93486768Y-79344266D01*
X93531000Y-79566635D01*
X93531000Y-79793365D01*
X93486768Y-80015734D01*
X93400004Y-80225202D01*
X93274038Y-80413723D01*
X93113723Y-80574038D01*
X92925202Y-80700004D01*
X92715734Y-80786768D01*
X92493365Y-80831000D01*
X92266635Y-80831000D01*
X92044266Y-80786768D01*
X91834798Y-80700004D01*
X91646277Y-80574038D01*
X91485962Y-80413723D01*
X91359996Y-80225202D01*
X91273232Y-80015734D01*
X91229000Y-79793365D01*
X91229000Y-79566635D01*
X91273232Y-79344266D01*
X91359996Y-79134798D01*
X91485962Y-78946277D01*
X91646277Y-78785962D01*
X91834798Y-78659996D01*
X92044266Y-78573232D01*
X92266635Y-78529000D01*
X92493365Y-78529000D01*
X92715734Y-78573232D01*
X92715734Y-78573232D01*
G37*
M02*
